<?xml version="1.0" standalone="no"?>
<!DOCTYPE svg PUBLIC "-//W3C//DTD SVG 1.1//EN" "http://www.w3.org/Graphics/SVG/1.1/DTD/svg11.dtd" >
<svg xmlns="http://www.w3.org/2000/svg">
<metadata>
Created by FontPrep 20130207 at Fri Feb  5 09:44:50 2016
 By Andrea
Copyright (c) Christian Schwartz, 2007. All rights reserved.
</metadata>
<defs>
<font id="28487136336f85388c1785af9bb82aef" horiz-adv-x='1024' >
  <font-face 
    font-family="StagSans-MediumItalic"
    font-weight="500"
    font-style="italic"
    font-stretch="normal"
    units-per-em="2048"
    panose-1="2 11 6 3 4 0 0 2 0 4"
    ascent="1638"
    descent="-410"
    x-height="1075"
    cap-height="1434"
    bbox="-485 -453 2429 1894"
    underline-thickness="102"
    underline-position="-102"
    slope="-12"
    unicode-range="U+0020-FB02"
  />
<missing-glyph horiz-adv-x="1024" 
 />
    <glyph glyph-name="f_f" unicode="ff" horiz-adv-x="1304" 
d="M670 1442q113 0 178 -29l-39 -178h-57q-72 -1 -109 -21t-51 -79l-14 -60h319l18 82q68 297 375 297q119 0 185 -29l-39 -178h-64q-74 0 -110 -20t-50 -80l-16 -72h184l-43 -201h-186l-197 -874h-290l190 874h-322l-196 -874h-291l191 874h-127l43 201h127l16 70
q70 297 375 297z" />
    <glyph glyph-name=".notdef" horiz-adv-x="1024" 
 />
    <glyph glyph-name=".null" horiz-adv-x="0" 
 />
    <glyph glyph-name="nonmarkingreturn" horiz-adv-x="681" 
 />
    <glyph glyph-name="space" unicode=" " horiz-adv-x="389" 
 />
    <glyph glyph-name="exclam" unicode="!" horiz-adv-x="540" 
d="M173 -12q-71 0 -116 46t-45 116t54 118q54 49 124 49t116 -47q46 -48 46 -116t-54 -117t-125 -49zM141 422l138 835l40 177h320l-41 -177l-268 -835h-189z" />
    <glyph glyph-name="quotedbl" unicode="&#x22;" horiz-adv-x="755" 
d="M578 975l22 309l35 150h278l-34 -150l-125 -309h-176zM207 975l22 309l35 150h279l-35 -150l-125 -309h-176z" />
    <glyph glyph-name="numbersign" unicode="#" horiz-adv-x="1032" 
d="M442 633h187l57 217h-186zM66 0l110 410h-153l51 223h166l57 217h-158l54 223h165l97 361h202l-96 -361h187l96 361h203l-97 -361h160l-53 -223h-168l-58 -217h160l-51 -223h-172l-111 -410h-202l110 410h-186l-111 -410h-202z" />
    <glyph glyph-name="dollar" unicode="$" horiz-adv-x="1073" 
d="M420 1060q0 -68 26 -101q26 -34 86 -64l80 344q-82 -11 -137 -61t-55 -118zM731 412q0 51 -26 84q-27 33 -91 63l-82 -356q199 33 199 209zM154 1006q0 202 141 322t367 122l26 115h182l-30 -133q152 -31 260 -117l-45 -193h-105q-74 78 -159 103l-93 -400
q154 -61 237 -148t83 -235q0 -210 -146 -332t-391 -126l-43 -193h-182l47 207q-193 33 -317 145l47 207h106q84 -113 213 -141l97 418q-295 121 -295 379z" />
    <glyph glyph-name="percent" unicode="%" horiz-adv-x="1679" 
d="M1210 -16q-141 0 -229 84t-88 219q0 186 120 324t300 139q141 0 228 -84t87 -226q0 -182 -120 -319t-298 -137zM1229 152q82 0 127 96t45 198q0 135 -105 136q-82 0 -128 -98t-46 -201q1 -131 107 -131zM123 -70l1288 1563h223l-1288 -1563h-223zM451 684q-141 0 -230 85
q-88 85 -88 220q0 185 120 323t300 138q141 0 229 -84t88 -225q0 -182 -120 -320q-121 -137 -299 -137zM537 1282q-57 0 -99 -53q-73 -91 -76 -246q1 -129 107 -131q55 0 97 52q75 93 75 235q0 143 -104 143z" />
    <glyph glyph-name="ampersand" unicode="&#x26;" horiz-adv-x="1392" 
d="M574 207q110 0 202 72l-287 391q-150 -84 -149 -258q0 -96 62 -151q62 -54 172 -54zM505 -18q-212 0 -349 100t-138 301q0 153 106 271t275 175q-33 86 -32 170q0 195 139 323q138 128 356 128t344 -84l-45 -229h-110q-73 80 -171 80q-98 -1 -154 -55t-56 -143t80 -198
l225 -309q115 207 137 336h250v-66q-68 -236 -242 -469l164 -231l6 -82h-309l-80 111q-184 -129 -396 -129z" />
    <glyph glyph-name="quotesingle" unicode="'" horiz-adv-x="385" 
d="M209 975l20 309l35 150h279l-35 -150l-123 -309h-176z" />
    <glyph glyph-name="parenleft" unicode="(" horiz-adv-x="690" 
d="M88 522q0 348 193 632t516 364h82l-50 -205q-207 -76 -335 -295t-127 -502q0 -332 182 -420l-45 -196h-64q-154 61 -253 217t-99 405z" />
    <glyph glyph-name="parenright" unicode=")" horiz-adv-x="690" 
d="M412 901q0 332 -183 420l45 197h64q154 -62 253 -218t99 -405q0 -348 -192 -632t-516 -363h-82l49 204q207 76 335 295t128 502z" />
    <glyph glyph-name="asterisk" unicode="*" horiz-adv-x="782" 
d="M553 754l-39 82l-20 157l-99 -157l-71 -70l-148 160l74 67l147 76l-145 18l-84 37l108 205l84 -37l111 -106l-14 153l22 95h232l-27 -111l-80 -152l148 78l92 19l26 -219l-96 -19l-151 17l106 -107l37 -80z" />
    <glyph glyph-name="plus" unicode="+" horiz-adv-x="1042" 
d="M322 205l88 385h-365l55 235h365l88 385h250l-88 -385h362l-55 -235h-363l-88 -385h-249z" />
    <glyph glyph-name="comma" unicode="," horiz-adv-x="417" 
d="M-47 150q0 72 50 119q50 48 122 48t120 -47t48 -123q-1 -170 -115 -266t-311 -106l29 131q68 6 110 31t43 51q0 26 -30 45l-15 10q-51 35 -51 107z" />
    <glyph glyph-name="hyphen" unicode="-" horiz-adv-x="579" 
d="M43 487l57 244h473l-57 -244h-473z" />
    <glyph glyph-name="period" unicode="." horiz-adv-x="415" 
d="M116 -12q-71 0 -116 46t-45 116t53 118q53 49 124 49t117 -47q46 -48 46 -116t-54 -117t-125 -49z" />
    <glyph glyph-name="slash" unicode="/" horiz-adv-x="720" 
d="M-109 -100v61l799 1557h223v-62l-800 -1556h-222z" />
    <glyph glyph-name="zero" unicode="0" horiz-adv-x="1368" 
d="M618 -16q-242 0 -385 146t-143 384t84 448q84 208 260 348t414 140t378 -148t140 -399q0 -354 -189 -628q-91 -131 -237 -211t-322 -80zM626 207q116 0 201 76q84 77 129 191q93 237 93 437q0 313 -220 314q-109 0 -195 -78q-141 -129 -203 -423q-24 -114 -23 -206
q0 -150 51 -230t167 -81z" />
    <glyph glyph-name="one" unicode="1" horiz-adv-x="778" 
d="M170 0l250 1090l-191 -91h-82l52 222l407 213h213l-330 -1434h-319z" />
    <glyph glyph-name="two" unicode="2" horiz-adv-x="1095" 
d="M803 1059q0 154 -193 153q-147 0 -311 -96h-100l53 232q182 102 400 102t346 -94q126 -94 126 -270t-108 -307q-108 -130 -340 -296l-324 -233h617l-58 -250h-989l58 252l495 377q150 113 239 218t89 212z" />
    <glyph glyph-name="three" unicode="3" horiz-adv-x="1069" 
d="M424 -16q-289 0 -453 153l49 211h115q94 -131 279 -135q116 -2 190 53t74 156q0 197 -229 196h-97l51 224h123q117 0 191 53t74 149q0 176 -185 181q-145 2 -274 -82h-117l49 215q168 94 364 94t317 -77q142 -87 140 -294q0 -141 -86 -234t-231 -126v-8q100 -27 158 -106
t59 -191q1 -200 -159 -316t-402 -116z" />
    <glyph glyph-name="four" unicode="4" horiz-adv-x="1214" 
d="M301 526h393l121 525h-8l-506 -516v-9zM573 0l70 303h-639l62 266l847 865h304l-209 -908h172l-52 -223h-172l-69 -303h-314z" />
    <glyph glyph-name="five" unicode="5" horiz-adv-x="1116" 
d="M1055 526q-1 -250 -181 -396t-458 -146t-432 137l49 209h121q88 -119 268 -119q129 0 220 81t91 216q0 88 -52 136t-134 48q-137 0 -230 -96h-182l193 838h846l-58 -250h-616l-78 -334h6q92 70 252 70t268 -104t107 -290z" />
    <glyph glyph-name="six" unicode="6" horiz-adv-x="1243" 
d="M650 696q-116 0 -238 -78q-8 -68 -9 -151q0 -276 207 -277q117 0 188 86t70 226q0 194 -218 194zM1174 496q0 -208 -160 -360t-404 -152t-383 133q-137 133 -137 377q0 342 166 598q233 356 655 356q227 0 361 -94l-51 -211h-117q-74 80 -203 80q-240 0 -373 -222
q-57 -94 -86 -215q148 121 330 121t292 -102t110 -309z" />
    <glyph glyph-name="seven" unicode="7" horiz-adv-x="1069" 
d="M137 0v125l781 1051v8h-721l57 250h969l-64 -273l-706 -1161h-316z" />
    <glyph glyph-name="eight" unicode="8" horiz-adv-x="1220" 
d="M716 862q85 0 147 54q63 54 63 142t-48 132q-48 45 -140 45t-152 -56q-62 -55 -62 -145t54 -131t138 -41zM838 442q0 104 -56 161q-56 59 -178 59q-120 0 -196 -78t-76 -182t66 -158t178 -54q114 0 188 74t74 178zM551 -18q-151 0 -251 37t-154 79t-89 112
q-35 71 -34 161q0 164 100 264t262 137v8q-76 37 -119 103t-43 143q0 196 152 310t375 114t349 -98t126 -269q0 -135 -78 -218t-207 -113v-9q207 -88 207 -304q0 -217 -163 -337t-433 -120z" />
    <glyph glyph-name="nine" unicode="9" horiz-adv-x="1243" 
d="M657 737q143 0 261 68q8 73 8 181t-48 180t-162 73q-114 0 -192 -87t-78 -230q0 -185 211 -185zM408 -18q-223 0 -371 92l49 207h117q78 -74 213 -74q223 0 344 147q90 109 129 279q-139 -111 -331 -111t-301 98q-108 98 -107 271q0 239 166 397t406 158q238 0 378 -132
t139 -364q0 -424 -215 -696t-616 -272z" />
    <glyph glyph-name="colon" unicode=":" horiz-adv-x="415" 
d="M247 582q-71 0 -116 46t-45 116t53 118q53 49 124 49t117 -47q46 -48 46 -116t-54 -117t-125 -49zM112 -12q-71 0 -116 46t-45 116t53 118q53 49 124 49t117 -47q46 -48 46 -116t-54 -117t-125 -49z" />
    <glyph glyph-name="semicolon" unicode=";" horiz-adv-x="415" 
d="M247 582q-71 0 -116 46t-45 116t53 118q53 49 124 49t117 -47q46 -48 46 -116t-54 -117t-125 -49zM-51 150q0 72 51 119q51 48 122 48t119 -47t48 -123q-1 -170 -115 -266t-311 -106l28 131q68 6 111 31t43 51t-30 45l-15 10q-51 35 -51 107z" />
    <glyph glyph-name="less" unicode="&#x3c;" horiz-adv-x="892" 
d="M700 180l-655 402l45 198l840 389h69l-55 -233l-579 -266v-6l454 -271l-49 -213h-70z" />
    <glyph glyph-name="equal" unicode="=" horiz-adv-x="997" 
d="M90 741l53 236h916l-53 -236h-916zM-10 311l55 236h916l-56 -236h-915z" />
    <glyph glyph-name="greater" unicode="&#x3e;" horiz-adv-x="892" 
d="M-41 180l53 234l580 266v6l-453 270l49 213h70l655 -401l-45 -199l-839 -389h-70z" />
    <glyph glyph-name="question" unicode="?" horiz-adv-x="919" 
d="M457 154q-1 -68 -55 -117t-125 -49t-115 46t-45 116q0 70 53 118q53 49 124 49t117 -47q46 -48 46 -116zM676 1096q0 123 -152 123q-119 0 -223 -72h-117l52 223q138 82 330 82t308 -80t117 -256q0 -236 -293 -407q-129 -75 -186 -133t-74 -154h-213q12 137 58 229
t211 204q114 80 136 114q46 70 46 127z" />
    <glyph glyph-name="at" unicode="@" horiz-adv-x="1775" 
d="M809 322q92 0 166 79l78 334q-45 16 -99 17q-102 0 -167 -96t-64 -228q0 -106 86 -106zM51 482q0 200 83 372t216 282t295 170t324 60q338 0 560 -177t222 -493q0 -272 -143 -416q-142 -144 -360 -144t-265 128q-109 -129 -266 -129q-119 0 -189 75t-69 218
q0 196 127 354t332 158q127 0 208 -82q57 70 148 70h94l-113 -498q-25 -117 62 -117q101 1 161 97t60 286q0 232 -152 360t-420 128t-470 -175q-98 -85 -158 -223t-59 -309q1 -297 165 -433t450 -136t519 137h72l-43 -190q-219 -129 -555 -129t-577 173q-120 87 -189 235
q-70 148 -70 348z" />
    <glyph glyph-name="A" unicode="A" horiz-adv-x="1361" 
d="M774 1126l-278 -528h338l-56 528h-4zM-70 0v84l762 1350h342l178 -1350v-84h-313l-41 379h-477l-199 -379h-252z" />
    <glyph glyph-name="B" unicode="B" horiz-adv-x="1245" 
d="M674 852q252 0 252 205q0 152 -187 151h-139l-80 -356h154zM578 225q124 1 194 59t70 179q0 84 -50 131t-147 47h-176l-96 -416h205zM760 1434q223 0 348 -90t125 -261q0 -270 -307 -342v-8q233 -49 233 -278t-170 -342t-432 -113h-549l330 1434h422z" />
    <glyph glyph-name="C" unicode="C" horiz-adv-x="1263" 
d="M715 -16q-285 0 -454 145t-169 432q0 168 55 326q55 157 157 283t260 203q159 77 349 77q246 0 398 -102l-49 -213h-113q-93 84 -235 84t-239 -65t-151 -168q-109 -209 -106 -429q0 -348 313 -348q152 0 285 92h121l-54 -231q-149 -86 -368 -86z" />
    <glyph glyph-name="D" unicode="D" horiz-adv-x="1417" 
d="M778 1434q293 0 457 -153t164 -433q0 -336 -199 -584q-96 -120 -253 -192t-349 -72h-590l330 1434h440zM588 225q133 -1 232 59q168 101 228 356q24 101 23 208q0 356 -299 356h-168l-225 -979h209z" />
    <glyph glyph-name="E" unicode="E" horiz-adv-x="1153" 
d="M8 0l330 1434h913l-53 -232h-594l-84 -364h438l-51 -220h-438l-90 -393h641l-51 -225h-961z" />
    <glyph glyph-name="F" unicode="F" horiz-adv-x="1116" 
d="M8 0l330 1434h932l-53 -232h-613l-92 -395h483l-49 -219h-483l-135 -588h-320z" />
    <glyph glyph-name="G" unicode="G" horiz-adv-x="1368" 
d="M718 -16q-280 0 -453 139t-173 424q0 172 54 333q54 160 156 288t262 205q161 77 356 77q260 0 421 -107l-51 -219h-108q-102 94 -283 95q-125 1 -222 -63t-151 -168q-112 -212 -110 -449q0 -336 319 -336q80 0 139 18l74 320h-198l47 207h512l-154 -670
q-157 -94 -437 -94z" />
    <glyph glyph-name="H" unicode="H" horiz-adv-x="1419" 
d="M8 0l330 1434h319l-135 -590h527l135 590h319l-329 -1434h-320l143 618h-528l-141 -618h-320z" />
    <glyph glyph-name="I" unicode="I" horiz-adv-x="587" 
d="M14 0l330 1434h322l-330 -1434h-322z" />
    <glyph glyph-name="J" unicode="J" horiz-adv-x="935" 
d="M289 -16q-215 0 -346 94l49 213h104q61 -78 178 -78q82 0 127 42t64 126l242 1053h321l-254 -1100q-82 -350 -485 -350z" />
    <glyph glyph-name="K" unicode="K" horiz-adv-x="1337" 
d="M1427 1434v-86l-532 -519l301 -743v-86h-299l-244 614l-235 -225l-90 -389h-320l330 1434h319l-151 -660l651 660h270z" />
    <glyph glyph-name="L" unicode="L" horiz-adv-x="1093" 
d="M8 0l330 1434h319l-278 -1209h577l-51 -225h-897z" />
    <glyph glyph-name="M" unicode="M" horiz-adv-x="1710" 
d="M8 0l330 1434h416l80 -953h6l514 953h440l-330 -1434h-315l250 1085h-6l-592 -1085h-193l-86 1085h-6l-250 -1085h-258z" />
    <glyph glyph-name="N" unicode="N" horiz-adv-x="1404" 
d="M8 0l330 1434h362l301 -918h7l213 918h268l-330 -1434h-291l-348 1042h-6l-240 -1042h-266z" />
    <glyph glyph-name="O" unicode="O" horiz-adv-x="1495" 
d="M707 -16q-283 0 -449 167t-166 439q0 225 92 420q92 196 270 318t406 122q281 0 449 -168t168 -438q0 -219 -87 -412q-87 -192 -267 -320t-416 -128zM717 205q109 0 195 62q153 109 213 370q26 109 26 213q0 164 -70 272t-227 107q-111 0 -198 -65q-150 -112 -213 -373
q-26 -109 -25 -209q0 -170 72 -274q73 -103 227 -103z" />
    <glyph glyph-name="P" unicode="P" horiz-adv-x="1220" 
d="M641 733q313 0 313 305q0 82 -49 124t-166 42h-135l-108 -471h145zM762 1434q500 0 500 -406q0 -254 -167 -382t-470 -128h-179l-118 -518h-320l330 1434h424z" />
    <glyph glyph-name="Q" unicode="Q" horiz-adv-x="1495" 
d="M721 203q109 0 195 62q152 109 210 372q25 109 25 213q0 164 -70 272t-227 107q-111 0 -198 -65q-150 -112 -213 -373q-26 -109 -25 -209q0 -379 303 -379zM92 578q0 236 92 432t270 318t406 122q281 0 449 -168t168 -444t-129 -484q-129 -207 -373 -282v-6l422 -72
l-56 -242h-122l-588 193q-272 90 -406 243q-133 154 -133 390z" />
    <glyph glyph-name="R" unicode="R" horiz-adv-x="1286" 
d="M670 776q293 0 293 262q0 166 -213 166h-146l-98 -428h164zM772 1434q498 0 498 -412q0 -154 -93 -264t-253 -162l215 -512v-84h-289l-221 561h-172l-129 -561h-320l330 1434h434z" />
    <glyph glyph-name="S" unicode="S" horiz-adv-x="1085" 
d="M1014 459q0 -227 -150 -351t-430 -124t-450 153l49 219h106q113 -145 328 -145q104 0 176 47t72 152q1 40 -13 66q-24 47 -124 89q-29 12 -109 43q-153 58 -229 148t-76 235q0 215 140 337t386 122t420 -137l-49 -207h-105q-123 117 -292 117q-92 0 -154 -44
q-62 -43 -61 -125q0 -82 47 -118q48 -36 200 -93q152 -59 235 -145t83 -239z" />
    <glyph glyph-name="T" unicode="T" horiz-adv-x="1169" 
d="M303 0l279 1208h-383l51 226h1085l-51 -226h-383l-278 -1208h-320z" />
    <glyph glyph-name="U" unicode="U" horiz-adv-x="1363" 
d="M620 -16q-276 0 -416 158t-75 438l197 854h319l-207 -893q-32 -143 18 -233t194 -89q144 0 218 70t111 229l211 916h266l-215 -934q-57 -248 -201 -382t-420 -134z" />
    <glyph glyph-name="V" unicode="V" horiz-adv-x="1306" 
d="M231 1434h306l94 -1065h4l573 1065h250v-84l-756 -1350h-327l-144 1350v84z" />
    <glyph glyph-name="W" unicode="W" horiz-adv-x="1878" 
d="M238 1434h299l8 -1041h4l473 1041h270l6 -1041h5l454 1041h264v-84l-632 -1350h-355l8 938h-4l-415 -938h-357l-28 1350v84z" />
    <glyph glyph-name="X" unicode="X" horiz-adv-x="1331" 
d="M-31 0v90l539 658l-244 595v91h303l193 -508l385 508h258v-91l-496 -618l258 -635v-90h-303l-209 549l-426 -549h-258z" />
    <glyph glyph-name="Y" unicode="Y" horiz-adv-x="1212" 
d="M219 1434h297l180 -594h4l430 594h244v-91l-590 -798l-125 -545h-319l133 575l-254 768v91z" />
    <glyph glyph-name="Z" unicode="Z" horiz-adv-x="1142" 
d="M862 1206h-596l53 228h967l-57 -248l-873 -957v-8h650l-50 -221h-1019l55 242l870 956v8z" />
    <glyph glyph-name="bracketleft" unicode="[" horiz-adv-x="692" 
d="M0 -100l375 1618h485l-47 -197h-207l-282 -1225h206l-45 -196h-485z" />
    <glyph glyph-name="backslash" unicode="\" horiz-adv-x="720" 
d="M197 1518h227l186 -1557v-61h-227l-186 1556v62z" />
    <glyph glyph-name="bracketright" unicode="]" horiz-adv-x="692" 
d="M-80 -100l45 196h207l283 1225h-207l47 197h485l-374 -1618h-486z" />
    <glyph glyph-name="asciicircum" unicode="^" horiz-adv-x="862" 
d="M139 926v69l379 439h215l195 -439v-69h-221l-121 264h-6l-228 -264h-213z" />
    <glyph glyph-name="underscore" unicode="_" horiz-adv-x="763" 
d="M-199 -332l45 191h770l-45 -191h-770z" />
    <glyph glyph-name="grave" unicode="`" 
d="M301 1434h283l78 -220v-63h-181l-180 197v86z" />
    <glyph glyph-name="a" unicode="a" horiz-adv-x="1042" 
d="M406 174q86 0 169 80l46 205q-67 16 -147 16t-134 -49t-53 -129q0 -123 119 -123zM719 0q-115 0 -148 102q-111 -115 -274 -114q-131 0 -211 76t-80 212q0 174 126 272t341 99q113 0 186 -24l9 39q49 215 -142 215q-150 0 -264 -66h-86l49 213q164 68 353 68
q233 0 334 -114t49 -347l-146 -631h-96z" />
    <glyph glyph-name="b" unicode="b" horiz-adv-x="1189" 
d="M705 870q-96 0 -234 -92l-121 -530q63 -68 168 -68q156 0 239 144t83 364q0 88 -37 135t-98 47zM502 1434q64 0 82 -31t-2 -137l-72 -312q137 137 321 138q131 0 219 -96t87 -289q0 -332 -156 -527t-406 -194q-184 0 -292 127q-86 -113 -207 -113h-84l327 1434h183z" />
    <glyph glyph-name="c" unicode="c" horiz-adv-x="991" 
d="M539 -14q-240 0 -362 118t-122 324q-1 291 185 477t462 187q197 0 316 -91l-45 -192h-109q-55 66 -170 65q-154 0 -249 -126t-95 -318q0 -231 211 -231q115 0 209 63h111l-47 -203q-117 -73 -295 -73z" />
    <glyph glyph-name="d" unicode="d" horiz-adv-x="1189" 
d="M346 391q0 -101 36 -151t126 -50t203 86l118 527q-68 63 -161 63q-146 0 -234 -134t-88 -341zM872 0q-150 0 -172 131q-121 -147 -291 -147t-265 96t-95 299q0 301 163 506t409 205q166 0 251 -101l103 445h180q63 0 81 -31t-1 -137l-289 -1266h-74z" />
    <glyph glyph-name="e" unicode="e" horiz-adv-x="1054" 
d="M596 901q-78 -1 -139 -67t-92 -183h378q8 39 9 80q0 170 -156 170zM505 -14q-214 0 -335 112t-121 328q0 274 158 470t416 196q190 0 289 -104t98 -283q0 -106 -35 -234h-635v-41q0 -125 51 -180t175 -55t245 75h96l-47 -207q-141 -77 -355 -77z" />
    <glyph glyph-name="f" unicode="f" horiz-adv-x="686" 
d="M672 1454q119 0 184 -29l-39 -178h-63q-74 0 -111 -20t-49 -80l-16 -72h184l-43 -201h-187l-196 -874h-291l191 874h-127l43 201h127l18 82q68 297 375 297z" />
    <glyph glyph-name="g" unicode="g" horiz-adv-x="1177" 
d="M479 254q117 0 246 102l106 469q-70 70 -167 70q-154 0 -236 -142t-82 -337q0 -162 133 -162zM373 -352q-244 0 -393 98l49 207h90q82 -88 252 -88q244 0 288 205l27 116q-135 -141 -315 -141q-139 0 -231 91q-91 91 -91 267q0 293 162 491t412 198q166 0 282 -121
q82 104 201 104h84l-234 -1012q-53 -227 -196 -321t-387 -94z" />
    <glyph glyph-name="h" unicode="h" horiz-adv-x="1171" 
d="M500 1434q64 0 82 -31t-2 -137l-72 -318q186 143 383 144q129 0 193 -100t28 -263l-168 -729h-199q-53 0 -68 28t1 105l133 596q27 125 -74 125q-113 0 -274 -98l-172 -756h-299l327 1434h181z" />
    <glyph glyph-name="i" unicode="i" horiz-adv-x="532" 
d="M428 1161q-68 0 -111 44t-43 110q0 67 50 113t118 46t112 -43q44 -44 44 -111t-51 -113t-119 -46zM403 1075q75 0 95 -34t-4 -162l-201 -879h-299l246 1075h163z" />
    <glyph glyph-name="j" unicode="j" horiz-adv-x="528" 
d="M428 1161q-68 0 -111 44t-43 110q0 67 50 113t118 46t112 -43q44 -44 44 -111t-51 -113t-119 -46zM-42 -344q-120 0 -200 29l39 165h37q76 0 107 24t47 99l252 1102h163q75 0 95 -34t-4 -162l-211 -924q-37 -163 -121 -231t-204 -68z" />
    <glyph glyph-name="k" unicode="k" horiz-adv-x="1073" 
d="M500 1434q64 0 82 -31t-2 -137l-138 -598l414 407h260v-78l-407 -374l247 -541v-82h-276l-199 434l-116 -110l-74 -324h-299l327 1434h181z" />
    <glyph glyph-name="l" unicode="l" horiz-adv-x="538" 
d="M502 1434q64 0 82 -31t-2 -137l-289 -1266h-299l328 1434h180z" />
    <glyph glyph-name="m" unicode="m" horiz-adv-x="1736" 
d="M332 1075q156 0 160 -147q190 164 362 164q84 0 142 -43t79 -123q201 166 387 166q130 0 192 -98t23 -265l-170 -729h-198q-53 0 -69 28q-15 28 1 105l133 596q27 125 -65 125q-82 0 -234 -92l-176 -762h-297l164 729q27 125 -66 125q-86 0 -233 -94l-174 -760h-301
l246 1075h94z" />
    <glyph glyph-name="n" unicode="n" horiz-adv-x="1171" 
d="M336 1075q150 0 156 -139q195 156 399 156q129 0 193 -100t28 -263l-168 -729h-199q-53 0 -68 28t1 105l133 596q27 125 -74 125q-113 0 -274 -98l-172 -756h-299l246 1075h98z" />
    <glyph glyph-name="o" unicode="o" horiz-adv-x="1165" 
d="M540 -12q-238 0 -361 121q-124 121 -124 329q0 291 171 472q172 182 404 182t356 -125t124 -336q0 -293 -166 -468t-404 -175zM537 195q131 0 205 130t75 312q0 242 -184 242q-127 -1 -206 -135t-79 -312q1 -237 189 -237z" />
    <glyph glyph-name="p" unicode="p" horiz-adv-x="1179" 
d="M705 870q-104 0 -230 -88l-117 -512q68 -59 168 -59q152 0 233 130t81 347q0 88 -37 135t-98 47zM336 1075q150 0 160 -137q139 154 323 154q141 0 229 -98t89 -300q0 -319 -153 -500t-400 -182q-166 0 -265 90l-98 -434h-303l320 1407h98z" />
    <glyph glyph-name="q" unicode="q" horiz-adv-x="1189" 
d="M485 215q113 0 234 100l115 502q-63 55 -175 55q-139 0 -226 -139t-87 -329t139 -189zM379 12q-141 0 -236 90q-94 90 -94 273q0 313 168 514t416 201q172 0 274 -121q84 106 203 106h84l-322 -1407h-301l107 465q-121 -121 -299 -121z" />
    <glyph glyph-name="r" unicode="r" horiz-adv-x="794" 
d="M332 1075q170 0 160 -178q135 188 311 188q31 0 61 -10l-55 -252h-37q-190 0 -315 -106l-164 -717h-301l246 1075h94z" />
    <glyph glyph-name="s" unicode="s" horiz-adv-x="888" 
d="M793 367q0 -175 -123 -277q-122 -102 -346 -102t-361 102l47 203h96q80 -94 245 -94t165 106q0 41 -31 64t-143 63t-179 106q-67 67 -67 185q0 168 117 265t321 97t343 -100l-46 -188h-90q-89 80 -233 80t-143 -103q-1 -38 31 -60t144 -62t183 -102q70 -64 70 -183z" />
    <glyph glyph-name="t" unicode="t" horiz-adv-x="710" 
d="M371 -16q-166 0 -234 92t-31 258l125 540h-116l43 201h118l66 287h299l-66 -287h193l-43 -201h-197l-125 -546q-16 -70 12 -105t109 -35h51l-38 -178q-70 -26 -166 -26z" />
    <glyph glyph-name="u" unicode="u" horiz-adv-x="1165" 
d="M840 0q-156 0 -170 141q-195 -158 -375 -157q-143 0 -209 95t-25 267l170 729h199q53 0 69 -27q15 -28 -1 -106l-133 -596q-27 -127 75 -127t250 92l174 764h299l-245 -1075h-78z" />
    <glyph glyph-name="v" unicode="v" horiz-adv-x="1060" 
d="M127 1075h285l86 -729h4l366 729h246v-78l-545 -997h-299l-143 997v78z" />
    <glyph glyph-name="w" unicode="w" horiz-adv-x="1576" 
d="M133 1075h281l41 -678h4l317 678h230l65 -678h4l301 678h240v-78l-488 -997h-258l-71 670h-4l-314 -670h-266l-82 997v78z" />
    <glyph glyph-name="x" unicode="x" horiz-adv-x="1069" 
d="M-51 0v78l409 485l-184 434v78h285l129 -327l268 327h246v-78l-383 -444l213 -475v-78h-285l-155 367l-297 -367h-246z" />
    <glyph glyph-name="y" unicode="y" horiz-adv-x="1060" 
d="M35 -332v80l248 367l-156 882v78h281l98 -641h4l358 641h246v-78l-807 -1329h-272z" />
    <glyph glyph-name="z" unicode="z" horiz-adv-x="970" 
d="M-70 0l47 207l646 657h-463l49 211h817l-47 -209l-651 -655h485l-49 -211h-834z" />
    <glyph glyph-name="braceleft" unicode="{" horiz-adv-x="751" 
d="M395 -100q-167 0 -235 74t-35 210l78 334q27 113 -80 113h-57l47 196h47q113 0 139 113l74 315q31 133 101 198q71 65 214 65h232l-48 -197h-151q-53 0 -70 -64l-71 -315q-43 -182 -236 -219v-6q172 -49 129 -238l-74 -319q-16 -63 45 -64h146l-45 -196h-150z" />
    <glyph glyph-name="bar" unicode="|" horiz-adv-x="512" 
d="M184 -100l2 1618h236l-2 -1618h-236z" />
    <glyph glyph-name="braceright" unicode="}" horiz-adv-x="751" 
d="M119 96q53 0 69 64l76 336q43 182 236 219v6q-172 49 -129 237l69 299q16 63 -45 64h-145l45 197h149q166 0 235 -74t36 -211l-74 -313q-27 -113 80 -113h57l-47 -197h-47q-113 0 -139 -112l-78 -336q-31 -133 -101 -198t-214 -64h-232l47 196h152z" />
    <glyph glyph-name="asciitilde" unicode="~" horiz-adv-x="806" 
d="M49 440v92q27 98 91 158t142 60t162 -28t101 -28q57 0 80 62h166v-92q-27 -100 -92 -158t-158 -60q-53 0 -141 28t-105 28q-57 0 -80 -62h-166z" />
    <glyph glyph-name="exclamdown" unicode="&#xa1;" horiz-adv-x="540" 
d="M419 1298q71 0 116 -46t45 -116t-54 -118q-54 -49 -124 -49t-116 47q-46 48 -46 116t54 117t125 49zM451 864l-138 -835l-41 -176h-319l41 176l268 835h189z" />
    <glyph glyph-name="cent" unicode="&#xa2;" horiz-adv-x="1058" 
d="M350 431q0 -163 123 -214l150 643q-129 -34 -201 -150t-72 -279zM55 436q0 270 177 454t444 200l26 116h183l-29 -123q123 -16 213 -82l-45 -192h-109q-41 43 -108 57l-154 -663q94 10 168 59h111l-47 -203q-104 -66 -283 -73l-45 -197h-182l47 209q-180 33 -274 148
q-93 116 -93 290z" />
    <glyph glyph-name="sterling" unicode="&#xa3;" horiz-adv-x="1044" 
d="M796 1450q232 0 363 -117l-47 -213h-108q-94 90 -230 90q-82 0 -148 -45t-85 -123q-18 -78 -23 -221h342l-47 -209h-299q-6 -78 -20 -141q-35 -137 -132 -221h613l-57 -250h-984l48 211q78 27 139 91t79 144q18 79 19 166h-145l47 209h90q-17 378 207 530q146 99 378 99z
" />
    <glyph glyph-name="yen" unicode="&#xa5;" horiz-adv-x="1191" 
d="M238 1434h288l168 -549h4l392 549h245v-91l-420 -552h261l-41 -179h-347l-24 -112h344l-41 -178h-344l-74 -322h-315l74 322h-345l41 178h345l24 112h-342l41 179h254l-188 552v91z" />
    <glyph glyph-name="brokenbar" unicode="&#xa6;" horiz-adv-x="509" 
d="M184 805v713h236v-713h-236zM184 -100v731h236v-731h-236z" />
    <glyph glyph-name="section" unicode="&#xa7;" horiz-adv-x="1073" 
d="M766 557q0 53 -41 87t-133 67q-66 20 -105 39q-81 -12 -121 -52t-40 -92q-1 -90 157 -147q123 -51 125 -51q158 43 158 149zM854 111q0 -175 -126 -277t-351 -102t-393 110l47 201h100q100 -100 244 -100q180 0 180 106q0 51 -48 88q-49 37 -185 87t-206 127t-71 192
q0 238 279 309q-76 76 -76 230t130 260q130 108 337 108t358 -92l-45 -201h-106q-94 74 -194 74t-154 -32q-52 -32 -52 -85t38 -85t186 -82t226 -124q79 -74 79 -189q0 -116 -68 -202t-213 -125q84 -78 84 -196z" />
    <glyph glyph-name="dieresis" unicode="&#xa8;" 
d="M780 1159q-64 0 -105 42q-40 42 -40 106q0 65 48 109q49 44 113 44t105 -43t41 -105t-49 -108q-49 -45 -113 -45zM386 1159q-64 0 -104 42t-40 106q0 65 48 109t112 44t106 -43t41 -105q0 -62 -49 -108q-50 -45 -114 -45z" />
    <glyph glyph-name="copyright" unicode="&#xa9;" horiz-adv-x="1597" 
d="M844 -16q-309 0 -522 196t-213 537t213 537t522 196t522 -197t213 -537t-213 -536t-522 -196zM844 88q262 0 435 168t173 461t-173 461t-435 168t-435 -168t-173 -461t173 -461t435 -168zM866 315q-192 1 -300 107t-108 294t119 300q118 111 300 110q139 0 245 -53v-172
h-92q-61 57 -150 57q-88 0 -138 -62t-50 -179q0 -233 180 -234q106 0 170 60h82v-156q-111 -72 -258 -72z" />
    <glyph glyph-name="ordfeminine" unicode="&#xaa;" horiz-adv-x="915" 
d="M477 690q74 0 158 66l35 151q-55 17 -126 17t-115 -36t-44 -104q0 -94 92 -94zM770 528q-117 0 -141 101q-92 -111 -258 -111q-119 0 -186 67t-66 179q1 154 113 234t298 79q90 0 172 -20l7 22q39 172 -129 172q-133 0 -236 -59h-82l47 197q143 61 337 61t285 -96
t46 -299l-121 -527h-86z" />
    <glyph glyph-name="guillemotleft" unicode="&#xab;" horiz-adv-x="1054" 
d="M1087 983v-65l-331 -398v-6l139 -367v-65h-238l-163 407l26 117l326 377h241zM655 983v-65l-331 -398v-6l139 -367v-65h-238l-164 407l27 117l326 377h241z" />
    <glyph glyph-name="registered" unicode="&#xae;" horiz-adv-x="790" 
d="M485 1108h37q49 0 49 49t-49 49h-37v-98zM485 1032v-129h-116v379h163q156 0 156 -125q0 -68 -59 -100l67 -117v-37h-110l-66 129h-35zM520 791q127 -1 209 75t82 217t-82 217t-209 76t-209 -76t-82 -217t82 -217t209 -75zM519 717q-155 0 -265 100t-111 267
q0 166 111 266q112 100 266 100t266 -99t111 -267q1 -168 -111 -267q-112 -100 -267 -100z" />
    <glyph glyph-name="macron" unicode="&#xaf;" 
d="M299 1196l47 201h533l-48 -201h-532z" />
    <glyph glyph-name="degree" unicode="&#xb0;" horiz-adv-x="712" 
d="M793 1160q-1 -128 -95 -210t-220 -82t-207 79t-81 206t94 210t221 83q126 0 207 -79t81 -207zM352 1154q0 -70 36 -109t98 -39t106 44q43 44 43 111t-37 107q-36 40 -100 41q-64 0 -105 -43q-41 -42 -41 -112z" />
    <glyph glyph-name="two.superior" unicode="&#xb2;" horiz-adv-x="688" 
d="M539 1200q0 72 -86 72t-154 -53h-78l39 170q102 57 240 57t209 -60t71 -154q0 -95 -63 -169t-201 -162l-131 -84h311l-41 -172h-575l41 178l244 176q174 123 174 201z" />
    <glyph glyph-name="three.superior" unicode="&#xb3;" horiz-adv-x="677" 
d="M354 633q-160 0 -266 88l33 143h80q63 -74 157 -73q53 1 87 25t34 65q0 86 -112 86h-66l35 147h88q53 0 84 24t31 62q0 80 -103 80q-61 0 -135 -41h-78l35 154q94 55 223 55t203 -52t74 -161q0 -160 -193 -199v-4q135 -33 135 -164q0 -109 -93 -172t-253 -63z" />
    <glyph glyph-name="acute" unicode="&#xb4;" 
d="M471 1151v63l107 220h290v-86l-235 -197h-162z" />
    <glyph glyph-name="paragraph" unicode="&#xb6;" horiz-adv-x="1212" 
d="M530 621q-164 0 -269 92q-105 91 -105 237t52 242q89 165 340 219q105 23 232 23h516l-374 -1620h-213l327 1411h-145l-328 -1411h-213l187 807h-7z" />
    <glyph glyph-name="periodcentered" unicode="&#xb7;" horiz-adv-x="415" 
d="M216 440q-71 0 -116 46t-45 116q-1 70 53 119t124 49t117 -47q46 -47 46 -116t-54 -118t-125 -49z" />
    <glyph glyph-name="cedilla" unicode="&#xb8;" 
d="M463 -182q1 -176 -237 -176q-106 0 -165 41l27 114h59q19 -29 77 -29t59 39q0 37 -66 37h-53l37 156h141l-12 -49q66 -2 100 -39t33 -94z" />
    <glyph glyph-name="one.superior" unicode="&#xb9;" horiz-adv-x="538" 
d="M227 645l127 553l-118 -55h-46l41 176l244 115h174l-182 -789h-240z" />
    <glyph glyph-name="ordmasculine" unicode="&#xba;" horiz-adv-x="1064" 
d="M1110 1061q0 -245 -158 -395t-362 -150q-203 0 -321 108t-117 281q0 245 156 395t356 150t323 -103t123 -286zM428 889q0 -178 173 -178q85 0 159 98t74 260q0 88 -41 140q-41 53 -128 53t-162 -98t-75 -275z" />
    <glyph glyph-name="guillemotright" unicode="&#xbb;" horiz-adv-x="1054" 
d="M406 82v65l331 398v6l-139 367v65h238l163 -408l-26 -116l-326 -377h-241zM-27 82v65l332 398v6l-139 367v65h237l164 -408l-26 -116l-326 -377h-242z" />
    <glyph glyph-name="onequarter" unicode="&#xbc;" horiz-adv-x="1486" 
d="M905 311h195l57 244h-6l-246 -240v-4zM1026 0l37 162h-358l40 174l463 452h217l-110 -477h82l-35 -149h-82l-37 -162h-217zM14 -70l1289 1563h223l-1288 -1563h-224zM225 645l127 553l-119 -55h-45l41 176l244 115h174l-182 -789h-240z" />
    <glyph glyph-name="onehalf" unicode="&#xbd;" horiz-adv-x="1583" 
d="M1284 555q0 72 -86 72t-154 -54h-77l39 170q102 57 239 57t209 -58q72 -60 72 -155t-65 -168t-204 -163l-131 -84h316l-41 -172h-576l41 178l244 176q174 123 174 201zM14 -70l1289 1563h223l-1288 -1563h-224zM225 645l127 553l-119 -55h-45l41 176l244 115h174
l-182 -789h-240z" />
    <glyph glyph-name="threequarters" unicode="&#xbe;" horiz-adv-x="1581" 
d="M999 311h195l57 244h-6l-246 -240v-4zM1120 0l37 162h-358l41 174l463 452h217l-111 -477h82l-35 -149h-82l-37 -162h-217zM121 -70l1288 1563h223l-1288 -1563h-223zM364 633q-160 0 -266 88l33 143h80q63 -74 156 -73q51 -1 83 23t31 67q0 86 -108 86h-62l35 147h84
q53 0 82 24t29 62q0 80 -95 80q-61 0 -135 -41h-78l35 154q94 55 224 55t202 -52q74 -52 74 -161q0 -160 -193 -199v-4q135 -33 136 -164q1 -109 -93 -172t-254 -63z" />
    <glyph glyph-name="questiondown" unicode="&#xbf;" horiz-adv-x="919" 
d="M524 1132q0 68 54 117t126 49t116 -46t44 -116t-53 -118q-53 -49 -124 -49t-117 47q-46 48 -46 116zM305 190q0 -123 152 -122q119 0 223 71h117l-52 -223q-139 -82 -331 -82t-308 80q-117 80 -116 256q0 236 293 408q129 76 186 133t74 153h213q-12 -137 -58 -229
t-211 -204q-114 -80 -136 -114q-46 -70 -46 -127z" />
    <glyph glyph-name="Agrave" unicode="&#xc0;" horiz-adv-x="1361" 
d="M967 1479h-181l-172 176v86h283l70 -199v-63zM774 1126l-278 -528h338l-56 528h-4zM-70 0v84l762 1350h342l178 -1350v-84h-313l-41 379h-477l-199 -379h-252z" />
    <glyph glyph-name="Aacute" unicode="&#xc1;" horiz-adv-x="1361" 
d="M766 1479v63l96 199h291v-86l-225 -176h-162zM774 1126l-278 -528h338l-56 528h-4zM-70 0v84l762 1350h342l178 -1350v-84h-313l-41 379h-477l-199 -379h-252z" />
    <glyph glyph-name="Acircumflex" unicode="&#xc2;" horiz-adv-x="1361" 
d="M774 1126l-278 -528h338l-56 528h-4zM569 1479v75l215 195h205l150 -195v-75h-168l-107 86l-143 -86h-152zM-70 0v84l762 1350h342l178 -1350v-84h-313l-41 379h-477l-199 -379h-252z" />
    <glyph glyph-name="Atilde" unicode="&#xc3;" horiz-adv-x="1361" 
d="M774 1126l-278 -528h338l-56 528h-4zM981 1481q-53 1 -123 29t-90 28q-51 0 -74 -59h-153v77q66 193 225 193q53 0 124 -27t91 -26q45 0 72 55h153v-78q-65 -192 -225 -192zM-70 0v84l762 1350h342l178 -1350v-84h-313l-41 379h-477l-199 -379h-252z" />
    <glyph glyph-name="Adieresis" unicode="&#xc4;" horiz-adv-x="1361" 
d="M1239 1631q0 -63 -49 -107q-50 -44 -114 -45q-64 0 -104 42q-40 41 -40 105t48 109t112 45t106 -43q41 -43 41 -106zM699 1780q63 0 105 -43t42 -106t-49 -107t-113 -45q-64 0 -105 42q-40 41 -40 105t48 109t112 45zM774 1126l-278 -528h338l-56 528h-4zM-70 0v84
l762 1350h342l178 -1350v-84h-313l-41 379h-477l-199 -379h-252z" />
    <glyph glyph-name="Aring" unicode="&#xc5;" horiz-adv-x="1361" 
d="M903 1610q35 0 59 24t24 59q-1 74 -73 74q-35 -1 -57 -25t-20 -65q-1 -67 67 -67zM774 1126l-278 -528h338l-56 528h-4zM903 1483q-90 0 -149 52q-60 52 -60 144q0 91 67 153t156 62t148 -53t59 -146t-65 -153q-66 -59 -156 -59zM-70 0v84l762 1350h342l178 -1350v-84
h-313l-41 379h-477l-199 -379h-252z" />
    <glyph glyph-name="AE" unicode="&#xc6;" horiz-adv-x="1908" 
d="M991 1202l-413 -600h323l139 600h-49zM-88 0v84l958 1350h1137l-53 -232h-594l-84 -364h438l-51 -220h-438l-90 -393h641l-52 -225h-960l88 383h-426l-262 -383h-252z" />
    <glyph glyph-name="Ccedilla" unicode="&#xc7;" horiz-adv-x="1263" 
d="M772 -182q0 -176 -236 -176q-106 0 -165 41l26 114h60q18 -29 76 -29t59 39q0 37 -66 37h-53l37 160q-198 47 -308 186t-110 371q0 168 55 326q55 157 157 283t260 203q159 77 349 77q246 0 398 -102l-49 -213h-113q-93 84 -235 84t-239 -65t-151 -168
q-109 -209 -106 -429q0 -348 313 -348q152 0 285 92h121l-54 -231q-149 -86 -368 -86l-68 2l-8 -35q65 -2 99 -39t34 -94z" />
    <glyph glyph-name="Egrave" unicode="&#xc8;" horiz-adv-x="1153" 
d="M901 1479h-180l-172 176v86h282l70 -199v-63zM8 0l330 1434h913l-53 -232h-594l-84 -364h438l-51 -220h-438l-90 -393h641l-51 -225h-961z" />
    <glyph glyph-name="Eacute" unicode="&#xc9;" horiz-adv-x="1153" 
d="M700 1479v63l97 199h290v-86l-225 -176h-162zM8 0l330 1434h913l-53 -232h-594l-84 -364h438l-51 -220h-438l-90 -393h641l-51 -225h-961z" />
    <glyph glyph-name="Ecircumflex" unicode="&#xca;" horiz-adv-x="1153" 
d="M504 1479v75l215 195h205l149 -195v-75h-168l-106 86l-144 -86h-151zM8 0l330 1434h913l-53 -232h-594l-84 -364h438l-51 -220h-438l-90 -393h641l-51 -225h-961z" />
    <glyph glyph-name="Edieresis" unicode="&#xcb;" horiz-adv-x="1153" 
d="M1026 1780q64 0 106 -43t42 -106t-49 -107t-113 -45q-64 0 -106 42q-40 41 -40 105t48 109t112 45zM780 1631q0 -63 -49 -107t-113 -45q-64 0 -105 42q-40 41 -40 105t48 109q49 45 113 45t105 -43t41 -106zM8 0l330 1434h913l-53 -232h-594l-84 -364h438l-51 -220h-438
l-90 -393h641l-51 -225h-961z" />
    <glyph glyph-name="Igrave" unicode="&#xcc;" horiz-adv-x="587" 
d="M616 1479h-180l-172 176v86h283l69 -199v-63zM14 0l330 1434h322l-330 -1434h-322z" />
    <glyph glyph-name="Iacute" unicode="&#xcd;" horiz-adv-x="587" 
d="M416 1479v63l96 199h291v-86l-225 -176h-162zM14 0l330 1434h322l-330 -1434h-322z" />
    <glyph glyph-name="Icircumflex" unicode="&#xce;" horiz-adv-x="587" 
d="M219 1479v75l215 195h205l149 -195v-75h-167l-107 86l-143 -86h-152zM14 0l330 1434h322l-330 -1434h-322z" />
    <glyph glyph-name="Idieresis" unicode="&#xcf;" horiz-adv-x="587" 
d="M742 1780q64 0 106 -43t41 -106q0 -63 -49 -107q-50 -44 -114 -45q-64 0 -104 42q-40 41 -40 105t48 109t112 45zM188 1626q0 64 48 109t113 45q63 0 105 -43t42 -106t-49 -107t-113 -45q-64 0 -106 42q-40 41 -40 105zM14 0l330 1434h322l-330 -1434h-322z" />
    <glyph glyph-name="Eth" unicode="&#xd0;" horiz-adv-x="1421" 
d="M588 225q133 -1 232 59q168 101 228 356q24 101 23 208q0 356 -299 356h-168l-88 -381h305l-49 -219h-307l-86 -379h209zM778 1434q293 0 457 -153t164 -433q0 -336 -199 -584q-96 -120 -253 -192t-349 -72h-590l139 604h-124l49 219h125l141 611h440z" />
    <glyph glyph-name="Ntilde" unicode="&#xd1;" horiz-adv-x="1404" 
d="M1085 1481q-53 1 -123 29t-90 28q-51 0 -73 -59h-154v77q66 193 225 193q53 0 124 -27t91 -26q45 0 72 55h154v-78q-66 -192 -226 -192zM8 0l330 1434h362l301 -918h7l213 918h268l-330 -1434h-291l-348 1042h-6l-240 -1042h-266z" />
    <glyph glyph-name="Ograve" unicode="&#xd2;" horiz-adv-x="1495" 
d="M997 1479h-180l-172 176v86h283l69 -199v-63zM707 -16q-283 0 -449 167t-166 439q0 225 92 420q92 196 270 318t406 122q281 0 449 -168t168 -438q0 -219 -87 -412q-87 -192 -267 -320t-416 -128zM717 205q109 0 195 62q153 109 213 370q26 109 26 213q0 164 -70 272
t-227 107q-111 0 -198 -65q-150 -112 -213 -373q-26 -109 -25 -209q0 -170 72 -274q73 -103 227 -103z" />
    <glyph glyph-name="Oacute" unicode="&#xd3;" horiz-adv-x="1495" 
d="M797 1479v63l96 199h291v-86l-226 -176h-161zM707 -16q-283 0 -449 167t-166 439q0 225 92 420q92 196 270 318t406 122q281 0 449 -168t168 -438q0 -219 -87 -412q-87 -192 -267 -320t-416 -128zM717 205q109 0 195 62q153 109 213 370q26 109 26 213q0 164 -70 272
t-227 107q-111 0 -198 -65q-150 -112 -213 -373q-26 -109 -25 -209q0 -170 72 -274q73 -103 227 -103z" />
    <glyph glyph-name="Ocircumflex" unicode="&#xd4;" horiz-adv-x="1495" 
d="M600 1479v75l215 195h205l149 -195v-75h-168l-106 86l-143 -86h-152zM707 -16q-283 0 -449 167t-166 439q0 225 92 420q92 196 270 318t406 122q281 0 449 -168t168 -438q0 -219 -87 -412q-87 -192 -267 -320t-416 -128zM717 205q109 0 195 62q153 109 213 370
q26 109 26 213q0 164 -70 272t-227 107q-111 0 -198 -65q-150 -112 -213 -373q-26 -109 -25 -209q0 -170 72 -274q73 -103 227 -103z" />
    <glyph glyph-name="Otilde" unicode="&#xd5;" horiz-adv-x="1495" 
d="M1024 1481q-53 1 -123 29t-90 28q-51 0 -74 -59h-153v77q66 193 225 193q53 0 124 -27t91 -26q45 0 72 55h153v-78q-65 -192 -225 -192zM707 -16q-283 0 -449 167t-166 439q0 225 92 420q92 196 270 318t406 122q281 0 449 -168t168 -438q0 -219 -87 -412
q-87 -192 -267 -320t-416 -128zM717 205q109 0 195 62q153 109 213 370q26 109 26 213q0 164 -70 272t-227 107q-111 0 -198 -65q-150 -112 -213 -373q-26 -109 -25 -209q0 -170 72 -274q73 -103 227 -103z" />
    <glyph glyph-name="Odieresis" unicode="&#xd6;" horiz-adv-x="1495" 
d="M1123 1780q63 0 105 -43t42 -106t-49 -107t-113 -45q-64 0 -106 42q-40 41 -40 105t49 109q48 45 112 45zM730 1780q64 0 106 -43t41 -106q0 -63 -49 -107q-50 -44 -114 -45q-64 0 -105 42q-40 41 -40 105t48 109q49 45 113 45zM707 -16q-283 0 -449 167t-166 439
q0 225 92 420q92 196 270 318t406 122q281 0 449 -168t168 -438q0 -219 -87 -412q-87 -192 -267 -320t-416 -128zM717 205q109 0 195 62q153 109 213 370q26 109 26 213q0 164 -70 272t-227 107q-111 0 -198 -65q-150 -112 -213 -373q-26 -109 -25 -209q0 -170 72 -274
q73 -103 227 -103z" />
    <glyph glyph-name="multiply" unicode="&#xd7;" horiz-adv-x="1050" 
d="M190 238l-133 159l355 303l-236 304l182 147l230 -299l350 299l129 -160l-352 -303l233 -303l-178 -147l-231 299z" />
    <glyph glyph-name="Oslash" unicode="&#xd8;" horiz-adv-x="1495" 
d="M708 203q122 0 210 63q88 62 138 162q103 205 101 422q0 57 -10 125l-635 -709q74 -63 196 -63zM412 590q0 -92 10 -146l637 711q-74 74 -195 74t-209 -65t-139 -165q-52 -101 -78 -209t-26 -200zM722 -16q-222 0 -374 100l-110 -123h-199v55l174 193q-121 162 -121 384
t92 417q92 196 270 318t398 122q219 0 375 -107l102 113h199v-55l-166 -187q115 -156 115 -372t-87 -410q-87 -192 -266 -320q-180 -128 -402 -128z" />
    <glyph glyph-name="Ugrave" unicode="&#xd9;" horiz-adv-x="1363" 
d="M1022 1479h-180l-172 176v86h282l70 -199v-63zM620 -16q-276 0 -416 158t-75 438l197 854h319l-207 -893q-32 -143 18 -233t194 -89q144 0 218 70t111 229l211 916h266l-215 -934q-57 -248 -201 -382t-420 -134z" />
    <glyph glyph-name="Uacute" unicode="&#xda;" horiz-adv-x="1363" 
d="M821 1479v63l97 199h290v-86l-225 -176h-162zM620 -16q-276 0 -416 158t-75 438l197 854h319l-207 -893q-32 -143 18 -233t194 -89q144 0 218 70t111 229l211 916h266l-215 -934q-57 -248 -201 -382t-420 -134z" />
    <glyph glyph-name="Ucircumflex" unicode="&#xdb;" horiz-adv-x="1363" 
d="M625 1479v75l215 195h204l150 -195v-75h-168l-106 86l-144 -86h-151zM620 -16q-276 0 -416 158t-75 438l197 854h319l-207 -893q-32 -143 18 -233t194 -89q144 0 218 70t111 229l211 916h266l-215 -934q-57 -248 -201 -382t-420 -134z" />
    <glyph glyph-name="Udieresis" unicode="&#xdc;" horiz-adv-x="1363" 
d="M1123 1780q63 0 105 -43t42 -106t-49 -107t-113 -45q-64 0 -106 42q-40 41 -40 105t49 109q48 45 112 45zM730 1780q64 0 106 -43t41 -106q0 -63 -49 -107q-50 -44 -114 -45q-64 0 -105 42q-40 41 -40 105t48 109q49 45 113 45zM620 -16q-276 0 -416 158t-75 438l197 854
h319l-207 -893q-32 -143 18 -233t194 -89q144 0 218 70t111 229l211 916h266l-215 -934q-57 -248 -201 -382t-420 -134z" />
    <glyph glyph-name="Yacute" unicode="&#xdd;" horiz-adv-x="1212" 
d="M735 1479v63l96 199h291v-86l-225 -176h-162zM219 1434h297l180 -594h4l430 594h244v-91l-590 -798l-125 -545h-319l133 575l-254 768v91z" />
    <glyph glyph-name="Thorn" unicode="&#xde;" horiz-adv-x="1210" 
d="M584 498q313 0 313 290q0 76 -49 114t-166 38h-139l-103 -442h144zM705 1169q247 0 373 -101t126 -290q0 -242 -168 -368t-469 -127h-176l-63 -283h-320l330 1434h319l-61 -265h109z" />
    <glyph glyph-name="germandbls" unicode="&#xdf;" horiz-adv-x="1230" 
d="M750 -12q-188 0 -304 82l46 200h90q47 -66 170 -65q66 1 98 25t33 58q0 34 -24 56q-30 27 -66 44q-35 18 -39 22q-100 55 -144 110q-43 55 -43 137t49 149q50 67 132 136q82 70 104 90q62 57 63 105q-1 49 -39 79t-108 29q-193 0 -238 -201l-239 -1044h-299l241 1055
q39 180 175 290t380 109q180 0 298 -80t118 -215q0 -92 -44 -153q-44 -60 -120 -110q-169 -111 -187 -139q-19 -27 -19 -49t22 -41t114 -73q187 -110 187 -271q1 -163 -109 -249t-298 -86z" />
    <glyph glyph-name="agrave" unicode="&#xe0;" horiz-adv-x="1042" 
d="M360 1434h283l78 -220v-63h-180l-181 197v86zM406 174q86 0 169 80l46 205q-67 16 -147 16t-134 -49t-53 -129q0 -123 119 -123zM719 0q-115 0 -148 102q-111 -115 -274 -114q-131 0 -211 76t-80 212q0 174 126 272t341 99q113 0 186 -24l9 39q49 215 -142 215
q-150 0 -264 -66h-86l49 213q164 68 353 68q233 0 334 -114t49 -347l-146 -631h-96z" />
    <glyph glyph-name="aacute" unicode="&#xe1;" horiz-adv-x="1042" 
d="M530 1151v63l107 220h291v-86l-236 -197h-162zM406 174q86 0 169 80l46 205q-67 16 -147 16t-134 -49t-53 -129q0 -123 119 -123zM719 0q-115 0 -148 102q-111 -115 -274 -114q-131 0 -211 76t-80 212q0 174 126 272t341 99q113 0 186 -24l9 39q49 215 -142 215
q-150 0 -264 -66h-86l49 213q164 68 353 68q233 0 334 -114t49 -347l-146 -631h-96z" />
    <glyph glyph-name="acircumflex" unicode="&#xe2;" horiz-adv-x="1042" 
d="M406 174q86 0 169 80l46 205q-67 16 -147 16t-134 -49t-53 -129q0 -123 119 -123zM338 1151v76l217 207h205l147 -207v-76h-168l-104 96l-146 -96h-151zM719 0q-115 0 -148 102q-111 -115 -274 -114q-131 0 -211 76t-80 212q0 174 126 272t341 99q113 0 186 -24l9 39
q49 215 -142 215q-150 0 -264 -66h-86l49 213q164 68 353 68q233 0 334 -114t49 -347l-146 -631h-96z" />
    <glyph glyph-name="atilde" unicode="&#xe3;" horiz-adv-x="1042" 
d="M406 174q86 0 169 80l46 205q-67 16 -147 16t-134 -49t-53 -129q0 -123 119 -123zM760 1157q-53 0 -123 29t-90 28q-51 0 -74 -59h-154v78q66 193 226 192q53 -1 124 -27t91 -26q45 0 71 55h154v-77q-65 -193 -225 -193zM719 0q-115 0 -148 102q-111 -115 -274 -114
q-131 0 -211 76t-80 212q0 174 126 272t341 99q113 0 186 -24l9 39q49 215 -142 215q-150 0 -264 -66h-86l49 213q164 68 353 68q233 0 334 -114t49 -347l-146 -631h-96z" />
    <glyph glyph-name="adieresis" unicode="&#xe4;" horiz-adv-x="1042" 
d="M694 1307q0 65 48 109t112 44t106 -43t42 -105t-50 -108q-48 -45 -112 -45t-106 42q-40 42 -40 106zM446 1159q-64 0 -105 42q-40 42 -40 106q0 65 48 109q49 44 113 44t105 -43t41 -105t-49 -108q-49 -45 -113 -45zM406 174q86 0 169 80l46 205q-67 16 -147 16t-134 -49
t-53 -129q0 -123 119 -123zM719 0q-115 0 -148 102q-111 -115 -274 -114q-131 0 -211 76t-80 212q0 174 126 272t341 99q113 0 186 -24l9 39q49 215 -142 215q-150 0 -264 -66h-86l49 213q164 68 353 68q233 0 334 -114t49 -347l-146 -631h-96z" />
    <glyph glyph-name="aring" unicode="&#xe5;" horiz-adv-x="1042" 
d="M653 1286q35 0 59 24t24 60q-1 72 -72 74q-35 0 -57 -25t-21 -65q-1 -68 67 -68zM406 174q86 0 169 80l46 205q-67 16 -147 16t-134 -49t-53 -129q0 -123 119 -123zM874 1372q0 -94 -66 -154t-155 -59q-90 0 -149 52q-60 53 -60 145t67 153t156 61t148 -52t59 -146z
M719 0q-115 0 -148 102q-111 -115 -274 -114q-131 0 -211 76t-80 212q0 174 126 272t341 99q113 0 186 -24l9 39q49 215 -142 215q-150 0 -264 -66h-86l49 213q164 68 353 68q233 0 334 -114t49 -347l-146 -631h-96z" />
    <glyph glyph-name="ae" unicode="&#xe6;" horiz-adv-x="1638" 
d="M1200 901q-92 -1 -157 -67t-95 -183h379q8 39 8 80q0 170 -135 170zM633 426v45h-141q-98 0 -152 -47t-53 -127q0 -123 119 -123q141 0 239 127q-12 57 -12 125zM324 -12q-150 0 -234 74t-84 214q0 174 127 274t340 101h193l2 11q49 215 -142 215q-150 0 -264 -66h-86
l49 213q164 68 353 68q227 0 305 -123q150 123 338 123t281 -104t91 -283q0 -106 -34 -234h-635v-41q0 -127 50 -181t174 -54t247 75h96l-45 -200q-160 -84 -348 -84q-274 0 -393 172q-141 -170 -381 -170z" />
    <glyph glyph-name="ccedilla" unicode="&#xe7;" horiz-adv-x="991" 
d="M633 -182q1 -176 -237 -176q-106 0 -165 41l27 114h59q19 -29 77 -29t59 39q0 37 -66 37h-53l37 160q-158 37 -237 148t-79 276q-1 291 185 477t462 187q197 0 316 -91l-45 -192h-109q-55 66 -170 65q-154 0 -249 -126t-95 -318q0 -231 211 -231q115 0 209 63h111
l-47 -203q-117 -73 -295 -73h-31l-8 -35q66 -2 100 -39t33 -94z" />
    <glyph glyph-name="egrave" unicode="&#xe8;" horiz-adv-x="1054" 
d="M373 1434h282l78 -220v-63h-180l-180 197v86zM596 901q-78 -1 -139 -67t-92 -183h378q8 39 9 80q0 170 -156 170zM505 -14q-214 0 -335 112t-121 328q0 274 158 470t416 196q190 0 289 -104t98 -283q0 -106 -35 -234h-635v-41q0 -125 51 -180t175 -55t245 75h96l-47 -207
q-141 -77 -355 -77z" />
    <glyph glyph-name="eacute" unicode="&#xe9;" horiz-adv-x="1054" 
d="M596 901q-78 -1 -139 -67t-92 -183h378q8 39 9 80q0 170 -156 170zM543 1151v63l106 220h291v-86l-235 -197h-162zM505 -14q-214 0 -335 112t-121 328q0 274 158 470t416 196q190 0 289 -104t98 -283q0 -106 -35 -234h-635v-41q0 -125 51 -180t175 -55t245 75h96
l-47 -207q-141 -77 -355 -77z" />
    <glyph glyph-name="ecircumflex" unicode="&#xea;" horiz-adv-x="1054" 
d="M596 901q-78 -1 -139 -67t-92 -183h378q8 39 9 80q0 170 -156 170zM356 1151v76l217 207h205l148 -207v-76h-168l-105 96l-145 -96h-152zM505 -14q-214 0 -335 112t-121 328q0 274 158 470t416 196q190 0 289 -104t98 -283q0 -106 -35 -234h-635v-41q0 -125 51 -180
t175 -55t245 75h96l-47 -207q-141 -77 -355 -77z" />
    <glyph glyph-name="edieresis" unicode="&#xeb;" horiz-adv-x="1054" 
d="M852 1159q-64 0 -106 42q-40 42 -40 106q0 65 49 109q48 44 112 44q63 0 105 -43t42 -105t-49 -108q-49 -45 -113 -45zM313 1307q0 65 48 109q49 44 113 44t106 -43t41 -105q0 -62 -49 -108q-50 -45 -114 -45t-105 42q-40 42 -40 106zM596 901q-78 -1 -139 -67t-92 -183
h378q8 39 9 80q0 170 -156 170zM505 -14q-214 0 -335 112t-121 328q0 274 158 470t416 196q190 0 289 -104t98 -283q0 -106 -35 -234h-635v-41q0 -125 51 -180t175 -55t245 75h96l-47 -207q-141 -77 -355 -77z" />
    <glyph glyph-name="igrave" unicode="&#xec;" horiz-adv-x="532" 
d="M125 1434h283l77 -220v-63h-180l-180 197v86zM403 1075q75 0 95 -34t-4 -162l-201 -879h-299l246 1075h163z" />
    <glyph glyph-name="iacute" unicode="&#xed;" horiz-adv-x="532" 
d="M295 1151v63l106 220h291v-86l-235 -197h-162zM403 1075q75 0 95 -34t-4 -162l-201 -879h-299l246 1075h163z" />
    <glyph glyph-name="icircumflex" unicode="&#xee;" horiz-adv-x="532" 
d="M102 1151v76l217 207h205l148 -207v-76h-168l-105 96l-145 -96h-152zM403 1075q75 0 95 -34t-4 -162l-201 -879h-299l246 1075h163z" />
    <glyph glyph-name="idieresis" unicode="&#xef;" horiz-adv-x="532" 
d="M604 1159q-64 0 -105 42q-40 42 -40 106q0 65 48 109q49 44 113 44t105 -43t41 -105t-49 -108q-49 -45 -113 -45zM210 1159q-64 0 -105 42q-39 42 -39 106q0 65 48 109t112 44t106 -43t41 -105q0 -62 -49 -108q-50 -45 -114 -45zM403 1075q75 0 95 -34t-4 -162l-201 -879
h-299l246 1075h163z" />
    <glyph glyph-name="eth" unicode="&#xf0;" horiz-adv-x="1167" 
d="M537 195q133 0 207 127t73 292q0 106 -52 162t-142 58q-131 0 -203 -120t-72 -292q1 -227 189 -227zM408 1083v50l92 77q-57 23 -97 33l46 191h100q78 -20 149 -56l62 54h176v-50l-100 -86q276 -213 276 -600q0 -342 -162 -525t-424 -183q-223 0 -347 122t-124 328
q0 258 151 428t341 170q152 0 225 -90q-39 104 -135 180l-51 -43h-178z" />
    <glyph glyph-name="ntilde" unicode="&#xf1;" horiz-adv-x="1171" 
d="M836 1157q-53 0 -123 29t-90 28q-51 0 -74 -59h-154v78q66 193 226 192q53 -1 123 -27t92 -26q45 0 71 55h154v-77q-65 -193 -225 -193zM336 1075q150 0 156 -139q195 156 399 156q129 0 193 -100t28 -263l-168 -729h-199q-53 0 -68 28t1 105l133 596q27 125 -74 125
q-113 0 -274 -98l-172 -756h-299l246 1075h98z" />
    <glyph glyph-name="ograve" unicode="&#xf2;" horiz-adv-x="1165" 
d="M410 1434h282l78 -220v-63h-180l-180 197v86zM540 -12q-238 0 -361 121q-124 121 -124 329q0 291 171 472q172 182 404 182t356 -125t124 -336q0 -293 -166 -468t-404 -175zM537 195q131 0 205 130t75 312q0 242 -184 242q-127 -1 -206 -135t-79 -312q1 -237 189 -237z
" />
    <glyph glyph-name="oacute" unicode="&#xf3;" horiz-adv-x="1165" 
d="M580 1151v63l106 220h291v-86l-236 -197h-161zM540 -12q-238 0 -361 121q-124 121 -124 329q0 291 171 472q172 182 404 182t356 -125t124 -336q0 -293 -166 -468t-404 -175zM537 195q131 0 205 130t75 312q0 242 -184 242q-127 -1 -206 -135t-79 -312q1 -237 189 -237z
" />
    <glyph glyph-name="ocircumflex" unicode="&#xf4;" horiz-adv-x="1165" 
d="M387 1151v76l217 207h205l147 -207v-76h-168l-104 96l-145 -96h-152zM540 -12q-238 0 -361 121q-124 121 -124 329q0 291 171 472q172 182 404 182t356 -125t124 -336q0 -293 -166 -468t-404 -175zM537 195q131 0 205 130t75 312q0 242 -184 242q-127 -1 -206 -135
t-79 -312q1 -237 189 -237z" />
    <glyph glyph-name="otilde" unicode="&#xf5;" horiz-adv-x="1165" 
d="M809 1157q-53 0 -123 29t-90 28q-51 0 -74 -59h-153v78q66 193 225 192q53 -1 124 -27t91 -26q45 0 72 55h153v-77q-65 -193 -225 -193zM540 -12q-238 0 -361 121q-124 121 -124 329q0 291 171 472q172 182 404 182t356 -125t124 -336q0 -293 -166 -468t-404 -175z
M537 195q131 0 205 130t75 312q0 242 -184 242q-127 -1 -206 -135t-79 -312q1 -237 189 -237z" />
    <glyph glyph-name="odieresis" unicode="&#xf6;" horiz-adv-x="1165" 
d="M743 1307q1 65 49 109t112 44t106 -43t41 -105q0 -62 -49 -108q-50 -45 -114 -45t-105 42q-40 42 -40 106zM657 1312q-1 -62 -49 -108q-48 -45 -112 -45t-106 42q-40 42 -40 106q0 65 48 109t112 44t106 -43q41 -43 41 -105zM540 -12q-238 0 -361 121q-124 121 -124 329
q0 291 171 472q172 182 404 182t356 -125t124 -336q0 -293 -166 -468t-404 -175zM537 195q131 0 205 130t75 312q0 242 -184 242q-127 -1 -206 -135t-79 -312q1 -237 189 -237z" />
    <glyph glyph-name="divide" unicode="&#xf7;" horiz-adv-x="1042" 
d="M797 1076q-1 -69 -55 -118t-125 -49t-115 46t-45 116q0 70 53 119t124 49t117 -47t46 -116zM45 590l55 235h977l-55 -235h-977zM501 506q71 0 117 -47t46 -116t-54 -118t-126 -49t-116 46t-44 116t53 119t124 49z" />
    <glyph glyph-name="oslash" unicode="&#xf8;" horiz-adv-x="1165" 
d="M537 193q135 0 212 131t76 313q0 8 -1 23t-1 22l-401 -463q45 -26 115 -26zM338 432q0 -39 2 -55l408 471q-45 33 -115 33q-131 1 -213 -135t-82 -314zM526 -12q-152 0 -256 55l-82 -94h-170v55l125 143q-88 117 -88 291q0 291 171 472t415 182q154 0 262 -64l72 82h172
v-55l-119 -137q82 -117 82 -287q0 -293 -166 -468t-418 -175z" />
    <glyph glyph-name="ugrave" unicode="&#xf9;" horiz-adv-x="1165" 
d="M438 1434h283l78 -220v-63h-181l-180 197v86zM840 0q-156 0 -170 141q-195 -158 -375 -157q-143 0 -209 95t-25 267l170 729h199q53 0 69 -27q15 -28 -1 -106l-133 -596q-27 -127 75 -127t250 92l174 764h299l-245 -1075h-78z" />
    <glyph glyph-name="uacute" unicode="&#xfa;" horiz-adv-x="1165" 
d="M608 1151v63l107 220h291v-86l-236 -197h-162zM840 0q-156 0 -170 141q-195 -158 -375 -157q-143 0 -209 95t-25 267l170 729h199q53 0 69 -27q15 -28 -1 -106l-133 -596q-27 -127 75 -127t250 92l174 764h299l-245 -1075h-78z" />
    <glyph glyph-name="ucircumflex" unicode="&#xfb;" horiz-adv-x="1165" 
d="M416 1151v76l217 207h205l147 -207v-76h-168l-104 96l-146 -96h-151zM840 0q-156 0 -170 141q-195 -158 -375 -157q-143 0 -209 95t-25 267l170 729h199q53 0 69 -27q15 -28 -1 -106l-133 -596q-27 -127 75 -127t250 92l174 764h299l-245 -1075h-78z" />
    <glyph glyph-name="udieresis" unicode="&#xfc;" horiz-adv-x="1165" 
d="M524 1159q-64 0 -105 42q-40 42 -40 106q0 65 48 109q49 44 113 44t105 -43t41 -105t-49 -108q-49 -45 -113 -45zM916 1159q-64 0 -104 42t-40 106q0 65 48 109t112 44t106 -43q41 -43 41 -105t-49 -108q-50 -45 -114 -45zM840 0q-156 0 -170 141q-195 -158 -375 -157
q-143 0 -209 95t-25 267l170 729h199q53 0 69 -27q15 -28 -1 -106l-133 -596q-27 -127 75 -127t250 92l174 764h299l-245 -1075h-78z" />
    <glyph glyph-name="yacute" unicode="&#xfd;" horiz-adv-x="1060" 
d="M541 1151v63l106 220h291v-86l-236 -197h-161zM35 -332v80l248 367l-156 882v78h281l98 -641h4l358 641h246v-78l-807 -1329h-272z" />
    <glyph glyph-name="thorn" unicode="&#xfe;" horiz-adv-x="1179" 
d="M705 870q-102 0 -234 -92l-115 -506q66 -61 170 -61q152 0 233 130t81 347q0 88 -37 135t-98 47zM502 1434q64 0 82 -31t-2 -137l-70 -310q139 135 328 136q127 0 212 -100t85 -298q0 -319 -153 -500t-400 -182q-166 0 -265 90l-98 -434h-303l401 1766h183z" />
    <glyph glyph-name="ydieresis" unicode="&#xff;" horiz-adv-x="1060" 
d="M850 1159q-64 0 -106 42q-40 42 -40 106q0 65 49 109q48 44 112 44q63 0 105 -43t42 -105t-49 -108q-49 -45 -113 -45zM311 1307q0 65 48 109q49 44 113 44t106 -43t40 -105q0 -62 -48 -108q-48 -45 -114 -45q-64 0 -105 42q-40 42 -40 106zM35 -332v80l248 367l-156 882
v78h281l98 -641h4l358 641h246v-78l-807 -1329h-272z" />
    <glyph glyph-name="Amacron" unicode="&#x100;" horiz-adv-x="1361" 
d="M774 1126l-278 -528h338l-56 528h-4zM606 1503l47 201h533l-47 -201h-533zM-70 0v84l762 1350h342l178 -1350v-84h-313l-41 379h-477l-199 -379h-252z" />
    <glyph glyph-name="amacron" unicode="&#x101;" horiz-adv-x="1042" 
d="M406 174q86 0 169 80l46 205q-67 16 -147 16t-134 -49t-53 -129q0 -123 119 -123zM371 1196l47 201h532l-47 -201h-532zM719 0q-115 0 -148 102q-111 -115 -274 -114q-131 0 -211 76t-80 212q0 174 126 272t341 99q113 0 186 -24l9 39q49 215 -142 215q-150 0 -264 -66
h-86l49 213q164 68 353 68q233 0 334 -114t49 -347l-146 -631h-96z" />
    <glyph glyph-name="Abreve" unicode="&#x102;" horiz-adv-x="1361" 
d="M774 1126l-278 -528h338l-56 528h-4zM883 1481q-115 0 -184 56t-78 132v76h190q0 -29 20 -49t60 -21q78 0 96 70h187v-76q-28 -78 -102 -133t-189 -55zM-70 0v84l762 1350h342l178 -1350v-84h-313l-41 379h-477l-199 -379h-252z" />
    <glyph glyph-name="abreve" unicode="&#x103;" horiz-adv-x="1042" 
d="M406 174q86 0 169 80l46 205q-67 16 -147 16t-134 -49t-53 -129q0 -123 119 -123zM640 1153q-116 0 -184 59t-77 146v76h190q0 -86 80 -86t96 86h187v-76q-24 -86 -100 -146t-192 -59zM719 0q-115 0 -148 102q-111 -115 -274 -114q-131 0 -211 76t-80 212q0 174 126 272
t341 99q113 0 186 -24l9 39q49 215 -142 215q-150 0 -264 -66h-86l49 213q164 68 353 68q233 0 334 -114t49 -347l-146 -631h-96z" />
    <glyph glyph-name="Aogonek" unicode="&#x104;" horiz-adv-x="1361" 
d="M774 1126l-278 -528h338l-56 528h-4zM1023 -338q-77 0 -124 41t-47 109q0 121 147 188h-100l-41 379h-477l-199 -379h-252v84l762 1350h342l178 -1350v-74q-74 -38 -104 -66t-31 -61q0 -49 76 -49h39l-33 -137q-59 -35 -136 -35z" />
    <glyph glyph-name="aogonek" unicode="&#x105;" horiz-adv-x="1042" 
d="M406 174q86 0 169 80l46 205q-67 16 -147 16t-134 -49t-53 -129q0 -123 119 -123zM650 -338q-77 0 -124 41t-47 107t46 118q46 53 126 84q-59 27 -80 90q-111 -115 -274 -114q-131 0 -211 76t-80 212q0 174 126 272t341 99q113 0 186 -24l9 39q49 215 -142 215
q-150 0 -264 -66h-86l49 213q164 68 353 68q233 0 334 -114t49 -347l-146 -631q-111 -61 -110 -117q0 -49 75 -49h39l-33 -137q-59 -35 -136 -35z" />
    <glyph glyph-name="Cacute" unicode="&#x106;" horiz-adv-x="1263" 
d="M791 1479v63l96 199h291v-86l-226 -176h-161zM715 -16q-285 0 -454 145t-169 432q0 168 55 326q55 157 157 283t260 203q159 77 349 77q246 0 398 -102l-49 -213h-113q-93 84 -235 84t-239 -65t-151 -168q-109 -209 -106 -429q0 -348 313 -348q152 0 285 92h121l-54 -231
q-149 -86 -368 -86z" />
    <glyph glyph-name="cacute" unicode="&#x107;" horiz-adv-x="991" 
d="M582 1151v63l106 220h291v-86l-236 -197h-161zM539 -14q-240 0 -362 118t-122 324q-1 291 185 477t462 187q197 0 316 -91l-45 -192h-109q-55 66 -170 65q-154 0 -249 -126t-95 -318q0 -231 211 -231q115 0 209 63h111l-47 -203q-117 -73 -295 -73z" />
    <glyph glyph-name="Ccircumflex" unicode="&#x108;" horiz-adv-x="1263" 
d="M594 1479v75l215 195h205l149 -195v-75h-168l-106 86l-144 -86h-151zM715 -16q-285 0 -454 145t-169 432q0 168 55 326q55 157 157 283t260 203q159 77 349 77q246 0 398 -102l-49 -213h-113q-93 84 -235 84t-239 -65t-151 -168q-109 -209 -106 -429q0 -348 313 -348
q152 0 285 92h121l-54 -231q-149 -86 -368 -86z" />
    <glyph glyph-name="ccircumflex" unicode="&#x109;" horiz-adv-x="991" 
d="M389 1151v76l217 207h205l147 -207v-76h-167l-105 96l-145 -96h-152zM539 -14q-240 0 -362 118t-122 324q-1 291 185 477t462 187q197 0 316 -91l-45 -192h-109q-55 66 -170 65q-154 0 -249 -126t-95 -318q0 -231 211 -231q115 0 209 63h111l-47 -203q-117 -73 -295 -73z
" />
    <glyph glyph-name="Cdotaccent" unicode="&#x10a;" horiz-adv-x="1263" 
d="M903 1483q-69 0 -111 44q-42 43 -42 109t50 113t118 47t112 -44t43 -110q0 -66 -51 -113q-51 -46 -119 -46zM715 -16q-285 0 -454 145t-169 432q0 168 55 326q55 157 157 283t260 203q159 77 349 77q246 0 398 -102l-49 -213h-113q-93 84 -235 84t-239 -65t-151 -168
q-109 -209 -106 -429q0 -348 313 -348q152 0 285 92h121l-54 -231q-149 -86 -368 -86z" />
    <glyph glyph-name="cdotaccent" unicode="&#x10b;" horiz-adv-x="991" 
d="M696 1161q-68 0 -110 44t-43 110q0 67 50 113t118 46q67 0 111 -43q44 -44 44 -111t-51 -113t-119 -46zM539 -14q-240 0 -362 118t-122 324q-1 291 185 477t462 187q197 0 316 -91l-45 -192h-109q-55 66 -170 65q-154 0 -249 -126t-95 -318q0 -231 211 -231q115 0 209 63
h111l-47 -203q-117 -73 -295 -73z" />
    <glyph glyph-name="Ccaron" unicode="&#x10c;" horiz-adv-x="1263" 
d="M1219 1749v-76l-215 -194h-205l-150 194v76h168l107 -86l143 86h152zM715 -16q-285 0 -454 145t-169 432q0 168 55 326q55 157 157 283t260 203q159 77 349 77q246 0 398 -102l-49 -213h-113q-93 84 -235 84t-239 -65t-151 -168q-109 -209 -106 -429q0 -348 313 -348
q152 0 285 92h121l-54 -231q-149 -86 -368 -86z" />
    <glyph glyph-name="ccaron" unicode="&#x10d;" horiz-adv-x="991" 
d="M434 1434h168l105 -97l145 97h152v-76l-218 -207h-204l-148 207v76zM539 -14q-240 0 -362 118t-122 324q-1 291 185 477t462 187q197 0 316 -91l-45 -192h-109q-55 66 -170 65q-154 0 -249 -126t-95 -318q0 -231 211 -231q115 0 209 63h111l-47 -203q-117 -73 -295 -73z
" />
    <glyph glyph-name="Dcaron" unicode="&#x10e;" horiz-adv-x="1417" 
d="M1157 1749v-76l-215 -194h-205l-149 194v76h168l106 -86l144 86h151zM778 1434q293 0 457 -153t164 -433q0 -336 -199 -584q-96 -120 -253 -192t-349 -72h-590l330 1434h440zM588 225q133 -1 232 59q168 101 228 356q24 101 23 208q0 356 -299 356h-168l-225 -979h209z
" />
    <glyph glyph-name="dcaron" unicode="&#x10f;" horiz-adv-x="1189" 
d="M1577 1434v-86l-150 -195h-149l65 281h234zM346 391q0 -101 36 -151t126 -50t203 86l118 527q-68 63 -161 63q-146 0 -234 -134t-88 -341zM872 0q-150 0 -172 131q-121 -147 -291 -147t-265 96t-95 299q0 301 163 506t409 205q166 0 251 -101l103 445h180q63 0 81 -31
t-1 -137l-289 -1266h-74z" />
    <glyph glyph-name="Dcroat" unicode="&#x110;" horiz-adv-x="1421" 
d="M588 225q133 -1 232 59q168 101 228 356q24 101 23 208q0 356 -299 356h-168l-88 -381h305l-49 -219h-307l-86 -379h209zM778 1434q293 0 457 -153t164 -433q0 -336 -199 -584q-96 -120 -253 -192t-349 -72h-590l139 604h-124l49 219h125l141 611h440z" />
    <glyph glyph-name="dcroat" unicode="&#x111;" horiz-adv-x="1189" 
d="M346 381q0 -99 32 -145t122 -46q89 0 211 89l118 524q-68 63 -161 63q-152 0 -237 -135t-85 -350zM872 0q-150 0 -172 131q-121 -147 -323 -147q-143 0 -236 96q-92 96 -92 299q0 303 162 507t410 204q166 0 251 -101l37 160h-274l41 174h272l27 111h180q55 0 79 -25
t13 -86h111l-41 -174h-109l-262 -1149h-74z" />
    <glyph glyph-name="Emacron" unicode="&#x112;" horiz-adv-x="1153" 
d="M541 1503l47 201h532l-47 -201h-532zM8 0l330 1434h913l-53 -232h-594l-84 -364h438l-51 -220h-438l-90 -393h641l-51 -225h-961z" />
    <glyph glyph-name="emacron" unicode="&#x113;" horiz-adv-x="1054" 
d="M596 901q-78 -1 -139 -67t-92 -183h378q8 39 9 80q0 170 -156 170zM383 1196l47 201h533l-48 -201h-532zM505 -14q-214 0 -335 112t-121 328q0 274 158 470t416 196q190 0 289 -104t98 -283q0 -106 -35 -234h-635v-41q0 -125 51 -180t175 -55t245 75h96l-47 -207
q-141 -77 -355 -77z" />
    <glyph glyph-name="Ebreve" unicode="&#x114;" horiz-adv-x="1153" 
d="M809 1481q-115 0 -183 56t-79 132v76h190q1 -29 21 -49t59 -21q78 0 96 70h187v-76q-28 -78 -102 -133t-189 -55zM8 0l330 1434h913l-53 -232h-594l-84 -364h438l-51 -220h-438l-90 -393h641l-51 -225h-961z" />
    <glyph glyph-name="ebreve" unicode="&#x115;" horiz-adv-x="1054" 
d="M596 901q-78 -1 -139 -67t-92 -183h378q8 39 9 80q0 170 -156 170zM652 1153q-116 0 -184 59t-77 146v76h191q0 -86 77 -86q82 0 99 86h186v-76q-25 -86 -100 -146q-76 -59 -192 -59zM505 -14q-214 0 -335 112t-121 328q0 274 158 470t416 196q190 0 289 -104t98 -283
q0 -106 -35 -234h-635v-41q0 -125 51 -180t175 -55t245 75h96l-47 -207q-141 -77 -355 -77z" />
    <glyph glyph-name="Edotaccent" unicode="&#x116;" horiz-adv-x="1153" 
d="M813 1483q-68 0 -111 44q-43 43 -43 109q1 66 51 113t118 47t111 -44q44 -44 44 -110t-51 -113q-51 -46 -119 -46zM8 0l330 1434h913l-53 -232h-594l-84 -364h438l-51 -220h-438l-90 -393h641l-51 -225h-961z" />
    <glyph glyph-name="edotaccent" unicode="&#x117;" horiz-adv-x="1054" 
d="M596 901q-78 -1 -139 -67t-92 -183h378q8 39 9 80q0 170 -156 170zM657 1161q-69 0 -111 44t-42 110q0 67 50 113t118 46t112 -43q44 -44 43 -111q0 -67 -51 -113t-119 -46zM505 -14q-214 0 -335 112t-121 328q0 274 158 470t416 196q190 0 289 -104t98 -283
q0 -106 -35 -234h-635v-41q0 -125 51 -180t175 -55t245 75h96l-47 -207q-141 -77 -355 -77z" />
    <glyph glyph-name="Eogonek" unicode="&#x118;" horiz-adv-x="1153" 
d="M762 -116q0 -50 76 -50h39l-33 -137q-59 -35 -136 -35t-124 41t-47 109q0 121 147 188h-676l330 1434h913l-53 -232h-594l-84 -364h438l-51 -220h-438l-90 -393h641l-51 -225h-105q-102 -66 -102 -116z" />
    <glyph glyph-name="eogonek" unicode="&#x119;" horiz-adv-x="1054" 
d="M596 901q-78 -1 -139 -67t-92 -183h378q8 39 9 80q0 170 -156 170zM700 -166h39l-32 -137q-59 -35 -137 -35t-124 41q-47 41 -47 109q0 100 129 174h-14q-223 0 -344 112t-121 328q0 274 158 470t416 196q190 0 289 -104t98 -283q0 -106 -35 -234h-635v-41
q0 -125 51 -180t175 -55t245 75h96l-47 -207q-24 -14 -66 -31q-170 -70 -169 -149q0 -49 75 -49z" />
    <glyph glyph-name="Ecaron" unicode="&#x11a;" horiz-adv-x="1153" 
d="M1128 1749v-76l-215 -194h-204l-150 194v76h168l107 -86l143 86h151zM8 0l330 1434h913l-53 -232h-594l-84 -364h438l-51 -220h-438l-90 -393h641l-51 -225h-961z" />
    <glyph glyph-name="ecaron" unicode="&#x11b;" horiz-adv-x="1054" 
d="M596 901q-78 -1 -139 -67t-92 -183h378q8 39 9 80q0 170 -156 170zM395 1434h168l105 -97l145 97h152v-76l-217 -207h-205l-148 207v76zM505 -14q-214 0 -335 112t-121 328q0 274 158 470t416 196q190 0 289 -104t98 -283q0 -106 -35 -234h-635v-41q0 -125 51 -180
t175 -55t245 75h96l-47 -207q-141 -77 -355 -77z" />
    <glyph glyph-name="Gcircumflex" unicode="&#x11c;" horiz-adv-x="1368" 
d="M639 1479v75l215 195h205l149 -195v-75h-168l-106 86l-143 -86h-152zM718 -16q-280 0 -453 139t-173 424q0 172 54 333q54 160 156 288t262 205q161 77 356 77q260 0 421 -107l-51 -219h-108q-102 94 -283 95q-125 1 -222 -63t-151 -168q-112 -212 -110 -449
q0 -336 319 -336q80 0 139 18l74 320h-198l47 207h512l-154 -670q-157 -94 -437 -94z" />
    <glyph glyph-name="gcircumflex" unicode="&#x11d;" horiz-adv-x="1177" 
d="M434 1151v76l217 207h205l148 -207v-76h-168l-105 96l-145 -96h-152zM479 254q117 0 246 102l106 469q-70 70 -167 70q-154 0 -236 -142t-82 -337q0 -162 133 -162zM373 -352q-244 0 -393 98l49 207h90q82 -88 252 -88q244 0 288 205l27 116q-135 -141 -315 -141
q-139 0 -231 91q-91 91 -91 267q0 293 162 491t412 198q166 0 282 -121q82 104 201 104h84l-234 -1012q-53 -227 -196 -321t-387 -94z" />
    <glyph glyph-name="Gbreve" unicode="&#x11e;" horiz-adv-x="1368" 
d="M952 1481q-116 0 -184 56t-78 132v76h191q0 -29 20 -49t60 -21q78 0 96 70h186v-76q-27 -78 -101 -133t-190 -55zM718 -16q-280 0 -453 139t-173 424q0 172 54 333q54 160 156 288t262 205q161 77 356 77q260 0 421 -107l-51 -219h-108q-102 94 -283 95q-125 1 -222 -63
t-151 -168q-112 -212 -110 -449q0 -336 319 -336q80 0 139 18l74 320h-198l47 207h512l-154 -670q-157 -94 -437 -94z" />
    <glyph glyph-name="gbreve" unicode="&#x11f;" horiz-adv-x="1177" 
d="M736 1153q-116 0 -184 59t-77 146v76h191q0 -86 77 -86q82 0 99 86h186v-76q-25 -86 -100 -146q-76 -59 -192 -59zM479 254q117 0 246 102l106 469q-70 70 -167 70q-154 0 -236 -142t-82 -337q0 -162 133 -162zM373 -352q-244 0 -393 98l49 207h90q82 -88 252 -88
q244 0 288 205l27 116q-135 -141 -315 -141q-139 0 -231 91q-91 91 -91 267q0 293 162 491t412 198q166 0 282 -121q82 104 201 104h84l-234 -1012q-53 -227 -196 -321t-387 -94z" />
    <glyph glyph-name="Gdotaccent" unicode="&#x120;" horiz-adv-x="1368" 
d="M948 1483q-68 0 -110 44q-42 43 -43 109q0 66 50 113t118 47q67 0 111 -44t44 -110t-51 -113q-51 -46 -119 -46zM718 -16q-280 0 -453 139t-173 424q0 172 54 333q54 160 156 288t262 205q161 77 356 77q260 0 421 -107l-51 -219h-108q-102 94 -283 95q-125 1 -222 -63
t-151 -168q-112 -212 -110 -449q0 -336 319 -336q80 0 139 18l74 320h-198l47 207h512l-154 -670q-157 -94 -437 -94z" />
    <glyph glyph-name="gdotaccent" unicode="&#x121;" horiz-adv-x="1177" 
d="M741 1161q-69 0 -111 44t-42 110q0 67 50 113t118 46t112 -43q44 -44 43 -111q0 -67 -51 -113t-119 -46zM479 254q117 0 246 102l106 469q-70 70 -167 70q-154 0 -236 -142t-82 -337q0 -162 133 -162zM373 -352q-244 0 -393 98l49 207h90q82 -88 252 -88q244 0 288 205
l27 116q-135 -141 -315 -141q-139 0 -231 91q-91 91 -91 267q0 293 162 491t412 198q166 0 282 -121q82 104 201 104h84l-234 -1012q-53 -227 -196 -321t-387 -94z" />
    <glyph glyph-name="Gcommaaccent" unicode="&#x122;" horiz-adv-x="1368" 
d="M500 -283q0 16 -33 41t-33 78t39 90t93 37t91 -37t37 -98q0 -129 -90 -202t-239 -79l26 119q109 10 109 51zM718 -16q-280 0 -453 139t-173 424q0 172 54 333q54 160 156 288t262 205q161 77 356 77q260 0 421 -107l-51 -219h-108q-102 94 -283 95q-125 1 -222 -63
t-151 -168q-112 -212 -110 -449q0 -336 319 -336q80 0 139 18l74 320h-198l47 207h512l-154 -670q-157 -94 -437 -94z" />
    <glyph glyph-name="gcommaaccent" unicode="&#x123;" horiz-adv-x="1177" 
d="M700 1161q-54 0 -92 37q-37 37 -37 98q0 129 90 202t240 79l-27 -119q-109 -10 -108 -51q0 -16 33 -41t33 -78t-40 -90q-38 -37 -92 -37zM479 254q117 0 246 102l106 469q-70 70 -167 70q-154 0 -236 -142t-82 -337q0 -162 133 -162zM373 -352q-244 0 -393 98l49 207h90
q82 -88 252 -88q244 0 288 205l27 116q-135 -141 -315 -141q-139 0 -231 91q-91 91 -91 267q0 293 162 491t412 198q166 0 282 -121q82 104 201 104h84l-234 -1012q-53 -227 -196 -321t-387 -94z" />
    <glyph glyph-name="Hcircumflex" unicode="&#x124;" horiz-adv-x="1419" 
d="M637 1479v75l215 195h205l149 -195v-75h-168l-106 86l-144 -86h-151zM8 0l330 1434h319l-135 -590h527l135 590h319l-329 -1434h-320l143 618h-528l-141 -618h-320z" />
    <glyph glyph-name="hcircumflex" unicode="&#x125;" horiz-adv-x="1171" 
d="M510 1479v75l217 207h205l147 -207v-75h-168l-104 96l-145 -96h-152zM500 1434q64 0 82 -31t-2 -137l-72 -318q186 143 383 144q129 0 193 -100t28 -263l-168 -729h-199q-53 0 -68 28t1 105l133 596q27 125 -74 125q-113 0 -274 -98l-172 -756h-299l327 1434h181z" />
    <glyph glyph-name="Hbar" unicode="&#x126;" horiz-adv-x="1419" 
d="M522 844h527l38 176h-526zM127 1020l47 201h115l49 213h319l-49 -213h527l49 213h319l-49 -213h115l-47 -201h-115l-233 -1020h-320l141 621h-526l-141 -621h-320l234 1020h-115z" />
    <glyph glyph-name="hbar" unicode="&#x127;" horiz-adv-x="1171" 
d="M500 1434q55 0 79 -25t13 -86h276l-41 -174h-274l-45 -199q184 141 383 142q129 0 193 -100t28 -263l-168 -729h-199q-53 0 -68 28t1 105l133 596q27 125 -74 125q-113 0 -274 -98l-172 -756h-299l262 1149h-109l41 174h107l26 111h181z" />
    <glyph glyph-name="Imacron" unicode="&#x12a;" horiz-adv-x="587" 
d="M256 1503l47 201h533l-48 -201h-532zM14 0l330 1434h322l-330 -1434h-322z" />
    <glyph glyph-name="imacron" unicode="&#x12b;" horiz-adv-x="532" 
d="M150 1196l47 201h508l-48 -201h-507zM403 1075q75 0 95 -34t-4 -162l-201 -879h-299l246 1075h163z" />
    <glyph glyph-name="Iogonek" unicode="&#x12e;" horiz-adv-x="587" 
d="M203 -116q0 -50 76 -50h38l-32 -137q-59 -35 -136 -35t-124 41t-48 109q0 121 148 188h-111l330 1434h322l-330 -1434h-31q-102 -66 -102 -116z" />
    <glyph glyph-name="iogonek" unicode="&#x12f;" horiz-adv-x="532" 
d="M428 1161q-68 0 -111 44t-43 110q0 67 50 113t118 46t112 -43q44 -44 44 -111t-51 -113t-119 -46zM403 1075q75 0 95 -34t-4 -162l-201 -879h-31q-102 -66 -102 -116t76 -50h38l-32 -137q-59 -35 -136 -35t-124 41t-48 109q0 121 148 188h-88l246 1075h163z" />
    <glyph glyph-name="Idotaccent" unicode="&#x130;" horiz-adv-x="587" 
d="M528 1483q-68 0 -110 44q-42 43 -43 109q0 66 50 113t118 47q67 0 111 -44t44 -110t-51 -113q-51 -46 -119 -46zM14 0l330 1434h322l-330 -1434h-322z" />
    <glyph glyph-name="dotlessi" unicode="&#x131;" horiz-adv-x="532" 
d="M403 1075q75 0 95 -34t-4 -162l-201 -879h-299l246 1075h163z" />
    <glyph glyph-name="Jcircumflex" unicode="&#x134;" horiz-adv-x="935" 
d="M596 1479v75l215 195h205l149 -195v-75h-168l-106 86l-143 -86h-152zM289 -16q-215 0 -346 94l49 213h104q61 -78 178 -78q82 0 127 42t64 126l242 1053h321l-254 -1100q-82 -350 -485 -350z" />
    <glyph glyph-name="jcircumflex" unicode="&#x135;" horiz-adv-x="528" 
d="M106 1151v76l218 207h204l148 -207v-76h-168l-105 96l-145 -96h-152zM-42 -344q-120 0 -200 29l39 165h37q76 0 107 24t47 99l252 1102h163q75 0 95 -34t-4 -162l-211 -924q-37 -163 -121 -231t-204 -68z" />
    <glyph glyph-name="Kcommaaccent" unicode="&#x136;" horiz-adv-x="1337" 
d="M500 -283q0 16 -33 41t-33 78t39 90t93 37t91 -37t37 -98q0 -129 -90 -202t-239 -79l26 119q109 10 109 51zM1427 1434v-86l-532 -519l301 -743v-86h-299l-244 614l-235 -225l-90 -389h-320l330 1434h319l-151 -660l651 660h270z" />
    <glyph glyph-name="kcommaaccent" unicode="&#x137;" horiz-adv-x="1073" 
d="M291 -164q0 53 39 90t93 37t91 -37t37 -98q0 -129 -90 -202t-240 -79l27 119q109 10 108 51q0 16 -32 41t-33 78zM500 1434q64 0 82 -31t-2 -137l-138 -598l414 407h260v-78l-407 -374l247 -541v-82h-276l-199 434l-116 -110l-74 -324h-299l327 1434h181z" />
    <glyph glyph-name="Lacute" unicode="&#x139;" horiz-adv-x="1093" 
d="M424 1479v63l96 199h291v-86l-225 -176h-162zM8 0l330 1434h319l-278 -1209h577l-51 -225h-897z" />
    <glyph glyph-name="lacute" unicode="&#x13a;" horiz-adv-x="538" 
d="M371 1479v63l106 219h291v-86l-236 -196h-161zM502 1434q64 0 82 -31t-2 -137l-289 -1266h-299l328 1434h180z" />
    <glyph glyph-name="Lcommaaccent" unicode="&#x13b;" horiz-adv-x="1093" 
d="M371 -283q0 16 -33 41t-33 78t39 90t93 37t91 -37t37 -98q1 -129 -89 -202t-240 -79l26 119q109 10 109 51zM8 0l330 1434h319l-278 -1209h577l-51 -225h-897z" />
    <glyph glyph-name="lcommaaccent" unicode="&#x13c;" horiz-adv-x="538" 
d="M35 -283q0 16 -33 41t-33 78t39 90t93 37q53 0 91 -37t37 -98q1 -129 -89 -202t-240 -79l26 119q109 10 109 51zM502 1434q64 0 82 -31t-2 -137l-289 -1266h-299l328 1434h180z" />
    <glyph glyph-name="Lcaron" unicode="&#x13d;" horiz-adv-x="1093" 
d="M8 0l330 1434h319l-278 -1209h577l-51 -225h-897zM1047 1434v-86l-150 -195h-149l65 281h234z" />
    <glyph glyph-name="lcaron" unicode="&#x13e;" horiz-adv-x="538" 
d="M502 1434q64 0 82 -31t-2 -137l-289 -1266h-299l328 1434h180zM924 1434v-86l-150 -195h-149l65 281h234z" />
    <glyph glyph-name="Lslash" unicode="&#x141;" horiz-adv-x="1093" 
d="M-27 414l52 229l143 49l170 742h319l-143 -619l412 146l-52 -230l-413 -145l-82 -361h577l-51 -225h-897l107 463z" />
    <glyph glyph-name="lslash" unicode="&#x142;" horiz-adv-x="538" 
d="M502 1434q64 0 82 -31t-2 -137l-64 -281l146 70l-52 -219l-145 -70l-174 -766h-299l137 606l-135 -65l49 219l137 65l140 609h180z" />
    <glyph glyph-name="Nacute" unicode="&#x143;" horiz-adv-x="1404" 
d="M858 1479v63l96 199h291v-86l-225 -176h-162zM8 0l330 1434h362l301 -918h7l213 918h268l-330 -1434h-291l-348 1042h-6l-240 -1042h-266z" />
    <glyph glyph-name="nacute" unicode="&#x144;" horiz-adv-x="1171" 
d="M606 1151v63l107 220h291v-86l-236 -197h-162zM336 1075q150 0 156 -139q195 156 399 156q129 0 193 -100t28 -263l-168 -729h-199q-53 0 -68 28t1 105l133 596q27 125 -74 125q-113 0 -274 -98l-172 -756h-299l246 1075h98z" />
    <glyph glyph-name="Ncommaaccent" unicode="&#x145;" horiz-adv-x="1404" 
d="M420 -164q0 53 39 90t93 37t91 -37t37 -98q0 -129 -90 -202t-240 -79l27 119q109 10 108 51q-1 16 -33 41t-32 78zM8 0l330 1434h362l301 -918h7l213 918h268l-330 -1434h-291l-348 1042h-6l-240 -1042h-266z" />
    <glyph glyph-name="ncommaaccent" unicode="&#x146;" horiz-adv-x="1171" 
d="M338 -164q0 53 39 90t93 37t91 -37t37 -98q0 -129 -90 -202t-240 -79l27 119q109 10 108 51q-1 16 -33 41t-32 78zM336 1075q150 0 156 -139q195 156 399 156q129 0 193 -100t28 -263l-168 -729h-199q-53 0 -68 28t1 105l133 596q27 125 -74 125q-113 0 -274 -98
l-172 -756h-299l246 1075h98z" />
    <glyph glyph-name="Ncaron" unicode="&#x147;" horiz-adv-x="1404" 
d="M1286 1749v-76l-215 -194h-205l-149 194v76h168l106 -86l144 86h151zM8 0l330 1434h362l301 -918h7l213 918h268l-330 -1434h-291l-348 1042h-6l-240 -1042h-266z" />
    <glyph glyph-name="ncaron" unicode="&#x148;" horiz-adv-x="1171" 
d="M446 1434h168l105 -97l145 97h152v-76l-217 -207h-205l-148 207v76zM336 1075q150 0 156 -139q195 156 399 156q129 0 193 -100t28 -263l-168 -729h-199q-53 0 -68 28t1 105l133 596q27 125 -74 125q-113 0 -274 -98l-172 -756h-299l246 1075h98z" />
    <glyph glyph-name="Omacron" unicode="&#x14c;" horiz-adv-x="1495" 
d="M637 1503l47 201h533l-48 -201h-532zM707 -16q-283 0 -449 167t-166 439q0 225 92 420q92 196 270 318t406 122q281 0 449 -168t168 -438q0 -219 -87 -412q-87 -192 -267 -320t-416 -128zM717 205q109 0 195 62q153 109 213 370q26 109 26 213q0 164 -70 272t-227 107
q-111 0 -198 -65q-150 -112 -213 -373q-26 -109 -25 -209q0 -170 72 -274q73 -103 227 -103z" />
    <glyph glyph-name="omacron" unicode="&#x14d;" horiz-adv-x="1165" 
d="M420 1196l47 201h532l-47 -201h-532zM540 -12q-238 0 -361 121q-124 121 -124 329q0 291 171 472q172 182 404 182t356 -125t124 -336q0 -293 -166 -468t-404 -175zM537 195q131 0 205 130t75 312q0 242 -184 242q-127 -1 -206 -135t-79 -312q1 -237 189 -237z" />
    <glyph glyph-name="Ohungarumlaut" unicode="&#x150;" horiz-adv-x="1495" 
d="M952 1479v57l82 205h236v-86l-170 -176h-148zM618 1479v57l82 205h236v-86l-170 -176h-148zM707 -16q-283 0 -449 167t-166 439q0 225 92 420q92 196 270 318t406 122q281 0 449 -168t168 -438q0 -219 -87 -412q-87 -192 -267 -320t-416 -128zM717 205q109 0 195 62
q153 109 213 370q26 109 26 213q0 164 -70 272t-227 107q-111 0 -198 -65q-150 -112 -213 -373q-26 -109 -25 -209q0 -170 72 -274q73 -103 227 -103z" />
    <glyph glyph-name="ohungarumlaut" unicode="&#x151;" horiz-adv-x="1165" 
d="M743 1151v57l95 226h235v-86l-182 -197h-148zM410 1151v57l94 226h235v-86l-182 -197h-147zM540 -12q-238 0 -361 121q-124 121 -124 329q0 291 171 472q172 182 404 182t356 -125t124 -336q0 -293 -166 -468t-404 -175zM537 195q131 0 205 130t75 312q0 242 -184 242
q-127 -1 -206 -135t-79 -312q1 -237 189 -237z" />
    <glyph glyph-name="OE" unicode="&#x152;" horiz-adv-x="1976" 
d="M420 571q0 -168 66 -257t255 -89h142l225 979h-207q-133 0 -232 -61q-165 -102 -226 -363q-23 -103 -23 -209zM92 571q0 339 199 591q96 124 253 198t349 74h1182l-54 -232h-594l-84 -364h439l-51 -220h-439l-90 -393h641l-51 -225h-1057q-331 0 -487 142t-156 429z" />
    <glyph glyph-name="oe" unicode="&#x153;" horiz-adv-x="1804" 
d="M1366 901q-92 -1 -157 -67t-95 -183h379q8 39 8 80q0 170 -135 170zM537 195q131 0 205 130t75 312q0 242 -184 242q-127 -1 -206 -135t-79 -312q1 -237 189 -237zM529 -12q-226 0 -350 121t-124 329q0 291 171 472q171 182 420 182t349 -193q145 193 394 193
q186 0 279 -104t91 -283q0 -106 -35 -234h-634v-41q0 -127 50 -181t174 -54t247 75h96l-45 -200q-160 -84 -348 -84q-264 0 -359 182q-150 -180 -376 -180z" />
    <glyph glyph-name="Racute" unicode="&#x154;" horiz-adv-x="1286" 
d="M694 1479v63l97 199h290v-86l-225 -176h-162zM670 776q293 0 293 262q0 166 -213 166h-146l-98 -428h164zM772 1434q498 0 498 -412q0 -154 -93 -264t-253 -162l215 -512v-84h-289l-221 561h-172l-129 -561h-320l330 1434h434z" />
    <glyph glyph-name="racute" unicode="&#x155;" horiz-adv-x="794" 
d="M457 1151v63l106 220h291v-86l-236 -197h-161zM332 1075q170 0 160 -178q135 188 311 188q31 0 61 -10l-55 -252h-37q-190 0 -315 -106l-164 -717h-301l246 1075h94z" />
    <glyph glyph-name="Rcommaaccent" unicode="&#x156;" horiz-adv-x="1286" 
d="M424 -164q0 53 39 90t93 37t91 -37t37 -98q0 -129 -90 -202t-240 -79l27 119q109 10 108 51q-1 16 -33 41t-32 78zM670 776q293 0 293 262q0 166 -213 166h-146l-98 -428h164zM772 1434q498 0 498 -412q0 -154 -93 -264t-253 -162l215 -512v-84h-289l-221 561h-172
l-129 -561h-320l330 1434h434z" />
    <glyph glyph-name="rcommaaccent" unicode="&#x157;" horiz-adv-x="794" 
d="M43 -283q0 16 -33 41t-33 78t39 90q40 37 94 37t91 -37t37 -98q0 -129 -90 -202t-240 -79l26 119q109 10 109 51zM332 1075q170 0 160 -178q135 188 311 188q31 0 61 -10l-55 -252h-37q-190 0 -315 -106l-164 -717h-301l246 1075h94z" />
    <glyph glyph-name="Rcaron" unicode="&#x158;" horiz-adv-x="1286" 
d="M1122 1749v-76l-215 -194h-205l-149 194v76h168l106 -86l144 86h151zM670 776q293 0 293 262q0 166 -213 166h-146l-98 -428h164zM772 1434q498 0 498 -412q0 -154 -93 -264t-253 -162l215 -512v-84h-289l-221 561h-172l-129 -561h-320l330 1434h434z" />
    <glyph glyph-name="rcaron" unicode="&#x159;" horiz-adv-x="794" 
d="M309 1434h168l105 -97l145 97h152v-76l-217 -207h-205l-148 207v76zM332 1075q170 0 160 -178q135 188 311 188q31 0 61 -10l-55 -252h-37q-190 0 -315 -106l-164 -717h-301l246 1075h94z" />
    <glyph glyph-name="Sacute" unicode="&#x15a;" horiz-adv-x="1085" 
d="M614 1479v63l97 199h290v-86l-225 -176h-162zM1014 459q0 -227 -150 -351t-430 -124t-450 153l49 219h106q113 -145 328 -145q104 0 176 47t72 152q1 40 -13 66q-24 47 -124 89q-29 12 -109 43q-153 58 -229 148t-76 235q0 215 140 337t386 122t420 -137l-49 -207h-105
q-123 117 -292 117q-92 0 -154 -44q-62 -43 -61 -125q0 -82 47 -118q48 -36 200 -93q152 -59 235 -145t83 -239z" />
    <glyph glyph-name="sacute" unicode="&#x15b;" horiz-adv-x="888" 
d="M473 1151v63l107 220h290v-86l-235 -197h-162zM793 367q0 -175 -123 -277q-122 -102 -346 -102t-361 102l47 203h96q80 -94 245 -94t165 106q0 41 -31 64t-143 63t-179 106q-67 67 -67 185q0 168 117 265t321 97t343 -100l-46 -188h-90q-89 80 -233 80t-143 -103
q-1 -38 31 -60t144 -62t183 -102q70 -64 70 -183z" />
    <glyph glyph-name="Scircumflex" unicode="&#x15c;" horiz-adv-x="1085" 
d="M432 1479v75l215 195h205l149 -195v-75h-167l-107 86l-143 -86h-152zM1014 459q0 -227 -150 -351t-430 -124t-450 153l49 219h106q113 -145 328 -145q104 0 176 47t72 152q1 40 -13 66q-24 47 -124 89q-29 12 -109 43q-153 58 -229 148t-76 235q0 215 140 337t386 122
t420 -137l-49 -207h-105q-123 117 -292 117q-92 0 -154 -44q-62 -43 -61 -125q0 -82 47 -118q48 -36 200 -93q152 -59 235 -145t83 -239z" />
    <glyph glyph-name="scircumflex" unicode="&#x15d;" horiz-adv-x="888" 
d="M281 1151v76l217 207h204l148 -207v-76h-168l-104 96l-146 -96h-151zM793 367q0 -175 -123 -277q-122 -102 -346 -102t-361 102l47 203h96q80 -94 245 -94t165 106q0 41 -31 64t-143 63t-179 106q-67 67 -67 185q0 168 117 265t321 97t343 -100l-46 -188h-90
q-89 80 -233 80t-143 -103q-1 -38 31 -60t144 -62t183 -102q70 -64 70 -183z" />
    <glyph glyph-name="Scedilla" unicode="&#x15e;" horiz-adv-x="1085" 
d="M606 -182q0 -176 -236 -176q-106 0 -165 41l26 114h60q18 -29 76 -29t59 39q0 37 -66 37h-53l33 146q-221 25 -356 147l49 219h106q113 -145 328 -145q104 0 176 47t72 152q1 40 -13 66q-24 47 -124 89q-29 12 -109 43q-153 58 -229 148t-76 235q0 215 140 337t386 122
t420 -137l-49 -207h-105q-123 117 -292 117q-92 0 -154 -44q-62 -43 -61 -125q0 -82 47 -118q48 -36 200 -93q152 -59 235 -145t83 -239q0 -221 -142 -345t-391 -130l-8 -33q65 -2 99 -39t34 -94z" />
    <glyph glyph-name="scedilla" unicode="&#x15f;" horiz-adv-x="888" 
d="M508 -182q0 -176 -238 -176q-106 0 -164 41l27 114h60q18 -29 76 -29t59 39q0 37 -66 37h-53l35 148q-176 18 -281 98l47 203h96q80 -94 245 -94t165 106q0 41 -31 64t-143 63t-179 106q-67 67 -67 185q0 168 117 265t321 97t343 -100l-46 -188h-90q-89 80 -233 80
t-143 -103q-1 -38 31 -60t144 -62t183 -102q70 -64 70 -183q0 -167 -110 -267t-300 -110l-8 -39q65 -2 99 -39t34 -94z" />
    <glyph glyph-name="Scaron" unicode="&#x160;" horiz-adv-x="1085" 
d="M1014 1749v-76l-215 -194h-205l-150 194v76h168l107 -86l143 86h152zM1014 459q0 -227 -150 -351t-430 -124t-450 153l49 219h106q113 -145 328 -145q104 0 176 47t72 152q1 40 -13 66q-24 47 -124 89q-29 12 -109 43q-153 58 -229 148t-76 235q0 215 140 337t386 122
t420 -137l-49 -207h-105q-123 117 -292 117q-92 0 -154 -44q-62 -43 -61 -125q0 -82 47 -118q48 -36 200 -93q152 -59 235 -145t83 -239z" />
    <glyph glyph-name="scaron" unicode="&#x161;" horiz-adv-x="888" 
d="M287 1434h168l104 -97l146 97h151v-76l-217 -207h-205l-147 207v76zM793 367q0 -175 -123 -277q-122 -102 -346 -102t-361 102l47 203h96q80 -94 245 -94t165 106q0 41 -31 64t-143 63t-179 106q-67 67 -67 185q0 168 117 265t321 97t343 -100l-46 -188h-90
q-89 80 -233 80t-143 -103q-1 -38 31 -60t144 -62t183 -102q70 -64 70 -183z" />
    <glyph glyph-name="Tcommaaccent" unicode="&#x162;" horiz-adv-x="1169" 
d="M367 -283q0 16 -33 41t-33 78t39 90t93 37t91 -37t37 -98q0 -129 -90 -202t-240 -79l27 119q109 10 109 51zM303 0l279 1208h-383l51 226h1085l-51 -226h-383l-278 -1208h-320z" />
    <glyph glyph-name="tcommaaccent" unicode="&#x163;" horiz-adv-x="710" 
d="M240 -37q54 0 92 -37q37 -37 37 -98q0 -129 -90 -202t-240 -79l27 119q109 10 108 51q0 16 -33 41t-33 78t39 90t93 37zM371 -16q-166 0 -234 92t-31 258l125 540h-116l43 201h118l66 287h299l-66 -287h193l-43 -201h-197l-125 -546q-16 -70 12 -105t109 -35h51l-38 -178
q-70 -26 -166 -26z" />
    <glyph glyph-name="Tcaron" unicode="&#x164;" horiz-adv-x="1169" 
d="M1110 1749v-76l-215 -194h-205l-149 194v76h168l106 -86l143 86h152zM303 0l279 1208h-383l51 226h1085l-51 -226h-383l-278 -1208h-320z" />
    <glyph glyph-name="tcaron" unicode="&#x165;" horiz-adv-x="710" 
d="M371 -16q-166 0 -234 92t-31 258l125 540h-116l43 201h118l66 287h299l-66 -287h193l-43 -201h-197l-125 -546q-16 -70 12 -105t109 -35h51l-38 -178q-70 -26 -166 -26zM971 1434v-86l-150 -195h-149l65 281h234z" />
    <glyph glyph-name="Umacron" unicode="&#x16a;" horiz-adv-x="1363" 
d="M662 1503l47 201h532l-47 -201h-532zM620 -16q-276 0 -416 158t-75 438l197 854h319l-207 -893q-32 -143 18 -233t194 -89q144 0 218 70t111 229l211 916h266l-215 -934q-57 -248 -201 -382t-420 -134z" />
    <glyph glyph-name="umacron" unicode="&#x16b;" horiz-adv-x="1165" 
d="M451 1196l47 201h532l-47 -201h-532zM840 0q-156 0 -170 141q-195 -158 -375 -157q-143 0 -209 95t-25 267l170 729h199q53 0 69 -27q15 -28 -1 -106l-133 -596q-27 -127 75 -127t250 92l174 764h299l-245 -1075h-78z" />
    <glyph glyph-name="Ubreve" unicode="&#x16c;" horiz-adv-x="1363" 
d="M938 1481q-116 0 -184 56t-78 132v76h190q0 -29 20 -49t60 -21q78 0 96 70h187v-76q-27 -78 -101 -133t-190 -55zM620 -16q-276 0 -416 158t-75 438l197 854h319l-207 -893q-32 -143 18 -233t194 -89q144 0 218 70t111 229l211 916h266l-215 -934q-57 -248 -201 -382
t-420 -134z" />
    <glyph glyph-name="ubreve" unicode="&#x16d;" horiz-adv-x="1165" 
d="M699 1153q-115 0 -183 59t-78 146v76h191q0 -86 80 -86t96 86h186v-76q-25 -86 -100 -146q-76 -59 -192 -59zM840 0q-156 0 -170 141q-195 -158 -375 -157q-143 0 -209 95t-25 267l170 729h199q53 0 69 -27q15 -28 -1 -106l-133 -596q-27 -127 75 -127t250 92l174 764
h299l-245 -1075h-78z" />
    <glyph glyph-name="Uring" unicode="&#x16e;" horiz-adv-x="1363" 
d="M924 1548q34 0 58 24t24 60t-20 54q-20 20 -53 20t-55 -25t-22 -65q0 -68 68 -68zM924 1421q-90 1 -150 53t-59 144q0 92 66 154q67 61 156 61t148 -53q59 -52 59 -146t-64 -154q-66 -60 -156 -59zM620 -16q-276 0 -416 158t-75 438l197 854h319l-207 -893
q-32 -143 18 -233t194 -89q144 0 218 70t111 229l211 916h266l-215 -934q-57 -248 -201 -382t-420 -134z" />
    <glyph glyph-name="uring" unicode="&#x16f;" horiz-adv-x="1165" 
d="M705 1286q35 0 59 24t22 60q-1 72 -71 74q-35 0 -57 -25t-21 -65q0 -68 68 -68zM704 1159q-90 0 -149 52q-59 53 -59 145t66 153q67 61 156 61t148 -52q60 -52 60 -146t-66 -154t-156 -59zM840 0q-156 0 -170 141q-195 -158 -375 -157q-143 0 -209 95t-25 267l170 729
h199q53 0 69 -27q15 -28 -1 -106l-133 -596q-27 -127 75 -127t250 92l174 764h299l-245 -1075h-78z" />
    <glyph glyph-name="Uhungarumlaut" unicode="&#x170;" horiz-adv-x="1363" 
d="M977 1479v57l82 205h235v-86l-170 -176h-147zM643 1479v57l82 205h236v-86l-170 -176h-148zM620 -16q-276 0 -416 158t-75 438l197 854h319l-207 -893q-32 -143 18 -233t194 -89q144 0 218 70t111 229l211 916h266l-215 -934q-57 -248 -201 -382t-420 -134z" />
    <glyph glyph-name="uhungarumlaut" unicode="&#x171;" horiz-adv-x="1165" 
d="M438 1151v57l94 226h236v-86l-182 -197h-148zM772 1151v57l94 226h236v-86l-182 -197h-148zM840 0q-156 0 -170 141q-195 -158 -375 -157q-143 0 -209 95t-25 267l170 729h199q53 0 69 -27q15 -28 -1 -106l-133 -596q-27 -127 75 -127t250 92l174 764h299l-245 -1075h-78
z" />
    <glyph glyph-name="Uogonek" unicode="&#x172;" horiz-adv-x="1363" 
d="M616 -338q-77 0 -124 41t-48 109q0 106 121 176q-258 18 -378 174t-58 418l197 854h319l-207 -893q-32 -143 18 -233t194 -89q144 0 218 70t111 229l211 916h266l-215 -934q-45 -197 -140 -319t-267 -173q-102 -31 -134 -61q-31 -31 -30 -64q0 -49 75 -49h39l-32 -137
q-59 -35 -136 -35z" />
    <glyph glyph-name="uogonek" unicode="&#x173;" horiz-adv-x="1165" 
d="M761 -338q-77 0 -124 41t-47 109q0 127 155 206q-70 31 -75 123q-195 -158 -375 -157q-143 0 -209 95t-25 267l170 729h199q53 0 69 -27q15 -28 -1 -106l-133 -596q-27 -127 75 -127t250 92l174 764h299l-245 -1075q-102 -66 -103 -117q0 -49 76 -49h39l-33 -137
q-59 -35 -136 -35z" />
    <glyph glyph-name="Ydieresis" unicode="&#x178;" horiz-adv-x="1212" 
d="M1208 1631q0 -63 -49 -107t-113 -45q-64 0 -105 42q-40 41 -40 105t48 109q49 45 113 45t105 -43t41 -106zM815 1631q0 -63 -49 -107q-50 -44 -114 -45q-64 0 -104 42q-40 41 -40 105t48 109t112 45t106 -43q41 -43 41 -106zM219 1434h297l180 -594h4l430 594h244v-91
l-590 -798l-125 -545h-319l133 575l-254 768v91z" />
    <glyph glyph-name="Zacute" unicode="&#x179;" horiz-adv-x="1142" 
d="M698 1479v63l97 199h290v-86l-225 -176h-162zM862 1206h-596l53 228h967l-57 -248l-873 -957v-8h650l-50 -221h-1019l55 242l870 956v8z" />
    <glyph glyph-name="zacute" unicode="&#x17a;" horiz-adv-x="970" 
d="M528 1151v63l107 220h291v-86l-236 -197h-162zM-70 0l47 207l646 657h-463l49 211h817l-47 -209l-651 -655h485l-49 -211h-834z" />
    <glyph glyph-name="Zdotaccent" unicode="&#x17b;" horiz-adv-x="1142" 
d="M811 1483q-68 0 -111 44q-43 43 -43 109q1 66 51 113t118 47t111 -44q44 -44 44 -110t-51 -113q-51 -46 -119 -46zM862 1206h-596l53 228h967l-57 -248l-873 -957v-8h650l-50 -221h-1019l55 242l870 956v8z" />
    <glyph glyph-name="zdotaccent" unicode="&#x17c;" horiz-adv-x="970" 
d="M643 1161q-68 0 -111 44t-43 110q1 67 51 113t118 46t111 -43q44 -44 44 -111t-51 -113t-119 -46zM-70 0l47 207l646 657h-463l49 211h817l-47 -209l-651 -655h485l-49 -211h-834z" />
    <glyph glyph-name="Zcaron" unicode="&#x17d;" horiz-adv-x="1142" 
d="M1126 1749v-76l-215 -194h-204l-150 194v76h168l106 -86l144 86h151zM862 1206h-596l53 228h967l-57 -248l-873 -957v-8h650l-50 -221h-1019l55 242l870 956v8z" />
    <glyph glyph-name="zcaron" unicode="&#x17e;" horiz-adv-x="970" 
d="M381 1434h168l104 -97l146 97h151v-76l-217 -207h-205l-147 207v76zM-70 0l47 207l646 657h-463l49 211h817l-47 -209l-651 -655h485l-49 -211h-834z" />
    <glyph glyph-name="florin" unicode="&#x192;" horiz-adv-x="772" 
d="M739 1454q84 0 150 -33l-39 -174h-45q-70 0 -107 -20t-51 -80l-57 -238h190l-47 -200h-190l-215 -914h-310l215 914h-131l48 200h131l59 248q70 297 399 297z" />
    <glyph glyph-name="Scommaaccent" unicode="&#x218;" horiz-adv-x="1085" 
d="M369 -283q0 16 -33 41t-33 78t39 90t93 37t91 -37t37 -98q0 -129 -90 -202t-240 -79l27 119q109 10 109 51zM1014 459q0 -227 -150 -351t-430 -124t-450 153l49 219h106q113 -145 328 -145q104 0 176 47t72 152q1 40 -13 66q-24 47 -124 89q-29 12 -109 43
q-153 58 -229 148t-76 235q0 215 140 337t386 122t420 -137l-49 -207h-105q-123 117 -292 117q-92 0 -154 -44q-62 -43 -61 -125q0 -82 47 -118q48 -36 200 -93q152 -59 235 -145t83 -239z" />
    <glyph glyph-name="scommaaccent" unicode="&#x219;" horiz-adv-x="888" 
d="M211 -283q0 16 -33 41t-33 78t39 90t93 37q53 0 91 -37t38 -98q0 -129 -90 -202t-240 -79l26 119q109 10 109 51zM793 367q0 -175 -123 -277q-122 -102 -346 -102t-361 102l47 203h96q80 -94 245 -94t165 106q0 41 -31 64t-143 63t-179 106q-67 67 -67 185q0 168 117 265
t321 97t343 -100l-46 -188h-90q-89 80 -233 80t-143 -103q-1 -38 31 -60t144 -62t183 -102q70 -64 70 -183z" />
    <glyph glyph-name="uni0237" unicode="&#x237;" horiz-adv-x="528" 
d="M-42 -344q-120 0 -200 29l39 165h37q76 0 107 24t47 99l252 1102h163q75 0 95 -34t-4 -162l-211 -924q-37 -163 -121 -231t-204 -68z" />
    <glyph glyph-name="circumflex" unicode="&#x2c6;" 
d="M287 1151v76l217 207h205l147 -207v-76h-168l-104 96l-146 -96h-151z" />
    <glyph glyph-name="caron" unicode="&#x2c7;" 
d="M317 1434h168l105 -97l145 97h152v-76l-217 -207h-205l-148 207v76z" />
    <glyph glyph-name="breve" unicode="&#x2d8;" 
d="M579 1153q-116 0 -184 59t-78 146v76h191q0 -86 80 -86t96 86h186v-76q-25 -86 -100 -146t-191 -59z" />
    <glyph glyph-name="dotaccent" unicode="&#x2d9;" 
d="M754 1320q0 -67 -51 -113t-119 -46t-111 44t-43 110q0 67 50 113t118 46t112 -43q44 -44 44 -111z" />
    <glyph glyph-name="ring" unicode="&#x2da;" 
d="M819 1372q1 -94 -65 -154t-156 -59q-90 0 -149 52q-59 53 -59 145t66 153q68 61 156 61t148 -52t59 -146zM598 1286q34 0 58 24t24 60t-20 54q-20 20 -53 20t-55 -25t-22 -65q0 -68 68 -68z" />
    <glyph glyph-name="ogonek" unicode="&#x2db;" 
d="M269 -338q-77 0 -124 41t-47 109q0 121 148 188h180q-102 -66 -102 -116t75 -50h39l-32 -137q-60 -35 -137 -35z" />
    <glyph glyph-name="tilde" unicode="&#x2dc;" 
d="M678 1157q-53 0 -123 29t-90 28q-51 0 -74 -59h-153v78q66 193 225 192q53 -1 124 -27t91 -26q45 0 72 55h153v-77q-65 -193 -225 -193z" />
    <glyph glyph-name="hungarumlaut" unicode="&#x2dd;" 
d="M647 1151v57l94 226h236v-86l-182 -197h-148zM313 1151v57l95 226h235v-86l-182 -197h-148z" />
    <glyph glyph-name="endash" unicode="&#x2013;" horiz-adv-x="935" 
d="M82 463l53 231h739l-53 -231h-739z" />
    <glyph glyph-name="emdash" unicode="&#x2014;" horiz-adv-x="1570" 
d="M82 463l53 231h1374l-53 -231h-1374z" />
    <glyph glyph-name="quoteleft" unicode="&#x2018;" horiz-adv-x="374" 
d="M316 928q-68 0 -112 44t-44 115q0 162 108 253q109 91 293 100l-31 -133q-141 -14 -141 -74q0 -24 18 -33q3 -2 11 -6q61 -30 61 -102t-48 -118t-115 -46z" />
    <glyph glyph-name="quoteright" unicode="&#x2019;" horiz-adv-x="374" 
d="M199 1284q0 72 48 118q49 46 115 46t111 -44t45 -116q0 -162 -108 -253t-293 -99l28 133q143 14 144 74q0 24 -29 39q-61 30 -61 102z" />
    <glyph glyph-name="quotesinglbase" unicode="&#x201a;" horiz-adv-x="374" 
d="M41 4q0 22 -10 28q-11 7 -19 11t-12 8q-49 33 -49 99t48 113q48 46 115 46q68 0 112 -44t44 -115q0 -162 -108 -254t-293 -99l31 133q141 14 141 74z" />
    <glyph glyph-name="quotedblleft" unicode="&#x201c;" horiz-adv-x="794" 
d="M716 928q-67 0 -112 44t-45 115q0 162 109 253t293 100l-31 -133q-141 -14 -142 -74q0 -21 10 -28t19 -11q61 -30 61 -102q1 -72 -47 -118t-115 -46zM316 928q-68 0 -112 44t-44 115q0 162 108 253q109 91 293 100l-31 -133q-141 -14 -141 -74q0 -24 18 -33q3 -2 11 -6
q61 -30 61 -102t-48 -118t-115 -46z" />
    <glyph glyph-name="quotedblright" unicode="&#x201d;" horiz-adv-x="774" 
d="M688 1143q0 26 -29 39q-61 30 -61 102t48 118t115 46t111 -44t46 -116q0 -162 -109 -253t-293 -99l31 133q141 14 141 74zM199 1284q0 72 48 118q49 46 115 46t111 -44t45 -116q0 -162 -108 -253t-293 -99l30 133q141 14 142 74q0 24 -29 39q-61 30 -61 102z" />
    <glyph glyph-name="quotedblbase" unicode="&#x201e;" horiz-adv-x="774" 
d="M440 4q0 22 -10 28q-10 7 -18 11q-62 31 -62 103t48 117q48 46 115 46t112 -44t45 -115q0 -162 -109 -254t-293 -99l31 133q141 14 141 74zM41 4q0 22 -10 28q-11 7 -19 11t-12 8q-49 33 -49 99t48 113q48 46 115 46q68 0 112 -44t44 -115q0 -162 -108 -254t-293 -99
l31 133q141 14 141 74z" />
    <glyph glyph-name="dagger" unicode="&#x2020;" horiz-adv-x="960" 
d="M233 -100l103 651l29 125l110 205l-233 -64h-123l65 289h105l223 -66l-4 222l39 172h289l-43 -193l-103 -201l232 66h125l-66 -289h-107l-221 64l13 -228l-29 -127l-191 -626h-213z" />
    <glyph glyph-name="daggerdbl" unicode="&#x2021;" horiz-adv-x="960" 
d="M193 -100l45 192l102 201l-236 -66h-122l67 289h105l223 -63l-29 163l27 109l100 156l-233 -64h-123l65 289h105l223 -66l-4 222l39 172h289l-43 -193l-103 -201l232 66h125l-66 -289h-107l-221 64l27 -164l-25 -109l-100 -155l231 63h125l-67 -289h-107l-219 66l4 -221
l-41 -172h-288z" />
    <glyph glyph-name="bullet" unicode="&#x2022;" horiz-adv-x="655" 
d="M621 588q1 -124 -87 -208q-88 -83 -210 -83t-198 69q-76 68 -75 192q0 124 90 208t210 84t195 -69t75 -193z" />
    <glyph glyph-name="ellipsis" unicode="&#x2026;" horiz-adv-x="1345" 
d="M1056 -12q-71 0 -119 47t-48 117t49 118t119 47q70 0 119 -48q49 -47 49 -117t-49 -117t-120 -47zM589 -12q-71 0 -119 47t-48 117t49 118t119 47q70 0 119 -48q49 -47 49 -117t-49 -117t-120 -47zM122 -12q-71 0 -119 47t-48 117t49 118t119 47q70 0 119 -48
q49 -47 49 -117t-49 -117t-120 -47z" />
    <glyph glyph-name="perthousand" unicode="&#x2030;" horiz-adv-x="2473" 
d="M2011 -16q-141 0 -229 84t-88 219q0 186 120 324t300 139q141 0 228 -84t87 -226q0 -182 -120 -319t-298 -137zM2030 152q82 0 127 96t45 198q0 135 -105 136q-82 0 -128 -98t-46 -201q1 -131 107 -131zM1210 -16q-141 0 -229 84t-88 219q0 186 120 324t300 139
q141 0 228 -84t87 -226q0 -182 -120 -319t-298 -137zM1229 152q82 0 127 96t45 198q0 135 -105 136q-82 0 -128 -98t-46 -201q1 -131 107 -131zM123 -70l1288 1563h223l-1288 -1563h-223zM451 684q-141 0 -230 85q-88 85 -88 220q0 185 120 323t300 138q141 0 229 -84
t88 -225q0 -182 -120 -320q-121 -137 -299 -137zM537 1282q-57 0 -99 -53q-73 -91 -76 -246q1 -129 107 -131q55 0 97 52q75 93 75 235q0 143 -104 143z" />
    <glyph glyph-name="guilsinglleft" unicode="&#x2039;" horiz-adv-x="622" 
d="M655 983v-65l-331 -398v-6l139 -367v-65h-238l-164 407l27 117l326 377h241z" />
    <glyph glyph-name="guilsinglright" unicode="&#x203a;" horiz-adv-x="622" 
d="M-27 82v65l332 398v6l-139 367v65h237l164 -408l-26 -116l-326 -377h-242z" />
    <glyph glyph-name="fraction" unicode="&#x2044;" horiz-adv-x="454" 
d="M-485 -70l1288 1563h223l-1288 -1563h-223z" />
    <glyph glyph-name="Euro" unicode="&#x20ac;" horiz-adv-x="1222" 
d="M962 1450q240 0 375 -88l-49 -211h-114q-80 70 -216 70q-260 0 -387 -269h400l-66 -178h-395q-12 -53 -18 -112h368l-65 -179h-312q4 -145 69 -210q64 -65 206 -65t266 93h104l-49 -223q-158 -94 -380 -94q-223 0 -373 126t-158 373h-131l41 179h100q8 66 21 112h-95
l41 178h111q96 222 280 360q186 138 426 138z" />
    <glyph glyph-name="trademark" unicode="&#x2122;" horiz-adv-x="1400" 
d="M293 860l104 451h-164l29 123h500l-29 -123h-166l-104 -451h-170zM711 860l133 574h252l18 -312h2l164 312h260l-133 -574h-166l102 436h-2l-235 -436h-121l-29 436h-2l-102 -436h-141z" />
    <glyph glyph-name="onethird" unicode="&#x2153;" horiz-adv-x="1566" 
d="M1440 223q0 -109 -94 -172t-252 -63q-160 0 -267 88l33 143h80q63 -74 156 -74q51 0 83 24t31 67q0 86 -108 86h-62l35 147h84q53 0 82 24t29 62q0 80 -94 80q-61 0 -136 -41h-77l34 154q93 55 223 55t204 -52t73 -161q0 -160 -192 -199v-4q135 -33 135 -164zM-8 -70
l1288 1563h223l-1288 -1563h-223zM225 645l127 553l-119 -55h-45l41 176l244 115h174l-182 -789h-240z" />
    <glyph glyph-name="twothirds" unicode="&#x2154;" horiz-adv-x="1716" 
d="M1589 223q1 -109 -93 -172t-254 -63t-265 88l33 143h80q63 -74 155 -74q51 0 83 24t32 67q0 86 -109 86h-61l35 147h84q53 0 82 24t28 62q0 80 -94 80q-61 0 -135 -41h-78l35 154q94 55 223 55t203 -52t74 -161q0 -160 -193 -199v-4q135 -33 135 -164zM168 -70l1288 1563
h223l-1288 -1563h-223zM451 1272q-86 0 -154 -53h-78l39 170q102 57 240 57t209 -60t71 -154q0 -95 -64 -168t-204 -163l-131 -84h315l-41 -172h-575l41 178l243 176q174 123 175 201q0 72 -86 72z" />
    <glyph glyph-name="oneeighth" unicode="&#x215b;" horiz-adv-x="1603" 
d="M1227 475q45 0 73 27t27 67q0 88 -88 88q-43 1 -74 -29t-30 -73q0 -80 92 -80zM1042 230q0 -48 31 -74t79 -27q48 0 85 36t37 83t-27 75q-27 27 -81 27t-89 -36t-35 -84zM1489 242q0 -114 -92 -186q-91 -72 -239 -72t-240 56t-93 165q0 170 195 219v4q-90 37 -90 141
q0 105 86 167t222 62t215 -56t79 -158q0 -70 -42 -115t-114 -59v-4q113 -49 113 -164zM0 -70l1288 1563h223l-1288 -1563h-223zM225 645l127 553l-119 -55h-45l41 176l244 115h174l-182 -789h-240z" />
    <glyph glyph-name="threeeighths" unicode="&#x215c;" horiz-adv-x="1660" 
d="M1284 475q45 0 73 27t27 67q0 88 -88 88q-44 1 -74 -29t-30 -73q0 -80 92 -80zM1100 230q0 -48 30 -74t79 -27q48 0 85 36t37 83t-26 75q-27 27 -81 27t-89 -36t-35 -84zM1214 -16q-148 0 -239 56q-92 56 -92 165q0 170 194 219v4q-90 37 -90 141q0 105 86 167
q87 62 223 62t214 -56t79 -158q0 -70 -42 -115t-113 -59v-4q113 -49 112 -175q0 -103 -92 -175t-240 -72zM94 -70l1288 1563h224l-1289 -1563h-223zM364 633q-160 0 -266 88l33 143h80q63 -74 156 -73q51 -1 83 23t31 67q0 86 -108 86h-62l35 147h84q53 0 82 24t29 62
q0 80 -95 80q-61 0 -135 -41h-78l35 154q94 55 224 55t202 -52q74 -52 74 -161q0 -160 -193 -199v-4q135 -33 136 -164q1 -109 -93 -172t-254 -63z" />
    <glyph glyph-name="fiveeighths" unicode="&#x215d;" horiz-adv-x="1677" 
d="M1300 475q45 0 73 27t28 67q0 88 -88 88q-43 1 -74 -29t-31 -73q0 -80 92 -80zM1116 230q0 -48 31 -74t79 -27q48 0 85 36t37 83t-27 75q-27 27 -81 27t-89 -36t-35 -84zM1563 242q0 -114 -92 -186q-91 -72 -239 -72t-241 56q-92 56 -92 165q0 170 195 219v4
q-90 37 -90 141q0 105 86 167t222 62t215 -56t79 -158q0 -70 -42 -115t-114 -59v-4q113 -49 113 -164zM98 -70l1288 1563h224l-1288 -1563h-224zM735 942q-1 -145 -103 -226t-269 -81t-261 78l33 145h84q51 -61 129 -61q78 -1 117 33t39 90q0 80 -88 79q-61 0 -105 -47h-129
l111 482h506l-39 -172h-342l-37 -154h4q51 35 142 35t149 -54t59 -147z" />
    <glyph glyph-name="seveneighths" unicode="&#x215e;" horiz-adv-x="1617" 
d="M1241 475q45 0 73 27t27 67q0 88 -88 88q-43 1 -73 -29t-31 -73q0 -80 92 -80zM1057 230q1 -48 31 -74t79 -27q49 0 85 36t36 83t-26 75q-27 27 -81 27t-89 -36t-35 -84zM1172 -16q-148 0 -240 56t-92 165q0 170 194 219v4q-90 37 -90 141q0 105 86 167t222 62t216 -56
q78 -56 78 -158q0 -70 -42 -115t-113 -59v-4q113 -49 112 -175q0 -103 -92 -175q-91 -72 -239 -72zM2 -70l1288 1563h223l-1288 -1563h-223zM188 645v68l406 536v4h-375l41 181h561l-43 -191l-370 -598h-220z" />
    <glyph glyph-name="minus" unicode="&#x2212;" horiz-adv-x="1042" 
d="M45 590l55 235h977l-55 -235h-977z" />
    <glyph glyph-name="fi" unicode="&#xfb01;" horiz-adv-x="1189" 
d="M1262 1320q0 -67 -51 -113t-119 -46t-111 44t-43 110q0 67 50 113t118 46t112 -43q44 -44 44 -111zM1061 1075q76 0 95 -34t-5 -162l-201 -879h-299l246 1075h164zM672 1454q102 0 166 -24l-39 -183h-45q-74 0 -111 -20t-49 -80l-16 -72h184l-43 -201h-187l-196 -874
h-291l191 874h-127l43 201h127l18 82q68 297 375 297z" />
    <glyph glyph-name="fl" unicode="&#xfb02;" horiz-adv-x="1196" 
d="M1159 1434q63 0 81 -31t-1 -137l-289 -1266h-299l328 1434h180zM672 1454q102 0 166 -24l-39 -183h-45q-74 0 -111 -20t-49 -80l-16 -72h184l-43 -201h-187l-196 -874h-291l191 874h-127l43 201h127l18 82q68 297 375 297z" />
    <glyph glyph-name="space_uni0326" 
d="M207 -283q0 16 -33 41t-33 78t39 90t93 37q53 0 91 -37t37 -98q1 -129 -89 -202t-240 -79l26 119q109 10 109 51z" />
    <glyph glyph-name="zero.numerator" horiz-adv-x="841" 
d="M483 633q-147 0 -232 84t-85 223q0 213 118 359t312 147q145 0 230 -83t85 -224q0 -215 -116 -361q-117 -145 -312 -145zM496 795q135 0 177 237q9 57 9 113q0 139 -98 139q-66 0 -111 -61q-76 -102 -78 -289q1 -139 101 -139z" />
    <glyph glyph-name="one.numerator" horiz-adv-x="538" 
d="M225 645l127 553l-119 -55h-45l41 176l244 115h174l-182 -789h-240z" />
    <glyph glyph-name="two.numerator" horiz-adv-x="688" 
d="M451 1272q-86 0 -154 -53h-78l39 170q102 57 240 57t209 -60t71 -154q0 -95 -64 -168t-204 -163l-131 -84h315l-41 -172h-575l41 178l243 176q174 123 175 201q0 72 -86 72z" />
    <glyph glyph-name="three.numerator" horiz-adv-x="677" 
d="M352 633q-160 0 -266 88l33 143h80q63 -74 155 -73q51 -1 83 23t32 67q0 86 -109 86h-61l35 147h84q53 0 82 24t28 62q0 80 -94 80q-61 0 -135 -41h-78l35 154q94 55 223 55t203 -52t74 -161q0 -160 -193 -199v-4q135 -33 135 -164q0 -109 -93 -172t-253 -63z" />
    <glyph glyph-name="four.numerator" horiz-adv-x="751" 
d="M317 956h195l57 244h-6l-246 -239v-5zM438 645l37 162h-358l41 174l463 453h217l-111 -478h82l-35 -149h-82l-37 -162h-217z" />
    <glyph glyph-name="five.numerator" horiz-adv-x="690" 
d="M727 942q-1 -145 -103 -226t-269 -81t-261 78l33 145h84q51 -61 129 -61q78 -1 117 33t39 90q0 80 -88 79q-61 0 -105 -47h-129l111 482h506l-39 -172h-342l-37 -154h4q51 35 142 35t149 -54t59 -147z" />
    <glyph glyph-name="six.numerator" horiz-adv-x="772" 
d="M492 997q-59 0 -109 -24q-2 -20 -2 -66q0 -129 92 -129q51 0 82 36t31 91q0 92 -94 92zM471 633q-143 0 -223 78t-80 209q0 203 108 342q143 182 371 182q131 0 217 -66l-33 -145h-86q-47 43 -112 43q-106 0 -172 -90q-35 -47 -53 -107q78 53 177 53t157 -54t58 -173
t-92 -195q-94 -76 -237 -77z" />
    <glyph glyph-name="seven.numerator" horiz-adv-x="657" 
d="M178 645v68l406 536v4h-375l41 181h561l-43 -191l-371 -598h-219z" />
    <glyph glyph-name="eight.numerator" horiz-adv-x="763" 
d="M535 1120q45 0 73 27t27 67q0 88 -88 89q-43 0 -74 -30t-31 -73q1 -80 93 -80zM350 875q0 -49 31 -75t79 -26t85 37t37 83t-27 74t-81 28t-89 -37q-35 -36 -35 -84zM797 888q0 -114 -92 -187q-91 -72 -239 -72t-241 56q-92 56 -92 165q0 170 195 219v4q-90 37 -90 141
t86 166t222 64q136 0 215 -56t79 -159q0 -70 -42 -115t-114 -59v-4q113 -49 113 -163z" />
    <glyph glyph-name="nine.numerator" horiz-adv-x="761" 
d="M508 1073q59 0 108 25q4 41 5 65q0 135 -95 135q-51 0 -84 -38t-32 -97q0 -90 98 -90zM369 633q-145 0 -234 67l33 142h86q46 -41 140 -41t151 80q35 51 51 108q-76 -53 -176 -53t-160 57q-59 57 -59 152q0 139 97 220q98 81 238 81t219 -80t79 -221q0 -209 -105 -342
q-133 -170 -360 -170z" />
    <glyph glyph-name="zero.denominator" horiz-adv-x="841" 
d="M336 -12q-147 0 -233 84q-85 84 -85 223q0 213 118 359t313 147q145 0 230 -83t85 -224q0 -214 -116 -360t-312 -146zM348 150q49 0 88 34q95 84 99 316q0 139 -99 139q-66 0 -110 -61q-78 -106 -78 -289q0 -139 100 -139z" />
    <glyph glyph-name="one.denominator" horiz-adv-x="538" 
d="M78 0l127 553l-119 -55h-45l41 176l244 114h174l-183 -788h-239z" />
    <glyph glyph-name="two.denominator" horiz-adv-x="688" 
d="M389 555q0 72 -86 72t-153 -54h-78l39 170q102 57 239 57t209 -58q72 -60 72 -155t-65 -168t-204 -163l-131 -84h316l-41 -172h-576l41 178l244 176q174 123 174 201z" />
    <glyph glyph-name="three.denominator" horiz-adv-x="677" 
d="M551 223q1 -109 -93 -172t-254 -63t-265 88l32 143h80q63 -74 156 -74q51 0 83 24t32 67q0 86 -109 86h-61l34 147h84q53 0 82 24t29 62q0 80 -94 80q-61 0 -135 -41h-78l35 154q94 55 223 55t203 -52t73 -161q0 -160 -192 -199v-4q135 -33 135 -164z" />
    <glyph glyph-name="four.denominator" horiz-adv-x="751" 
d="M170 311h195l57 244h-6l-246 -240v-4zM291 0l37 162h-359l41 174l463 452h217l-110 -477h82l-35 -149h-82l-37 -162h-217z" />
    <glyph glyph-name="five.denominator" horiz-adv-x="690" 
d="M208 -10q-167 0 -261 78l33 145h83q51 -61 129 -61t118 34q38 34 38 88q0 80 -88 80q-61 0 -104 -47h-129l110 481h506l-39 -172h-342l-37 -153h4q51 35 143 35t149 -54q58 -54 59 -147q0 -145 -102 -226t-270 -81z" />
    <glyph glyph-name="six.denominator" horiz-adv-x="772" 
d="M344 352q-59 0 -108 -24q-2 -20 -3 -66q0 -129 93 -129q51 0 82 36t30 91q0 92 -94 92zM437 487q99 0 157 -54t59 -173q1 -120 -93 -196t-237 -76t-223 78t-80 208q0 203 109 342q143 182 371 183q131 0 217 -66l-33 -145h-86q-47 43 -113 43q-106 0 -172 -90
q-35 -47 -53 -107q78 53 177 53z" />
    <glyph glyph-name="seven.denominator" horiz-adv-x="657" 
d="M31 0v68l405 536v4h-375l41 180h562l-43 -190l-371 -598h-219z" />
    <glyph glyph-name="eight.denominator" horiz-adv-x="763" 
d="M387 475q45 0 73 27t27 67q0 88 -88 88q-43 1 -73 -29t-31 -73q0 -80 92 -80zM203 230q1 -48 31 -74t78 -27q48 0 85 36t37 83t-26 75q-27 27 -81 27t-89 -36t-35 -84zM318 -16q-148 0 -240 56t-92 165q0 170 194 219v4q-90 37 -90 141q0 105 86 167t222 62t216 -56
q78 -56 78 -158q0 -70 -42 -115t-113 -59v-4q113 -49 112 -175q0 -103 -92 -175q-91 -72 -239 -72z" />
    <glyph glyph-name="nine.denominator" horiz-adv-x="761" 
d="M360 428q59 0 109 25q4 41 4 65q0 135 -94 135q-51 0 -84 -38t-33 -97q0 -90 98 -90zM221 -12q-145 0 -233 67l32 142h86q46 -41 140 -41t151 80q35 51 52 108q-77 -53 -177 -53t-159 57t-60 152q-1 139 97 220t238 81t219 -80t79 -221q0 -209 -104 -342
q-134 -170 -361 -170z" />
    <glyph glyph-name="a.alt" horiz-adv-x="1187" 
d="M492 190q92 0 210 89l125 544q-61 43 -149 43q-147 0 -240 -149q-92 -150 -92 -350q1 -177 146 -177zM870 0q-152 0 -176 133q-123 -150 -305 -149q-150 0 -245 95t-95 286q0 295 168 509t414 216q180 0 274 -115q78 100 197 100h84l-248 -1075h-68z" />
    <glyph glyph-name="aacute.alt" horiz-adv-x="1187" 
d="M666 1151v63l106 220h291v-86l-236 -197h-161zM492 190q92 0 210 89l125 544q-61 43 -149 43q-147 0 -240 -149q-92 -150 -92 -350q1 -177 146 -177zM870 0q-152 0 -176 133q-123 -150 -305 -149q-150 0 -245 95t-95 286q0 295 168 509t414 216q180 0 274 -115
q78 100 197 100h84l-248 -1075h-68z" />
    <glyph glyph-name="abreve.alt" horiz-adv-x="1187" 
d="M718 1153q-116 0 -184 59t-77 146v76h190q0 -86 80 -86t96 86h187v-76q-24 -86 -100 -146t-192 -59zM492 190q92 0 210 89l125 544q-61 43 -149 43q-147 0 -240 -149q-92 -150 -92 -350q1 -177 146 -177zM870 0q-152 0 -176 133q-123 -150 -305 -149q-150 0 -245 95
t-95 286q0 295 168 509t414 216q180 0 274 -115q78 100 197 100h84l-248 -1075h-68z" />
    <glyph glyph-name="acircumflex.alt" horiz-adv-x="1187" 
d="M434 1151v76l217 207h205l148 -207v-76h-168l-105 96l-145 -96h-152zM492 190q92 0 210 89l125 544q-61 43 -149 43q-147 0 -240 -149q-92 -150 -92 -350q1 -177 146 -177zM870 0q-152 0 -176 133q-123 -150 -305 -149q-150 0 -245 95t-95 286q0 295 168 509t414 216
q180 0 274 -115q78 100 197 100h84l-248 -1075h-68z" />
    <glyph glyph-name="adieresis.alt" horiz-adv-x="1187" 
d="M1083 1312q-1 -62 -49 -108q-48 -45 -112 -45t-106 42q-40 42 -40 106q0 65 48 109t112 44t106 -43q41 -43 41 -105zM528 1159q-64 0 -105 42q-40 42 -40 106q0 65 48 109q49 44 113 44t105 -43t41 -105t-49 -108q-49 -45 -113 -45zM492 190q92 0 210 89l125 544
q-61 43 -149 43q-147 0 -240 -149q-92 -150 -92 -350q1 -177 146 -177zM870 0q-152 0 -176 133q-123 -150 -305 -149q-150 0 -245 95t-95 286q0 295 168 509t414 216q180 0 274 -115q78 100 197 100h84l-248 -1075h-68z" />
    <glyph glyph-name="agrave.alt" horiz-adv-x="1187" 
d="M496 1434h282l78 -220v-63h-180l-180 197v86zM492 190q92 0 210 89l125 544q-61 43 -149 43q-147 0 -240 -149q-92 -150 -92 -350q1 -177 146 -177zM870 0q-152 0 -176 133q-123 -150 -305 -149q-150 0 -245 95t-95 286q0 295 168 509t414 216q180 0 274 -115
q78 100 197 100h84l-248 -1075h-68z" />
    <glyph glyph-name="amacron.alt" horiz-adv-x="1187" 
d="M446 1196l48 201h532l-47 -201h-533zM492 190q92 0 210 89l125 544q-61 43 -149 43q-147 0 -240 -149q-92 -150 -92 -350q1 -177 146 -177zM870 0q-152 0 -176 133q-123 -150 -305 -149q-150 0 -245 95t-95 286q0 295 168 509t414 216q180 0 274 -115q78 100 197 100h84
l-248 -1075h-68z" />
    <glyph glyph-name="aogonek.alt" horiz-adv-x="1187" 
d="M492 190q92 0 210 89l125 544q-61 43 -149 43q-147 0 -240 -149q-92 -150 -92 -350q1 -177 146 -177zM389 -16q-150 0 -245 95t-95 286q0 295 168 509t414 216q180 0 274 -115q78 100 197 100h84l-248 -1075q-102 -66 -102 -116t75 -50h39l-32 -137q-58 -35 -136 -35
t-125 41t-47 109q0 129 160 208q-66 33 -78 111q-121 -147 -303 -147z" />
    <glyph glyph-name="aring.alt" horiz-adv-x="1187" 
d="M727 1286q35 0 59 24t23 60q0 72 -72 74q-35 0 -57 -25t-21 -65q0 -68 68 -68zM948 1372q0 -94 -66 -154t-155 -59q-90 0 -149 52q-60 53 -60 145t67 153t155 61t148 -52t60 -146zM492 190q92 0 210 89l125 544q-61 43 -149 43q-147 0 -240 -149q-92 -150 -92 -350
q1 -177 146 -177zM870 0q-152 0 -176 133q-123 -150 -305 -149q-150 0 -245 95t-95 286q0 295 168 509t414 216q180 0 274 -115q78 100 197 100h84l-248 -1075h-68z" />
    <glyph glyph-name="atilde.alt" horiz-adv-x="1187" 
d="M858 1157q-53 0 -123 29t-90 28q-51 0 -74 -59h-153v78q66 193 225 192q53 -1 124 -27t91 -26q45 0 72 55h153v-77q-65 -193 -225 -193zM492 190q92 0 210 89l125 544q-61 43 -149 43q-147 0 -240 -149q-92 -150 -92 -350q1 -177 146 -177zM870 0q-152 0 -176 133
q-123 -150 -305 -149q-150 0 -245 95t-95 286q0 295 168 509t414 216q180 0 274 -115q78 100 197 100h84l-248 -1075h-68z" />
    <glyph glyph-name="Q.alt" horiz-adv-x="1495" 
d="M721 203q109 0 195 62q152 109 210 372q25 109 25 213q0 164 -70 272t-227 107q-111 0 -198 -65q-150 -112 -213 -373q-26 -109 -25 -209q0 -379 303 -379zM92 590q0 225 92 420q92 196 270 318t406 122q281 0 449 -168t168 -433t-122 -472t-345 -279v-6q137 -29 237 -92
t133 -143v-111h-305q-47 86 -133 130t-239 80t-226 64q-385 150 -385 570z" />
    <glyph glyph-name="Q.alt1" horiz-adv-x="1495" 
d="M721 199q90 0 164 34l-154 162v119h213l113 -111q94 174 94 447q0 164 -70 272t-227 107q-111 0 -198 -65q-150 -112 -213 -373q-26 -109 -25 -209q0 -383 303 -383zM707 -16q-283 0 -449 167t-166 439q0 225 92 420q92 196 270 318t406 122q281 0 449 -168t168 -438
q0 -375 -228 -625l103 -98v-121h-246l-62 63q-153 -79 -337 -79z" />
    <glyph glyph-name="f.short" horiz-adv-x="657" 
d="M672 1454q102 0 166 -24l-39 -183h-45q-74 0 -111 -20t-49 -80l-16 -72h184l-43 -201h-187l-196 -874h-291l191 874h-127l43 201h127l18 82q68 297 375 297z" />
    <glyph glyph-name="f_f.short" horiz-adv-x="1275" 
d="M670 1442q113 0 178 -29l-39 -178h-57q-72 -1 -109 -21t-51 -79l-14 -60h319l18 82q68 297 375 297q102 0 166 -24l-39 -183h-45q-74 0 -110 -20t-50 -80l-16 -72h184l-43 -201h-186l-197 -874h-290l190 874h-322l-196 -874h-291l191 874h-127l43 201h127l16 70
q70 297 375 297z" />
    <glyph glyph-name="less.cap" horiz-adv-x="872" 
d="M997 1434v-88l-602 -650v-6l318 -602v-88h-267l-352 637l37 158l600 639h266z" />
    <glyph glyph-name="greater.cap" horiz-adv-x="872" 
d="M-33 0v88l602 649v6l-317 603v88h266l352 -637l-36 -158l-601 -639h-266z" />
    <glyph glyph-name="questiondown.cap" horiz-adv-x="919" 
d="M718 1446q71 0 116 -46t45 -116q1 -70 -53 -119t-125 -49t-117 47t-45 116q0 69 54 118t125 49zM471 215q119 0 223 72h117l-51 -224q-138 -81 -330 -81t-309 80t-117 255q0 236 293 408q129 76 186 133t74 154h213q-12 -137 -58 -230t-210 -203q-115 -81 -138 -115
q-43 -66 -45 -126q0 -123 152 -123z" />
    <glyph glyph-name="exclamdown.cap" horiz-adv-x="540" 
d="M268 1279q0 69 54 118t126 49t116 -46t44 -116t-53 -119t-124 -49t-117 47t-46 116zM479 1012l-137 -836l-41 -176h-319l41 176l268 836h188z" />
    <glyph glyph-name="bullet.cap" horiz-adv-x="655" 
d="M645 717q0 -147 -88 -235t-210 -89q-123 -1 -197 63t-74 188t91 213t211 89t194 -62t73 -167z" />
    <glyph glyph-name="hyphen.cap" horiz-adv-x="579" 
d="M57 569l52 224h473l-52 -224h-473z" />
    <glyph glyph-name="endash.cap" horiz-adv-x="845" 
d="M59 575l50 211h739l-49 -211h-740z" />
    <glyph glyph-name="emdash.cap" horiz-adv-x="1378" 
d="M59 575l50 211h1271l-49 -211h-1272z" />
    <glyph glyph-name="dagger.cap" horiz-adv-x="960" 
d="M254 0l82 551l33 145l110 205l-233 -63h-123l65 288h105l223 -65l-4 221l35 152h289l-39 -172l-103 -201l232 65h125l-66 -288h-106l-222 63l13 -227l-33 -148l-170 -526h-213z" />
    <glyph glyph-name="daggerdbl.cap" horiz-adv-x="960" 
d="M215 0l35 152l102 200l-235 -65h-123l67 288h105l223 -63l-29 164l23 90l100 156l-233 -64h-123l66 289h104l223 -66l-4 222l31 131h289l-35 -152l-103 -201l232 66h125l-66 -289h-106l-221 64l26 -164l-20 -90l-101 -156l232 63h125l-68 -288h-106l-220 65l5 -221
l-31 -131h-289z" />
    <glyph glyph-name="quoteleft.cap" horiz-adv-x="1075" 
d="M1012 418q0 -184 -136 -310q-136 -124 -347 -124t-340 133q-128 133 -128 366q0 401 295 663t850 288l-47 -211q-279 -31 -401 -120t-121 -206q0 -49 35 -80q34 -31 106 -65t109 -60q125 -90 125 -274z" />
    <glyph glyph-name="quoteright.cap" horiz-adv-x="1075" 
d="M154 1016q0 186 136 310t347 124t339 -133t128 -367q0 -401 -295 -663t-850 -287l47 211q279 31 401 120t121 206q0 49 -34 79t-107 65q-72 34 -108 60q-125 90 -125 275z" />
    <glyph glyph-name="quotedblleft.cap" horiz-adv-x="2134" 
d="M2071 418q0 -184 -136 -310q-136 -124 -347 -124t-340 133q-128 133 -128 366q0 401 295 663t850 288l-47 -211q-278 -31 -400 -120t-122 -206q0 -49 35 -80t107 -65t108 -60q125 -90 125 -274zM1012 418q0 -184 -136 -310q-136 -124 -347 -124t-340 133
q-128 133 -128 366q0 401 295 663t850 288l-47 -211q-279 -31 -401 -120t-121 -206q0 -49 35 -80q34 -31 106 -65t109 -60q125 -90 125 -274z" />
    <glyph glyph-name="quotedblright.cap" horiz-adv-x="2134" 
d="M1587 537q0 49 -35 79q-34 30 -106 65q-72 34 -109 60q-125 90 -125 275q0 186 136 310t348 124q210 0 338 -133t129 -367q0 -401 -295 -663t-850 -287l47 211q279 31 401 120t121 206zM154 1016q0 186 136 310t347 124t339 -133t128 -367q0 -401 -295 -663t-850 -287
l47 211q279 31 401 120t121 206q0 49 -34 79t-107 65q-72 34 -108 60q-125 90 -125 275z" />
    <glyph glyph-name="guillemotleft.cap" horiz-adv-x="1425" 
d="M1550 1434v-88l-602 -650v-6l318 -602v-88h-267l-352 637l37 158l600 639h266zM997 1434v-88l-602 -650v-6l318 -602v-88h-267l-352 637l37 158l600 639h266z" />
    <glyph glyph-name="guillemotright.cap" horiz-adv-x="1425" 
d="M520 0v88l602 649v6l-317 603v88h266l352 -637l-37 -158l-600 -639h-266zM-33 0v88l602 649v6l-317 603v88h266l352 -637l-36 -158l-601 -639h-266z" />
    <glyph glyph-name="at.cap" horiz-adv-x="1765" 
d="M850 508q80 0 151 76l66 299q-41 16 -88 16q-93 0 -151 -87t-58 -210q0 -94 80 -94zM977 1495q326 0 548 -175t222 -476q0 -260 -136 -395t-340 -135t-259 130q-96 -129 -254 -129q-113 0 -183 74t-69 209q0 197 123 344t321 148q117 0 195 -78q55 68 147 67h94
l-104 -479q-33 -111 51 -111q207 0 207 355q0 221 -152 347q-153 126 -415 126q-263 0 -449 -171q-186 -172 -186 -474t168 -438t452 -136t482 133h76l-46 -198q-204 -113 -528 -113t-565 174q-119 86 -190 230t-71 336t77 355q139 298 475 424q152 56 309 56z" />
    <glyph glyph-name="paragraph.cap" horiz-adv-x="1212" 
d="M530 621q-164 0 -269 92q-105 91 -105 237t52 242q89 165 340 219q105 23 232 23h516l-331 -1434h-213l284 1225h-145l-285 -1225h-213l144 621h-7z" />
    <glyph glyph-name="grave.cap" 
d="M737 1479h-180l-172 176v86h283l69 -199v-63z" />
    <glyph glyph-name="dieresis.cap" 
d="M869 1780q63 0 105 -43t42 -106t-49 -107t-113 -45q-64 0 -105 42q-40 41 -40 105t48 109t112 45zM315 1626q1 64 49 109t112 45t106 -43t41 -106q0 -63 -49 -107q-50 -44 -114 -45q-64 0 -105 42q-40 41 -40 105z" />
    <glyph glyph-name="macron.cap" 
d="M371 1503l47 201h532l-47 -201h-532z" />
    <glyph glyph-name="acute.cap" 
d="M547 1479v63l96 199h291v-86l-225 -176h-162z" />
    <glyph glyph-name="circumflex.cap" 
d="M350 1479v75l215 195h205l150 -195v-75h-168l-107 86l-143 -86h-152z" />
    <glyph glyph-name="caron.cap" 
d="M961 1749v-76l-216 -194h-204l-150 194v76h168l107 -86l143 86h152z" />
    <glyph glyph-name="breve.cap" 
d="M657 1481q-115 0 -183 56t-79 132v76h191q0 -29 20 -49t60 -21q78 0 96 70h186v-76q-28 -78 -102 -133t-189 -55z" />
    <glyph glyph-name="dotaccent.cap" 
d="M659 1483q-69 0 -111 44q-42 43 -42 109t50 113t118 47t112 -44t43 -110q0 -66 -51 -113q-51 -46 -119 -46z" />
    <glyph glyph-name="ring.cap" 
d="M674 1610q34 0 58 24t24 59q0 36 -20 55t-53 19q-33 -1 -55 -25t-22 -65q0 -67 68 -67zM687 1894q89 0 149 -53t59 -146q1 -93 -65 -153t-156 -59q-90 0 -150 52q-59 52 -59 144t66 154q67 61 156 61z" />
    <glyph glyph-name="tilde.cap" 
d="M758 1481q-53 1 -123 29t-90 28q-51 0 -74 -59h-154v77q66 193 226 193q53 0 124 -27t91 -26q45 0 71 55h154v-78q-65 -192 -225 -192z" />
    <glyph glyph-name="hungarumlaut.cap" 
d="M719 1479v57l82 205h235v-86l-170 -176h-147zM385 1479v57l82 205h235v-86l-170 -176h-147z" />
    </font>
</defs>
</svg>
