<?xml version="1.0" standalone="no"?>
<!DOCTYPE svg PUBLIC "-//W3C//DTD SVG 1.1//EN" "http://www.w3.org/Graphics/SVG/1.1/DTD/svg11.dtd" >
<svg xmlns="http://www.w3.org/2000/svg">
<metadata>
Created by FontPrep 20130207 at Fri Feb  5 09:44:58 2016
 By Andrea
(c)2008 Schwartzco Inc.
</metadata>
<defs>
<font id="77f1c791922eedd12bd1e1fae33bd327" horiz-adv-x='1024' >
  <font-face 
    font-family="Stag-LightItalic"
    font-weight="300"
    font-style="italic"
    font-stretch="normal"
    units-per-em="2048"
    panose-1="2 0 6 3 6 0 0 2 0 4"
    ascent="1638"
    descent="-410"
    x-height="1069"
    cap-height="1434"
    bbox="-463 -401 2312 1886"
    underline-thickness="40"
    underline-position="-231"
    slope="-12.5"
    unicode-range="U+0020-FB04"
  />
<missing-glyph horiz-adv-x="1024" 
 />
    <glyph glyph-name="f_f" unicode="ff" horiz-adv-x="1112" 
d="M620 1348q-134 0 -176 -193l-18 -86h401l25 109q59 266 309 266q98 0 160 -27l-16 -80h-62q-25 25 -93 25t-112 -42q-45 -42 -69 -146l-23 -105h234l-19 -78h-231l-223 -1022q-47 -225 -230 -301h-74l17 70q133 57 172 233l219 1020h-401l-224 -1022q-47 -225 -229 -301
h-74l17 70q133 57 172 233l219 1020h-154l19 78h151l21 90q59 270 305 271q92 0 153 -27l-16 -80h-61q-25 25 -89 25z" />
    <glyph glyph-name="f_i" unicode="fi" horiz-adv-x="1013" 
d="M1022 1302q0 -32 -24 -56t-57 -25q-35 1 -57 23t-22 54t25 58q25 24 59 24t54 -22q22 -24 22 -56zM641 1444q98 0 160 -27l-17 -80h-61q-25 25 -93 25t-112 -42q-45 -42 -69 -146l-23 -105h420q48 0 70 -32t10 -83l-183 -788q-8 -37 14 -65t58 -27h64l-15 -62
q-40 -20 -114 -20t-109 48t-14 132l188 819h-405l-224 -1022q-47 -225 -229 -301h-74l17 70q133 57 172 233l219 1020h-154l19 78h151l25 109q59 266 309 266z" />
    <glyph glyph-name="f_l" unicode="fl" horiz-adv-x="1013" 
d="M1006 1434q29 0 22 -37l-285 -1231q-7 -37 13 -65t55 -27h74l-15 -62q-56 -20 -124 -20t-104 48t-15 132l252 1088q12 58 -20 80t-150 22q-219 0 -265 -207l-18 -86h233l-18 -78h-231l-224 -1022q-47 -225 -229 -301h-74l17 70q133 57 172 233l219 1020h-154l19 78h151
l21 90q63 285 379 285q79 0 157 -10h142z" />
    <glyph glyph-name="f_f_i" unicode="ffi" horiz-adv-x="1533" 
d="M1461 1221q-35 1 -57 23t-22 54t25 58q25 24 59 24t55 -22t21 -56q0 -32 -23 -57q-24 -24 -58 -24zM620 1348q-134 0 -176 -193l-18 -86h401l25 109q59 266 309 266q98 0 160 -27l-16 -80h-62q-25 25 -93 25t-112 -42q-45 -42 -69 -146l-23 -105h420q47 0 70 -32t10 -83
l-182 -788q-8 -37 14 -65t57 -27h64l-15 -62q-40 -20 -114 -20t-109 48t-14 132l188 819h-405l-223 -1022q-47 -225 -230 -301h-74l17 70q133 57 172 233l219 1020h-401l-224 -1022q-47 -225 -229 -301h-74l17 70q133 57 172 233l219 1020h-154l19 78h151l21 90
q59 270 305 271q92 0 153 -27l-16 -80h-61q-25 25 -89 25z" />
    <glyph glyph-name="f_f_l" unicode="ffl" horiz-adv-x="1538" 
d="M1526 1434q29 0 22 -37l-284 -1231q-8 -37 12 -65t55 -27h74l-14 -62q-55 -20 -124 -20t-105 48t-15 132l252 1088q12 58 -20 80t-150 22q-219 0 -264 -207l-19 -86h234l-19 -78h-231l-223 -1022q-47 -225 -230 -301h-74l17 70q133 57 172 233l219 1020h-401l-224 -1022
q-47 -225 -229 -301h-74l17 70q133 57 172 233l219 1020h-154l19 78h151l21 90q59 270 305 271q92 0 153 -27l-16 -80h-61q-25 25 -89 25q-134 0 -176 -193l-18 -86h401l21 90q63 285 379 285q79 0 157 -10h142z" />
    <glyph glyph-name="f_b" unicode="fb" horiz-adv-x="1693" 
d="M1034 72q193 0 320 141q166 186 166 508q0 270 -207 270q-195 0 -434 -243l-134 -576q53 -48 115 -74t174 -26zM709 1362q-219 0 -265 -207l-18 -86h233l-18 -78h-231l-224 -1022q-47 -225 -229 -301h-74l17 70q133 57 172 233l219 1020h-154l19 78h151l21 90
q63 285 379 285q80 0 157 -10h142q29 0 22 -37l-129 -557q217 240 444 239q135 0 217 -87t80 -260q0 -173 -58 -330t-152 -252q-156 -158 -374 -158t-337 117q-49 -109 -82 -109h-49l291 1260q12 58 -20 80t-150 22z" />
    <glyph glyph-name="f_h" unicode="fh" horiz-adv-x="1712" 
d="M709 1362q-219 0 -265 -207l-18 -86h233l-18 -78h-231l-224 -1022q-47 -225 -229 -301h-74l17 70q133 57 172 233l219 1020h-154l19 78h151l21 90q63 285 379 285q80 0 157 -10h142q31 0 22 -37l-129 -555q258 238 500 237q117 -1 171 -73t23 -203l-145 -633
q-8 -39 12 -68t56 -28h61l-14 -62q-47 -20 -115 -20t-102 48t-17 128l144 623q23 96 -9 144t-108 48q-213 0 -475 -225l-174 -758h-76q-45 0 -29 59l277 1201q12 58 -20 80t-150 22z" />
    <glyph glyph-name="f_j" unicode="fj" horiz-adv-x="1013" 
d="M1020 1302q0 -32 -24 -56t-57 -25q-35 1 -57 23t-22 54t25 58q25 24 59 24t54 -22q22 -24 22 -56zM410 -338q-80 0 -154 29l18 80h60q24 -31 84 -31t92 35t51 114l254 1102h-405l-224 -1022q-47 -225 -229 -301h-74l17 70q133 57 172 233l219 1020h-154l19 78h151l25 109
q59 266 309 266q98 0 160 -27l-17 -80h-61q-25 25 -93 25t-112 -42q-45 -42 -69 -146l-23 -105h420q48 0 70 -32t10 -83l-248 -1071q-51 -221 -268 -221z" />
    <glyph glyph-name="f_k" unicode="fk" horiz-adv-x="1556" 
d="M709 1362q-219 0 -265 -207l-18 -86h233l-18 -78h-231l-224 -1022q-47 -225 -229 -301h-74l17 70q133 57 172 233l219 1020h-154l19 78h151l21 90q63 285 379 285q80 0 157 -10h142q29 0 22 -37l-205 -893q229 111 399 264q169 154 236 301h117l-14 -63
q-156 -223 -428 -412l176 -432q33 -88 104 -88h55l-14 -58q-37 -24 -98 -24t-94 31t-60 96l-162 411q-131 -80 -241 -129l-92 -401h-76q-43 0 -31 59l279 1201q12 58 -20 80t-150 22z" />
    <glyph glyph-name="f_t" unicode="ft" horiz-adv-x="1153" 
d="M850 -10q-131 0 -183 74t-24 204l168 723h-401l-224 -1022q-47 -225 -229 -301h-74l17 70q133 57 172 233l219 1020h-154l19 78h151l25 109q59 266 309 266q98 0 160 -27l-17 -80h-61q-25 25 -93 25t-112 -42q-45 -42 -69 -146l-23 -105h401l70 295h117l-68 -295h260
l-18 -78h-260l-166 -723q-45 -197 98 -196q68 0 103 20h59l-16 -74q-76 -28 -156 -28z" />
    <glyph glyph-name="f_f_b" unicode="ffb" horiz-adv-x="2213" 
d="M1554 72q193 0 320 141q166 186 166 508q0 270 -207 270q-195 0 -434 -243l-133 -576q53 -48 115 -74t173 -26zM1229 1362q-219 0 -264 -207l-19 -86h234l-19 -78h-231l-223 -1022q-47 -225 -230 -301h-74l17 70q133 57 172 233l219 1020h-401l-224 -1022
q-47 -225 -229 -301h-74l17 70q133 57 172 233l219 1020h-154l19 78h151l21 90q59 270 305 271q92 0 153 -27l-16 -80h-61q-25 25 -89 25q-134 0 -176 -193l-18 -86h401l21 90q63 285 379 285q80 0 157 -10h142q29 0 22 -37l-129 -557q217 240 445 239q135 0 216 -87
t81 -260q-1 -173 -59 -330t-152 -252q-156 -158 -373 -158t-338 117q-49 -109 -82 -109h-49l291 1260q12 58 -20 80t-150 22z" />
    <glyph glyph-name="f_f_h" unicode="ffh" horiz-adv-x="2232" 
d="M1229 1362q-219 0 -264 -207l-19 -86h234l-19 -78h-231l-223 -1022q-47 -225 -230 -301h-74l17 70q133 57 172 233l219 1020h-401l-224 -1022q-47 -225 -229 -301h-74l17 70q133 57 172 233l219 1020h-154l19 78h151l21 90q59 270 305 271q92 0 153 -27l-16 -80h-61
q-25 25 -89 25q-134 0 -176 -193l-18 -86h401l21 90q63 285 379 285q80 0 157 -10h142q31 0 22 -37l-129 -555q258 238 500 237q117 -1 171 -73t24 -203l-146 -633q-8 -39 12 -68t56 -28h61l-14 -62q-47 -20 -115 -20t-102 48t-17 128l144 623q23 96 -9 144t-108 48
q-213 0 -475 -225l-174 -758h-76q-45 0 -29 59l277 1201q12 58 -20 80t-150 22z" />
    <glyph glyph-name="f_f_j" unicode="ffj" horiz-adv-x="1533" 
d="M1459 1221q-35 1 -57 23t-22 54t25 58q25 24 59 24t55 -22t21 -56q0 -32 -23 -57q-24 -24 -58 -24zM930 -338q-80 0 -154 29l19 80h59q24 -31 84 -31t92 35t51 114l254 1102h-405l-223 -1022q-47 -225 -230 -301h-74l17 70q133 57 172 233l219 1020h-401l-224 -1022
q-47 -225 -229 -301h-74l17 70q133 57 172 233l219 1020h-154l19 78h151l21 90q59 270 305 271q92 0 153 -27l-16 -80h-61q-25 25 -89 25q-134 0 -176 -193l-18 -86h401l25 109q59 266 309 266q98 0 160 -27l-16 -80h-62q-25 25 -93 25t-112 -42q-45 -42 -69 -146l-23 -105
h420q48 0 70 -32t10 -83l-248 -1071q-51 -221 -268 -221z" />
    <glyph glyph-name="f_f_k" unicode="ffk" horiz-adv-x="2076" 
d="M1229 1362q-219 0 -264 -207l-19 -86h234l-19 -78h-231l-223 -1022q-47 -225 -230 -301h-74l17 70q133 57 172 233l219 1020h-401l-224 -1022q-47 -225 -229 -301h-74l17 70q133 57 172 233l219 1020h-154l19 78h151l21 90q59 270 305 271q92 0 153 -27l-16 -80h-61
q-25 25 -89 25q-134 0 -176 -193l-18 -86h401l21 90q63 285 379 285q80 0 157 -10h142q29 0 22 -37l-205 -893q229 111 399 264q169 154 236 301h117l-14 -63q-156 -223 -428 -412l176 -432q33 -88 104 -88h56l-15 -58q-37 -24 -98 -24t-94 31t-60 96l-161 411
q-131 -80 -242 -129l-92 -401h-76q-43 0 -31 59l279 1201q12 58 -20 80t-150 22z" />
    <glyph glyph-name="f_f_t" unicode="fft" horiz-adv-x="1673" 
d="M1370 -10q-131 0 -183 74t-24 204l168 723h-401l-223 -1022q-47 -225 -230 -301h-74l17 70q133 57 172 233l219 1020h-401l-224 -1022q-47 -225 -229 -301h-74l17 70q133 57 172 233l219 1020h-154l19 78h151l21 90q59 270 305 271q92 0 153 -27l-16 -80h-61
q-25 25 -89 25q-134 0 -176 -193l-18 -86h401l25 109q59 266 309 266q98 0 160 -27l-16 -80h-62q-25 25 -93 25t-112 -42q-45 -42 -69 -146l-23 -105h402l69 295h117l-68 -295h260l-18 -78h-260l-166 -723q-45 -197 98 -196q68 0 103 20h59l-16 -74q-76 -28 -156 -28z" />
    <glyph glyph-name="f_igrave" unicode="f&#xec;" horiz-adv-x="1013" 
d="M899 1174l-123 215l12 53h99l84 -268h-72zM598 1444q80 0 129 -25l-16 -80h-60q-18 23 -66 23t-79 -36t-49 -124l-31 -133h420q48 0 70 -32t10 -83l-181 -788q-8 -37 14 -65t56 -27h64l-15 -62q-40 -20 -114 -20t-109 48t-14 132l188 819h-405l-224 -1022
q-47 -225 -229 -301h-74l17 70q133 57 172 233l219 1020h-154l19 78h151l31 137q53 238 260 238z" />
    <glyph glyph-name="f_iacute" unicode="f&#xed;" horiz-adv-x="1013" 
d="M848 1174l174 260h127l-12 -52l-209 -208h-80zM641 1444q98 0 160 -27l-17 -80h-61q-25 25 -93 25t-112 -42q-45 -42 -69 -146l-23 -105h420q48 0 70 -32t10 -83l-181 -788q-8 -37 14 -65t56 -27h64l-15 -62q-40 -20 -114 -20t-109 48t-14 132l188 819h-405l-224 -1022
q-47 -225 -229 -301h-74l17 70q133 57 172 233l219 1020h-154l19 78h151l25 109q59 266 309 266z" />
    <glyph glyph-name="f_icircumflex" unicode="f&#xee;" horiz-adv-x="1013" 
d="M614 1444q84 0 138 -27l-17 -80h-61q-20 25 -72 25q-107 0 -145 -160l-31 -133h420q48 0 70 -32t10 -83l-181 -788q-8 -37 14 -65t56 -27h64l-15 -62q-40 -20 -114 -20t-109 48t-14 132l188 819h-405l-224 -1022q-47 -225 -229 -301h-74l17 70q133 57 172 233l219 1020
h-154l19 78h151l31 137q53 238 276 238zM696 1174l11 40l184 220h108l103 -220l-10 -40h-52l-104 180l-178 -180h-62z" />
    <glyph glyph-name="f_idieresis" unicode="f&#xef;" horiz-adv-x="1013" 
d="M1061 1223q-33 0 -53 20t-21 53q0 33 25 58q26 24 56 24t52 -22t21 -52q1 -32 -23 -56t-57 -25zM829 1223q-33 0 -53 20t-20 54t23 58q24 23 56 23q31 0 53 -22t22 -52q0 -32 -24 -57q-24 -24 -57 -24zM598 1444q80 0 129 -25l-16 -80h-60q-18 23 -66 23t-79 -36
t-49 -124l-31 -133h420q48 0 70 -32t10 -83l-181 -788q-8 -37 14 -65t56 -27h64l-15 -62q-40 -20 -114 -20t-109 48t-14 132l188 819h-405l-224 -1022q-47 -225 -229 -301h-74l17 70q133 57 172 233l219 1020h-154l19 78h151l31 137q53 238 260 238z" />
    <glyph glyph-name="f_iogonek" unicode="f&#x12f;" horiz-adv-x="1013" 
d="M641 1444q98 0 160 -27l-17 -80h-61q-25 25 -93 25t-112 -42q-45 -42 -69 -146l-23 -105h420q48 0 70 -32t10 -83l-183 -788q-8 -37 14 -65t58 -27h64l-15 -62q-86 -33 -145 -90t-60 -123q0 -63 70 -63q29 0 51 14h47l-14 -67q-47 -19 -111 -19t-106 34q-41 34 -41 93
q0 113 162 205q-57 10 -82 57q-24 47 -8 119l188 819h-405l-224 -1022q-47 -225 -229 -301h-74l17 70q133 57 172 233l219 1020h-154l19 78h151l25 109q59 266 309 266zM1022 1302q0 -32 -24 -56t-57 -25q-35 1 -57 23t-22 54t25 58q25 24 59 24t54 -22q22 -24 22 -56z" />
    <glyph glyph-name="f_imacron" unicode="f&#x12b;" horiz-adv-x="1013" 
d="M766 1247l20 82h324l-20 -82h-324zM614 1444q84 0 138 -27l-17 -80h-61q-20 25 -72 25q-107 0 -145 -160l-31 -133h420q48 0 70 -32t10 -83l-181 -788q-8 -37 14 -65t56 -27h64l-15 -62q-40 -20 -114 -20t-109 48t-14 132l188 819h-405l-224 -1022q-47 -225 -229 -301
h-74l17 70q133 57 172 233l219 1020h-154l19 78h151l31 137q53 238 276 238z" />
    <glyph glyph-name="f_f_igrave" unicode="ff&#xec;" horiz-adv-x="1533" 
d="M1419 1174l-123 215l13 53h98l84 -268h-72zM620 1348q-134 0 -176 -193l-18 -86h401l31 137q53 238 260 238q80 0 129 -25l-16 -80h-60q-18 23 -66 23t-79 -36t-49 -124l-31 -133h420q47 0 70 -32t10 -83l-180 -788q-8 -37 14 -65t55 -27h64l-15 -62q-40 -20 -114 -20
t-109 48t-14 132l188 819h-405l-223 -1022q-47 -225 -230 -301h-74l17 70q133 57 172 233l219 1020h-401l-224 -1022q-47 -225 -229 -301h-74l17 70q133 57 172 233l219 1020h-154l19 78h151l21 90q59 270 305 271q92 0 153 -27l-16 -80h-61q-25 25 -89 25z" />
    <glyph glyph-name="f_f_iacute" unicode="ff&#xed;" horiz-adv-x="1533" 
d="M1368 1174l174 260h127l-12 -52l-209 -208h-80zM620 1348q-134 0 -176 -193l-18 -86h401l25 109q59 266 309 266q98 0 160 -27l-16 -80h-62q-25 25 -93 25t-112 -42q-45 -42 -69 -146l-23 -105h420q47 0 70 -32t10 -83l-180 -788q-8 -37 14 -65t55 -27h64l-15 -62
q-40 -20 -114 -20t-109 48t-14 132l188 819h-405l-223 -1022q-47 -225 -230 -301h-74l17 70q133 57 172 233l219 1020h-401l-224 -1022q-47 -225 -229 -301h-74l17 70q133 57 172 233l219 1020h-154l19 78h151l21 90q59 270 305 271q92 0 153 -27l-16 -80h-61q-25 25 -89 25
z" />
    <glyph glyph-name="f_f_icircumflex" unicode="ff&#xee;" horiz-adv-x="1533" 
d="M1217 1174l10 40l184 220h109l102 -220l-10 -40h-51l-105 180l-178 -180h-61zM620 1348q-134 0 -176 -193l-18 -86h401l31 137q53 238 277 238q84 0 137 -27l-17 -80h-61q-20 25 -72 25q-107 0 -145 -160l-31 -133h420q47 0 70 -32t10 -83l-180 -788q-8 -37 14 -65
t55 -27h64l-15 -62q-40 -20 -114 -20t-109 48t-14 132l188 819h-405l-223 -1022q-47 -225 -230 -301h-74l17 70q133 57 172 233l219 1020h-401l-224 -1022q-47 -225 -229 -301h-74l17 70q133 57 172 233l219 1020h-154l19 78h151l21 90q59 270 305 271q92 0 153 -27l-16 -80
h-61q-25 25 -89 25z" />
    <glyph glyph-name="f_f_idieresis" unicode="ff&#xef;" horiz-adv-x="1533" 
d="M1581 1223q-33 0 -53 20t-21 53q0 33 25 58q26 24 56 24t52 -22t21 -52q1 -32 -23 -56t-57 -25zM1350 1223q-33 0 -54 20q-20 20 -20 54t23 58q24 23 56 23q31 0 53 -22t22 -52q0 -32 -24 -56t-56 -25zM620 1348q-134 0 -176 -193l-18 -86h401l31 137q53 238 260 238
q80 0 129 -25l-16 -80h-60q-18 23 -66 23t-79 -36t-49 -124l-31 -133h420q47 0 70 -32t10 -83l-180 -788q-8 -37 14 -65t55 -27h64l-15 -62q-40 -20 -114 -20t-109 48t-14 132l188 819h-405l-223 -1022q-47 -225 -230 -301h-74l17 70q133 57 172 233l219 1020h-401
l-224 -1022q-47 -225 -229 -301h-74l17 70q133 57 172 233l219 1020h-154l19 78h151l21 90q59 270 305 271q92 0 153 -27l-16 -80h-61q-25 25 -89 25z" />
    <glyph glyph-name="f_f_iogonek" unicode="ff&#x12f;" horiz-adv-x="1533" 
d="M1461 1221q-35 1 -57 23t-22 54t25 58q25 24 59 24t55 -22t21 -56q0 -32 -23 -57q-24 -24 -58 -24zM620 1348q-134 0 -176 -193l-18 -86h401l25 109q59 266 309 266q98 0 160 -27l-16 -80h-62q-25 25 -93 25t-112 -42q-45 -42 -69 -146l-23 -105h420q47 0 70 -32t10 -83
l-182 -788q-8 -37 14 -65t57 -27h64l-15 -62q-86 -33 -145 -90q-59 -58 -59 -122t69 -64q29 0 51 14h48l-15 -67q-47 -19 -111 -19t-106 34q-41 34 -41 93q0 113 162 205q-57 10 -82 57q-24 47 -8 119l188 819h-405l-223 -1022q-47 -225 -230 -301h-74l17 70q133 57 172 233
l219 1020h-401l-224 -1022q-47 -225 -229 -301h-74l17 70q133 57 172 233l219 1020h-154l19 78h151l21 90q59 270 305 271q92 0 153 -27l-16 -80h-61q-25 25 -89 25z" />
    <glyph glyph-name="f_f_imacron" unicode="ff&#x12b;" horiz-adv-x="1533" 
d="M1286 1247l21 82h323l-20 -82h-324zM620 1348q-134 0 -176 -193l-18 -86h401l31 137q53 238 277 238q84 0 137 -27l-17 -80h-61q-20 25 -72 25q-107 0 -145 -160l-31 -133h420q47 0 70 -32t10 -83l-180 -788q-8 -37 14 -65t55 -27h64l-15 -62q-40 -20 -114 -20t-109 48
t-14 132l188 819h-405l-223 -1022q-47 -225 -230 -301h-74l17 70q133 57 172 233l219 1020h-401l-224 -1022q-47 -225 -229 -301h-74l17 70q133 57 172 233l219 1020h-154l19 78h151l21 90q59 270 305 271q92 0 153 -27l-16 -80h-61q-25 25 -89 25z" />
    <glyph glyph-name=".notdef" horiz-adv-x="1024" 
 />
    <glyph glyph-name=".null" horiz-adv-x="0" 
 />
    <glyph glyph-name="nonmarkingreturn" horiz-adv-x="681" 
 />
    <glyph glyph-name="space" unicode=" " horiz-adv-x="348" 
 />
    <glyph glyph-name="exclam" unicode="!" horiz-adv-x="309" 
d="M45 -8q-35 0 -57 22t-23 58q0 34 27 60q28 26 62 26t57 -24t23 -58t-28 -58q-26 -26 -61 -26zM57 295l224 1061l18 78h129l-18 -78l-275 -1061h-78z" />
    <glyph glyph-name="quotedbl" unicode="&#x22;" horiz-adv-x="473" 
d="M436 1073l35 268l23 93h122l-22 -93l-88 -268h-70zM217 1073l35 268l22 93h123l-20 -93l-90 -268h-70z" />
    <glyph glyph-name="numbersign" unicode="#" horiz-adv-x="948" 
d="M356 616h262l70 254h-262zM96 0l142 516h-175l23 100h178l70 254h-174l22 101h180l125 463h91l-125 -463h264l125 463h90l-125 -463h176l-25 -101h-178l-69 -254h174l-23 -100h-180l-139 -516h-92l141 516h-264l-140 -516h-92z" />
    <glyph glyph-name="dollar" unicode="$" horiz-adv-x="1032" 
d="M324 1080q0 -106 45 -156q45 -51 157 -107l123 539q-161 -8 -243 -89t-82 -187zM815 414q0 88 -53 140t-182 114l-136 -592q184 10 278 97q93 87 93 241zM211 1070q0 148 120 256q120 110 339 116l28 123h88l-28 -125q154 -8 317 -72l-55 -240h-80q10 88 6 122t-28 55
q-63 47 -181 51l-131 -576q184 -88 255 -156t71 -204q0 -196 -132 -310t-376 -120l-45 -199h-88l45 201q-193 8 -361 90l58 248h84q-10 -100 -4 -135t28 -58q66 -57 215 -61l144 629q-154 73 -222 145t-67 220z" />
    <glyph glyph-name="percent" unicode="%" horiz-adv-x="1488" 
d="M1018 63q110 0 186 108t76 261q0 197 -160 197q-110 0 -186 -109t-76 -262q0 -195 160 -195zM1010 -10q-117 0 -189 74t-71 198q0 184 113 313q114 129 263 130q117 0 191 -75t74 -200q1 -184 -113 -312t-268 -128zM86 -70l1294 1563h105l-1295 -1563h-104zM451 803
q111 -1 187 107t75 261q0 197 -160 197q-111 0 -187 -108t-75 -263q0 -194 160 -194zM442 729q-116 0 -188 74t-72 198q0 183 114 313t263 130q117 0 191 -75t73 -200q1 -184 -113 -312t-268 -128z" />
    <glyph glyph-name="ampersand" unicode="&#x26;" horiz-adv-x="1372" 
d="M475 76q215 0 373 168l-344 524q-338 -125 -338 -408q0 -120 78 -202t231 -82zM453 -10q-199 0 -309 102t-109 254q0 348 430 490q-53 102 -53 211q0 173 116 285t312 112q143 0 235 -51q18 0 33 41h84l-78 -336h-88l18 180q-66 80 -206 80t-222 -82t-82 -211t91 -268
l303 -463q109 141 198 393h-133l17 74h376l-16 -74h-88q-49 0 -72 -51q-115 -276 -231 -422l86 -127q37 -53 76 -53h78l-17 -74h-194l-111 168q-178 -178 -444 -178z" />
    <glyph glyph-name="quotesingle" unicode="'" horiz-adv-x="253" 
d="M217 1073l35 268l22 93h123l-20 -93l-90 -268h-70z" />
    <glyph glyph-name="parenleft" unicode="(" horiz-adv-x="589" 
d="M86 479q0 209 61 393q104 313 361 520q102 83 205 126h61l-16 -66q-151 -71 -281 -220q-270 -309 -270 -755q0 -354 207 -514l-15 -63h-57q-256 182 -256 579z" />
    <glyph glyph-name="parenright" unicode=")" horiz-adv-x="589" 
d="M584 938q0 -209 -60 -393q-105 -318 -355 -519q-101 -83 -204 -126h-69l16 65q179 85 349 307q89 117 146 292q56 175 56 376q0 354 -207 514l14 64h58q256 -186 256 -580z" />
    <glyph glyph-name="asterisk" unicode="*" horiz-adv-x="743" 
d="M395 788v82l90 215l-209 -102l-73 -4l-23 70l66 41l233 24l-196 133l-41 64l49 53l65 -37l142 -190l14 237l29 60h80v-84l-93 -220l211 109l76 4l21 -69l-66 -41l-238 -31l201 -127l41 -64l-47 -53l-68 37l-143 184l-12 -233l-29 -58h-80z" />
    <glyph glyph-name="plus" unicode="+" horiz-adv-x="980" 
d="M385 274l88 390h-367l21 88h369l88 389h94l-88 -389h366l-20 -88h-369l-88 -390h-94z" />
    <glyph glyph-name="comma" unicode="," horiz-adv-x="309" 
d="M-39 72q0 38 25 62q24 24 60 24t60 -25t25 -67q-1 -112 -71 -178t-179 -78l15 63q49 10 84 38q34 28 34 55q0 28 -26 48t-27 58z" />
    <glyph glyph-name="hyphen" unicode="-" horiz-adv-x="491" 
d="M66 565l22 90h373l-23 -90h-372z" />
    <glyph glyph-name="period" unicode="." horiz-adv-x="309" 
d="M45 -8q-35 0 -57 22t-23 58q0 34 27 60q28 26 62 26t57 -24t23 -58t-28 -58q-26 -26 -61 -26z" />
    <glyph glyph-name="slash" unicode="/" horiz-adv-x="649" 
d="M-123 -100l866 1618h105l-866 -1618h-105z" />
    <glyph glyph-name="zero" unicode="0" horiz-adv-x="1302" 
d="M578 76q252 0 418 226t165 622q0 206 -89 320t-261 114q-238 0 -412 -240t-174 -608q0 -207 90 -321q91 -113 263 -113zM575 -10q-223 0 -350 142t-127 392q0 387 205 650q101 130 233 200t277 70q225 0 350 -142t125 -391q0 -420 -213 -680q-201 -241 -500 -241z" />
    <glyph glyph-name="one" unicode="1" horiz-adv-x="677" 
d="M109 74q27 0 53 22t31 45l270 1178l-225 -105h-43l16 78l315 142h88l-297 -1293q-3 -27 9 -47t36 -20h162l-16 -74h-584l17 74h168z" />
    <glyph glyph-name="two" unicode="2" horiz-adv-x="1040" 
d="M946 1116q0 112 -72 178t-210 66q-224 0 -284 -111q-22 -39 -52 -129h-86l59 246q162 78 363 78t306 -87t105 -230t-64 -230q-26 -35 -45 -59t-81 -68q-96 -69 -203 -125t-147 -78q-410 -215 -476 -469h680l74 236h90l-76 -334h-897l17 76q43 178 173 306t349 255
q316 171 372 231q79 88 92 141q13 54 13 107z" />
    <glyph glyph-name="three" unicode="3" horiz-adv-x="1019" 
d="M369 -10q-217 0 -402 88l51 219h80q-12 -129 29 -164q65 -59 259 -59t299 105t106 270q0 117 -79 185t-212 66h-113l19 84h112q174 0 277 88q102 88 102 246q0 242 -274 242q-135 0 -211 -45q-47 -29 -95 -160h-84l50 217q178 72 356 72q177 0 279 -83t102 -233t-92 -256
t-250 -135v-4q111 -20 174 -99t63 -190q0 -202 -141 -328t-405 -126z" />
    <glyph glyph-name="four" unicode="4" horiz-adv-x="1099" 
d="M131 463h602l185 807h-5l-782 -803v-4zM575 74q27 0 53 22t31 45l54 236h-701l23 102l934 955h110l-223 -971h180l-18 -86h-182l-54 -236q-6 -25 8 -47t37 -20h119l-16 -74h-488l17 74h116z" />
    <glyph glyph-name="five" unicode="5" horiz-adv-x="1030" 
d="M336 -10q-217 0 -379 88l49 215h84q-16 -125 25 -158q78 -59 225 -59q215 0 348 119t133 329q0 137 -70 209q-71 72 -206 72q-207 0 -336 -146h-84l180 775h793l-60 -258h-86l17 159h-594l-127 -557h4q125 113 309 113q183 0 285 -91t102 -263q0 -247 -171 -397
t-441 -150z" />
    <glyph glyph-name="six" unicode="6" horiz-adv-x="1148" 
d="M541 76q177 0 287 126t110 318q0 127 -76 196t-211 68q-240 0 -428 -202q-6 -53 -6 -117q0 -389 324 -389zM1067 530q-1 -232 -151 -386t-367 -154t-336 127t-119 363t87 438t235 333q211 190 504 191q166 0 288 -56l-22 -94h-74q-61 66 -203 66q-242 0 -415 -170
q-219 -213 -261 -510q197 193 449 192q178 0 282 -87t103 -253z" />
    <glyph glyph-name="seven" unicode="7" horiz-adv-x="1034" 
d="M1073 1335h-727l-76 -241h-88l78 340h934l-27 -111l-891 -1323h-118l12 59l903 1272v4z" />
    <glyph glyph-name="eight" unicode="8" horiz-adv-x="1142" 
d="M670 809q140 0 234 85q95 85 95 228q0 106 -66 171q-67 65 -209 65t-232 -89q-92 -89 -93 -237q-1 -100 65 -162t206 -61zM174 352q0 -124 83 -200t256 -76t284 102t110 268q0 127 -81 202q-82 75 -250 75q-168 1 -285 -105t-117 -266zM1032 442q0 -200 -150 -326
t-376 -126q-225 0 -342 99t-117 260t115 279t299 148v4q-90 35 -137 105t-48 157q0 172 134 287t323 115t289 -89t100 -227t-90 -237q-90 -98 -241 -129v-4q119 -37 180 -120t61 -196z" />
    <glyph glyph-name="nine" unicode="9" horiz-adv-x="1148" 
d="M664 1358q-176 0 -287 -125t-111 -311q0 -272 277 -273q250 0 438 203q6 53 6 117q1 389 -323 389zM656 1444q218 0 336 -127t118 -368t-78 -445q-197 -514 -747 -514q-172 0 -287 59l22 98h74q59 -72 201 -71q279 0 440 160q190 184 236 518q-195 -190 -449 -191
q-176 0 -280 92t-105 260q0 223 151 376t368 153z" />
    <glyph glyph-name="colon" unicode=":" horiz-adv-x="323" 
d="M51 -8q-35 0 -57 22t-23 58q0 34 27 60q28 26 62 26t57 -24t23 -58t-27 -59t-62 -25zM287 708q-1 -34 -27 -60t-61 -25t-58 23t-23 56t27 61q27 25 62 25t57 -24q22 -22 23 -56z" />
    <glyph glyph-name="semicolon" unicode=";" horiz-adv-x="323" 
d="M287 708q-1 -34 -27 -60t-61 -25t-58 23t-23 56t27 61q27 25 62 25t57 -24q22 -22 23 -56zM-33 72q0 38 25 62q24 24 60 24t61 -25t24 -67q0 -111 -70 -178q-71 -66 -180 -78l15 63q49 10 84 38q34 28 34 55q0 28 -26 48t-27 58z" />
    <glyph glyph-name="less" unicode="&#x3c;" horiz-adv-x="942" 
d="M756 229l-660 426l21 84l841 381h43l-20 -90l-754 -338v-2l586 -381l-18 -80h-39z" />
    <glyph glyph-name="equal" unicode="=" horiz-adv-x="997" 
d="M125 770l20 90h859l-21 -90h-858zM45 428l23 90h858l-23 -90h-858z" />
    <glyph glyph-name="greater" unicode="&#x3e;" horiz-adv-x="942" 
d="M6 229l21 90l753 336v4l-585 379l18 82h39l659 -426l-20 -84l-842 -381h-43z" />
    <glyph glyph-name="question" unicode="?" horiz-adv-x="894" 
d="M264 -8q-36 0 -58 22t-22 58q0 34 27 60t61 26t58 -24q22 -24 22 -58t-26 -59q-27 -25 -62 -25zM831 1171q0 77 -62 133t-178 56t-165 -26t-72 -59q-23 -34 -45 -114h-84l47 215q160 68 330 68t263 -75t93 -222t-118 -260q-62 -60 -144 -118q-81 -58 -108 -79
q-119 -90 -173 -174t-71 -221h-84q14 147 66 243q70 129 259 266q108 78 177 153q69 76 69 214z" />
    <glyph glyph-name="at" unicode="@" horiz-adv-x="1787" 
d="M754 225q86 0 156 45t151 129l115 424q-68 47 -166 47q-135 0 -238 -108q-156 -162 -156 -379q1 -158 138 -158zM723 143q-103 -1 -165 63t-62 181q0 233 186 426q135 139 319 139q125 0 207 -69q51 66 82 65h39l-153 -559q-46 -170 106 -170q137 0 243 119
q105 119 105 352q0 274 -183 426t-480 152t-524 -194q-111 -93 -177 -244t-65 -334q0 -342 191 -504t513 -162t510 139h60v-65q-215 -154 -562 -154t-576 170q-115 86 -181 234t-66 344t78 362q142 302 485 432q154 57 310 58q333 0 551 -175t219 -485q-1 -264 -143 -404
t-328 -141q-216 0 -207 172q-154 -174 -332 -174z" />
    <glyph glyph-name="A" unicode="A" horiz-adv-x="1427" 
d="M895 1337l-449 -786h545l-84 786h-12zM276 74h123l-16 -74h-465l16 74h54q78 0 123 76l647 1134q43 74 -25 74h-123l19 76h387l141 -1278q3 -35 23 -59t51 -23h65l-16 -74h-471l16 74h217l-43 395h-600l-149 -262q-49 -88 -26 -117q13 -16 52 -16z" />
    <glyph glyph-name="B" unicode="B" horiz-adv-x="1196" 
d="M641 791q395 0 399 335q4 224 -284 226h-230l-129 -561h244zM530 78q227 0 336 108t109 281q0 244 -336 244h-260l-146 -633h297zM35 74q27 0 55 22t33 45l262 1147q6 26 -6 48t-37 22h-104l18 76h510q190 0 296 -75t107 -222q0 -322 -348 -385v-4q131 -20 207 -90
t76 -193q0 -215 -152 -340t-420 -125h-608l17 74h94z" />
    <glyph glyph-name="C" unicode="C" horiz-adv-x="1269" 
d="M618 -10q-242 0 -376 142t-136 393q0 251 103 460q101 209 291 334t428 125q180 0 311 -66q29 0 41 56h84l-94 -404h-92l28 234q-86 94 -278 94q-305 0 -500 -234t-195 -598q-1 -214 103 -332t276 -118t272 48q99 48 185 136h70l-23 -98q-201 -172 -498 -172z" />
    <glyph glyph-name="D" unicode="D" horiz-adv-x="1388" 
d="M516 80q362 0 545 222q182 222 182 601q0 451 -493 451h-224l-293 -1274h283zM35 74q27 0 55 22t33 45l262 1147q6 26 -6 48t-37 22h-104l18 76h508q296 0 452 -138t156 -401q0 -403 -220 -649t-642 -246h-586l17 74h94z" />
    <glyph glyph-name="E" unicode="E" horiz-adv-x="1191" 
d="M35 74q27 0 55 22t33 45l262 1147q6 26 -6 48t-37 22h-104l18 76h1020l-80 -344h-86l41 264h-625l-133 -574h379l62 183h81l-102 -447h-84l29 184h-383l-144 -620h682l86 289h91l-84 -369h-1082l17 74h94z" />
    <glyph glyph-name="F" unicode="F" horiz-adv-x="1130" 
d="M35 74q27 0 55 22t33 45l262 1147q6 26 -6 48t-37 22h-104l18 76h1022l-80 -349h-88l41 269h-625l-141 -613h377l61 191h84l-108 -465h-82l28 195h-378l-136 -588h197l-16 -74h-488l17 74h94z" />
    <glyph glyph-name="G" unicode="G" horiz-adv-x="1374" 
d="M618 -10q-246 0 -378 136t-134 388q0 252 104 463t294 339t402 128t339 -64q29 0 45 54h82l-92 -392h-90l29 220q-106 96 -289 96q-301 0 -497 -240t-195 -594q0 -449 397 -448q79 0 147 18t101 36t96 56l88 383h-207l17 76h477l-17 -76h-75q-25 1 -52 -23t-32 -48
l-115 -498h-78q8 74 -27 74q-143 -84 -340 -84z" />
    <glyph glyph-name="H" unicode="H" horiz-adv-x="1468" 
d="M35 74q27 0 55 22t33 47l262 1143q6 28 -6 50t-37 22h-104l18 76h500l-19 -76h-209l-133 -576h793l133 576h-211l18 76h502l-18 -76h-96q-27 0 -54 -24t-30 -48l-265 -1143q-6 -27 5 -49t36 -20h107l-17 -74h-501l16 74h211l145 626h-792l-146 -626h211l-16 -74h-502
l17 74h94z" />
    <glyph glyph-name="I" unicode="I" horiz-adv-x="585" 
d="M55 74q27 0 54 22t32 45l265 1147q4 26 -8 48t-36 22h-124l18 76h492l-19 -76h-113q-28 0 -54 -23t-32 -47l-262 -1147q-6 -27 5 -47t36 -20h125l-16 -74h-494l17 74h114z" />
    <glyph glyph-name="J" unicode="J" horiz-adv-x="917" 
d="M236 -10q-177 0 -310 80l23 96h78q49 -90 193 -90t214 60q68 60 98 190l224 962q4 26 -7 48t-36 22h-113l16 76h463l-18 -76h-94q-27 0 -54 -23t-32 -47l-226 -973q-39 -165 -141 -245t-278 -80z" />
    <glyph glyph-name="K" unicode="K" horiz-adv-x="1359" 
d="M35 74q27 0 55 22t33 45l262 1147q6 26 -6 48t-37 22h-104l18 76h494l-19 -76h-203l-176 -760l768 672q57 49 32 77q-11 11 -38 11h-65l16 76h412l-19 -76h-53q-51 0 -127 -62l-549 -473l303 -669q37 -80 101 -80h73l-16 -74h-266l14 66l-303 679l-309 -266l-95 -405h203
l-14 -74h-496l17 74h94z" />
    <glyph glyph-name="L" unicode="L" horiz-adv-x="1148" 
d="M35 74q27 0 55 22t33 45l262 1147q6 26 -6 48t-37 22h-104l18 76h516l-18 -76h-226l-295 -1278h644l96 317h90l-90 -397h-1049l17 74h94z" />
    <glyph glyph-name="M" unicode="M" horiz-adv-x="1746" 
d="M35 74q27 0 55 22t33 47l262 1145q6 26 -6 48t-37 22h-104l18 76h373l166 -1235h4l723 1235h387l-19 -76h-96q-28 0 -54 -23t-32 -47l-262 -1147q-6 -27 5 -47t36 -20h106l-16 -74h-477l16 74h187l294 1276h-24l-791 -1350h-84l-174 1350h-22l-295 -1276h188l-16 -74
h-455l17 74h94z" />
    <glyph glyph-name="N" unicode="N" 
d="M35 74q27 0 55 22t33 47l262 1145q6 26 -6 48t-37 22h-104l18 76h311l502 -1244h2l268 1168h-206l18 76h471l-18 -76h-95q-25 0 -53 -22t-31 -44l-297 -1292h-108l-522 1292h-11l-280 -1218h211l-17 -74h-477l17 74h94z" />
    <glyph glyph-name="O" unicode="O" horiz-adv-x="1445" 
d="M664 76q258 0 443 231t185 584q0 223 -111 345q-112 122 -317 122q-260 0 -443 -232t-183 -585q0 -225 110 -345t316 -120zM657 -10q-256 0 -402 146t-146 411q0 383 227 640t534 257q254 0 402 -148t149 -407q-1 -260 -109 -468q-108 -207 -282 -319t-373 -112z" />
    <glyph glyph-name="P" unicode="P" horiz-adv-x="1155" 
d="M1090 1098q0 250 -328 252h-236l-155 -672h254q227 0 346 106t119 314zM35 74q27 0 55 22t33 45l262 1147q6 26 -9 48t-40 22h-98l18 76h514q205 0 326 -85t121 -249q0 -246 -158 -374t-441 -128h-266l-121 -524h189l-17 -74h-479l17 74h94z" />
    <glyph glyph-name="Q" unicode="Q" horiz-adv-x="1445" 
d="M664 76q258 0 443 231t185 584q0 223 -111 345q-112 122 -317 122q-260 0 -443 -232t-183 -585q0 -225 110 -345t316 -120zM109 547q0 387 224 642t537 255q254 0 402 -148t149 -411q0 -330 -163 -559t-402 -287v-2q354 -29 467 -217l-16 -72h-105q-49 123 -182 170
q-133 46 -387 68t-389 164t-135 397z" />
    <glyph glyph-name="R" unicode="R" horiz-adv-x="1312" 
d="M635 741q209 1 321 97t113 274q0 244 -311 244h-232l-141 -615h250zM35 74q27 0 55 22t33 45l262 1147q6 26 -6 48t-37 22h-104l18 76h514q196 0 312 -79t116 -235q0 -188 -115 -292t-282 -132v-4q100 -31 147 -92t68 -213l33 -254q6 -59 47 -59h73l-16 -74h-223l-37 385
q-13 162 -73 219t-208 58h-245l-136 -588h189l-17 -74h-479l17 74h94z" />
    <glyph glyph-name="S" unicode="S" horiz-adv-x="1056" 
d="M958 422q0 -200 -143 -316t-365 -116t-362 78q-27 0 -41 -68h-86l92 401h90l-32 -217q127 -108 318 -108t303 86t112 250q0 90 -57 142q-23 22 -35 33q-15 14 -104 59t-120 56q-145 68 -221 144t-76 230t121 260q121 108 340 108q164 0 295 -66q23 0 43 56h84l-84 -361
h-88l25 184q-103 101 -277 101t-261 -78t-87 -200t76 -181q41 -33 77 -52t167 -81t190 -109q106 -88 106 -235z" />
    <glyph glyph-name="T" unicode="T" horiz-adv-x="1280" 
d="M406 74q26 0 52 22t31 45l279 1213h-403l-91 -312h-90l90 392h1149l-92 -392h-88l53 312h-403l-279 -1213q-6 -27 6 -47t39 -20h115l-16 -74h-479l16 74h111z" />
    <glyph glyph-name="U" unicode="U" 
d="M651 -10q-247 0 -382 128q-134 128 -74 382l180 786q6 28 -5 50t-36 22h-96l18 76h485l-18 -76h-205l-201 -871q-92 -408 349 -407q190 0 304 84t163 295l206 899h-202l18 76h459l-19 -76h-88q-27 0 -53 -24t-31 -48l-192 -835q-57 -249 -195 -355t-385 -106z" />
    <glyph glyph-name="V" unicode="V" horiz-adv-x="1415" 
d="M289 1358h-60l19 76h452l-18 -76h-207l150 -1202h6l637 1081q72 121 -31 121h-113l19 76h442l-18 -76h-47q-33 0 -67 -22t-54 -56l-756 -1280h-121l-162 1276q-4 34 -23 58t-48 24z" />
    <glyph glyph-name="W" unicode="W" horiz-adv-x="1955" 
d="M283 1358h-50l19 76h442l-18 -76h-201l39 -1168h6l621 1244h100l68 -1244h4l502 1041q33 67 25 97t-64 30h-103l19 76h432l-19 -76h-39q-80 0 -120 -84l-617 -1274h-129l-67 1206h-3l-602 -1206h-133l-41 1276q-2 34 -21 58t-50 24z" />
    <glyph glyph-name="X" unicode="X" horiz-adv-x="1337" 
d="M-6 74q22 0 58 17t57 40l534 606l-233 551q-29 70 -86 70h-86l18 76h451l-19 -76h-172l234 -551l380 455q35 44 30 70t-42 26h-84l19 76h446l-18 -76h-95q-20 0 -58 -22t-60 -48l-480 -561l248 -584q31 -70 88 -69h60l-17 -74h-442l14 74h191l-248 585l-426 -491
q-31 -39 -27 -67t39 -27h109l-15 -74h-438l17 74h53z" />
    <glyph glyph-name="Y" unicode="Y" horiz-adv-x="1304" 
d="M420 74q26 0 54 22t32 45l106 475l-247 662q-29 80 -95 80h-37l19 76h428l-18 -76h-197l244 -660h2l432 537q49 59 39 91t-68 32h-90l16 76h428l-18 -76h-39q-59 0 -121 -76l-555 -684l-104 -457q-6 -27 6 -47t37 -20h119l-17 -74h-481l16 74h109z" />
    <glyph glyph-name="Z" unicode="Z" horiz-adv-x="1114" 
d="M84 80h747l82 272h91l-80 -352h-1000l21 88l1155 1262v4h-715l-78 -260h-88l78 340h967l-23 -91l-1157 -1259v-4z" />
    <glyph glyph-name="bracketleft" unicode="[" horiz-adv-x="487" 
d="M-59 -100l372 1618h355l-19 -80h-241l-336 -1461h241l-18 -77h-354z" />
    <glyph glyph-name="backslash" unicode="\" horiz-adv-x="651" 
d="M387 -100l-131 1618h96l131 -1618h-96z" />
    <glyph glyph-name="bracketright" unicode="]" horiz-adv-x="487" 
d="M629 1518l-373 -1618h-354l18 80h242l336 1460h-242l18 78h355z" />
    <glyph glyph-name="asciicircum" unicode="^" horiz-adv-x="843" 
d="M291 1102l8 39l272 293h103l151 -293l-8 -39h-67l-142 233h-4l-237 -233h-76z" />
    <glyph glyph-name="underscore" unicode="_" horiz-adv-x="675" 
d="M-195 -332l17 74h688l-18 -74h-687z" />
    <glyph glyph-name="grave" unicode="`" horiz-adv-x="847" 
d="M551 1174l-172 208l12 52h107l127 -260h-74z" />
    <glyph glyph-name="a" unicode="a" horiz-adv-x="1026" 
d="M328 72q190 0 346 186l51 227q-115 49 -265 49t-240 -67q-89 -68 -89 -207q1 -88 55 -138t142 -50zM776 -8q-66 0 -102 47t-17 125q-150 -174 -344 -174q-133 0 -214 72t-81 190q0 178 122 269t331 91q152 0 270 -53l43 180q29 125 -31 191t-182 65q-190 0 -311 -94h-59
l22 100q165 78 351 78t277 -89t52 -255l-133 -569q-10 -43 8 -69q27 -39 125 -19l-14 -66q-47 -20 -113 -20z" />
    <glyph glyph-name="b" unicode="b" horiz-adv-x="1114" 
d="M455 72q193 0 319 141q166 186 166 508q0 270 -207 270q-195 0 -434 -243l-133 -576q54 -48 116 -74t173 -26zM477 -8q-217 0 -338 117q-49 -109 -82 -109h-49l299 1298q6 25 -6 42t-35 18h-98l18 76h240q33 0 23 -37l-130 -557q217 240 445 239q135 0 216 -87t81 -260
q-1 -173 -59 -330t-152 -252q-156 -158 -373 -158z" />
    <glyph glyph-name="c" unicode="c" horiz-adv-x="991" 
d="M459 -8q-197 0 -298 108t-102 293q-1 289 179 488t460 198q176 0 299 -65l-45 -193h-75q3 70 -9 105q-26 73 -178 73q-230 0 -370 -178t-140 -428q0 -151 69 -237t210 -86q81 0 147 22t98 46t66 61h70l-23 -90q-161 -117 -358 -117z" />
    <glyph glyph-name="d" unicode="d" horiz-adv-x="1169" 
d="M176 340q0 -268 222 -268q108 0 211 70t212 188l135 575q-42 29 -70 45q-80 45 -214 45q-178 0 -314 -141q-82 -86 -132 -220t-50 -294zM375 -8q-150 0 -235 87t-85 256q1 169 63 323t158 251q164 170 394 170q176 0 301 -102l90 381h-182l18 76h268q33 0 23 -37
l-285 -1231q-9 -37 13 -65t57 -27h61l-14 -62q-36 -20 -104 -20t-109 44t-23 126l15 65q-184 -235 -424 -235z" />
    <glyph glyph-name="e" unicode="e" horiz-adv-x="999" 
d="M858 836q0 166 -186 166t-310 -130q-124 -129 -167 -315q343 6 503 71t160 208zM460 -8q-200 0 -299 111q-99 112 -100 300q-1 283 179 480t438 196q133 0 215 -59t82 -180q0 -180 -196 -268t-595 -93q-4 -41 -4 -78q0 -151 70 -241t207 -90q190 0 311 129h70l-23 -90
q-155 -117 -355 -117z" />
    <glyph glyph-name="f" unicode="f" horiz-adv-x="591" 
d="M641 1444q98 0 160 -27l-17 -80h-61q-25 25 -93 25t-112 -42q-45 -42 -69 -146l-23 -105h233l-18 -78h-231l-224 -1022q-47 -225 -229 -301h-74l17 70q133 57 172 233l219 1020h-154l19 78h151l25 109q59 266 309 266z" />
    <glyph glyph-name="g" unicode="g" horiz-adv-x="962" 
d="M266 690q0 -88 54 -142t172 -54q120 0 201 83t81 226q0 90 -55 144t-172 54t-199 -88t-82 -223zM338 -264q178 0 277 70t99 166t-50 132q-51 36 -152 37h-272q-100 -37 -160 -97t-60 -138q0 -170 318 -170zM342 -346q-230 0 -333 68t-103 170t68 166t194 116
q-76 33 -76 121q0 115 150 194q-90 73 -90 221t117 259q118 111 292 110q47 0 98 -10h373l-16 -78h-137q-39 0 -43 -37q51 -68 51 -155q0 -171 -115 -277t-291 -106q-106 0 -184 39q-100 -55 -100 -133q0 -35 26 -56q27 -20 70 -20h256q135 0 207 -60t71 -176
q0 -162 -128 -259q-127 -97 -357 -97z" />
    <glyph glyph-name="h" unicode="h" horiz-adv-x="1189" 
d="M926 -8q-68 0 -103 48t-16 128l143 623q23 96 -9 144t-107 48q-213 0 -476 -225l-174 -758h-75q-45 0 -29 59l285 1239q5 23 -7 41t-32 19h-101l19 76h239q33 0 23 -37l-129 -555q258 238 500 237q117 -1 171 -73t23 -203l-145 -633q-8 -39 12 -68t55 -28h62l-15 -62
q-46 -20 -114 -20z" />
    <glyph glyph-name="i" unicode="i" horiz-adv-x="493" 
d="M414 1221q-33 1 -55 23q-21 22 -21 54t24 58q25 24 59 24q33 0 55 -22t22 -56q0 -32 -26 -56t-58 -25zM229 -8q-75 0 -109 48t-14 132l168 727q10 39 -9 66t-56 26h-82l14 64q80 23 129 22q164 0 121 -180l-168 -731q-8 -37 14 -65t58 -27h63l-14 -62q-41 -20 -115 -20z
" />
    <glyph glyph-name="j" unicode="j" horiz-adv-x="495" 
d="M498 1302q0 -32 -24 -56t-57 -25q-34 1 -57 23q-22 22 -22 54t24 58q25 24 59 24q33 0 55 -22q22 -24 22 -56zM-109 -338q-80 0 -153 29l18 80h60q25 -31 84 -31t92 35t51 114l231 1010q8 39 -10 66t-55 26h-82l16 64q78 23 127 22q160 0 121 -180l-231 -1014
q-50 -221 -269 -221z" />
    <glyph glyph-name="k" unicode="k" horiz-adv-x="1034" 
d="M834 -8q-62 0 -95 31t-59 96l-162 411q-131 -80 -242 -129l-92 -401h-75q-43 0 -31 59l287 1239q5 23 -7 41t-34 19h-99l19 76h239q33 0 23 -37l-205 -893q229 110 398 264t237 301h117l-15 -63q-156 -223 -428 -412l176 -432q33 -88 105 -88h55l-14 -58q-36 -24 -98 -24
z" />
    <glyph glyph-name="l" unicode="l" horiz-adv-x="507" 
d="M236 -8q-68 0 -104 48t-15 132l260 1126q4 23 -10 41t-37 19h-105l19 76h252q29 0 22 -37l-285 -1231q-7 -37 13 -65t55 -27h74l-15 -62q-56 -20 -124 -20z" />
    <glyph glyph-name="m" unicode="m" horiz-adv-x="1822" 
d="M1554 -8q-66 0 -99 52q-34 52 -13 138l137 594q49 207 -111 207q-78 0 -162 -37t-142 -76q-56 -39 -136 -104l-176 -766h-76q-45 0 -28 59l163 715q49 209 -120 209q-101 0 -205 -58t-226 -157l-176 -768h-75q-45 0 -29 59l192 840q10 39 -9 66t-58 26h-78l14 64
q172 58 234 -24q35 -46 16 -128l-12 -53q248 229 467 229q102 0 154 -62t40 -173q252 236 471 235q117 1 169 -73t24 -203l-148 -637q-8 -37 14 -65t56 -27h64l-15 -62q-55 -20 -121 -20z" />
    <glyph glyph-name="n" unicode="n" horiz-adv-x="1189" 
d="M926 -8q-68 0 -103 48t-16 128l143 623q23 96 -9 144t-105 48q-215 0 -478 -225l-174 -758h-75q-45 0 -29 59l192 840q10 39 -9 66t-58 26h-78l14 64q79 23 139 23t96 -48q36 -47 13 -137l-12 -51q258 238 500 237q117 -1 171 -73t23 -203l-145 -633q-8 -39 12 -68
t55 -28h62l-15 -62q-46 -20 -114 -20z" />
    <glyph glyph-name="o" unicode="o" horiz-adv-x="1124" 
d="M485 70q203 0 333 178t130 420q0 158 -79 244t-224 85q-203 0 -334 -173t-131 -418q0 -162 80 -249t225 -87zM481 -8q-197 0 -309 114t-111 312q0 276 169 469t421 192q193 1 305 -113t111 -304q0 -278 -167 -474t-419 -196z" />
    <glyph glyph-name="p" unicode="p" horiz-adv-x="1175" 
d="M518 82q184 0 313 131q78 82 124 216t46 292q0 270 -210 270q-195 0 -437 -250l-129 -561q109 -98 293 -98zM-49 -262q23 0 45 17t24 40l252 1104q10 39 -9 66t-58 26h-78l14 64q53 23 125 23t109 -47q37 -46 14 -138l-12 -57q207 244 448 243q137 0 217 -84t80 -255
q0 -170 -58 -328q-151 -409 -534 -410q-203 0 -321 107l-84 -371h176l-14 -70h-439l17 70h86z" />
    <glyph glyph-name="q" unicode="q" horiz-adv-x="1136" 
d="M387 82q203 0 436 254l131 567q-42 31 -66 46t-80 31t-126 15q-190 0 -326 -145q-80 -84 -130 -216t-50 -288q0 -264 211 -264zM367 2q-311 0 -312 344q1 162 63 314t156 249q164 170 404 170q188 0 305 -112q53 102 92 102h37l-293 -1272q-6 -23 7 -41t34 -18h96
l-14 -70h-461l17 70h188l115 500q-180 -236 -434 -236z" />
    <glyph glyph-name="r" unicode="r" horiz-adv-x="741" 
d="M109 0q-45 0 -29 59l192 840q10 39 -9 66t-58 26h-78l14 64q53 23 126 23t108 -49q35 -48 12 -144l-12 -49q195 240 381 239q33 0 51 -6l-23 -98q-23 2 -41 2q-109 1 -199 -61t-190 -175l-170 -737h-75z" />
    <glyph glyph-name="s" unicode="s" horiz-adv-x="851" 
d="M314 -8q-196 0 -345 82l43 182h78q-6 -106 25 -137q51 -49 199 -49t226 65q76 66 76 158t-65 135q-42 28 -164 79q-123 50 -181 106t-59 161q-1 141 103 223t286 82t308 -71l-39 -177h-74q4 102 -29 127q-47 39 -178 39q-130 0 -200 -55t-70 -151q0 -51 31 -89t69 -57
q38 -20 144 -63q108 -44 168 -102t61 -167q0 -143 -109 -232q-108 -89 -304 -89z" />
    <glyph glyph-name="t" unicode="t" horiz-adv-x="626" 
d="M324 -10q-131 0 -184 73q-52 74 -23 205l168 723h-148l19 78h145l70 295h116l-67 -295h260l-18 -78h-261l-165 -723q-45 -197 98 -196q68 0 102 20h60l-17 -74q-75 -28 -155 -28z" />
    <glyph glyph-name="u" unicode="u" horiz-adv-x="1177" 
d="M336 -12q-125 0 -183 79t-28 216l141 616q10 39 -9 66t-56 26h-74l16 64q59 23 128 23t101 -51q32 -50 11 -138l-137 -596q-25 -105 12 -159t123 -54q188 0 436 217l178 772h78q41 0 29 -59l-193 -842q-9 -39 11 -67t55 -27h69l-14 -62q-47 -20 -117 -20q-71 0 -105 46
t-17 128l10 47q-229 -225 -465 -225z" />
    <glyph glyph-name="v" unicode="v" horiz-adv-x="1067" 
d="M174 991h-59l14 64q59 23 121 23t89 -35q26 -34 34 -105l98 -815h4q377 471 504 946h113l-19 -76q-213 -563 -590 -993h-104l-121 907q-10 84 -84 84z" />
    <glyph glyph-name="w" unicode="w" horiz-adv-x="1546" 
d="M174 991h-59l14 64q59 23 123 23t92 -35q28 -34 31 -107l28 -774h5l469 907h98l35 -930h4q147 197 268 446t176 484h113l-17 -76q-207 -580 -546 -993h-99l-30 879h-5l-460 -879h-113l-41 907q-6 84 -86 84z" />
    <glyph glyph-name="x" unicode="x" horiz-adv-x="1019" 
d="M796 -8q-60 0 -94 33q-33 33 -69 114l-141 326q-266 -391 -422 -465h-109l16 74q178 49 476 465l-162 370q-35 82 -103 82h-67l14 64q55 23 116 23t89 -28t63 -114l132 -309q262 365 413 442h107l-21 -78q-156 -33 -463 -438l172 -389q39 -90 107 -90h61l-14 -62
q-41 -20 -101 -20z" />
    <glyph glyph-name="y" unicode="y" horiz-adv-x="1157" 
d="M384 -346q-202 0 -353 67l22 95h72q66 -84 242 -84t261 61t115 187l64 268q-236 -219 -453 -219q-129 1 -190 75t-31 211l133 584q10 39 -9 66t-56 26h-74l14 64q53 23 125 23t105 -50q33 -49 12 -139l-129 -565q-47 -203 137 -203q195 0 434 213l170 735h78q41 0 27 -61
l-240 -1035q-38 -163 -156 -241t-320 -78z" />
    <glyph glyph-name="z" unicode="z" horiz-adv-x="958" 
d="M-76 0l19 84l931 903h-575l-66 -215h-81l67 297h809l-18 -86l-930 -901h596l63 217h86l-69 -299h-832z" />
    <glyph glyph-name="braceleft" unicode="{" horiz-adv-x="634" 
d="M332 -100q-119 0 -168 63t-21 180l97 414q16 67 -4 97t-89 30h-65l18 82h54q133 0 159 113l97 415q27 119 93 171q67 52 183 53h129l-18 -80h-113q-70 0 -108 -33t-54 -111l-96 -422q-27 -121 -168 -149v-2q125 -35 92 -180l-96 -410q-37 -154 92 -154h115l-19 -77h-110z
" />
    <glyph glyph-name="bar" unicode="|" horiz-adv-x="307" 
d="M145 -100v1618h99v-1618h-99z" />
    <glyph glyph-name="braceright" unicode="}" horiz-adv-x="634" 
d="M385 1518q119 0 168 -64t20 -180l-88 -381q-16 -67 4 -97t89 -30h65l-18 -82h-54q-133 0 -159 -113l-105 -448q-27 -119 -93 -171t-183 -52h-129l18 80h113q69 0 107 32t55 111l104 455q27 121 168 149v2q-125 35 -92 180l88 377q37 154 -92 154h-115l18 78h111z" />
    <glyph glyph-name="asciitilde" unicode="~" horiz-adv-x="708" 
d="M227 672q49 0 149 -38t136 -38q74 0 100 88h78l-16 -66q-53 -119 -166 -118q-48 0 -150 38t-135 37q-76 0 -100 -88h-78l12 66q53 119 170 119z" />
    <glyph glyph-name="exclamdown" unicode="&#xa1;" horiz-adv-x="309" 
d="M303 1120q-35 0 -57 24t-23 58q1 34 27 58q26 26 61 26t58 -22t23 -58q0 -34 -28 -60q-26 -26 -61 -26zM299 983l-223 -1061l-19 -78h-129l293 1139h78z" />
    <glyph glyph-name="cent" unicode="&#xa2;" horiz-adv-x="1001" 
d="M180 393q0 -287 223 -319l213 919q-200 -31 -318 -203t-118 -397zM59 393q0 270 161 464t415 218l29 123h88l-29 -119q168 -4 285 -65l-45 -193h-76q4 72 -6 106q-9 34 -49 51t-127 21l-213 -929q174 8 288 129h70l-23 -90q-152 -113 -354 -117l-45 -201h-88l47 207
q-158 20 -243 126t-85 269z" />
    <glyph glyph-name="sterling" unicode="&#xa3;" horiz-adv-x="1050" 
d="M791 0q-373 0 -592 102q-84 -66 -179 -102h-75l16 72q139 44 214 152t75 329q0 57 -2 111h-152l19 81h131q-6 125 -6 193q0 248 135 377t352 129t389 -88l-57 -248h-82q23 145 -19 186q-61 59 -221 60q-360 0 -370 -410q-2 -63 -2 -199h403l-18 -81h-385q-3 -116 -7 -176
t-28 -155t-68 -159q195 -76 516 -76l72 240h88l-76 -338h-71z" />
    <glyph glyph-name="yen" unicode="&#xa5;" horiz-adv-x="1183" 
d="M358 74q27 0 54 22t32 45l64 283h-379l21 82h378l33 145h-379l19 82h342l-191 545q-25 80 -94 80h-31l19 76h418l-19 -76h-188l202 -600h5l366 479q41 57 29 89t-64 32h-77l18 76h420l-19 -76h-41q-57 0 -118 -76l-435 -549h342l-18 -82h-379l-35 -145h381l-18 -82h-381
l-64 -283q-5 -27 7 -47t36 -20h117l-16 -74h-482l17 74h108z" />
    <glyph glyph-name="brokenbar" unicode="&#xa6;" horiz-adv-x="307" 
d="M145 784v734h99v-734h-99zM145 -100v737h99v-737h-99z" />
    <glyph glyph-name="section" unicode="&#xa7;" horiz-adv-x="1056" 
d="M887 565q0 76 -66 131t-198 111l-109 45q-324 -41 -324 -238q0 -72 56 -124t184 -109l135 -59q139 14 231 74q91 60 91 169zM762 55q0 -133 -106 -228t-311 -95q-206 0 -359 73l47 201h82q-10 -76 -5 -108t27 -48q61 -40 210 -40t225 68t75 159q0 92 -59 139t-215 119
q-151 67 -221 135t-70 178t93 189q93 80 259 108q-108 82 -108 218t111 229q112 92 291 92t329 -70l-41 -184h-82q14 111 -27 137q-57 39 -190 39t-209 -67t-76 -158t55 -143t200 -107t227 -129t83 -190q0 -116 -91 -194q-91 -79 -253 -112q109 -78 109 -211z" />
    <glyph glyph-name="dieresis" unicode="&#xa8;" horiz-adv-x="847" 
d="M745 1223q-33 0 -53 20t-20 53t24 58q25 24 56 24q30 0 52 -22t22 -52q0 -32 -24 -57q-24 -24 -57 -24zM446 1223q-33 0 -53 20t-20 54t23 58q24 23 56 23t54 -22t20 -52q0 -32 -23 -57q-24 -24 -57 -24z" />
    <glyph glyph-name="copyright" unicode="&#xa9;" horiz-adv-x="1570" 
d="M830 59q276 0 456 175q180 176 180 484t-180 482t-456 174t-458 -174t-182 -482t182 -484t458 -175zM1548 716q0 -340 -207 -532q-207 -194 -513 -194t-513 194t-206 533t207 533t512 194t513 -194t207 -534zM1120 1108v-260h-69l-17 115q-84 79 -198 79t-188 -80
q-75 -80 -75 -240q0 -161 71 -244t198 -83q160 0 233 107h60v-72q-117 -108 -292 -108t-280 103q-104 103 -104 295t107 294q108 102 268 102q100 0 194 -47q16 0 25 39h67z" />
    <glyph glyph-name="ordfeminine" unicode="&#xaa;" horiz-adv-x="884" 
d="M231 754q0 -156 163 -156t292 156l43 182q-98 43 -224 43t-200 -57t-74 -168zM381 520q-115 0 -187 62t-71 170q0 141 103 220t261 79t258 -45l33 141q25 109 -23 162t-155 53q-170 0 -262 -80h-59l20 94q143 68 306 68t240 -76t42 -225l-109 -471q-8 -30 8 -52t50 -22
l49 4l-15 -65q-39 -17 -92 -17t-86 37t-22 98q-119 -135 -289 -135z" />
    <glyph glyph-name="guillemotleft" unicode="&#xab;" horiz-adv-x="880" 
d="M647 96l-235 406l18 76l406 389h71l-14 -49l-365 -390v-4l189 -377l-10 -51h-60zM299 96l-236 406l19 76l405 389h72l-14 -49l-363 -390v-4l187 -377l-11 -51h-59z" />
    <glyph glyph-name="registered" unicode="&#xae;" horiz-adv-x="847" 
d="M389 907v43h25q4 0 11 6t7 13v241q0 4 -7 12t-11 7h-25v43h176q141 0 142 -103q0 -66 -76 -84v-2q43 -8 65 -73l15 -43q4 -16 20 -17h19v-43h-105l-24 103q-12 53 -60 53h-51v-113h47v-43h-168zM555 772q131 0 219 84t88 227t-88 227t-219 85q-131 0 -219 -84
q-88 -83 -88 -227t88 -228t219 -84zM555 717q-155 0 -263 99t-108 267q0 167 108 267t262 100t264 -99q108 -99 108 -267t-108 -268q-108 -99 -263 -99zM508 1106h53q66 0 66 59q-1 31 -15 45t-51 15h-53v-119z" />
    <glyph glyph-name="macron" unicode="&#xaf;" horiz-adv-x="847" 
d="M350 1247l21 82h479l-21 -82h-479z" />
    <glyph glyph-name="degree" unicode="&#xb0;" horiz-adv-x="667" 
d="M479 997q74 -1 127 55t53 138t-47 132q-48 50 -122 50t-125 -55t-51 -138t45 -133q46 -50 120 -49zM478 926q-108 0 -182 68q-73 68 -73 184q0 114 80 190t190 76q109 0 183 -70t74 -184t-82 -190q-82 -74 -190 -74z" />
    <glyph glyph-name="twosuperior" unicode="&#xb2;" horiz-adv-x="608" 
d="M596 1257q0 51 -33 82t-101 31t-107 -24q-38 -24 -62 -99h-62l35 152q104 41 212 41t167 -45t60 -129q0 -119 -108 -194q-89 -63 -169 -99q-207 -111 -238 -225h320l37 114h67l-45 -192h-491l12 53q39 168 266 297q16 10 100 57t112 88t28 92z" />
    <glyph glyph-name="threesuperior" unicode="&#xb3;" horiz-adv-x="606" 
d="M323 664q-141 0 -231 47l31 131h61q-4 -70 19 -86q29 -25 121 -25t144 48q52 49 52 117t-40 101t-105 33h-60l15 66h61q86 0 135 41t49 114q0 121 -131 121q-68 0 -100 -18t-53 -88h-64l33 137q90 37 196 37t164 -46q60 -46 60 -126t-49 -133t-135 -70v-4q59 -14 95 -56
t36 -104q0 -102 -81 -170q-82 -67 -223 -67z" />
    <glyph glyph-name="acute" unicode="&#xb4;" horiz-adv-x="847" 
d="M516 1174l174 260h127l-12 -52l-209 -208h-80z" />
    <glyph glyph-name="paragraph" unicode="&#xb6;" horiz-adv-x="1128" 
d="M584 690q-184 0 -294 80t-110 234q0 223 138 326t417 104h555l-18 -76h-94q-27 0 -54 -23t-32 -47l-342 -1474h-93l355 1540h-160l-356 -1540h-93l201 876h-20z" />
    <glyph glyph-name="periodcentered" unicode="&#xb7;" horiz-adv-x="309" 
d="M176 557q-36 0 -58 23q-22 24 -22 58t27 60t61 25q34 0 58 -24q22 -23 22 -57t-26 -60t-62 -25z" />
    <glyph glyph-name="cedilla" unicode="&#xb8;" horiz-adv-x="847" 
d="M420 -216q0 -62 -54 -102q-54 -38 -142 -38q-87 0 -156 37l16 65h51q25 -37 86 -37q102 0 103 80q0 66 -105 66h-24l32 145h72l-18 -84q63 -4 101 -37t38 -95z" />
    <glyph glyph-name="onesuperior" unicode="&#xb9;" horiz-adv-x="487" 
d="M201 733q14 0 29 12t20 27l133 569l-147 -65h-37l14 67l221 91h74l-152 -662q-8 -39 27 -39h113l-15 -63h-409l14 63h115z" />
    <glyph glyph-name="ordmasculine" unicode="&#xba;" horiz-adv-x="960" 
d="M516 596q174 0 279 146q104 146 104 352q-1 130 -65 200t-181 70q-172 0 -277 -142t-106 -352q0 -134 64 -204t182 -70zM514 520q-168 0 -263 97t-95 264q0 233 144 398t355 165q167 0 263 -97t96 -260q0 -235 -144 -401t-356 -166z" />
    <glyph glyph-name="guillemotright" unicode="&#xbb;" horiz-adv-x="880" 
d="M233 967l236 -406l-18 -76l-406 -389h-72l11 49l368 390v4l-190 376l10 52h61zM582 967l235 -406l-18 -76l-406 -389h-71l10 49l366 390v4l-188 376l10 52h62z" />
    <glyph glyph-name="onequarter" unicode="&#xbc;" horiz-adv-x="1333" 
d="M41 -70l1294 1563h105l-1295 -1563h-104zM207 733q14 0 30 12q15 12 19 27l133 569l-147 -65h-37l14 67l221 91h74l-152 -662q-8 -39 27 -39h113l-15 -63h-409l14 63h115zM715 268h297l90 381h-4l-383 -377v-4zM926 63q14 1 28 13t19 26l22 101h-377l19 78l493 483h99
l-113 -496h115l-17 -65h-114l-23 -101q-4 -14 3 -26t20 -13h80l-15 -63h-323l16 63h68z" />
    <glyph glyph-name="onehalf" unicode="&#xbd;" horiz-adv-x="1402" 
d="M10 -70l1295 1563h104l-1294 -1563h-105zM207 733q14 0 30 12q15 12 19 27l133 569l-147 -65h-37l14 67l221 91h74l-152 -662q-8 -39 27 -39h113l-15 -63h-409l14 63h115zM1231 587q0 52 -33 83q-34 30 -102 30t-106 -24t-62 -98h-62l35 151q104 41 212 41t167 -45
t59 -126t-48 -143q-32 -45 -113 -91t-95 -52t-20 -10q-207 -111 -238 -225h320l37 115h67l-45 -193h-491l12 53q39 168 266 297q17 10 61 35t59 34t46 32t53 54q22 30 21 82z" />
    <glyph glyph-name="threequarters" unicode="&#xbe;" horiz-adv-x="1331" 
d="M55 -70l1295 1563h104l-1294 -1563h-105zM713 268h297l90 381h-4l-383 -377v-4zM924 63q14 1 28 13t19 26l22 101h-377l19 78l493 483h99l-113 -496h115l-17 -65h-114l-23 -101q-4 -14 3 -26t20 -13h80l-15 -63h-323l16 63h68zM633 901q0 -101 -81 -169t-222 -68t-232 47
l31 131h61q-4 -70 19 -86q29 -25 121 -25t144 48q52 49 52 117t-40 101t-105 33h-59l14 66h61q86 0 135 41t50 114q0 121 -131 121q-68 0 -100 -18t-54 -88h-64l33 137q90 37 196 37t164 -46q60 -46 60 -126t-49 -133t-135 -70v-4q59 -14 95 -56t36 -104z" />
    <glyph glyph-name="questiondown" unicode="&#xbf;" horiz-adv-x="894" 
d="M682 1286q36 0 58 -22t22 -58q0 -34 -27 -60t-61 -26t-58 24q-22 24 -22 58t26 58q26 26 62 26zM115 106q0 -76 62 -132t178 -56t165 26t72 59q23 34 45 114h84l-47 -215q-160 -68 -330 -68t-263 75t-93 222t118 260q62 60 144 118q81 58 108 79q119 90 173 174t71 221
h84q-14 -147 -66 -243q-71 -132 -259 -266q-109 -79 -178 -155q-68 -75 -68 -213z" />
    <glyph glyph-name="Agrave" unicode="&#xc0;" horiz-adv-x="1427" 
d="M868 1518l-172 208l13 52h106l127 -260h-74zM895 1337l-449 -786h545l-84 786h-12zM276 74h123l-16 -74h-465l16 74h54q78 0 123 76l647 1134q43 74 -25 74h-123l19 76h387l141 -1278q3 -35 23 -59t51 -23h65l-16 -74h-471l16 74h217l-43 395h-600l-149 -262
q-49 -88 -26 -117q13 -16 52 -16z" />
    <glyph glyph-name="Aacute" unicode="&#xc1;" horiz-adv-x="1427" 
d="M836 1518l174 260h127l-13 -52l-209 -208h-79zM895 1337l-449 -786h545l-84 786h-12zM276 74h123l-16 -74h-465l16 74h54q78 0 123 76l647 1134q43 74 -25 74h-123l19 76h387l141 -1278q3 -35 23 -59t51 -23h65l-16 -74h-471l16 74h217l-43 395h-600l-149 -262
q-49 -88 -26 -117q13 -16 52 -16z" />
    <glyph glyph-name="Acircumflex" unicode="&#xc2;" horiz-adv-x="1427" 
d="M649 1518l10 41l207 219h117l133 -219l-10 -41h-51l-137 180l-207 -180h-62zM895 1337l-449 -786h545l-84 786h-12zM276 74h123l-16 -74h-465l16 74h54q78 0 123 76l647 1134q43 74 -25 74h-123l19 76h387l141 -1278q3 -35 23 -59t51 -23h65l-16 -74h-471l16 74h217
l-43 395h-600l-149 -262q-49 -88 -26 -117q13 -16 52 -16z" />
    <glyph glyph-name="Atilde" unicode="&#xc3;" horiz-adv-x="1427" 
d="M1051 1642q72 0 98 87h74l-15 -60q-61 -117 -164 -117q-49 0 -137 40t-121 40q-72 0 -96 -88h-76l15 60q59 119 162 118q49 0 137 -40t123 -40zM895 1337l-449 -786h545l-84 786h-12zM276 74h123l-16 -74h-465l16 74h54q78 0 123 76l647 1134q43 74 -25 74h-123l19 76
h387l141 -1278q3 -35 23 -59t51 -23h65l-16 -74h-471l16 74h217l-43 395h-600l-149 -262q-49 -88 -26 -117q13 -16 52 -16z" />
    <glyph glyph-name="Adieresis" unicode="&#xc4;" horiz-adv-x="1427" 
d="M1059 1567q-33 0 -53 20t-21 53q0 33 25 58q26 24 56 24t52 -22t21 -52q1 -32 -23 -56t-57 -25zM760 1567q-33 0 -53 20q-21 20 -21 54t24 58q24 23 56 23t52 -22q22 -22 22 -52q0 -32 -24 -56t-56 -25zM895 1337l-449 -786h545l-84 786h-12zM276 74h123l-16 -74h-465
l16 74h54q78 0 123 76l647 1134q43 74 -25 74h-123l19 76h387l141 -1278q3 -35 23 -59t51 -23h65l-16 -74h-471l16 74h217l-43 395h-600l-149 -262q-49 -88 -26 -117q13 -16 52 -16z" />
    <glyph glyph-name="Aring" unicode="&#xc5;" horiz-adv-x="1427" 
d="M902 1583q50 0 85 35t35 88t-32 85t-82 32t-85 -36t-35 -90t32 -84t82 -30zM901 1520q-78 0 -131 47t-53 129t59 136t136 54t129 -48q53 -48 53 -130t-58 -135t-135 -53zM895 1337l-449 -786h545l-84 786h-12zM276 74h123l-16 -74h-465l16 74h54q78 0 123 76l647 1134
q43 74 -25 74h-123l19 76h387l141 -1278q3 -35 23 -59t51 -23h65l-16 -74h-471l16 74h217l-43 395h-600l-149 -262q-49 -88 -26 -117q13 -16 52 -16z" />
    <glyph glyph-name="AE" unicode="&#xc6;" horiz-adv-x="1972" 
d="M1128 1354l-608 -803h504l186 803h-82zM293 74h100l-16 -74h-461l16 74h52q66 0 125 76l852 1128q25 32 17 56t-42 24h-117l19 76h1218l-80 -344h-86l41 264h-594l-133 -574h348l62 183h82l-103 -447h-84l29 184h-352l-144 -620h652l86 289h90l-84 -369h-1053l17 74h163
l91 395h-545l-201 -268q-45 -59 -35 -93t70 -34z" />
    <glyph glyph-name="Ccedilla" unicode="&#xc7;" horiz-adv-x="1269" 
d="M698 -216q0 -62 -54 -102q-54 -38 -141 -38t-157 37l16 65h52q25 -37 86 -37q102 0 102 80q0 66 -104 66h-25l33 145q-190 31 -295 169q-105 139 -105 373t103 443q101 209 291 334t428 125q180 0 311 -66q29 0 41 56h84l-94 -404h-92l28 234q-86 94 -278 94
q-305 0 -500 -234t-195 -598q-1 -214 103 -332t276 -118t272 48q99 48 185 136h70l-23 -98q-201 -172 -498 -172q-29 0 -43 2l-16 -76q63 -4 101 -37t38 -95z" />
    <glyph glyph-name="Egrave" unicode="&#xc8;" horiz-adv-x="1191" 
d="M807 1518l-172 208l12 52h107l127 -260h-74zM35 74q27 0 55 22t33 45l262 1147q6 26 -6 48t-37 22h-104l18 76h1020l-80 -344h-86l41 264h-625l-133 -574h379l62 183h81l-102 -447h-84l29 184h-383l-144 -620h682l86 289h91l-84 -369h-1082l17 74h94z" />
    <glyph glyph-name="Eacute" unicode="&#xc9;" horiz-adv-x="1191" 
d="M35 74q27 0 55 22t33 45l262 1147q6 26 -6 48t-37 22h-104l18 76h1020l-80 -344h-86l41 264h-625l-133 -574h379l62 183h81l-102 -447h-84l29 184h-383l-144 -620h682l86 289h91l-84 -369h-1082l17 74h94zM774 1518l174 260h127l-12 -52l-209 -208h-80z" />
    <glyph glyph-name="Ecircumflex" unicode="&#xca;" horiz-adv-x="1191" 
d="M35 74q27 0 55 22t33 45l262 1147q6 26 -6 48t-37 22h-104l18 76h1020l-80 -344h-86l41 264h-625l-133 -574h379l62 183h81l-102 -447h-84l29 184h-383l-144 -620h682l86 289h91l-84 -369h-1082l17 74h94zM588 1518l10 41l207 219h117l133 -219l-11 -41h-51l-137 180
l-207 -180h-61z" />
    <glyph glyph-name="Edieresis" unicode="&#xcb;" horiz-adv-x="1191" 
d="M35 74q27 0 55 22t33 45l262 1147q6 26 -6 48t-37 22h-104l18 76h1020l-80 -344h-86l41 264h-625l-133 -574h379l62 183h81l-102 -447h-84l29 184h-383l-144 -620h682l86 289h91l-84 -369h-1082l17 74h94zM997 1567q-33 0 -53 20t-20 53t24 58q25 24 56 24q30 0 52 -22
t22 -52q0 -32 -24 -57q-24 -24 -57 -24zM698 1567q-33 0 -53 20t-20 54t23 58q24 23 56 23t54 -22t20 -52q0 -32 -23 -57q-24 -24 -57 -24z" />
    <glyph glyph-name="Igrave" unicode="&#xcc;" horiz-adv-x="585" 
d="M496 1518l-172 208l12 52h106l127 -260h-73zM55 74q27 0 54 22t32 45l265 1147q4 26 -8 48t-36 22h-124l18 76h492l-19 -76h-113q-28 0 -54 -23t-32 -47l-262 -1147q-6 -27 5 -47t36 -20h125l-16 -74h-494l17 74h114z" />
    <glyph glyph-name="Iacute" unicode="&#xcd;" horiz-adv-x="585" 
d="M463 1518l174 260h127l-12 -52l-209 -208h-80zM55 74q27 0 54 22t32 45l265 1147q4 26 -8 48t-36 22h-124l18 76h492l-19 -76h-113q-28 0 -54 -23t-32 -47l-262 -1147q-6 -27 5 -47t36 -20h125l-16 -74h-494l17 74h114z" />
    <glyph glyph-name="Icircumflex" unicode="&#xce;" horiz-adv-x="585" 
d="M291 1518l10 41l207 219h117l133 -219l-10 -41h-52l-137 180l-207 -180h-61zM55 74q27 0 54 22t32 45l265 1147q4 26 -8 48t-36 22h-124l18 76h492l-19 -76h-113q-28 0 -54 -23t-32 -47l-262 -1147q-6 -27 5 -47t36 -20h125l-16 -74h-494l17 74h114z" />
    <glyph glyph-name="Idieresis" unicode="&#xcf;" horiz-adv-x="585" 
d="M686 1567q-33 0 -53 20t-21 53q0 33 25 58q25 24 55 24t52 -22t22 -52q0 -32 -24 -56t-56 -25zM387 1567q-33 0 -53 20t-20 54t23 58q23 23 55 23t54 -22t21 -52q1 -32 -23 -56t-57 -25zM55 74q27 0 54 22t32 45l265 1147q4 26 -8 48t-36 22h-124l18 76h492l-19 -76h-113
q-28 0 -54 -23t-32 -47l-262 -1147q-6 -27 5 -47t36 -20h125l-16 -74h-494l17 74h114z" />
    <glyph glyph-name="Eth" unicode="&#xd0;" horiz-adv-x="1388" 
d="M516 80q362 0 545 222q182 222 182 601q0 451 -493 451h-224l-139 -600h416l-21 -80h-413l-136 -594h283zM35 74q27 0 55 22t33 45l121 533h-164l20 80h162l123 534q6 26 -6 48t-37 22h-104l18 76h508q296 0 452 -138t156 -401q0 -403 -220 -649t-642 -246h-586l17 74h94
z" />
    <glyph glyph-name="Ntilde" unicode="&#xd1;" 
d="M1102 1642q72 0 98 87h74l-14 -60q-61 -117 -164 -117q-50 0 -138 40t-120 40q-72 0 -97 -88h-75l14 60q59 119 162 118q49 0 137 -40t123 -40zM35 74q27 0 55 22t33 47l262 1145q6 26 -6 48t-37 22h-104l18 76h311l502 -1244h2l268 1168h-206l18 76h471l-18 -76h-95
q-25 0 -53 -22t-31 -44l-297 -1292h-108l-522 1292h-11l-280 -1218h211l-17 -74h-477l17 74h94z" />
    <glyph glyph-name="Ograve" unicode="&#xd2;" horiz-adv-x="1445" 
d="M889 1524l-172 209l12 51h107l127 -260h-74zM664 76q258 0 443 231t185 584q0 223 -111 345q-112 122 -317 122q-260 0 -443 -232t-183 -585q0 -225 110 -345t316 -120zM657 -10q-256 0 -402 146t-146 411q0 383 227 640t534 257q254 0 402 -148t149 -407
q-1 -260 -109 -468q-108 -207 -282 -319t-373 -112z" />
    <glyph glyph-name="Oacute" unicode="&#xd3;" horiz-adv-x="1445" 
d="M664 76q258 0 443 231t185 584q0 223 -111 345q-112 122 -317 122q-260 0 -443 -232t-183 -585q0 -225 110 -345t316 -120zM657 -10q-256 0 -402 146t-146 411q0 383 227 640t534 257q254 0 402 -148t149 -407q-1 -260 -109 -468q-108 -207 -282 -319t-373 -112z
M856 1524l174 260h127l-12 -51l-209 -209h-80z" />
    <glyph glyph-name="Ocircumflex" unicode="&#xd4;" horiz-adv-x="1445" 
d="M664 76q258 0 443 231t185 584q0 223 -111 345q-112 122 -317 122q-260 0 -443 -232t-183 -585q0 -225 110 -345t316 -120zM657 -10q-256 0 -402 146t-146 411q0 383 227 640t534 257q254 0 402 -148t149 -407q-1 -260 -109 -468q-108 -207 -282 -319t-373 -112z
M682 1524l10 41l207 219h117l133 -219l-10 -41h-52l-137 180l-207 -180h-61z" />
    <glyph glyph-name="Otilde" unicode="&#xd5;" horiz-adv-x="1445" 
d="M811 1729q49 0 137 -40t123 -40q72 0 98 86h74l-14 -60q-61 -117 -164 -116q-49 -1 -137 39t-121 40q-72 0 -96 -88h-76l14 60q59 119 162 119zM664 76q258 0 443 231t185 584q0 223 -111 345q-112 122 -317 122q-260 0 -443 -232t-183 -585q0 -225 110 -345t316 -120z
M657 -10q-256 0 -402 146t-146 411q0 383 227 640t534 257q254 0 402 -148t149 -407q-1 -260 -109 -468q-108 -207 -282 -319t-373 -112z" />
    <glyph glyph-name="Odieresis" unicode="&#xd6;" horiz-adv-x="1445" 
d="M664 76q258 0 443 231t185 584q0 223 -111 345q-112 122 -317 122q-260 0 -443 -232t-183 -585q0 -225 110 -345t316 -120zM657 -10q-256 0 -402 146t-146 411q0 383 227 640t534 257q254 0 402 -148t149 -407q-1 -260 -109 -468q-108 -207 -282 -319t-373 -112z
M1075 1556q-33 0 -53 20t-21 54q0 33 25 58q26 24 56 24t52 -22t22 -53q0 -33 -24 -57t-57 -24zM776 1556q-33 0 -53 20q-21 20 -21 55q0 34 24 58q24 23 56 23t53 -22t21 -53q0 -33 -24 -57t-56 -24z" />
    <glyph glyph-name="multiply" unicode="&#xd7;" horiz-adv-x="974" 
d="M133 311l-53 66l383 317l-242 318l74 61l240 -315l380 315l54 -65l-383 -318l241 -317l-73 -62l-242 318z" />
    <glyph glyph-name="Oslash" unicode="&#xd8;" horiz-adv-x="1445" 
d="M664 76q258 0 443 231t185 584q0 178 -67 289l-871 -998q107 -106 310 -106zM238 541q0 -184 69 -299l873 999q-111 117 -316 117q-260 0 -443 -232t-183 -585zM870 1444q229 0 377 -125l137 158h101l-185 -211q121 -145 121 -391q-1 -246 -109 -454t-282 -320
q-174 -111 -388 -111t-355 116l-144 -165h-100l190 219q-125 147 -124 387q0 383 227 640t534 257z" />
    <glyph glyph-name="Ugrave" unicode="&#xd9;" 
d="M934 1518l-172 208l12 52h107l127 -260h-74zM651 -10q-247 0 -382 128q-134 128 -74 382l180 786q6 28 -5 50t-36 22h-96l18 76h485l-18 -76h-205l-201 -871q-92 -408 349 -407q190 0 304 84t163 295l206 899h-202l18 76h459l-19 -76h-88q-27 0 -53 -24t-31 -48
l-192 -835q-57 -249 -195 -355t-385 -106z" />
    <glyph glyph-name="Uacute" unicode="&#xda;" 
d="M651 -10q-247 0 -382 128q-134 128 -74 382l180 786q6 28 -5 50t-36 22h-96l18 76h485l-18 -76h-205l-201 -871q-92 -408 349 -407q190 0 304 84t163 295l206 899h-202l18 76h459l-19 -76h-88q-27 0 -53 -24t-31 -48l-192 -835q-57 -249 -195 -355t-385 -106zM901 1518
l174 260h127l-12 -52l-209 -208h-80z" />
    <glyph glyph-name="Ucircumflex" unicode="&#xdb;" 
d="M651 -10q-247 0 -382 128q-134 128 -74 382l180 786q6 28 -5 50t-36 22h-96l18 76h485l-18 -76h-205l-201 -871q-92 -408 349 -407q190 0 304 84t163 295l206 899h-202l18 76h459l-19 -76h-88q-27 0 -53 -24t-31 -48l-192 -835q-57 -249 -195 -355t-385 -106zM729 1518
l10 41l207 219h117l133 -219l-10 -41h-51l-138 180l-206 -180h-62z" />
    <glyph glyph-name="Udieresis" unicode="&#xdc;" 
d="M651 -10q-247 0 -382 128q-134 128 -74 382l180 786q6 28 -5 50t-36 22h-96l18 76h485l-18 -76h-205l-201 -871q-92 -408 349 -407q190 0 304 84t163 295l206 899h-202l18 76h459l-19 -76h-88q-27 0 -53 -24t-31 -48l-192 -835q-57 -249 -195 -355t-385 -106zM1124 1567
q-33 0 -53 20t-20 53t24 58q25 24 55 24t53 -22q21 -22 21 -52q0 -32 -23 -57q-24 -24 -57 -24zM825 1567q-33 0 -53 20t-20 54t23 58q23 23 55 23t54 -22t22 -52q0 -32 -24 -57q-24 -24 -57 -24z" />
    <glyph glyph-name="Yacute" unicode="&#xdd;" horiz-adv-x="1304" 
d="M834 1518l174 260h127l-13 -52l-209 -208h-79zM420 74q26 0 54 22t32 45l106 475l-247 662q-29 80 -95 80h-37l19 76h428l-18 -76h-197l244 -660h2l432 537q49 59 39 91t-68 32h-90l16 76h428l-18 -76h-39q-59 0 -121 -76l-555 -684l-104 -457q-6 -27 6 -47t37 -20h119
l-17 -74h-481l16 74h109z" />
    <glyph glyph-name="Thorn" unicode="&#xde;" horiz-adv-x="1165" 
d="M596 432q438 0 438 373q0 225 -321 225h-260l-140 -598h283zM35 74q27 0 55 22t33 45l262 1147q6 26 -6 48t-37 22h-104l18 76h487l-18 -76h-197l-55 -244h254q436 0 436 -299q-1 -229 -153 -346t-420 -117h-295l-64 -278h201l-16 -74h-492l17 74h94z" />
    <glyph glyph-name="germandbls" unicode="&#xdf;" horiz-adv-x="1173" 
d="M778 1444q148 0 242 -62t94 -170q0 -59 -37 -112t-82 -88t-126 -93q-82 -57 -111 -79q-76 -59 -76 -106q0 -46 30 -72t110 -74q80 -47 124 -79q43 -32 80 -88t37 -120q0 -139 -102 -224q-103 -85 -269 -85t-293 71l43 183h78q-12 -117 29 -147q41 -29 153 -29t183 61
q69 61 69 145t-64 135q-38 30 -56 40q-162 90 -211 139q-50 48 -50 114t60 133t206 163q53 37 95 78q43 42 54 68t11 54q0 76 -60 119t-167 43q-305 0 -385 -344l-237 -1049q-51 -225 -230 -301h-74l17 70q63 29 105 80t67 153l233 1051q98 422 510 422z" />
    <glyph glyph-name="agrave" unicode="&#xe0;" horiz-adv-x="1026" 
d="M604 1174l-172 208l12 52h107l127 -260h-74zM328 72q190 0 346 186l51 227q-115 49 -265 49t-240 -67q-89 -68 -89 -207q1 -88 55 -138t142 -50zM776 -8q-66 0 -102 47t-17 125q-150 -174 -344 -174q-133 0 -214 72t-81 190q0 178 122 269t331 91q152 0 270 -53l43 180
q29 125 -31 191t-182 65q-190 0 -311 -94h-59l22 100q165 78 351 78t277 -89t52 -255l-133 -569q-10 -43 8 -69q27 -39 125 -19l-14 -66q-47 -20 -113 -20z" />
    <glyph glyph-name="aacute" unicode="&#xe1;" horiz-adv-x="1026" 
d="M571 1174l174 260h127l-12 -52l-209 -208h-80zM328 72q190 0 346 186l51 227q-115 49 -265 49t-240 -67q-89 -68 -89 -207q1 -88 55 -138t142 -50zM776 -8q-66 0 -102 47t-17 125q-150 -174 -344 -174q-133 0 -214 72t-81 190q0 178 122 269t331 91q152 0 270 -53l43 180
q29 125 -31 191t-182 65q-190 0 -311 -94h-59l22 100q165 78 351 78t277 -89t52 -255l-133 -569q-10 -43 8 -69q27 -39 125 -19l-14 -66q-47 -20 -113 -20z" />
    <glyph glyph-name="acircumflex" unicode="&#xe2;" horiz-adv-x="1026" 
d="M381 1174l10 40l207 220h117l133 -220l-10 -40h-52l-137 180l-207 -180h-61zM328 72q190 0 346 186l51 227q-115 49 -265 49t-240 -67q-89 -68 -89 -207q1 -88 55 -138t142 -50zM776 -8q-66 0 -102 47t-17 125q-150 -174 -344 -174q-133 0 -214 72t-81 190q0 178 122 269
t331 91q152 0 270 -53l43 180q29 125 -31 191t-182 65q-190 0 -311 -94h-59l22 100q165 78 351 78t277 -89t52 -255l-133 -569q-10 -43 8 -69q27 -39 125 -19l-14 -66q-47 -20 -113 -20z" />
    <glyph glyph-name="atilde" unicode="&#xe3;" horiz-adv-x="1026" 
d="M750 1298q72 0 98 86h74l-15 -59q-61 -117 -164 -117q-49 0 -137 40t-121 40q-72 0 -96 -88h-76l15 60q59 119 161 118q49 0 137 -40t124 -40zM328 72q190 0 346 186l51 227q-115 49 -265 49t-240 -67q-89 -68 -89 -207q1 -88 55 -138t142 -50zM776 -8q-66 0 -102 47
t-17 125q-150 -174 -344 -174q-133 0 -214 72t-81 190q0 178 122 269t331 91q152 0 270 -53l43 180q29 125 -31 191t-182 65q-190 0 -311 -94h-59l22 100q165 78 351 78t277 -89t52 -255l-133 -569q-10 -43 8 -69q27 -39 125 -19l-14 -66q-47 -20 -113 -20z" />
    <glyph glyph-name="adieresis" unicode="&#xe4;" horiz-adv-x="1026" 
d="M795 1223q-33 0 -54 20q-20 20 -20 53t24 58q25 24 56 24t53 -22t20 -52q0 -32 -23 -56t-56 -25zM496 1223q-33 0 -54 20q-20 20 -20 54t23 58q24 23 56 23q31 0 53 -22t22 -52q0 -32 -24 -56q-23 -24 -56 -25zM328 72q190 0 346 186l51 227q-115 49 -265 49t-240 -67
q-89 -68 -89 -207q1 -88 55 -138t142 -50zM776 -8q-66 0 -102 47t-17 125q-150 -174 -344 -174q-133 0 -214 72t-81 190q0 178 122 269t331 91q152 0 270 -53l43 180q29 125 -31 191t-182 65q-190 0 -311 -94h-59l22 100q165 78 351 78t277 -89t52 -255l-133 -569
q-10 -43 8 -69q27 -39 125 -19l-14 -66q-47 -20 -113 -20z" />
    <glyph glyph-name="aring" unicode="&#xe5;" horiz-adv-x="1026" 
d="M638 1239q50 0 85 35t35 88t-32 85t-82 32t-85 -36t-35 -90t32 -84t82 -30zM637 1176q-78 0 -131 47t-53 129t59 136t136 54t129 -48t52 -130t-57 -135t-135 -53zM328 72q190 0 346 186l51 227q-115 49 -265 49t-240 -67q-89 -68 -89 -207q1 -88 55 -138t142 -50zM776 -8
q-66 0 -102 47t-17 125q-150 -174 -344 -174q-133 0 -214 72t-81 190q0 178 122 269t331 91q152 0 270 -53l43 180q29 125 -31 191t-182 65q-190 0 -311 -94h-59l22 100q165 78 351 78t277 -89t52 -255l-133 -569q-10 -43 8 -69q27 -39 125 -19l-14 -66q-47 -20 -113 -20z
" />
    <glyph glyph-name="ae" unicode="&#xe6;" horiz-adv-x="1652" 
d="M848 561q352 5 509 65t156 210q0 166 -186 166t-313 -127q-127 -126 -166 -314zM342 72q219 0 389 192q-16 70 -16 127t4 103q-143 16 -234 16q-176 0 -265 -55t-89 -189q1 -94 55 -144t156 -50zM1104 -8q-260 0 -348 201q-174 -203 -422 -203q-150 0 -233 72t-83 196
q0 330 471 330q121 0 240 -21l43 172q30 125 -32 191t-183 65q-188 0 -309 -94h-60l23 100q164 78 364 78q135 0 217 -57t91 -168q172 225 448 225q133 0 215 -59t82 -180q0 -184 -193 -268q-194 -83 -597 -89q-4 -29 -4 -82q0 -332 276 -331q190 0 311 129h70l-23 -90
q-155 -117 -364 -117z" />
    <glyph glyph-name="ccedilla" unicode="&#xe7;" horiz-adv-x="991" 
d="M543 -216q-1 -62 -55 -102q-54 -38 -141 -38t-157 37l17 65h51q25 -37 86 -37q102 0 102 80q0 66 -104 66h-25l33 145h6q-145 25 -221 130t-76 263q-1 289 179 488t460 198q176 0 299 -65l-45 -193h-75q3 70 -9 105q-26 73 -178 73q-230 0 -370 -178t-140 -428
q0 -151 69 -237t210 -86q81 0 147 22t98 46t66 61h70l-23 -90q-162 -117 -362 -117q-25 0 -35 2l-17 -78q63 -4 101 -37t39 -95z" />
    <glyph glyph-name="egrave" unicode="&#xe8;" horiz-adv-x="999" 
d="M643 1174l-172 208l12 52h107l127 -260h-74zM858 836q0 166 -186 166t-310 -130q-124 -129 -167 -315q343 6 503 71t160 208zM460 -8q-200 0 -299 111q-99 112 -100 300q-1 283 179 480t438 196q133 0 215 -59t82 -180q0 -180 -196 -268t-595 -93q-4 -41 -4 -78
q0 -151 70 -241t207 -90q190 0 311 129h70l-23 -90q-155 -117 -355 -117z" />
    <glyph glyph-name="eacute" unicode="&#xe9;" horiz-adv-x="999" 
d="M858 836q0 166 -186 166t-310 -130q-124 -129 -167 -315q343 6 503 71t160 208zM460 -8q-200 0 -299 111q-99 112 -100 300q-1 283 179 480t438 196q133 0 215 -59t82 -180q0 -180 -196 -268t-595 -93q-4 -41 -4 -78q0 -151 70 -241t207 -90q190 0 311 129h70l-23 -90
q-155 -117 -355 -117zM588 1174l174 260h127l-12 -52l-209 -208h-80z" />
    <glyph glyph-name="ecircumflex" unicode="&#xea;" horiz-adv-x="999" 
d="M858 836q0 166 -186 166t-310 -130q-124 -129 -167 -315q343 6 503 71t160 208zM460 -8q-200 0 -299 111q-99 112 -100 300q-1 283 179 480t438 196q133 0 215 -59t82 -180q0 -180 -196 -268t-595 -93q-4 -41 -4 -78q0 -151 70 -241t207 -90q190 0 311 129h70l-23 -90
q-155 -117 -355 -117zM436 1174l10 40l207 220h117l133 -220l-10 -40h-51l-137 180l-207 -180h-62z" />
    <glyph glyph-name="edieresis" unicode="&#xeb;" horiz-adv-x="999" 
d="M858 836q0 166 -186 166t-310 -130q-124 -129 -167 -315q343 6 503 71t160 208zM460 -8q-200 0 -299 111q-99 112 -100 300q-1 283 179 480t438 196q133 0 215 -59t82 -180q0 -180 -196 -268t-595 -93q-4 -41 -4 -78q0 -151 70 -241t207 -90q190 0 311 129h70l-23 -90
q-155 -117 -355 -117zM834 1223q-33 0 -54 20q-20 20 -20 53t24 58q25 24 56 24q30 0 52 -22t22 -52q0 -32 -24 -56q-23 -24 -56 -25zM535 1223q-33 0 -54 20q-20 20 -20 54t23 58q24 23 56 23t54 -22t20 -52q0 -32 -23 -56t-56 -25z" />
    <glyph glyph-name="igrave" unicode="&#xec;" horiz-adv-x="493" 
d="M338 1180l-172 209l12 51h107l127 -260h-74zM229 -8q-75 0 -109 48t-14 132l168 727q10 39 -9 66t-56 26h-82l14 64q80 23 129 22q164 0 123 -178l-170 -733q-8 -37 14 -65t58 -27h63l-14 -62q-41 -20 -115 -20z" />
    <glyph glyph-name="iacute" unicode="&#xed;" horiz-adv-x="493" 
d="M311 1180l174 260h127l-12 -51l-209 -209h-80zM229 -8q-75 0 -109 48t-14 132l168 727q10 39 -9 66t-56 26h-82l14 64q80 23 129 22q164 0 123 -178l-170 -733q-8 -37 14 -65t58 -27h63l-14 -62q-41 -20 -115 -20z" />
    <glyph glyph-name="icircumflex" unicode="&#xee;" horiz-adv-x="493" 
d="M115 1180l10 41l207 219h117l133 -219l-11 -41h-51l-137 180l-207 -180h-61zM229 -8q-75 0 -109 48t-14 132l168 727q10 39 -9 66t-56 26h-82l14 64q80 23 129 22q164 0 123 -178l-170 -733q-8 -37 14 -65t58 -27h63l-14 -62q-41 -20 -115 -20z" />
    <glyph glyph-name="idieresis" unicode="&#xef;" horiz-adv-x="493" 
d="M514 1229q-33 0 -53 20q-21 19 -21 53t25 58t55 24t52 -22t22 -52q0 -32 -24 -56t-56 -25zM215 1229q-33 0 -53 20q-20 21 -20 55t23 58t55 22q32 0 54 -22t21 -52q1 -32 -23 -56t-57 -25zM229 -8q-75 0 -109 48t-14 132l168 727q10 39 -9 66t-56 26h-82l14 64
q80 23 129 22q164 0 123 -178l-170 -733q-8 -37 14 -65t58 -27h63l-14 -62q-41 -20 -115 -20z" />
    <glyph glyph-name="eth" unicode="&#xf0;" horiz-adv-x="1126" 
d="M485 68q205 0 334 178t129 422q0 154 -81 242t-232 87q-197 0 -326 -172t-129 -413q0 -162 80 -253t225 -91zM1069 721q0 -332 -165 -531t-423 -198q-195 0 -307 117t-113 315q0 266 165 460t399 193q111 0 185 -37t130 -118q-72 211 -213 315l-174 -107h-80l6 31
l191 115q-80 47 -195 76l21 82h45q129 -39 221 -101l166 101h78l-7 -31l-182 -111q252 -199 252 -571z" />
    <glyph glyph-name="ntilde" unicode="&#xf1;" horiz-adv-x="1189" 
d="M870 1298q72 0 99 86h73l-14 -59q-61 -117 -164 -117q-49 0 -137 40t-121 40q-72 0 -96 -88h-76l15 60q59 119 161 118q50 0 138 -40t122 -40zM926 -8q-68 0 -103 48t-16 128l143 623q23 96 -9 144t-105 48q-215 0 -478 -225l-174 -758h-75q-45 0 -29 59l192 840
q10 39 -9 66t-58 26h-78l14 64q79 23 139 23t96 -48q36 -47 13 -137l-12 -51q258 238 500 237q117 -1 171 -73t23 -203l-145 -633q-8 -39 12 -68t55 -28h62l-15 -62q-46 -20 -114 -20z" />
    <glyph glyph-name="ograve" unicode="&#xf2;" horiz-adv-x="1124" 
d="M664 1174l-172 208l12 52h106l127 -260h-73zM485 70q203 0 333 178t130 420q0 158 -79 244t-224 85q-203 0 -334 -173t-131 -418q0 -162 80 -249t225 -87zM481 -8q-197 0 -309 114t-111 312q0 276 169 469t421 192q193 1 305 -113t111 -304q0 -278 -167 -474t-419 -196z
" />
    <glyph glyph-name="oacute" unicode="&#xf3;" horiz-adv-x="1124" 
d="M485 70q203 0 333 178t130 420q0 158 -79 244t-224 85q-203 0 -334 -173t-131 -418q0 -162 80 -249t225 -87zM481 -8q-197 0 -309 114t-111 312q0 276 169 469t421 192q193 1 305 -113t111 -304q0 -278 -167 -474t-419 -196zM631 1174l174 260h127l-12 -52l-209 -208h-80
z" />
    <glyph glyph-name="ocircumflex" unicode="&#xf4;" horiz-adv-x="1124" 
d="M485 70q203 0 333 178t130 420q0 158 -79 244t-224 85q-203 0 -334 -173t-131 -418q0 -162 80 -249t225 -87zM481 -8q-197 0 -309 114t-111 312q0 276 169 469t421 192q193 1 305 -113t111 -304q0 -278 -167 -474t-419 -196zM459 1174l10 40l207 220h117l133 -220
l-11 -40h-51l-137 180l-207 -180h-61z" />
    <glyph glyph-name="otilde" unicode="&#xf5;" horiz-adv-x="1124" 
d="M846 1298q72 0 98 86h74l-14 -59q-61 -117 -164 -117q-50 0 -138 40t-120 40q-72 0 -97 -88h-75l14 60q59 119 162 118q49 0 137 -40t123 -40zM485 70q203 0 333 178t130 420q0 158 -79 244t-224 85q-203 0 -334 -173t-131 -418q0 -162 80 -249t225 -87zM481 -8
q-197 0 -309 114t-111 312q0 276 169 469t421 192q193 1 305 -113t111 -304q0 -278 -167 -474t-419 -196z" />
    <glyph glyph-name="odieresis" unicode="&#xf6;" horiz-adv-x="1124" 
d="M485 70q203 0 333 178t130 420q0 158 -79 244t-224 85q-203 0 -334 -173t-131 -418q0 -162 80 -249t225 -87zM481 -8q-197 0 -309 114t-111 312q0 276 169 469t421 192q193 1 305 -113t111 -304q0 -278 -167 -474t-419 -196zM854 1223q-33 0 -53 20t-21 53q0 33 25 58
q25 24 55 24t52 -22t22 -52q0 -32 -24 -56t-56 -25zM555 1223q-33 0 -53 20t-20 54t23 58q23 23 55 23t54 -22t21 -52q1 -32 -23 -56t-57 -25z" />
    <glyph glyph-name="divide" unicode="&#xf7;" horiz-adv-x="980" 
d="M106 664l21 88h829l-20 -88h-830zM586 932q-35 0 -56 22q-20 23 -17 57q3 33 30 57t61 24t55 -23q19 -23 17 -57t-28 -56q-26 -24 -62 -24zM458 324q-34 0 -55 22q-20 22 -18 56t29 58q28 24 62 24t54 -24q20 -22 18 -56t-30 -56q-26 -24 -60 -24z" />
    <glyph glyph-name="oslash" unicode="&#xf8;" horiz-adv-x="1124" 
d="M485 70q203 0 333 178t130 420q0 121 -43 200l-639 -725q78 -73 219 -73zM180 406q0 -127 43 -207l639 725q-78 74 -217 73q-203 -1 -334 -173t-131 -418zM481 -8q-168 0 -274 84l-111 -127h-92l154 174q-96 113 -97 295q0 276 169 469t421 192q164 0 273 -86l104 119h92
l-147 -166q94 -111 94 -284q0 -278 -167 -474t-419 -196z" />
    <glyph glyph-name="ugrave" unicode="&#xf9;" horiz-adv-x="1177" 
d="M686 1180l-172 209l12 51h107l127 -260h-74zM336 -12q-125 0 -183 79t-28 216l141 616q10 39 -9 66t-56 26h-74l16 64q59 23 128 23t101 -51q32 -50 11 -138l-137 -596q-25 -105 12 -159t123 -54q188 0 436 217l178 772h78q41 0 29 -59l-193 -842q-9 -39 11 -67t55 -27
h69l-14 -62q-47 -20 -117 -20q-71 0 -105 46t-17 128l10 47q-229 -225 -465 -225z" />
    <glyph glyph-name="uacute" unicode="&#xfa;" horiz-adv-x="1177" 
d="M336 -12q-125 0 -183 79t-28 216l141 616q10 39 -9 66t-56 26h-74l16 64q59 23 128 23t101 -51q32 -50 11 -138l-137 -596q-25 -105 12 -159t123 -54q188 0 436 217l178 772h78q41 0 29 -59l-193 -842q-9 -39 11 -67t55 -27h69l-14 -62q-47 -20 -117 -20q-71 0 -105 46
t-17 128l10 47q-229 -225 -465 -225zM637 1180l174 260h127l-12 -51l-209 -209h-80z" />
    <glyph glyph-name="ucircumflex" unicode="&#xfb;" horiz-adv-x="1177" 
d="M336 -12q-125 0 -183 79t-28 216l141 616q10 39 -9 66t-56 26h-74l16 64q59 23 128 23t101 -51q32 -50 11 -138l-137 -596q-25 -105 12 -159t123 -54q188 0 436 217l178 772h78q41 0 29 -59l-193 -842q-9 -39 11 -67t55 -27h69l-14 -62q-47 -20 -117 -20q-71 0 -105 46
t-17 128l10 47q-229 -225 -465 -225zM473 1180l10 41l207 219h117l133 -219l-10 -41h-51l-138 180l-206 -180h-62z" />
    <glyph glyph-name="udieresis" unicode="&#xfc;" horiz-adv-x="1177" 
d="M336 -12q-125 0 -183 79t-28 216l141 616q10 39 -9 66t-56 26h-74l16 64q59 23 128 23t101 -51q32 -50 11 -138l-137 -596q-25 -105 12 -159t123 -54q188 0 436 217l178 772h78q41 0 29 -59l-193 -842q-9 -39 11 -67t55 -27h69l-14 -62q-47 -20 -117 -20q-71 0 -105 46
t-17 128l10 47q-229 -225 -465 -225zM862 1229q-33 0 -53 20q-21 19 -21 53t25 58t55 24t53 -22q21 -22 21 -52q0 -32 -23 -57q-24 -24 -57 -24zM563 1229q-33 0 -53 20q-20 21 -20 55t23 58t55 22q32 0 54 -22t22 -52q0 -32 -24 -57q-24 -24 -57 -24z" />
    <glyph glyph-name="yacute" unicode="&#xfd;" horiz-adv-x="1157" 
d="M645 1174l174 260h127l-12 -52l-209 -208h-80zM384 -346q-202 0 -353 67l22 95h72q66 -84 242 -84t261 61t115 187l64 268q-236 -219 -453 -219q-129 1 -190 75t-31 211l133 584q10 39 -9 66t-56 26h-74l14 64q53 23 125 23t105 -50q33 -49 12 -139l-129 -565
q-47 -203 137 -203q195 0 434 213l170 735h78q41 0 27 -61l-240 -1035q-38 -163 -156 -241t-320 -78z" />
    <glyph glyph-name="thorn" unicode="&#xfe;" horiz-adv-x="1120" 
d="M464 82q184 0 312 131q78 82 124 216t46 292q0 270 -211 270q-195 0 -436 -250l-129 -561q110 -98 294 -98zM1067 740q0 -170 -58 -328q-151 -410 -534 -410q-203 0 -321 107l-84 -371h176l-15 -70h-438l17 70h86q22 0 44 17t25 40l344 1503q6 23 -6 41t-33 19h-100
l18 76h240q31 0 23 -37l-129 -561q207 244 448 243q137 0 217 -84t80 -255z" />
    <glyph glyph-name="ydieresis" unicode="&#xff;" horiz-adv-x="1157" 
d="M870 1223q-33 0 -53 20t-20 53t24 58q25 24 56 24t53 -22t20 -52q0 -32 -23 -57q-24 -24 -57 -24zM571 1223q-33 0 -53 20t-20 54t23 58q24 23 56 23q31 0 53 -22t22 -52q0 -32 -24 -57q-24 -24 -57 -24zM384 -346q-202 0 -353 67l22 95h72q66 -84 242 -84t261 61
t115 187l64 268q-236 -219 -453 -219q-129 1 -190 75t-31 211l133 584q10 39 -9 66t-56 26h-74l14 64q53 23 125 23t105 -50q33 -49 12 -139l-129 -565q-47 -203 137 -203q195 0 434 213l170 735h78q41 0 27 -61l-240 -1035q-38 -163 -156 -241t-320 -78z" />
    <glyph glyph-name="Amacron" unicode="&#x100;" horiz-adv-x="1427" 
d="M659 1581l21 82h479l-20 -82h-480zM895 1337l-449 -786h545l-84 786h-12zM276 74h123l-16 -74h-465l16 74h54q78 0 123 76l647 1134q43 74 -25 74h-123l19 76h387l141 -1278q3 -35 23 -59t51 -23h65l-16 -74h-471l16 74h217l-43 395h-600l-149 -262q-49 -88 -26 -117
q13 -16 52 -16z" />
    <glyph glyph-name="amacron" unicode="&#x101;" horiz-adv-x="1026" 
d="M375 1247l20 82h479l-20 -82h-479zM328 72q190 0 346 186l51 227q-115 49 -265 49t-240 -67q-89 -68 -89 -207q1 -88 55 -138t142 -50zM776 -8q-66 0 -102 47t-17 125q-150 -174 -344 -174q-133 0 -214 72t-81 190q0 178 122 269t331 91q152 0 270 -53l43 180
q29 125 -31 191t-182 65q-190 0 -311 -94h-59l22 100q165 78 351 78t277 -89t52 -255l-133 -569q-10 -43 8 -69q27 -39 125 -19l-14 -66q-47 -20 -113 -20z" />
    <glyph glyph-name="Abreve" unicode="&#x102;" horiz-adv-x="1427" 
d="M884 1522q-97 0 -156 51q-58 51 -71 133l11 45h77q5 -143 145 -143t175 143h86l-12 -51q-27 -80 -93 -129t-162 -49zM895 1337l-449 -786h545l-84 786h-12zM276 74h123l-16 -74h-465l16 74h54q78 0 123 76l647 1134q43 74 -25 74h-123l19 76h387l141 -1278q3 -35 23 -59
t51 -23h65l-16 -74h-471l16 74h217l-43 395h-600l-149 -262q-49 -88 -26 -117q13 -16 52 -16z" />
    <glyph glyph-name="abreve" unicode="&#x103;" horiz-adv-x="1026" 
d="M601 1178q-97 0 -156 51q-58 51 -70 133l10 45h78q4 -143 144 -143t175 143h86l-12 -51q-26 -80 -92 -129t-163 -49zM328 72q190 0 346 186l51 227q-115 49 -265 49t-240 -67q-89 -68 -89 -207q1 -88 55 -138t142 -50zM776 -8q-66 0 -102 47t-17 125q-150 -174 -344 -174
q-133 0 -214 72t-81 190q0 178 122 269t331 91q152 0 270 -53l43 180q29 125 -31 191t-182 65q-190 0 -311 -94h-59l22 100q165 78 351 78t277 -89t52 -255l-133 -569q-10 -43 8 -69q27 -39 125 -19l-14 -66q-47 -20 -113 -20z" />
    <glyph glyph-name="Aogonek" unicode="&#x104;" horiz-adv-x="1427" 
d="M895 1337l-449 -786h545l-84 786h-12zM1070 -336q-64 0 -106 34q-40 34 -40 93q0 106 168 209h-283l16 74h217l-43 395h-600l-149 -262q-49 -88 -26 -117q13 -16 52 -16h123l-16 -74h-465l16 74h54q78 0 123 76l647 1134q43 74 -25 74h-123l19 76h387l141 -1278
q3 -35 23 -59t51 -23h65l-16 -74h-96q-156 -104 -156 -201q0 -63 70 -63q29 0 51 14h47l-14 -67q-48 -19 -112 -19z" />
    <glyph glyph-name="aogonek" unicode="&#x105;" horiz-adv-x="1026" 
d="M328 72q190 0 346 186l51 227q-115 49 -265 49t-240 -67q-89 -68 -89 -207q1 -88 55 -138t142 -50zM726 -336q-64 0 -106 34q-40 34 -40 93q0 109 161 207q-53 12 -75 56t-9 110q-150 -174 -344 -174q-133 0 -214 72t-81 190q0 178 122 269t331 91q152 0 270 -53l43 180
q29 125 -31 191t-182 65q-190 0 -311 -94h-59l22 100q165 78 351 78t277 -89t52 -255l-133 -569q-10 -43 8 -69q27 -39 125 -19l-14 -66q-93 -35 -149 -90t-56 -123q0 -63 70 -63q29 0 51 14h47l-14 -67q-48 -19 -112 -19z" />
    <glyph glyph-name="Cacute" unicode="&#x106;" horiz-adv-x="1269" 
d="M618 -10q-242 0 -376 142t-136 393q0 251 103 460q101 209 291 334t428 125q180 0 311 -66q29 0 41 56h84l-94 -404h-92l28 234q-86 94 -278 94q-305 0 -500 -234t-195 -598q-1 -214 103 -332t276 -118t272 48q99 48 185 136h70l-23 -98q-201 -172 -498 -172zM877 1524
l174 260h127l-13 -51l-209 -209h-79z" />
    <glyph glyph-name="cacute" unicode="&#x107;" horiz-adv-x="991" 
d="M459 -8q-197 0 -298 108t-102 293q-1 289 179 488t460 198q176 0 299 -65l-45 -193h-75q3 70 -9 105q-26 73 -178 73q-230 0 -370 -178t-140 -428q0 -151 69 -237t210 -86q81 0 147 22t98 46t66 61h70l-23 -90q-161 -117 -358 -117zM635 1174l174 260h127l-12 -52
l-209 -208h-80z" />
    <glyph glyph-name="Ccircumflex" unicode="&#x108;" horiz-adv-x="1269" 
d="M618 -10q-242 0 -376 142t-136 393q0 251 103 460q101 209 291 334t428 125q180 0 311 -66q29 0 41 56h84l-94 -404h-92l28 234q-86 94 -278 94q-305 0 -500 -234t-195 -598q-1 -214 103 -332t276 -118t272 48q99 48 185 136h70l-23 -98q-201 -172 -498 -172zM702 1524
l11 41l207 219h116l133 -219l-10 -41h-51l-137 180l-207 -180h-62z" />
    <glyph glyph-name="ccircumflex" unicode="&#x109;" horiz-adv-x="991" 
d="M459 -8q-197 0 -298 108t-102 293q-1 289 179 488t460 198q176 0 299 -65l-45 -193h-75q3 70 -9 105q-26 73 -178 73q-230 0 -370 -178t-140 -428q0 -151 69 -237t210 -86q81 0 147 22t98 46t66 61h70l-23 -90q-161 -117 -358 -117zM463 1174l10 40l207 220h117l133 -220
l-10 -40h-52l-137 180l-207 -180h-61z" />
    <glyph glyph-name="Cdotaccent" unicode="&#x10a;" horiz-adv-x="1269" 
d="M925 1571q-34 1 -57 23q-22 22 -22 55t24 57t59 25q33 0 55 -23q22 -24 22 -56t-24 -56t-57 -25zM618 -10q-242 0 -376 142t-136 393q0 251 103 460q101 209 291 334t428 125q180 0 311 -66q29 0 41 56h84l-94 -404h-92l28 234q-86 94 -278 94q-305 0 -500 -234
t-195 -598q-1 -214 103 -332t276 -118t272 48q99 48 185 136h70l-23 -98q-201 -172 -498 -172z" />
    <glyph glyph-name="cdotaccent" unicode="&#x10b;" horiz-adv-x="991" 
d="M766 1302q0 -32 -24 -56t-57 -25q-35 1 -57 23t-22 54t25 58q25 24 59 24t54 -22q22 -24 22 -56zM459 -8q-197 0 -298 108t-102 293q-1 289 179 488t460 198q176 0 299 -65l-45 -193h-75q3 70 -9 105q-26 73 -178 73q-230 0 -370 -178t-140 -428q0 -151 69 -237t210 -86
q81 0 147 22t98 46t66 61h70l-23 -90q-161 -117 -358 -117z" />
    <glyph glyph-name="Ccaron" unicode="&#x10c;" horiz-adv-x="1269" 
d="M618 -10q-242 0 -376 142t-136 393q0 251 103 460q101 209 291 334t428 125q180 0 311 -66q29 0 41 56h84l-94 -404h-92l28 234q-86 94 -278 94q-305 0 -500 -234t-195 -598q-1 -214 103 -332t276 -118t272 48q99 48 185 136h70l-23 -98q-201 -172 -498 -172zM1200 1784
l-10 -41l-207 -219h-117l-133 219l10 41h52l137 -180l207 180h61z" />
    <glyph glyph-name="ccaron" unicode="&#x10d;" horiz-adv-x="991" 
d="M459 -8q-197 0 -298 108t-102 293q-1 289 179 488t460 198q176 0 299 -65l-45 -193h-75q3 70 -9 105q-26 73 -178 73q-230 0 -370 -178t-140 -428q0 -151 69 -237t210 -86q81 0 147 22t98 46t66 61h70l-23 -90q-161 -117 -358 -117zM958 1434l-10 -41l-207 -219h-116
l-133 219l10 41h51l137 -181l207 181h61z" />
    <glyph glyph-name="Dcaron" unicode="&#x10e;" horiz-adv-x="1388" 
d="M516 80q362 0 545 222q182 222 182 601q0 451 -493 451h-224l-293 -1274h283zM35 74q27 0 55 22t33 45l262 1147q6 26 -6 48t-37 22h-104l18 76h508q296 0 452 -138t156 -401q0 -403 -220 -649t-642 -246h-586l17 74h94zM1100 1778l-10 -41l-207 -219h-117l-133 219
l10 41h51l137 -181l207 181h62z" />
    <glyph glyph-name="dcaron" unicode="&#x10f;" horiz-adv-x="1169" 
d="M176 340q0 -268 222 -268q108 0 211 70t212 188l135 575q-42 29 -70 45q-80 45 -214 45q-178 0 -314 -141q-82 -86 -132 -220t-50 -294zM375 -8q-150 0 -235 87t-85 256q1 169 63 323t158 251q164 170 394 170q176 0 301 -102l90 381h-182l18 76h268q33 0 23 -37
l-285 -1231q-9 -37 13 -65t57 -27h61l-14 -62q-36 -20 -104 -20t-109 44t-23 126l15 65q-184 -235 -424 -235zM1229 1169l96 265h105l-13 -52l-114 -213h-74z" />
    <glyph glyph-name="Dcroat" unicode="&#x110;" horiz-adv-x="1388" 
d="M516 80q362 0 545 222q182 222 182 601q0 451 -493 451h-224l-139 -600h416l-21 -80h-413l-136 -594h283zM35 74q27 0 55 22t33 45l121 533h-164l20 80h162l123 534q6 26 -6 48t-37 22h-104l18 76h508q296 0 452 -138t156 -401q0 -403 -220 -649t-642 -246h-586l17 74h94
z" />
    <glyph glyph-name="dcroat" unicode="&#x111;" horiz-adv-x="1169" 
d="M176 340q0 -268 222 -268q108 0 211 70t212 188l135 575q-42 29 -70 45q-80 45 -214 45q-178 0 -314 -141q-82 -86 -132 -220t-50 -294zM1165 1434q33 0 23 -37l-35 -144h147l-14 -67h-147l-236 -1020q-9 -37 13 -65t57 -27h61l-14 -62q-36 -20 -104 -20t-109 44t-23 126
l15 65q-184 -236 -424 -235q-150 0 -235 87t-85 256q1 169 63 323t158 251q164 170 394 170q176 0 301 -102l49 209h-324l15 67h325l25 105h-182l18 76h268z" />
    <glyph glyph-name="Emacron" unicode="&#x112;" horiz-adv-x="1191" 
d="M604 1581l21 82h479l-21 -82h-479zM35 74q27 0 55 22t33 45l262 1147q6 26 -6 48t-37 22h-104l18 76h1020l-80 -344h-86l41 264h-625l-133 -574h379l62 183h81l-102 -447h-84l29 184h-383l-144 -620h682l86 289h91l-84 -369h-1082l17 74h94z" />
    <glyph glyph-name="emacron" unicode="&#x113;" horiz-adv-x="999" 
d="M444 1247l21 82h479l-20 -82h-480zM858 836q0 166 -186 166t-310 -130q-124 -129 -167 -315q343 6 503 71t160 208zM460 -8q-200 0 -299 111q-99 112 -100 300q-1 283 179 480t438 196q133 0 215 -59t82 -180q0 -180 -196 -268t-595 -93q-4 -41 -4 -78q0 -151 70 -241
t207 -90q190 0 311 129h70l-23 -90q-155 -117 -355 -117z" />
    <glyph glyph-name="Ebreve" unicode="&#x114;" horiz-adv-x="1191" 
d="M814 1528q-97 0 -156 51q-58 51 -70 133l10 45h78q4 -143 144 -143t175 143h86l-12 -51q-27 -80 -93 -129t-162 -49zM35 74q27 0 55 22t33 45l262 1147q6 26 -6 48t-37 22h-104l18 76h1020l-80 -344h-86l41 264h-625l-133 -574h379l62 183h81l-102 -447h-84l29 184h-383
l-144 -620h682l86 289h91l-84 -369h-1082l17 74h94z" />
    <glyph glyph-name="ebreve" unicode="&#x115;" horiz-adv-x="999" 
d="M650 1178q-97 0 -155 51t-71 133l10 45h78q4 -143 144 -143t175 143h87l-13 -51q-27 -80 -93 -129t-162 -49zM858 836q0 166 -186 166t-310 -130q-124 -129 -167 -315q343 6 503 71t160 208zM460 -8q-200 0 -299 111q-99 112 -100 300q-1 283 179 480t438 196
q133 0 215 -59t82 -180q0 -180 -196 -268t-595 -93q-4 -41 -4 -78q0 -151 70 -241t207 -90q190 0 311 129h70l-23 -90q-155 -117 -355 -117z" />
    <glyph glyph-name="Edotaccent" unicode="&#x116;" horiz-adv-x="1191" 
d="M822 1565q-34 1 -56 23t-23 54q0 32 25 58q24 24 58 24t56 -22t22 -56q0 -32 -24 -57q-24 -24 -58 -24zM35 74q27 0 55 22t33 45l262 1147q6 26 -6 48t-37 22h-104l18 76h1020l-80 -344h-86l41 264h-625l-133 -574h379l62 183h81l-102 -447h-84l29 184h-383l-144 -620
h682l86 289h91l-84 -369h-1082l17 74h94z" />
    <glyph glyph-name="edotaccent" unicode="&#x117;" horiz-adv-x="999" 
d="M658 1221q-34 1 -56 23t-22 54t24 58q25 24 59 24q33 0 55 -22t22 -56q0 -32 -24 -57q-24 -24 -58 -24zM858 836q0 166 -186 166t-310 -130q-124 -129 -167 -315q343 6 503 71t160 208zM460 -8q-200 0 -299 111q-99 112 -100 300q-1 283 179 480t438 196q133 0 215 -59
t82 -180q0 -180 -196 -268t-595 -93q-4 -41 -4 -78q0 -151 70 -241t207 -90q190 0 311 129h70l-23 -90q-155 -117 -355 -117z" />
    <glyph glyph-name="Eogonek" unicode="&#x118;" horiz-adv-x="1191" 
d="M35 74q27 0 55 22t33 45l262 1147q6 26 -6 48t-37 22h-104l18 76h1020l-80 -344h-86l41 264h-625l-133 -574h379l62 183h81l-102 -447h-84l29 184h-383l-144 -620h682l86 289h91l-84 -369h-84q-156 -104 -156 -201q0 -63 70 -63q29 0 51 14h47l-14 -67q-47 -19 -112 -19
t-106 34t-40 93q0 106 167 209h-905l17 74h94z" />
    <glyph glyph-name="eogonek" unicode="&#x119;" horiz-adv-x="999" 
d="M858 836q0 166 -186 166t-310 -130q-124 -129 -167 -315q343 6 503 71t160 208zM518 -201q0 -63 70 -63q31 0 51 14h47l-14 -67q-47 -19 -112 -19q-66 0 -106 34t-40 93q0 104 172 215q-68 -14 -135 -14q-190 0 -290 111q-99 112 -100 300q-1 283 179 480t438 196
q133 0 215 -59t82 -180q0 -180 -196 -268t-595 -93q-4 -41 -4 -78q0 -151 70 -241t207 -90q190 0 311 129h70l-23 -90q-16 -15 -86 -63q-71 -48 -105 -78t-70 -78t-36 -91z" />
    <glyph glyph-name="Ecaron" unicode="&#x11a;" horiz-adv-x="1191" 
d="M35 74q27 0 55 22t33 45l262 1147q6 26 -6 48t-37 22h-104l18 76h1020l-80 -344h-86l41 264h-625l-133 -574h379l62 183h81l-102 -447h-84l29 184h-383l-144 -620h682l86 289h91l-84 -369h-1082l17 74h94zM1098 1778l-11 -41l-206 -219h-117l-133 219l10 41h51l137 -181
l207 181h62z" />
    <glyph glyph-name="ecaron" unicode="&#x11b;" horiz-adv-x="999" 
d="M858 836q0 166 -186 166t-310 -130q-124 -129 -167 -315q343 6 503 71t160 208zM460 -8q-200 0 -299 111q-99 112 -100 300q-1 283 179 480t438 196q133 0 215 -59t82 -180q0 -180 -196 -268t-595 -93q-4 -41 -4 -78q0 -151 70 -241t207 -90q190 0 311 129h70l-23 -90
q-155 -117 -355 -117zM934 1434l-10 -41l-207 -219h-117l-133 219l10 41h51l138 -181l206 181h62z" />
    <glyph glyph-name="Gcircumflex" unicode="&#x11c;" horiz-adv-x="1374" 
d="M618 -10q-246 0 -378 136t-134 388q0 252 104 463t294 339t402 128t339 -64q29 0 45 54h82l-92 -392h-90l29 220q-106 96 -289 96q-301 0 -497 -240t-195 -594q0 -449 397 -448q79 0 147 18t101 36t96 56l88 383h-207l17 76h477l-17 -76h-75q-25 1 -52 -23t-32 -48
l-115 -498h-78q8 74 -27 74q-143 -84 -340 -84zM711 1524l10 41l207 219h116l134 -219l-11 -41h-51l-137 180l-207 -180h-61z" />
    <glyph glyph-name="gcircumflex" unicode="&#x11d;" horiz-adv-x="962" 
d="M266 690q0 -88 54 -142t172 -54q120 0 201 83t81 226q0 90 -55 144t-172 54t-199 -88t-82 -223zM338 -264q178 0 277 70t99 166t-50 132q-51 36 -152 37h-272q-100 -37 -160 -97t-60 -138q0 -170 318 -170zM342 -346q-230 0 -333 68t-103 170t68 166t194 116
q-76 33 -76 121q0 115 150 194q-90 73 -90 221t117 259q118 111 292 110q47 0 98 -10h373l-16 -78h-137q-39 0 -43 -37q51 -68 51 -155q0 -171 -115 -277t-291 -106q-106 0 -184 39q-100 -55 -100 -133q0 -35 26 -56q27 -20 70 -20h256q135 0 207 -60t71 -176
q0 -162 -128 -259q-127 -97 -357 -97zM416 1174l10 40l207 220h117l133 -220l-11 -40h-51l-137 180l-207 -180h-61z" />
    <glyph glyph-name="Gbreve" unicode="&#x11e;" horiz-adv-x="1374" 
d="M929 1528q-97 0 -156 51q-58 51 -71 133l11 45h78q4 -143 144 -143t175 143h86l-12 -51q-26 -80 -92 -129t-163 -49zM618 -10q-246 0 -378 136t-134 388q0 252 104 463t294 339t402 128t339 -64q29 0 45 54h82l-92 -392h-90l29 220q-106 96 -289 96q-301 0 -497 -240
t-195 -594q0 -449 397 -448q79 0 147 18t101 36t96 56l88 383h-207l17 76h477l-17 -76h-75q-25 1 -52 -23t-32 -48l-115 -498h-78q8 74 -27 74q-143 -84 -340 -84z" />
    <glyph glyph-name="gbreve" unicode="&#x11f;" horiz-adv-x="962" 
d="M632 1178q-97 0 -156 51q-58 51 -70 133l10 45h78q4 -143 144 -143t175 143h86l-12 -51q-27 -80 -93 -129t-162 -49zM266 690q0 -88 54 -142t172 -54q120 0 201 83t81 226q0 90 -55 144t-172 54t-199 -88t-82 -223zM338 -264q178 0 277 70t99 166t-50 132q-51 36 -152 37
h-272q-100 -37 -160 -97t-60 -138q0 -170 318 -170zM342 -346q-230 0 -333 68t-103 170t68 166t194 116q-76 33 -76 121q0 115 150 194q-90 73 -90 221t117 259q118 111 292 110q47 0 98 -10h373l-16 -78h-137q-39 0 -43 -37q51 -68 51 -155q0 -171 -115 -277t-291 -106
q-106 0 -184 39q-100 -55 -100 -133q0 -35 26 -56q27 -20 70 -20h256q135 0 207 -60t71 -176q0 -162 -128 -259q-127 -97 -357 -97z" />
    <glyph glyph-name="Gdotaccent" unicode="&#x120;" horiz-adv-x="1374" 
d="M933 1571q-35 1 -57 23t-22 55t25 57t59 25q34 0 54 -23q22 -24 22 -56t-24 -56t-57 -25zM618 -10q-246 0 -378 136t-134 388q0 252 104 463t294 339t402 128t339 -64q29 0 45 54h82l-92 -392h-90l29 220q-106 96 -289 96q-301 0 -497 -240t-195 -594q0 -449 397 -448
q79 0 147 18t101 36t96 56l88 383h-207l17 76h477l-17 -76h-75q-25 1 -52 -23t-32 -48l-115 -498h-78q8 74 -27 74q-143 -84 -340 -84z" />
    <glyph glyph-name="gdotaccent" unicode="&#x121;" horiz-adv-x="962" 
d="M617 1221q-35 1 -57 23t-22 54t25 58q25 24 59 24t56 -22t20 -56q0 -32 -23 -57q-24 -24 -58 -24zM266 690q0 -88 54 -142t172 -54q120 0 201 83t81 226q0 90 -55 144t-172 54t-199 -88t-82 -223zM338 -264q178 0 277 70t99 166t-50 132q-51 36 -152 37h-272
q-100 -37 -160 -97t-60 -138q0 -170 318 -170zM342 -346q-230 0 -333 68t-103 170t68 166t194 116q-76 33 -76 121q0 115 150 194q-90 73 -90 221t117 259q118 111 292 110q47 0 98 -10h373l-16 -78h-137q-39 0 -43 -37q51 -68 51 -155q0 -171 -115 -277t-291 -106
q-106 0 -184 39q-100 -55 -100 -133q0 -35 26 -56q27 -20 70 -20h256q135 0 207 -60t71 -176q0 -162 -128 -259q-127 -97 -357 -97z" />
    <glyph glyph-name="Gcommaaccent" unicode="&#x122;" horiz-adv-x="1374" 
d="M618 -10q-246 0 -378 136t-134 388q0 252 104 463t294 339t402 128t339 -64q29 0 45 54h82l-92 -392h-90l29 220q-106 96 -289 96q-301 0 -497 -240t-195 -594q0 -449 397 -448q79 0 147 18t101 36t96 56l88 383h-207l17 76h477l-17 -76h-75q-25 1 -52 -23t-32 -48
l-115 -498h-78q8 74 -27 74q-143 -84 -340 -84zM535 -261q0 25 -25 45t-25 52t24 54q25 22 57 22t55 -24t22 -70q0 -94 -64 -151q-65 -56 -167 -68l14 59q45 6 77 31t32 50z" />
    <glyph glyph-name="gcommaaccent" unicode="&#x123;" horiz-adv-x="962" 
d="M266 690q0 -88 54 -142t172 -54q120 0 201 83t81 226q0 90 -55 144t-172 54t-199 -88t-82 -223zM338 -264q178 0 277 70t99 166t-50 132q-51 36 -152 37h-272q-100 -37 -160 -97t-60 -138q0 -170 318 -170zM342 -346q-230 0 -333 68t-103 170t68 166t194 116
q-76 33 -76 121q0 115 150 194q-90 73 -90 221t117 259q118 111 292 110q47 0 98 -10h373l-16 -78h-137q-39 0 -43 -37q51 -68 51 -155q0 -171 -115 -277t-291 -106q-106 0 -184 39q-100 -55 -100 -133q0 -35 26 -56q27 -20 70 -20h256q135 0 207 -60t71 -176
q0 -162 -128 -259q-127 -97 -357 -97zM719 1286q0 -32 -24 -54q-25 -22 -57 -22t-54 24t-23 71q0 95 65 151t167 68l-15 -60q-45 -6 -77 -30q-31 -24 -31 -50t24 -46t25 -52z" />
    <glyph glyph-name="Hcircumflex" unicode="&#x124;" horiz-adv-x="1468" 
d="M35 74q27 0 55 22t33 47l262 1143q6 28 -6 50t-37 22h-104l18 76h500l-19 -76h-209l-133 -576h793l133 576h-211l18 76h502l-18 -76h-96q-27 0 -54 -24t-30 -48l-265 -1143q-6 -27 5 -49t36 -20h107l-17 -74h-501l16 74h211l145 626h-792l-146 -626h211l-16 -74h-502
l17 74h94zM729 1518l10 41l207 219h117l133 -219l-10 -41h-51l-138 180l-206 -180h-62z" />
    <glyph glyph-name="hcircumflex" unicode="&#x125;" horiz-adv-x="1189" 
d="M926 -8q-68 0 -103 48t-16 128l143 623q23 96 -9 144t-107 48q-213 0 -476 -225l-174 -758h-75q-45 0 -29 59l285 1239q5 23 -7 41t-32 19h-101l19 76h239q33 0 23 -37l-129 -555q258 238 500 237q117 -1 171 -73t23 -203l-145 -633q-8 -39 12 -68t55 -28h62l-15 -62
q-46 -20 -114 -20zM530 1493l11 41l207 219h116l133 -219l-10 -41h-51l-137 180l-207 -180h-62z" />
    <glyph glyph-name="Hbar" unicode="&#x126;" horiz-adv-x="1468" 
d="M395 782h793l53 232h-792zM342 1358h-104l18 76h500l-19 -76h-209l-65 -277h792l66 277h-211l18 76h502l-18 -76h-96q-27 0 -54 -24t-30 -48l-48 -205h166l-16 -67h-166l-201 -871q-6 -27 5 -49t36 -20h107l-17 -74h-501l16 74h211l145 626h-792l-146 -626h211l-16 -74
h-502l17 74h94q27 0 55 22t33 47l199 871h-168l16 67h168l47 205q6 28 -6 50t-37 22z" />
    <glyph glyph-name="hbar" unicode="&#x127;" horiz-adv-x="1189" 
d="M483 1434q33 0 23 -37l-35 -144h301l-14 -67h-301l-80 -344q258 238 500 237q117 -1 171 -73t23 -203l-145 -633q-8 -39 12 -68t55 -28h62l-15 -62q-46 -20 -114 -20t-103 48t-16 128l143 623q23 96 -9 144t-107 48q-213 0 -476 -225l-174 -758h-75q-45 0 -29 59
l258 1127h-152l15 67h153l11 45q5 23 -7 41t-32 19h-101l19 76h239z" />
    <glyph glyph-name="Imacron" unicode="&#x12a;" horiz-adv-x="585" 
d="M295 1581l20 82h480l-21 -82h-479zM55 74q27 0 54 22t32 45l265 1147q4 26 -8 48t-36 22h-124l18 76h492l-19 -76h-113q-28 0 -54 -23t-32 -47l-262 -1147q-6 -27 5 -47t36 -20h125l-16 -74h-494l17 74h114z" />
    <glyph glyph-name="imacron" unicode="&#x12b;" horiz-adv-x="493" 
d="M168 1253l20 82h373l-20 -82h-373zM229 -8q-75 0 -109 48t-14 132l168 727q10 39 -9 66t-56 26h-82l14 64q80 23 129 22q164 0 123 -178l-170 -733q-8 -37 14 -65t58 -27h63l-14 -62q-41 -20 -115 -20z" />
    <glyph glyph-name="Iogonek" unicode="&#x12e;" horiz-adv-x="585" 
d="M55 74q27 0 54 22t32 45l265 1147q4 26 -8 48t-36 22h-124l18 76h492l-19 -76h-113q-28 0 -54 -23t-32 -47l-262 -1147q-6 -27 5 -47t36 -20h125l-16 -74h-105q-156 -104 -155 -201q0 -63 69 -63q29 0 52 14h47l-15 -67q-47 -19 -111 -19t-106 34q-41 34 -41 93
q0 113 168 209h-297l17 74h114z" />
    <glyph glyph-name="iogonek" unicode="&#x12f;" horiz-adv-x="493" 
d="M418 1221q-32 1 -54 23t-22 54t25 58q25 24 59 24t54 -22q22 -22 22 -56q0 -32 -26 -56t-58 -25zM180 -336q-64 0 -104 34t-41 93q0 113 162 205q-57 10 -82 57t-9 119l168 727q10 39 -9 66t-56 26h-82l14 64q80 23 129 22q164 0 123 -178l-170 -733q-8 -37 14 -65
t58 -27h63l-14 -62q-86 -33 -145 -90t-60 -123q0 -63 70 -63q29 0 51 14h47l-14 -67q-49 -19 -113 -19z" />
    <glyph glyph-name="Idotaccent" unicode="&#x130;" horiz-adv-x="585" 
d="M536 1565q-34 1 -57 23t-23 54t25 58q25 24 59 24t56 -22t20 -56q0 -32 -23 -56t-57 -25zM55 74q27 0 54 22t32 45l265 1147q4 26 -8 48t-36 22h-124l18 76h492l-19 -76h-113q-28 0 -54 -23t-32 -47l-262 -1147q-6 -27 5 -47t36 -20h125l-16 -74h-494l17 74h114z" />
    <glyph glyph-name="dotlessi" unicode="&#x131;" horiz-adv-x="493" 
d="M229 -8q-75 0 -109 48t-14 132l168 727q10 39 -9 66t-56 26h-82l14 64q80 23 129 22q164 0 123 -178l-170 -733q-8 -37 14 -65t58 -27h63l-14 -62q-41 -20 -115 -20z" />
    <glyph glyph-name="Jcircumflex" unicode="&#x134;" horiz-adv-x="917" 
d="M236 -10q-177 0 -310 80l23 96h78q49 -90 193 -90t214 60q68 60 98 190l224 962q4 26 -7 48t-36 22h-113l16 76h463l-18 -76h-94q-27 0 -54 -23t-32 -47l-226 -973q-39 -165 -141 -245t-278 -80zM639 1518l10 41l207 219h117l133 -219l-10 -41h-52l-137 180l-207 -180
h-61z" />
    <glyph glyph-name="jcircumflex" unicode="&#x135;" horiz-adv-x="495" 
d="M141 1174l11 40l206 220h117l133 -220l-10 -40h-51l-137 180l-207 -180h-62zM-109 -338q-80 0 -153 29l18 80h60q25 -31 84 -31t92 35t51 114l231 1010q8 39 -10 66t-55 26h-82l16 64q78 23 127 22q164 0 123 -178l-233 -1016q-50 -221 -269 -221z" />
    <glyph glyph-name="Kcommaaccent" unicode="&#x136;" horiz-adv-x="1359" 
d="M35 74q27 0 55 22t33 45l262 1147q6 26 -6 48t-37 22h-104l18 76h494l-19 -76h-203l-176 -760l768 672q57 49 32 77q-11 11 -38 11h-65l16 76h412l-19 -76h-53q-51 0 -127 -62l-549 -473l303 -669q37 -80 101 -80h73l-16 -74h-266l14 66l-303 679l-309 -266l-95 -405h203
l-14 -74h-496l17 74h94zM578 -261q0 25 -25 45t-25 52t24 54t56 22t56 -24q23 -24 22 -70q0 -94 -64 -151q-65 -56 -167 -68l14 59q45 6 77 31t32 50z" />
    <glyph glyph-name="kcommaaccent" unicode="&#x137;" horiz-adv-x="1034" 
d="M834 -8q-62 0 -95 31t-59 96l-162 411q-131 -80 -242 -129l-92 -401h-75q-43 0 -31 59l287 1239q5 23 -7 41t-34 19h-99l19 76h239q33 0 23 -37l-205 -893q229 110 398 264t237 301h117l-15 -63q-156 -223 -428 -412l176 -432q33 -88 105 -88h55l-14 -58q-36 -24 -98 -24
zM387 -261q-1 25 -25 45t-24 52t24 54t56 22q34 0 56 -24t22 -70q0 -94 -65 -150t-167 -69l15 59q45 6 77 31t31 50z" />
    <glyph glyph-name="Lacute" unicode="&#x139;" horiz-adv-x="1148" 
d="M35 74q27 0 55 22t33 45l262 1147q6 26 -6 48t-37 22h-104l18 76h516l-18 -76h-226l-295 -1278h644l96 317h90l-90 -397h-1049l17 74h94zM496 1518l174 260h127l-13 -52l-209 -208h-79z" />
    <glyph glyph-name="lacute" unicode="&#x13a;" horiz-adv-x="507" 
d="M399 1493l174 260h127l-12 -51l-209 -209h-80zM236 -8q-68 0 -104 48t-15 132l260 1126q4 23 -10 41t-37 19h-105l19 76h252q29 0 22 -37l-285 -1231q-7 -37 13 -65t55 -27h74l-15 -62q-56 -20 -124 -20z" />
    <glyph glyph-name="Lcommaaccent" unicode="&#x13b;" horiz-adv-x="1148" 
d="M35 74q27 0 55 22t33 45l262 1147q6 26 -6 48t-37 22h-104l18 76h516l-18 -76h-226l-295 -1278h644l96 317h90l-90 -397h-1049l17 74h94zM428 -261q0 25 -24 45t-25 52t23 54t57 22t55 -24t23 -70q0 -94 -65 -150t-167 -69l14 59q45 6 77 31t32 50z" />
    <glyph glyph-name="lcommaaccent" unicode="&#x13c;" horiz-adv-x="507" 
d="M55 -164q0 32 24 54q25 22 57 22t54 -24t23 -70q-1 -94 -65 -150t-166 -69l14 59q45 6 77 31q62 48 9 94q-27 20 -27 53zM236 -8q-68 0 -104 48t-15 132l260 1126q4 23 -10 41t-37 19h-105l19 76h252q29 0 22 -37l-285 -1231q-7 -37 13 -65t55 -27h74l-15 -62
q-56 -20 -124 -20z" />
    <glyph glyph-name="Lcaron" unicode="&#x13d;" horiz-adv-x="1148" 
d="M35 74q27 0 55 22t33 45l262 1147q6 26 -6 48t-37 22h-104l18 76h516l-18 -76h-226l-295 -1278h644l96 317h90l-90 -397h-1049l17 74h94zM868 1141l107 293h115l-11 -52l-135 -241h-76z" />
    <glyph glyph-name="lcaron" unicode="&#x13e;" horiz-adv-x="507" 
d="M559 1169l96 265h105l-12 -52l-115 -213h-74zM236 -8q-68 0 -104 48t-15 132l260 1126q4 23 -10 41t-37 19h-105l19 76h252q29 0 22 -37l-285 -1231q-7 -37 13 -65t55 -27h74l-15 -62q-56 -20 -124 -20z" />
    <glyph glyph-name="Lslash" unicode="&#x141;" horiz-adv-x="1148" 
d="M35 74q27 0 55 22t33 45l92 408l-190 -74l20 92l193 74l147 647q6 26 -6 48t-37 22h-104l18 76h516l-18 -76h-226l-153 -664l504 195l-23 -92l-502 -195l-121 -522h644l96 317h90l-90 -397h-1049l17 74h94z" />
    <glyph glyph-name="lslash" unicode="&#x142;" horiz-adv-x="507" 
d="M236 -8q-68 0 -104 48t-15 132l116 510l-180 -115l23 95l180 112l121 524q4 23 -10 41t-37 19h-105l19 76h252q29 0 22 -37l-123 -535l183 117l-23 -94l-182 -115l-140 -604q-7 -37 13 -65t55 -27h74l-15 -62q-56 -20 -124 -20z" />
    <glyph glyph-name="Nacute" unicode="&#x143;" 
d="M35 74q27 0 55 22t33 47l262 1145q6 26 -6 48t-37 22h-104l18 76h311l502 -1244h2l268 1168h-206l18 76h471l-18 -76h-95q-25 0 -53 -22t-31 -44l-297 -1292h-108l-522 1292h-11l-280 -1218h211l-17 -74h-477l17 74h94zM874 1518l175 260h127l-13 -52l-209 -208h-80z" />
    <glyph glyph-name="nacute" unicode="&#x144;" horiz-adv-x="1189" 
d="M926 -8q-68 0 -103 48t-16 128l143 623q23 96 -9 144t-105 48q-215 0 -478 -225l-174 -758h-75q-45 0 -29 59l192 840q10 39 -9 66t-58 26h-78l14 64q79 23 139 23t96 -48q36 -47 13 -137l-12 -51q258 238 500 237q117 -1 171 -73t23 -203l-145 -633q-8 -39 12 -68
t55 -28h62l-15 -62q-46 -20 -114 -20zM655 1174l174 260h127l-12 -52l-209 -208h-80z" />
    <glyph glyph-name="Ncommaaccent" unicode="&#x145;" 
d="M35 74q27 0 55 22t33 47l262 1145q6 26 -6 48t-37 22h-104l18 76h311l502 -1244h2l268 1168h-206l18 76h471l-18 -76h-95q-25 0 -53 -22t-31 -44l-297 -1292h-108l-522 1292h-11l-280 -1218h211l-17 -74h-477l17 74h94zM586 -261q0 25 -25 45t-24 52q-1 32 23 54t56 22
t56 -24q23 -24 22 -70q0 -94 -64 -151q-65 -56 -167 -68l14 59q45 6 77 31t32 50z" />
    <glyph glyph-name="ncommaaccent" unicode="&#x146;" horiz-adv-x="1189" 
d="M926 -8q-68 0 -103 48t-16 128l143 623q23 96 -9 144t-105 48q-215 0 -478 -225l-174 -758h-75q-45 0 -29 59l192 840q10 39 -9 66t-58 26h-78l14 64q79 23 139 23t96 -48q36 -47 13 -137l-12 -51q258 238 500 237q117 -1 171 -73t23 -203l-145 -633q-8 -39 12 -68
t55 -28h62l-15 -62q-46 -20 -114 -20zM459 -261q0 25 -25 45t-24 52q0 32 24 54t56 22t55 -24t22 -70q0 -94 -64 -151q-65 -56 -167 -68l14 59q45 6 77 31t32 50z" />
    <glyph glyph-name="Ncaron" unicode="&#x147;" 
d="M35 74q27 0 55 22t33 47l262 1145q6 26 -6 48t-37 22h-104l18 76h311l502 -1244h2l268 1168h-206l18 76h471l-18 -76h-95q-25 0 -53 -22t-31 -44l-297 -1292h-108l-522 1292h-11l-280 -1218h211l-17 -74h-477l17 74h94zM1214 1778l-10 -41l-207 -219h-116l-133 219l10 41
h51l137 -181l207 181h61z" />
    <glyph glyph-name="ncaron" unicode="&#x148;" horiz-adv-x="1189" 
d="M926 -8q-68 0 -103 48t-16 128l143 623q23 96 -9 144t-105 48q-215 0 -478 -225l-174 -758h-75q-45 0 -29 59l192 840q10 39 -9 66t-58 26h-78l14 64q79 23 139 23t96 -48q36 -47 13 -137l-12 -51q258 238 500 237q117 -1 171 -73t23 -203l-145 -633q-8 -39 12 -68
t55 -28h62l-15 -62q-46 -20 -114 -20zM981 1434l-10 -41l-207 -219h-117l-133 219l10 41h51l138 -181l207 181h61z" />
    <glyph glyph-name="Omacron" unicode="&#x14c;" horiz-adv-x="1445" 
d="M664 76q258 0 443 231t185 584q0 223 -111 345q-112 122 -317 122q-260 0 -443 -232t-183 -585q0 -225 110 -345t316 -120zM657 -10q-256 0 -402 146t-146 411q0 383 227 640t534 257q254 0 402 -148t149 -407q-1 -260 -109 -468q-108 -207 -282 -319t-373 -112z
M690 1599l21 82h479l-21 -82h-479z" />
    <glyph glyph-name="omacron" unicode="&#x14d;" horiz-adv-x="1124" 
d="M485 70q203 0 333 178t130 420q0 158 -79 244t-224 85q-203 0 -334 -173t-131 -418q0 -162 80 -249t225 -87zM481 -8q-197 0 -309 114t-111 312q0 276 169 469t421 192q193 1 305 -113t111 -304q0 -278 -167 -474t-419 -196zM465 1247l20 82h480l-21 -82h-479z" />
    <glyph glyph-name="Ohungarumlaut" unicode="&#x150;" horiz-adv-x="1445" 
d="M664 76q258 0 443 231t185 584q0 223 -111 345q-112 122 -317 122q-260 0 -443 -232t-183 -585q0 -225 110 -345t316 -120zM657 -10q-256 0 -402 146t-146 411q0 383 227 640t534 257q254 0 402 -148t149 -407q-1 -260 -109 -468q-108 -207 -282 -319t-373 -112z
M983 1538l135 260h107l-13 -51l-153 -209h-76zM735 1538l135 260h107l-12 -51l-154 -209h-76z" />
    <glyph glyph-name="ohungarumlaut" unicode="&#x151;" horiz-adv-x="1124" 
d="M485 70q203 0 333 178t130 420q0 158 -79 244t-224 85q-203 0 -334 -173t-131 -418q0 -162 80 -249t225 -87zM481 -8q-197 0 -309 114t-111 312q0 276 169 469t421 192q193 1 305 -113t111 -304q0 -278 -167 -474t-419 -196zM756 1174l135 260h106l-12 -52l-154 -208h-75
zM508 1174l135 260h107l-13 -52l-153 -208h-76z" />
    <glyph glyph-name="OE" unicode="&#x152;" horiz-adv-x="1974" 
d="M729 82h172l293 1272h-233q-351 0 -537 -224t-186 -600q0 -228 120 -338t371 -110zM715 0q-295 0 -452 137t-157 402q0 399 226 647t635 248h1091l-80 -344h-86l41 264h-612l-133 -574h366l62 183h82l-103 -447h-84l29 184h-371l-143 -620h670l86 289h90l-84 -369h-1073z
" />
    <glyph glyph-name="oe" unicode="&#x153;" horiz-adv-x="1861" 
d="M1057 557q342 6 504 71t161 208q0 166 -186 166t-311 -126q-125 -124 -168 -319zM485 70q203 0 333 178t130 420q0 158 -79 244t-224 85q-203 0 -334 -173t-131 -418q0 -162 80 -249t225 -87zM481 -8q-197 0 -309 114t-111 312q0 276 169 469t421 192q162 0 259 -80
t122 -227q80 141 212 224t280 83t231 -59q82 -59 82 -180q0 -180 -196 -268t-594 -93q-4 -53 -5 -78q0 -332 277 -331q190 0 311 129h70l-23 -90q-156 -117 -364 -117q-309 0 -363 291q-74 -135 -196 -213t-273 -78z" />
    <glyph glyph-name="Racute" unicode="&#x154;" horiz-adv-x="1312" 
d="M635 741q209 1 321 97t113 274q0 244 -311 244h-232l-141 -615h250zM35 74q27 0 55 22t33 45l262 1147q6 26 -6 48t-37 22h-104l18 76h514q196 0 312 -79t116 -235q0 -188 -115 -292t-282 -132v-4q100 -31 147 -92t68 -213l33 -254q6 -59 47 -59h73l-16 -74h-223l-37 385
q-13 162 -73 219t-208 58h-245l-136 -588h189l-17 -74h-479l17 74h94zM707 1518l174 260h127l-13 -52l-209 -208h-79z" />
    <glyph glyph-name="racute" unicode="&#x155;" horiz-adv-x="741" 
d="M109 0q-45 0 -29 59l192 840q10 39 -9 66t-58 26h-78l14 64q53 23 126 23t108 -49q35 -48 12 -144l-12 -49q195 240 381 239q33 0 51 -6l-23 -98q-23 2 -41 2q-109 1 -199 -61t-190 -175l-170 -737h-75zM473 1174l174 260h127l-12 -52l-209 -208h-80z" />
    <glyph glyph-name="Rcommaaccent" unicode="&#x156;" horiz-adv-x="1312" 
d="M635 741q209 1 321 97t113 274q0 244 -311 244h-232l-141 -615h250zM35 74q27 0 55 22t33 45l262 1147q6 26 -6 48t-37 22h-104l18 76h514q196 0 312 -79t116 -235q0 -188 -115 -292t-282 -132v-4q100 -31 147 -92t68 -213l33 -254q6 -59 47 -59h73l-16 -74h-223l-37 385
q-13 162 -73 219t-208 58h-245l-136 -588h189l-17 -74h-479l17 74h94zM522 -164q0 32 24 54t56 22t56 -24q22 -24 22 -70q0 -94 -64 -150t-167 -69l14 59q45 6 77 31q62 48 9 94q-27 20 -27 53z" />
    <glyph glyph-name="rcommaaccent" unicode="&#x157;" horiz-adv-x="741" 
d="M109 0q-45 0 -29 59l192 840q10 39 -9 66t-58 26h-78l14 64q53 23 126 23t108 -49q35 -48 12 -144l-12 -49q195 240 381 239q33 0 51 -6l-23 -98q-23 2 -41 2q-109 1 -199 -61t-190 -175l-170 -737h-75zM74 -261q0 25 -25 45t-24 52q-1 32 23 54t56 22t56 -24
q23 -24 22 -70q0 -94 -64 -151q-65 -56 -167 -68l14 59q45 6 77 31t32 50z" />
    <glyph glyph-name="Rcaron" unicode="&#x158;" horiz-adv-x="1312" 
d="M635 741q209 1 321 97t113 274q0 244 -311 244h-232l-141 -615h250zM35 74q27 0 55 22t33 45l262 1147q6 26 -6 48t-37 22h-104l18 76h514q196 0 312 -79t116 -235q0 -188 -115 -292t-282 -132v-4q100 -31 147 -92t68 -213l33 -254q6 -59 47 -59h73l-16 -74h-223l-37 385
q-13 162 -73 219t-208 58h-245l-136 -588h189l-17 -74h-479l17 74h94zM1030 1778l-10 -41l-207 -219h-117l-133 219l10 41h52l137 -181l207 181h61z" />
    <glyph glyph-name="rcaron" unicode="&#x159;" horiz-adv-x="741" 
d="M109 0q-45 0 -29 59l192 840q10 39 -9 66t-58 26h-78l14 64q53 23 126 23t108 -49q35 -48 12 -144l-12 -49q195 240 381 239q33 0 51 -6l-23 -98q-23 2 -41 2q-109 1 -199 -61t-190 -175l-170 -737h-75zM797 1434l-11 -41l-206 -219h-117l-133 219l10 41h51l137 -181
l207 181h62z" />
    <glyph glyph-name="Sacute" unicode="&#x15a;" horiz-adv-x="1056" 
d="M958 422q0 -200 -143 -316t-365 -116t-362 78q-27 0 -41 -68h-86l92 401h90l-32 -217q127 -108 318 -108t303 86t112 250q0 90 -57 142q-23 22 -35 33q-15 14 -104 59t-120 56q-145 68 -221 144t-76 230t121 260q121 108 340 108q164 0 295 -66q23 0 43 56h84l-84 -361
h-88l25 184q-103 101 -277 101t-261 -78t-87 -200t76 -181q41 -33 77 -52t167 -81t190 -109q106 -88 106 -235zM680 1524l174 260h127l-12 -51l-209 -209h-80z" />
    <glyph glyph-name="sacute" unicode="&#x15b;" horiz-adv-x="851" 
d="M314 -8q-196 0 -345 82l43 182h78q-6 -106 25 -137q51 -49 199 -49t226 65q76 66 76 158t-65 135q-42 28 -164 79q-123 50 -181 106t-59 161q-1 141 103 223t286 82t308 -71l-39 -177h-74q4 102 -29 127q-47 39 -178 39q-130 0 -200 -55t-70 -151q0 -51 31 -89t69 -57
q38 -20 144 -63q108 -44 168 -102t61 -167q0 -143 -109 -232q-108 -89 -304 -89zM516 1180l174 260h127l-12 -51l-209 -209h-80z" />
    <glyph glyph-name="Scircumflex" unicode="&#x15c;" horiz-adv-x="1056" 
d="M958 422q0 -200 -143 -316t-365 -116t-362 78q-27 0 -41 -68h-86l92 401h90l-32 -217q127 -108 318 -108t303 86t112 250q0 90 -57 142q-23 22 -35 33q-15 14 -104 59t-120 56q-145 68 -221 144t-76 230t121 260q121 108 340 108q164 0 295 -66q23 0 43 56h84l-84 -361
h-88l25 184q-103 101 -277 101t-261 -78t-87 -200t76 -181q41 -33 77 -52t167 -81t190 -109q106 -88 106 -235zM508 1524l10 41l207 219h117l133 -219l-10 -41h-52l-137 180l-207 -180h-61z" />
    <glyph glyph-name="scircumflex" unicode="&#x15d;" horiz-adv-x="851" 
d="M314 -8q-196 0 -345 82l43 182h78q-6 -106 25 -137q51 -49 199 -49t226 65q76 66 76 158t-65 135q-42 28 -164 79q-123 50 -181 106t-59 161q-1 141 103 223t286 82t308 -71l-39 -177h-74q4 102 -29 127q-47 39 -178 39q-130 0 -200 -55t-70 -151q0 -51 31 -89t69 -57
q38 -20 144 -63q108 -44 168 -102t61 -167q0 -143 -109 -232q-108 -89 -304 -89zM344 1180l10 41l207 219h117l133 -219l-10 -41h-51l-138 180l-206 -180h-62z" />
    <glyph glyph-name="Scedilla" unicode="&#x15e;" horiz-adv-x="1056" 
d="M557 -216q-1 -62 -55 -102q-54 -38 -141 -38t-156 37l16 65h51q25 -37 86 -37q102 0 103 80q0 66 -105 66h-24l30 137q-166 10 -274 76q-27 0 -41 -68h-86l92 401h90l-32 -217q127 -108 318 -108t303 86t112 250q0 90 -57 142q-23 22 -35 33q-15 14 -104 59t-120 56
q-145 68 -221 144t-76 230t121 260q121 108 340 108q164 0 295 -66q23 0 43 56h84l-84 -361h-88l25 184q-103 101 -277 101t-261 -78t-87 -200t76 -181q41 -33 77 -52t167 -81t190 -109q106 -88 106 -235q0 -199 -143 -316t-379 -116h-2l-16 -74q63 -4 101 -37t38 -95z" />
    <glyph glyph-name="scedilla" unicode="&#x15f;" horiz-adv-x="851" 
d="M434 -216q0 -62 -54 -102q-54 -38 -141 -38t-157 37l16 65h52q25 -37 86 -37q102 0 102 80q0 66 -105 66h-24l31 139q-147 10 -271 80l43 182h78q-6 -106 25 -137q51 -49 199 -49t226 65q76 66 76 158t-65 135q-42 28 -164 79q-123 50 -181 106t-59 161q-1 141 103 223
t286 82t308 -71l-39 -177h-74q4 102 -29 127q-47 39 -178 39q-130 0 -200 -55t-70 -151q0 -51 31 -89t69 -57q38 -20 144 -63q108 -44 168 -102t61 -167q0 -143 -109 -232t-299 -89h-8l-16 -76q63 -4 101 -37t38 -95z" />
    <glyph glyph-name="Scaron" unicode="&#x160;" horiz-adv-x="1056" 
d="M958 422q0 -200 -143 -316t-365 -116t-362 78q-27 0 -41 -68h-86l92 401h90l-32 -217q127 -108 318 -108t303 86t112 250q0 90 -57 142q-23 22 -35 33q-15 14 -104 59t-120 56q-145 68 -221 144t-76 230t121 260q121 108 340 108q164 0 295 -66q23 0 43 56h84l-84 -361
h-88l25 184q-103 101 -277 101t-261 -78t-87 -200t76 -181q41 -33 77 -52t167 -81t190 -109q106 -88 106 -235zM1004 1784l-11 -41l-207 -219h-116l-133 219l10 41h51l137 -180l207 180h62z" />
    <glyph glyph-name="scaron" unicode="&#x161;" horiz-adv-x="851" 
d="M314 -8q-196 0 -345 82l43 182h78q-6 -106 25 -137q51 -49 199 -49t226 65q76 66 76 158t-65 135q-42 28 -164 79q-123 50 -181 106t-59 161q-1 141 103 223t286 82t308 -71l-39 -177h-74q4 102 -29 127q-47 39 -178 39q-130 0 -200 -55t-70 -151q0 -51 31 -89t69 -57
q38 -20 144 -63q108 -44 168 -102t61 -167q0 -143 -109 -232q-108 -89 -304 -89zM842 1440l-11 -41l-206 -219h-117l-133 219l10 41h51l137 -180l207 180h62z" />
    <glyph glyph-name="Tcommaaccent" unicode="&#x162;" horiz-adv-x="1280" 
d="M406 74q26 0 52 22t31 45l279 1213h-403l-91 -312h-90l90 392h1149l-92 -392h-88l53 312h-403l-279 -1213q-6 -27 6 -47t39 -20h115l-16 -74h-479l16 74h111zM457 -261q0 25 -25 45t-24 52q0 32 24 54t56 22t55 -24t22 -70q0 -94 -64 -151q-65 -56 -167 -68l14 59
q45 6 77 31t32 50z" />
    <glyph glyph-name="tcommaaccent" unicode="&#x163;" horiz-adv-x="626" 
d="M324 -10q-131 0 -184 73q-52 74 -23 205l168 723h-148l19 78h145l70 295h116l-67 -295h260l-18 -78h-261l-165 -723q-45 -197 98 -196q68 0 102 20h60l-17 -74q-75 -28 -155 -28zM164 -261q0 25 -25 45t-24 52q-1 32 23 54t57 22t55 -24t22 -70q0 -94 -64 -151
q-65 -56 -167 -68l14 59q45 6 77 31t32 50z" />
    <glyph glyph-name="Tcaron" unicode="&#x164;" horiz-adv-x="1280" 
d="M406 74q26 0 52 22t31 45l279 1213h-403l-91 -312h-90l90 392h1149l-92 -392h-88l53 312h-403l-279 -1213q-6 -27 6 -47t39 -20h115l-16 -74h-479l16 74h111zM1135 1778l-11 -41l-206 -219h-117l-133 219l10 41h51l137 -181l207 181h62z" />
    <glyph glyph-name="tcaron" unicode="&#x165;" horiz-adv-x="626" 
d="M324 -10q-131 0 -184 73q-52 74 -23 205l168 723h-148l19 78h145l70 295h116l-67 -295h260l-18 -78h-261l-165 -723q-45 -197 98 -196q68 0 102 20h60l-17 -74q-75 -28 -155 -28zM545 1169l96 265h104l-12 -52l-115 -213h-73z" />
    <glyph glyph-name="Umacron" unicode="&#x16a;" 
d="M733 1581l21 82h479l-21 -82h-479zM651 -10q-247 0 -382 128q-134 128 -74 382l180 786q6 28 -5 50t-36 22h-96l18 76h485l-18 -76h-205l-201 -871q-92 -408 349 -407q190 0 304 84t163 295l206 899h-202l18 76h459l-19 -76h-88q-27 0 -53 -24t-31 -48l-192 -835
q-57 -249 -195 -355t-385 -106z" />
    <glyph glyph-name="umacron" unicode="&#x16b;" horiz-adv-x="1177" 
d="M469 1253l20 82h480l-21 -82h-479zM336 -12q-125 0 -183 79t-28 216l141 616q10 39 -9 66t-56 26h-74l16 64q59 23 128 23t101 -51q32 -50 11 -138l-137 -596q-25 -105 12 -159t123 -54q188 0 436 217l178 772h78q41 0 29 -59l-193 -842q-9 -39 11 -67t55 -27h69l-14 -62
q-47 -20 -117 -20q-71 0 -105 46t-17 128l10 47q-229 -225 -465 -225z" />
    <glyph glyph-name="Ubreve" unicode="&#x16c;" 
d="M945 1522q-97 0 -155 51t-71 133l10 45h78q4 -143 144 -143t175 143h86l-12 -51q-26 -80 -92 -129t-163 -49zM651 -10q-247 0 -382 128q-134 128 -74 382l180 786q6 28 -5 50t-36 22h-96l18 76h485l-18 -76h-205l-201 -871q-92 -408 349 -407q190 0 304 84t163 295
l206 899h-202l18 76h459l-19 -76h-88q-27 0 -53 -24t-31 -48l-192 -835q-57 -249 -195 -355t-385 -106z" />
    <glyph glyph-name="ubreve" unicode="&#x16d;" horiz-adv-x="1177" 
d="M706 1184q-97 0 -156 51q-58 51 -71 133l10 45h78q5 -143 145 -143t175 143h86l-12 -51q-27 -80 -93 -129t-162 -49zM336 -12q-125 0 -183 79t-28 216l141 616q10 39 -9 66t-56 26h-74l16 64q59 23 128 23t101 -51q32 -50 11 -138l-137 -596q-25 -105 12 -159t123 -54
q188 0 436 217l178 772h78q41 0 29 -59l-193 -842q-9 -39 11 -67t55 -27h69l-14 -62q-47 -20 -117 -20q-71 0 -105 46t-17 128l10 47q-229 -225 -465 -225z" />
    <glyph glyph-name="Uring" unicode="&#x16e;" 
d="M651 -10q-247 0 -382 128q-134 128 -74 382l180 786q6 28 -5 50t-36 22h-96l18 76h485l-18 -76h-205l-201 -871q-92 -408 349 -407q190 0 304 84t163 295l206 899h-202l18 76h459l-19 -76h-88q-27 0 -53 -24t-31 -48l-192 -835q-57 -249 -195 -355t-385 -106zM846 1644
q0 -54 32 -84t82 -30t84 35t35 88q0 53 -31 85q-32 32 -82 32t-85 -36t-35 -90zM1151 1655q0 -81 -57 -135t-135 -54t-132 47q-53 47 -53 129t60 136t136 55q77 0 129 -48t52 -130z" />
    <glyph glyph-name="uring" unicode="&#x16f;" horiz-adv-x="1177" 
d="M336 -12q-125 0 -183 79t-28 216l141 616q10 39 -9 66t-56 26h-74l16 64q59 23 128 23t101 -51q32 -50 11 -138l-137 -596q-25 -105 12 -159t123 -54q188 0 436 217l178 772h78q41 0 29 -59l-193 -842q-9 -39 11 -67t55 -27h69l-14 -62q-47 -20 -117 -20q-71 0 -105 46
t-17 128l10 47q-229 -225 -465 -225zM716 1245q50 0 85 35t35 88t-32 85t-82 32t-85 -36t-35 -90t32 -84t82 -30zM715 1182q-78 0 -131 47q-54 47 -54 129t60 136t136 54q77 0 129 -48t52 -130t-57 -135t-135 -53z" />
    <glyph glyph-name="Uhungarumlaut" unicode="&#x170;" 
d="M1026 1518l135 260h107l-13 -52l-153 -208h-76zM778 1518l135 260h107l-12 -52l-154 -208h-76zM651 -10q-247 0 -382 128q-134 128 -74 382l180 786q6 28 -5 50t-36 22h-96l18 76h485l-18 -76h-205l-201 -871q-92 -408 349 -407q190 0 304 84t163 295l206 899h-202l18 76
h459l-19 -76h-88q-27 0 -53 -24t-31 -48l-192 -835q-57 -249 -195 -355t-385 -106z" />
    <glyph glyph-name="uhungarumlaut" unicode="&#x171;" horiz-adv-x="1177" 
d="M784 1180l136 260h106l-12 -51l-154 -209h-76zM537 1180l135 260h106l-12 -51l-154 -209h-75zM336 -12q-125 0 -183 79t-28 216l141 616q10 39 -9 66t-56 26h-74l16 64q59 23 128 23t101 -51q32 -50 11 -138l-137 -596q-25 -105 12 -159t123 -54q188 0 436 217l178 772
h78q41 0 29 -59l-193 -842q-9 -39 11 -67t55 -27h69l-14 -62q-47 -20 -117 -20q-71 0 -105 46t-17 128l10 47q-229 -225 -465 -225z" />
    <glyph glyph-name="Uogonek" unicode="&#x172;" 
d="M334 1358h-96l18 76h485l-18 -76h-205l-201 -871q-92 -408 349 -407q190 0 304 84t163 295l206 899h-202l18 76h459l-19 -76h-88q-27 0 -53 -24t-31 -48l-192 -835q-72 -303 -268 -402q-15 -8 -119 -45t-156 -85t-53 -116q0 -68 70 -67q29 0 51 14h47l-15 -67
q-48 -19 -112 -19t-105 34t-41 93q0 111 150 199q-274 -2 -410 125q-135 127 -75 385l180 786q6 28 -5 50t-36 22z" />
    <glyph glyph-name="uogonek" unicode="&#x173;" horiz-adv-x="1177" 
d="M336 -12q-125 0 -183 79t-28 216l141 616q10 39 -9 66t-56 26h-74l16 64q59 23 128 23t101 -51q32 -50 11 -138l-137 -596q-25 -105 12 -159t123 -54q188 0 436 217l178 772h78q41 0 29 -59l-193 -842q-9 -39 11 -67t55 -27h69l-14 -62q-94 -35 -149 -90t-56 -123
q0 -63 70 -63q31 0 51 14h47l-14 -67q-47 -19 -111 -19t-106 34q-41 34 -41 93q0 109 156 205q-117 25 -86 170l10 47q-229 -225 -465 -225z" />
    <glyph glyph-name="Ydieresis" unicode="&#x178;" horiz-adv-x="1304" 
d="M1057 1567q-33 0 -53 20t-21 53q0 33 25 58q26 24 56 24t52 -22t21 -52q1 -32 -23 -56t-57 -25zM758 1567q-33 0 -53 20q-21 20 -21 54t24 58q24 23 56 23t52 -22q22 -22 22 -52q0 -32 -24 -56t-56 -25zM420 74q26 0 54 22t32 45l106 475l-247 662q-29 80 -95 80h-37
l19 76h428l-18 -76h-197l244 -660h2l432 537q49 59 39 91t-68 32h-90l16 76h428l-18 -76h-39q-59 0 -121 -76l-555 -684l-104 -457q-6 -27 6 -47t37 -20h119l-17 -74h-481l16 74h109z" />
    <glyph glyph-name="Zacute" unicode="&#x179;" horiz-adv-x="1114" 
d="M84 80h747l82 272h91l-80 -352h-1000l21 88l1155 1262v4h-715l-78 -260h-88l78 340h967l-23 -91l-1157 -1259v-4zM743 1518l175 260h126l-12 -52l-209 -208h-80z" />
    <glyph glyph-name="zacute" unicode="&#x17a;" horiz-adv-x="958" 
d="M-76 0l19 84l931 903h-575l-66 -215h-81l67 297h809l-18 -86l-930 -901h596l63 217h86l-69 -299h-832zM569 1174l174 260h127l-12 -52l-209 -208h-80z" />
    <glyph glyph-name="Zdotaccent" unicode="&#x17b;" horiz-adv-x="1114" 
d="M792 1565q-34 1 -57 23t-23 54t25 58q25 24 59 24t56 -22t20 -56q0 -32 -23 -56t-57 -25zM84 80h747l82 272h91l-80 -352h-1000l21 88l1155 1262v4h-715l-78 -260h-88l78 340h967l-23 -91l-1157 -1259v-4z" />
    <glyph glyph-name="zdotaccent" unicode="&#x17c;" horiz-adv-x="958" 
d="M617 1221q-35 1 -57 23t-22 54t25 58q25 24 59 24t56 -22t20 -56q0 -32 -23 -57q-24 -24 -58 -24zM-76 0l19 84l931 903h-575l-66 -215h-81l67 297h809l-18 -86l-930 -901h596l63 217h86l-69 -299h-832z" />
    <glyph glyph-name="Zcaron" unicode="&#x17d;" horiz-adv-x="1114" 
d="M84 80h747l82 272h91l-80 -352h-1000l21 88l1155 1262v4h-715l-78 -260h-88l78 340h967l-23 -91l-1157 -1259v-4zM1067 1778l-10 -41l-207 -219h-117l-133 219l10 41h52l137 -181l207 181h61z" />
    <glyph glyph-name="zcaron" unicode="&#x17e;" horiz-adv-x="958" 
d="M-76 0l19 84l931 903h-575l-66 -215h-81l67 297h809l-18 -86l-930 -901h596l63 217h86l-69 -299h-832zM893 1434l-10 -41l-207 -219h-117l-133 219l10 41h51l138 -181l206 181h62z" />
    <glyph glyph-name="florin" unicode="&#x192;" horiz-adv-x="686" 
d="M684 1444q78 0 152 -27l-19 -86h-55q-26 27 -92 27t-109 -40t-65 -142l-72 -304h235l-18 -77h-233l-160 -695q-47 -213 -240 -282h-61l14 73q129 51 166 215l158 689h-144l17 77h143l70 308q59 264 313 264z" />
    <glyph glyph-name="Scommaaccent" unicode="&#x218;" horiz-adv-x="1056" 
d="M958 422q0 -200 -143 -316t-365 -116t-362 78q-27 0 -41 -68h-86l92 401h90l-32 -217q127 -108 318 -108t303 86t112 250q0 90 -57 142q-23 22 -35 33q-15 14 -104 59t-120 56q-145 68 -221 144t-76 230t121 260q121 108 340 108q164 0 295 -66q23 0 43 56h84l-84 -361
h-88l25 184q-103 101 -277 101t-261 -78t-87 -200t76 -181q41 -33 77 -52t167 -81t190 -109q106 -88 106 -235zM313 -146q0 34 24 56q25 22 57 20q32 0 55 -24t22 -70q-1 -94 -65 -150t-166 -69l14 59q45 6 77 31q31 25 31 51t-24 44t-25 52z" />
    <glyph glyph-name="scommaaccent" unicode="&#x219;" horiz-adv-x="851" 
d="M314 -8q-196 0 -345 82l43 182h78q-6 -106 25 -137q51 -49 199 -49t226 65q76 66 76 158t-65 135q-42 28 -164 79q-123 50 -181 106t-59 161q-1 141 103 223t286 82t308 -71l-39 -177h-74q4 102 -29 127q-47 39 -178 39q-130 0 -200 -55t-70 -151q0 -51 31 -89t69 -57
q38 -20 144 -63q108 -44 168 -102t61 -167q0 -143 -109 -232q-108 -89 -304 -89zM227 -146q0 34 24 56q25 22 57 20q32 0 54 -24t23 -70q-1 -94 -65 -150t-166 -69l14 59q45 6 77 31q31 25 31 51t-24 44t-25 52z" />
    <glyph glyph-name="uni0237" unicode="&#x237;" horiz-adv-x="458" 
d="M-109 -338q-80 0 -153 29l18 80h60q25 -31 84 -31t92 35t51 114l231 1010q8 39 -10 66t-55 26h-82l16 64q78 23 127 22q164 0 123 -178l-233 -1016q-50 -221 -269 -221z" />
    <glyph glyph-name="circumflex" unicode="&#x2c6;" horiz-adv-x="847" 
d="M342 1174l10 40l207 220h117l133 -220l-10 -40h-51l-138 180l-207 -180h-61z" />
    <glyph glyph-name="caron" unicode="&#x2c7;" horiz-adv-x="847" 
d="M860 1434l-10 -41l-207 -219h-117l-133 219l10 41h52l137 -181l207 181h61z" />
    <glyph glyph-name="breve" unicode="&#x2d8;" horiz-adv-x="847" 
d="M599 1178q-97 0 -156 51q-58 51 -70 133l10 45h78q4 -143 144 -143t175 143h86l-12 -51q-26 -80 -92 -129t-163 -49z" />
    <glyph glyph-name="dotaccent" unicode="&#x2d9;" horiz-adv-x="847" 
d="M682 1302q0 -32 -24 -56t-57 -25q-35 1 -57 23t-22 54t25 58q25 24 59 24t54 -22q22 -24 22 -56z" />
    <glyph glyph-name="ring" unicode="&#x2da;" horiz-adv-x="847" 
d="M609 1239q50 0 85 35t35 88t-32 85t-82 32t-85 -36q-34 -36 -34 -90t32 -84t81 -30zM801 1364q1 -82 -57 -135t-136 -53t-131 47t-53 129t59 136t137 54t129 -48q52 -48 52 -130z" />
    <glyph glyph-name="ogonek" unicode="&#x2db;" horiz-adv-x="847" 
d="M290 -336q-64 0 -106 34q-41 34 -41 93q0 106 168 209h92q-156 -104 -155 -201q0 -63 69 -63q31 0 52 14h47l-15 -67q-47 -19 -111 -19z" />
    <glyph glyph-name="tilde" unicode="&#x2dc;" horiz-adv-x="847" 
d="M731 1298q72 0 98 86h74l-14 -59q-61 -117 -164 -117q-49 0 -137 40t-121 40q-72 0 -96 -88h-76l14 60q59 119 162 118q49 0 137 -40t123 -40z" />
    <glyph glyph-name="hungarumlaut" unicode="&#x2dd;" horiz-adv-x="847" 
d="M657 1174l136 260h106l-12 -52l-154 -208h-76zM410 1174l135 260h106l-12 -52l-154 -208h-75z" />
    <glyph glyph-name="uni2009" unicode="&#x2009;" horiz-adv-x="208" 
 />
    <glyph glyph-name="endash" unicode="&#x2013;" horiz-adv-x="815" 
d="M63 553l19 76h696l-18 -76h-697z" />
    <glyph glyph-name="emdash" unicode="&#x2014;" horiz-adv-x="1333" 
d="M63 553l19 76h1214l-18 -76h-1215z" />
    <glyph glyph-name="quoteleft" unicode="&#x2018;" horiz-adv-x="296" 
d="M385 1190q0 -37 -25 -60q-26 -22 -60 -22t-58 24t-23 64q0 106 67 169t173 75l-15 -62q-47 -8 -82 -35q-34 -27 -34 -53t28 -44t29 -56z" />
    <glyph glyph-name="quoteright" unicode="&#x2019;" horiz-adv-x="296" 
d="M258 1360q0 38 25 60t59 22t58 -24t24 -64q0 -106 -67 -169t-173 -75l15 61q47 8 82 35q35 28 35 54t-30 44q-28 18 -28 56z" />
    <glyph glyph-name="quotesinglbase" unicode="&#x201a;" horiz-adv-x="296" 
d="M-37 98q0 37 25 60q26 22 60 22t58 -24t23 -64q0 -106 -67 -169t-173 -75l15 62q47 8 82 35q34 27 34 53t-28 44t-29 56z" />
    <glyph glyph-name="quotedblleft" unicode="&#x201c;" horiz-adv-x="534" 
d="M385 1190q0 -37 -25 -60q-26 -22 -60 -22t-58 24t-23 64q0 106 67 169t173 75l-15 -62q-47 -8 -82 -35q-34 -27 -34 -53t28 -44t29 -56zM565 1290q0 -26 29 -44t29 -56q0 -37 -25 -60q-26 -22 -60 -22t-58 24t-23 64q0 106 66 169q67 63 173 75l-14 -62q-47 -8 -82 -35
t-35 -53z" />
    <glyph glyph-name="quotedblright" unicode="&#x201d;" horiz-adv-x="534" 
d="M553 1260q0 26 -29 44t-28 56q0 38 24 60t60 22q34 0 58 -24t24 -64q0 -106 -67 -169t-173 -75l14 61q47 8 82 35q35 28 35 54zM258 1360q0 38 25 60t59 22t58 -24t24 -64q0 -106 -67 -169t-173 -75l15 61q47 8 82 35q35 28 35 54t-30 44q-28 18 -28 56z" />
    <glyph glyph-name="quotedblbase" unicode="&#x201e;" horiz-adv-x="534" 
d="M258 -2q0 26 -29 44t-28 56q0 37 24 60q25 22 60 22t59 -24t23 -64q0 -106 -67 -169t-173 -75l14 62q47 8 82 35t35 53zM-37 98q0 37 25 60q26 22 60 22t58 -24t23 -64q0 -106 -67 -169t-173 -75l15 62q47 8 82 35q34 27 34 53t-28 44t-29 56z" />
    <glyph glyph-name="dagger" unicode="&#x2020;" horiz-adv-x="876" 
d="M264 -100l86 534l76 332l84 184l-305 -26l-43 26l14 72l57 22l287 -43l6 170l45 195l35 68h78l6 -74l-47 -197l-74 -166l305 29l46 -27l-17 -71l-57 -23l-285 45l-6 -192l-76 -330l-153 -528h-62z" />
    <glyph glyph-name="daggerdbl" unicode="&#x2021;" horiz-adv-x="876" 
d="M502 530l-76 -161l303 28l47 -26l-16 -74l-58 -21l-284 43l-6 -169l-43 -183l-35 -67h-78l-6 75l43 183l76 168l-306 -31l-47 24l17 74l57 23l285 -43l2 164l61 268l76 160l-303 -29l-47 27l16 73l58 21l284 -43l6 170l43 182l35 68h78l6 -76l-43 -182l-76 -168l306 30
l47 -24l-17 -74l-57 -22l-285 43l-2 -164z" />
    <glyph glyph-name="bullet" unicode="&#x2022;" horiz-adv-x="626" 
d="M353 854q103 0 163 -54t59 -163q1 -109 -77 -183t-182 -75q-104 0 -166 55t-62 162q0 106 81 182t184 76z" />
    <glyph glyph-name="ellipsis" unicode="&#x2026;" horiz-adv-x="940" 
d="M45 -8q-35 0 -57 22t-23 58q0 34 27 60q28 26 62 26t57 -24t23 -58t-28 -58q-26 -26 -61 -26zM369 158q35 0 57 -24t23 -58q0 -34 -27 -58q-27 -26 -62 -26q-36 0 -58 22t-21 58q1 34 27 60t61 26zM684 158q34 0 58 -24q22 -24 22 -58t-26 -58q-26 -26 -62 -26
q-35 0 -58 22t-22 58q0 34 27 60t61 26z" />
    <glyph glyph-name="perthousand" unicode="&#x2030;" horiz-adv-x="2187" 
d="M1716 63q111 0 187 108t75 261q0 197 -159 197q-111 0 -187 -109t-76 -262q0 -195 160 -195zM1708 -10q-116 0 -188 74t-72 198q0 184 114 313t263 130q117 0 191 -75t73 -200q1 -184 -113 -312t-268 -128zM1018 63q110 0 186 108t76 261q0 197 -160 197
q-110 0 -186 -109t-76 -262q0 -195 160 -195zM1010 -10q-117 0 -189 74t-71 198q0 184 113 313q114 129 263 130q117 0 191 -75t74 -200q1 -184 -113 -312t-268 -128zM86 -70l1294 1563h105l-1295 -1563h-104zM451 803q111 -1 187 107t75 261q0 197 -160 197
q-111 0 -187 -108t-75 -263q0 -194 160 -194zM442 729q-116 0 -188 74t-72 198q0 183 114 313t263 130q117 0 191 -75t73 -200q1 -184 -113 -312t-268 -128z" />
    <glyph glyph-name="guilsinglleft" unicode="&#x2039;" horiz-adv-x="542" 
d="M309 96l-246 406l19 76l416 389h71l-14 -49l-373 -390v-4l197 -377l-10 -51h-60z" />
    <glyph glyph-name="guilsinglright" unicode="&#x203a;" horiz-adv-x="542" 
d="M233 967l246 -406l-18 -76l-416 -389h-72l15 49l372 390v4l-196 376l10 52h59z" />
    <glyph glyph-name="fraction" unicode="&#x2044;" horiz-adv-x="376" 
d="M-463 -70l1294 1563h105l-1294 -1563h-105z" />
    <glyph glyph-name="Euro" unicode="&#x20ac;" horiz-adv-x="1234" 
d="M330 475q0 -187 90 -293t280 -106t324 153h76l-21 -98q-190 -141 -410 -141t-344 134t-122 368q0 35 2 71h-150l23 82h133q10 78 27 148h-127l22 81h129q48 150 146 284t236 210t324 76t332 -72l-57 -248h-82q10 88 5 126q-14 108 -224 108q-274 0 -434 -242
q-70 -102 -115 -242h525l-37 -81h-512q-18 -80 -27 -148h479l-35 -82h-454q-2 -39 -2 -88z" />
    <glyph glyph-name="trademark" unicode="&#x2122;" horiz-adv-x="1406" 
d="M319 926q11 0 21 10t14 20l97 418h-136l-43 -133h-59l45 193h512l-43 -193h-61l18 133h-137l-96 -418q-4 -10 2 -20t16 -10h59l-12 -52h-266l12 52h57zM758 926q8 0 19 10t16 20l90 392q4 10 -2 20t-15 10h-57l14 56h211l60 -422h2l254 422h223l-14 -56h-54q-8 0 -20 -10
t-15 -20l-92 -392q-2 -10 5 -20t16 -10h57l-12 -52h-242l8 52h68l102 432h-2l-293 -484h-57l-70 484h-2l-100 -432h68l-13 -52h-219l13 52h53z" />
    <glyph glyph-name="onethird" unicode="&#x2153;" horiz-adv-x="1372" 
d="M1233 231q0 -101 -81 -169t-222 -68t-232 47l31 131h62q-5 -70 21 -90t118 -21q92 1 144 49t52 116t-40 102q-40 33 -105 32h-59l14 66h61q86 0 136 41q49 41 49 115q0 121 -131 120q-68 0 -100 -19t-54 -87h-63l32 137q90 37 196 37t164 -46q60 -46 60 -126t-49 -133
t-135 -70v-4q59 -14 95 -56t36 -104zM-12 -70l1294 1563h104l-1294 -1563h-104zM207 733q14 0 30 12q15 12 19 27l133 569l-147 -65h-37l14 67l221 91h74l-152 -662q-8 -39 27 -39h113l-15 -63h-409l14 63h115z" />
    <glyph glyph-name="twothirds" unicode="&#x2154;" horiz-adv-x="1470" 
d="M1331 231q0 -101 -81 -169t-222 -68t-231 47l30 131h62q-5 -70 21 -90t118 -21q92 1 144 49t52 116t-39 102q-40 33 -106 32h-59l14 66h62q86 0 135 41t49 115q0 121 -131 120q-67 0 -99 -19t-55 -87h-63l33 137q90 37 195 37q104 0 164 -46t60 -126t-49 -133t-135 -70
v-4q59 -14 95 -56t36 -104zM84 -70l1294 1563h105l-1295 -1563h-104zM602 1257q0 51 -33 82t-101 31t-106 -24q-39 -24 -63 -99h-61l34 152q104 41 212 41t167 -45t60 -129q0 -121 -108 -194q-89 -63 -169 -99q-207 -111 -237 -225h319l37 114h68l-46 -192h-491l12 53
q39 168 266 297q16 10 100 57t112 88t28 92z" />
    <glyph glyph-name="oneeighth" unicode="&#x215b;" horiz-adv-x="1390" 
d="M1145 232q0 144 -162 143q-80 0 -138 -51q-59 -52 -59 -120t43 -104t127 -37t136 49t53 120zM905 556q1 -116 135 -116q66 0 111 38t45 98t-36 92t-102 32t-110 -43q-43 -43 -43 -101zM1245 246q0 -116 -82 -184t-210 -68q-127 0 -197 53t-70 139t59 146t158 80v4
q-96 37 -96 134q0 96 76 158t183 62q108 0 168 -50t60 -124t-46 -124t-126 -69v-4q123 -37 123 -153zM-6 -70l1294 1563h105l-1295 -1563h-104zM207 733q14 0 30 12q15 12 19 27l133 569l-147 -65h-37l14 67l221 91h74l-152 -662q-8 -39 27 -39h113l-15 -63h-409l14 63h115z
" />
    <glyph glyph-name="threeeighths" unicode="&#x215c;" horiz-adv-x="1423" 
d="M989 63q84 -1 136 49q53 50 53 120t-41 106q-41 37 -121 37t-138 -51q-58 -52 -58 -120t42 -104q43 -36 127 -37zM938 556q0 -116 134 -116q66 0 112 38q45 38 45 98t-36 92q-37 32 -103 32t-109 -43t-43 -101zM1278 246q0 -116 -82 -184t-210 -68t-198 53t-70 139
t60 146q59 60 158 80v4q-96 37 -96 134t75 159q75 61 183 61t168 -50t61 -124q0 -74 -46 -124t-126 -69v-4q123 -37 123 -153zM29 -70l1294 1563h104l-1294 -1563h-104zM633 901q0 -101 -81 -169t-222 -68t-232 47l31 131h61q-4 -70 19 -86q29 -25 121 -25t144 48
q52 49 52 117t-40 101t-105 33h-59l14 66h61q86 0 135 41t50 114q0 121 -131 121q-68 0 -100 -18t-54 -88h-64l33 137q90 37 196 37t164 -46q60 -46 60 -126t-49 -133t-135 -70v-4q59 -14 95 -56t36 -104z" />
    <glyph glyph-name="fiveeighths" unicode="&#x215d;" horiz-adv-x="1409" 
d="M1163 232q1 144 -161 143q-80 0 -138 -51q-58 -52 -59 -120q0 -142 170 -141q84 -1 136 49t52 120zM924 556q0 -116 134 -116q66 0 112 38q44 38 44 98t-35 92q-36 32 -103 32q-68 0 -110 -43t-42 -101zM1264 246q0 -116 -82 -184t-210 -68t-198 53t-70 139t60 146
q59 60 158 80v4q-96 37 -96 134q0 96 75 158q76 62 183 62q108 0 168 -50t60 -124t-45 -124q-46 -50 -126 -69v-4q123 -37 123 -153zM23 -70l1294 1563h104l-1294 -1563h-104zM645 956q0 -128 -92 -210q-91 -82 -229 -82t-232 45l31 133h63q-6 -66 25 -88t96 -23
q106 0 169 57q62 57 63 160q0 133 -129 133q-109 0 -168 -71h-64l101 424h442l-39 -166h-66l5 88h-287l-64 -266h2q68 57 166 57t152 -48t55 -143z" />
    <glyph glyph-name="seveneighths" unicode="&#x215e;" horiz-adv-x="1368" 
d="M672 1354h-361l-45 -133h-67l49 213h520l-20 -88l-451 -676h-102l12 51l465 629v4zM1122 232q0 144 -162 143q-80 0 -138 -51q-58 -52 -58 -120q0 -142 170 -141q84 -1 136 49t52 120zM883 556q1 -116 135 -116q66 0 110 38t46 98q0 60 -36 92t-103 32t-109 -43t-43 -101
zM1223 246q0 -116 -82 -184t-210 -68t-198 53q-69 53 -69 139t59 146t158 80v4q-97 37 -97 134q0 96 76 158t184 62t167 -50q61 -50 61 -124t-46 -124t-126 -69v-4q123 -37 123 -153zM-57 -70l1294 1563h104l-1294 -1563h-104z" />
    <glyph glyph-name="minus" unicode="&#x2212;" horiz-adv-x="980" 
d="M106 664l21 88h829l-20 -88h-830z" />
    <glyph glyph-name="space_uni0326" unicode="&#xf6c3;" horiz-adv-x="847" 
d="M328 -231q0 14 -25 33q-25 18 -25 52t24 56t56 20q32 0 56 -24q23 -24 22 -70q0 -94 -64 -150t-167 -69l14 59q45 6 77 31t32 62z" />
    <glyph glyph-name="paragraph.cap" horiz-adv-x="1128" 
d="M584 690q-184 0 -294 80t-110 234q0 223 138 326t417 104h555l-18 -76h-94q-27 0 -54 -23t-32 -47l-299 -1288h-93l312 1354h-160l-313 -1354h-93l158 690h-20z" />
    <glyph glyph-name="bullet.cap" horiz-adv-x="626" 
d="M330 436q-104 0 -166 54t-62 161t81 184t185 77t162 -54q59 -53 60 -143q0 -125 -78 -202t-182 -77z" />
    <glyph glyph-name="at.cap" horiz-adv-x="1646" 
d="M733 420q51 0 105 28t85 55q32 28 83 79l108 383q-59 45 -149 45q-127 0 -217 -95q-143 -143 -144 -348q0 -147 129 -147zM1190 348q-102 0 -146 42q-43 42 -38 116q-150 -162 -310 -162q-96 0 -152 58t-57 163q0 229 170 396q129 125 299 124q123 0 193 -65q49 63 76 63
h39l-142 -503q-45 -162 83 -162t223 108t96 316q0 246 -169 386t-442 140q-173 0 -325 -75t-255 -237t-104 -380q1 -307 177 -458q176 -150 462 -150t463 125h55v-64q-201 -141 -512 -141t-525 159q-105 81 -167 217t-61 315q0 179 70 330q127 271 439 388q138 51 281 51
q303 0 507 -160t204 -442q0 -242 -132 -370t-300 -128z" />
    <glyph glyph-name="dagger.cap" horiz-adv-x="876" 
d="M285 0l69 461l76 332l82 172l-305 -27l-43 27l14 71l58 23l286 -43l4 155l45 195l35 68h78l6 -74l-47 -197l-72 -151l306 28l45 -26l-17 -72l-57 -22l-285 45l-4 -181l-76 -329l-137 -455h-61z" />
    <glyph glyph-name="daggerdbl.cap" horiz-adv-x="876" 
d="M522 616l-76 -161l304 28l47 -26l-17 -74l-57 -21l-285 44l-2 -156l-43 -182l-35 -68h-77l-7 76l43 182l72 154l-305 -31l-47 25l16 73l58 23l284 -43l2 164l45 196l76 160l-303 -29l-47 27l16 74l58 20l284 -43l2 156l43 182l35 68h78l6 -76l-43 -182l-72 -154l306 31
l47 -25l-17 -74l-57 -22l-285 43l-2 -164z" />
    <glyph glyph-name="less.cap" horiz-adv-x="954" 
d="M700 0l-598 688l21 84l903 662h66l-19 -76l-837 -639v-4l540 -641l-16 -74h-60z" />
    <glyph glyph-name="greater.cap" horiz-adv-x="954" 
d="M342 1434l600 -689l-20 -83l-902 -662h-67l18 74l838 645v4l-541 635l17 76h57z" />
    <glyph glyph-name="guillemotleft.cap" horiz-adv-x="1292" 
d="M1042 0l-489 688l20 84l789 662h68l-19 -76l-725 -639v-4l428 -641l-16 -74h-56zM592 0l-490 688l21 84l788 662h68l-18 -76l-725 -639v-4l428 -641l-17 -74h-55z" />
    <glyph glyph-name="guillemotright.cap" horiz-adv-x="1290" 
d="M338 1434l489 -689l-20 -83l-789 -662h-67l18 74l725 645v4l-428 635l17 76h55zM788 1434l490 -689l-21 -83l-788 -662h-68l19 74l725 645v4l-428 635l16 76h55z" />
    <glyph glyph-name="quotedblleft.cap" horiz-adv-x="2029" 
d="M1480 -10q-198 0 -318 130t-120 353q0 391 306 661t802 302l-18 -78q-374 -39 -574 -197t-200 -340q0 -96 119 -110q27 -2 113 -5t153 -27q68 -24 122 -95q54 -72 54 -170q0 -176 -121 -300q-120 -124 -318 -124zM502 -10q-198 0 -317 130q-120 130 -119 353
q0 391 306 661t802 302l-19 -78q-375 -39 -575 -197t-199 -340q0 -96 119 -110q27 -2 113 -5t153 -27q68 -23 122 -95t54 -170q0 -176 -121 -300t-319 -124z" />
    <glyph glyph-name="quotedblright.cap" horiz-adv-x="2027" 
d="M1612 1444q198 0 316 -130q120 -130 120 -353q0 -391 -306 -661t-802 -302l16 76q379 38 578 192t199 346q0 98 -119 113q-27 2 -115 5t-137 22q-82 30 -136 100t-55 168q0 176 121 300q122 124 320 124zM636 1444q198 0 318 -130t119 -353q0 -391 -306 -661t-802 -302
l17 76q380 38 578 192t198 346q0 98 -119 113q-27 2 -115 5t-137 22q-82 30 -136 100t-54 168q0 176 120 300q121 124 319 124z" />
    <glyph glyph-name="quoteleft.cap" horiz-adv-x="1052" 
d="M502 -10q-198 0 -317 130q-120 130 -119 353q0 391 306 661t802 302l-19 -78q-375 -39 -575 -197t-199 -340q0 -96 119 -110q27 -2 113 -5t153 -27q68 -23 122 -95t54 -170q0 -176 -121 -300t-319 -124z" />
    <glyph glyph-name="quoteright.cap" horiz-adv-x="1052" 
d="M636 1444q198 0 318 -130t119 -353q0 -391 -306 -661t-802 -302l17 76q380 38 578 192t198 346q0 98 -119 113q-27 2 -115 5t-137 22q-82 30 -136 100t-54 168q0 176 120 300q121 124 319 124z" />
    <glyph glyph-name="hyphen.cap" horiz-adv-x="520" 
d="M84 645l22 90h402l-23 -90h-401z" />
    <glyph glyph-name="endash.cap" horiz-adv-x="815" 
d="M88 651l18 76h697l-19 -76h-696z" />
    <glyph glyph-name="emdash.cap" horiz-adv-x="1333" 
d="M88 651l18 76h1215l-18 -76h-1215z" />
    <glyph glyph-name="questiondown.cap" horiz-adv-x="894" 
d="M719 1442q35 0 57 -23t23 -57q0 -34 -27 -60q-28 -26 -62 -26t-57 24t-23 57t28 59q26 26 61 26zM152 262q0 -76 62 -132t178 -56t165 25t72 59t45 114h84l-47 -215q-160 -67 -330 -67t-263 75t-93 222t118 260q55 53 140 114q85 62 112 82q119 91 173 175t71 221h84
q-15 -147 -67 -243q-73 -134 -258 -266q-109 -79 -159 -134q-49 -54 -68 -106t-19 -128z" />
    <glyph glyph-name="exclamdown.cap" horiz-adv-x="309" 
d="M340 1276q-34 0 -58 24q-22 24 -22 57t26 59t62 26q35 0 58 -23q22 -23 22 -57t-27 -60t-61 -26zM336 1139l-223 -1061l-19 -78h-129l293 1139h78z" />
    <glyph glyph-name="R.alt" horiz-adv-x="1312" 
d="M633 741q211 1 323 97t113 274q0 244 -311 244h-232l-141 -615h248zM1056 -8q-138 0 -149 184l-14 211q-10 158 -76 216t-209 59h-241l-136 -588h189l-17 -74h-479l17 74h94q27 0 55 22t33 45l262 1147q6 26 -7 48t-38 22h-102l18 76h514q196 0 312 -79t116 -235
q0 -190 -116 -294t-289 -130v-4q98 -22 151 -88t70 -217l26 -225q4 -39 31 -64t62 -24h45l-15 -62q-41 -20 -107 -20z" />
    <glyph glyph-name="a.alt" horiz-adv-x="1157" 
d="M176 328q0 -128 60 -192t148 -64q89 0 172 42t131 86t122 124l135 591q-104 78 -229 78q-195 0 -340 -149q-199 -207 -199 -516zM371 -8q-145 0 -231 86q-85 86 -85 249t66 313q125 283 355 388q112 51 224 51q166 0 275 -104q47 94 90 94h33l-207 -903q-8 -37 12 -65
t55 -27h64l-14 -62q-47 -20 -112 -20q-66 0 -104 49t-16 141l8 35q-182 -225 -413 -225z" />
    <glyph glyph-name="f.alt" horiz-adv-x="593" 
d="M-70 -340q-59 0 -104 21l12 57h66q125 0 151 127l236 1126h-154l17 78h153l25 109q59 266 309 266q98 0 160 -27l-17 -80h-61q-25 25 -93 25t-112 -42q-45 -42 -69 -146l-23 -105h231l-14 -78h-233l-238 -1130q-43 -201 -242 -201z" />
    <glyph glyph-name="g.alt" horiz-adv-x="1155" 
d="M393 119q86 0 172 43q85 43 141 91t130 128l120 524q-115 90 -274 90q-193 0 -330 -141q-78 -80 -123 -208t-45 -265q0 -262 209 -262zM359 -346q-214 0 -357 67l23 95h71q66 -84 247 -84t278 68q96 69 131 216l61 267q-201 -244 -438 -244q-147 0 -231 84
q-83 84 -83 247t57 303q107 269 331 361q109 45 215 45q197 0 317 -112q53 102 94 102h37l-242 -1053q-43 -190 -170 -276t-341 -86z" />
    <glyph glyph-name="y.alt" horiz-adv-x="1081" 
d="M174 991h-59l14 64q59 23 121 23t87 -35q26 -34 36 -105l110 -793q195 261 315 477t181 447h113l-19 -76q-84 -227 -207 -440q-122 -213 -338 -489t-491 -396h-109l19 78q233 49 446 287l-135 874q-14 84 -84 84z" />
    <glyph glyph-name="z.alt" horiz-adv-x="950" 
d="M618 -8q-80 0 -238 34t-245 34q-88 0 -135 -60h-76l15 70l882 856v4q-100 2 -244 24t-206 21q-63 0 -85 -22t-38 -81h-78l43 191q47 16 129 16q82 -1 236 -33t236 -32t130 55h76l-14 -72l-877 -852v-4q102 1 260 -23t210 -24t77 25t43 88h78l-45 -195q-54 -20 -134 -20z
" />
    <glyph glyph-name="germandbls.alt" horiz-adv-x="1173" 
d="M-117 -340q-59 0 -104 21l12 57h66q125 0 151 127l260 1157q98 422 510 422q148 0 242 -62t94 -170q0 -59 -37 -112t-82 -88t-126 -93q-82 -57 -111 -79q-76 -59 -76 -106q0 -46 30 -72t110 -74q80 -47 124 -79q43 -32 80 -88t37 -120q0 -139 -102 -224
q-103 -85 -269 -85t-293 71l43 183h78q-12 -117 29 -147q41 -29 153 -29t183 61q69 61 69 145t-64 135q-38 30 -56 40q-162 90 -211 139q-50 48 -50 114t60 133t206 163q53 37 95 78q43 42 54 68t11 54q0 76 -60 119t-167 43q-307 0 -385 -344l-262 -1157
q-43 -201 -242 -201z" />
    <glyph glyph-name="ampersand.alt" horiz-adv-x="1372" 
d="M1141 74h78l-17 -74h-194l-111 168q-178 -178 -444 -178q-199 0 -309 102t-109 254q0 348 430 490q-53 102 -53 211q0 173 116 285t312 112q143 0 235 -51q18 0 33 41h84l-78 -336h-88l18 180q-66 80 -206 80t-222 -82t-82 -211t91 -268l303 -463q137 178 215 465h114
l-16 -70q-110 -299 -260 -477l84 -125q37 -53 76 -53zM475 76q215 0 373 168l-344 524q-338 -125 -338 -408q0 -120 78 -202t231 -82z" />
    <glyph glyph-name="f_i.alt" horiz-adv-x="1013" 
d="M1022 1302q0 -32 -24 -56t-57 -25q-35 1 -57 23t-22 54t25 58q25 24 59 24t54 -22q22 -24 22 -56zM-70 -340q-59 0 -104 21l12 57h66q125 0 151 127l236 1126h-154l19 78h151l25 109q59 266 309 266q98 0 160 -27l-17 -80h-61q-25 25 -93 25t-112 -42q-45 -42 -69 -146
l-23 -105h420q48 0 70 -32t10 -83l-183 -788q-8 -37 14 -65t58 -27h64l-15 -62q-40 -20 -114 -20t-109 48t-14 132l188 819h-405l-238 -1130q-43 -201 -242 -201z" />
    <glyph glyph-name="f_l.alt" horiz-adv-x="1013" 
d="M-70 -340q-59 0 -104 21l12 57h66q125 0 151 127l236 1126h-154l19 78h151l21 90q63 285 379 285q80 0 157 -10h142q29 0 22 -37l-285 -1231q-7 -37 13 -65t55 -27h74l-15 -62q-56 -20 -124 -20t-104 48t-15 132l252 1088q12 58 -20 80t-150 22q-219 0 -265 -207l-18 -86
h233l-18 -78h-231l-238 -1130q-43 -201 -242 -201z" />
    <glyph glyph-name="f_f.alt" horiz-adv-x="1112" 
d="M451 -330q-59 0 -105 21l12 57h66q125 0 151 127l236 1116h-401l-238 -1130q-43 -201 -242 -201q-59 0 -104 21l12 57h66q125 0 151 127l236 1126h-154l19 78h151l21 90q59 270 305 271q92 0 153 -27l-16 -80h-61q-25 25 -89 25q-134 0 -176 -193l-18 -86h401l25 109
q59 266 309 266q98 0 160 -27l-16 -80h-62q-25 25 -93 25t-112 -42q-45 -42 -69 -146l-23 -105h234l-19 -78h-231l-238 -1120q-43 -201 -241 -201z" />
    <glyph glyph-name="f_b.alt" horiz-adv-x="1693" 
d="M1034 72q193 0 320 141q166 186 166 508q0 270 -207 270q-195 0 -434 -243l-134 -576q53 -48 115 -74t174 -26zM-70 -340q-59 0 -104 21l12 57h66q125 0 151 127l236 1126h-154l19 78h151l21 90q63 285 379 285q80 0 157 -10h142q29 0 22 -37l-129 -557q217 240 444 239
q135 0 217 -87t80 -260q0 -173 -58 -330t-152 -252q-156 -158 -374 -158t-337 117q-49 -109 -82 -109h-49l291 1260q12 58 -20 80t-150 22q-219 0 -265 -207l-18 -86h233l-18 -78h-231l-238 -1130q-43 -201 -242 -201z" />
    <glyph glyph-name="f_h.alt" horiz-adv-x="1712" 
d="M-70 -340q-59 0 -104 21l12 57h66q125 0 151 127l236 1126h-154l19 78h151l21 90q63 285 379 285q80 0 157 -10h142q31 0 22 -37l-129 -555q258 238 500 237q117 -1 171 -73t23 -203l-145 -633q-8 -39 12 -68t56 -28h61l-14 -62q-47 -20 -115 -20t-102 48t-17 128
l144 623q23 96 -9 144t-108 48q-213 0 -475 -225l-174 -758h-76q-45 0 -29 59l277 1201q12 58 -20 80t-150 22q-219 0 -265 -207l-18 -86h233l-18 -78h-231l-238 -1130q-43 -201 -242 -201z" />
    <glyph glyph-name="f_j.alt" horiz-adv-x="1013" 
d="M1020 1302q0 -32 -24 -56t-57 -25q-35 1 -57 23t-22 54t25 58q25 24 59 24t54 -22q22 -24 22 -56zM-70 -340q-59 0 -104 21l12 57h66q125 0 151 127l236 1126h-154l19 78h151l25 109q59 266 309 266q98 0 160 -27l-17 -80h-61q-25 25 -93 25t-112 -42q-45 -42 -69 -146
l-23 -105h420q48 0 70 -32t10 -83l-248 -1071q-51 -221 -268 -221q-80 0 -154 29l18 80h60q24 -31 84 -31t92 35t51 114l254 1102h-405l-238 -1130q-43 -201 -242 -201z" />
    <glyph glyph-name="f_k.alt" horiz-adv-x="1556" 
d="M-70 -340q-59 0 -104 21l12 57h66q125 0 151 127l236 1126h-154l19 78h151l21 90q63 285 379 285q80 0 157 -10h142q29 0 22 -37l-205 -893q229 111 399 264q169 154 236 301h117l-14 -63q-156 -223 -428 -412l176 -432q33 -88 104 -88h55l-14 -58q-37 -24 -98 -24
t-94 31t-60 96l-162 411q-131 -80 -241 -129l-92 -401h-76q-43 0 -31 59l279 1201q12 58 -20 80t-150 22q-219 0 -265 -207l-18 -86h233l-18 -78h-231l-238 -1130q-43 -201 -242 -201z" />
    <glyph glyph-name="f_t.alt" horiz-adv-x="1153" 
d="M-70 -340q-59 0 -104 21l12 57h66q125 0 151 127l236 1126h-154l19 78h151l25 109q59 266 309 266q98 0 160 -27l-17 -80h-61q-25 25 -93 25t-112 -42q-45 -42 -69 -146l-23 -105h401l70 295h117l-68 -295h260l-18 -78h-260l-166 -723q-45 -197 98 -196q68 0 103 20h59
l-16 -74q-76 -29 -156 -28q-131 0 -183 74t-24 204l168 723h-401l-238 -1130q-43 -201 -242 -201z" />
    <glyph glyph-name="f_f_i.alt" horiz-adv-x="1533" 
d="M1461 1221q-35 1 -57 23t-22 54t25 58q25 24 59 24t55 -22t21 -56q0 -32 -23 -57q-24 -24 -58 -24zM451 -330q-59 0 -105 21l12 57h66q125 0 151 127l236 1116h-401l-238 -1130q-43 -201 -242 -201q-59 0 -104 21l12 57h66q125 0 151 127l236 1126h-154l19 78h151l21 90
q59 270 305 271q92 0 153 -27l-16 -80h-61q-25 25 -89 25q-134 0 -176 -193l-18 -86h401l25 109q59 266 309 266q98 0 160 -27l-16 -80h-62q-25 25 -93 25t-112 -42q-45 -42 -69 -146l-23 -105h420q47 0 70 -32t10 -83l-182 -788q-8 -37 14 -65t57 -27h64l-15 -62
q-40 -20 -114 -20t-109 48t-14 132l188 819h-405l-238 -1120q-43 -201 -241 -201z" />
    <glyph glyph-name="f_f_l.alt" horiz-adv-x="1538" 
d="M451 -330q-59 0 -105 21l12 57h66q125 0 151 127l236 1116h-401l-238 -1130q-43 -201 -242 -201q-59 0 -104 21l12 57h66q125 0 151 127l236 1126h-154l19 78h151l21 90q59 270 305 271q92 0 153 -27l-16 -80h-61q-25 25 -89 25q-134 0 -176 -193l-18 -86h401l21 90
q63 285 379 285q80 0 157 -10h142q29 0 22 -37l-284 -1231q-8 -37 12 -65t55 -27h74l-14 -62q-55 -20 -124 -20t-105 48t-15 132l252 1088q12 58 -20 80t-150 22q-219 0 -264 -207l-19 -86h234l-19 -78h-231l-238 -1120q-43 -201 -241 -201z" />
    <glyph glyph-name="f_f_b.alt" horiz-adv-x="2213" 
d="M1554 72q193 0 320 141q166 186 166 508q0 270 -207 270q-195 0 -434 -243l-133 -576q53 -48 115 -74t173 -26zM451 -330q-59 0 -105 21l12 57h66q125 0 151 127l236 1116h-401l-238 -1130q-43 -201 -242 -201q-59 0 -104 21l12 57h66q125 0 151 127l236 1126h-154l19 78
h151l21 90q59 270 305 271q92 0 153 -27l-16 -80h-61q-25 25 -89 25q-134 0 -176 -193l-18 -86h401l21 90q63 285 379 285q80 0 157 -10h142q29 0 22 -37l-129 -557q217 240 445 239q135 0 216 -87t81 -260q-1 -173 -59 -330t-152 -252q-156 -158 -373 -158t-338 117
q-49 -109 -82 -109h-49l291 1260q12 58 -20 80t-150 22q-219 0 -264 -207l-19 -86h234l-19 -78h-231l-238 -1120q-43 -201 -241 -201z" />
    <glyph glyph-name="f_f_h.alt" horiz-adv-x="2232" 
d="M620 1348q-134 0 -176 -193l-18 -86h401l21 90q63 285 379 285q80 0 157 -10h142q31 0 22 -37l-129 -555q258 238 500 237q117 -1 171 -73t24 -203l-146 -633q-8 -39 12 -68t56 -28h61l-14 -62q-47 -20 -115 -20t-102 48t-17 128l144 623q23 96 -9 144t-108 48
q-213 0 -475 -225l-174 -758h-76q-45 0 -29 59l277 1201q12 58 -20 80t-150 22q-219 0 -264 -207l-19 -86h234l-19 -78h-231l-238 -1120q-43 -201 -241 -201q-59 0 -105 21l12 57h66q125 0 151 127l236 1116h-401l-238 -1130q-43 -201 -242 -201q-59 0 -104 21l12 57h66
q125 0 151 127l236 1126h-154l19 78h151l21 90q59 270 305 271q92 0 153 -27l-16 -80h-61q-25 25 -89 25z" />
    <glyph glyph-name="f_f_j.alt" horiz-adv-x="1533" 
d="M1459 1221q-35 1 -57 23t-22 54t25 58q25 24 59 24t55 -22t21 -56q0 -32 -23 -57q-24 -24 -58 -24zM451 -330q-59 0 -105 21l12 57h66q125 0 151 127l236 1116h-401l-238 -1130q-43 -201 -242 -201q-59 0 -104 21l12 57h66q125 0 151 127l236 1126h-154l19 78h151l21 90
q59 270 305 271q92 0 153 -27l-16 -80h-61q-25 25 -89 25q-134 0 -176 -193l-18 -86h401l25 109q59 266 309 266q98 0 160 -27l-16 -80h-62q-25 25 -93 25t-112 -42q-45 -42 -69 -146l-23 -105h420q47 0 70 -32t10 -83l-248 -1071q-51 -221 -268 -221q-80 0 -154 29l19 80
h59q24 -31 84 -31t92 35t51 114l254 1102h-405l-238 -1120q-43 -201 -241 -201z" />
    <glyph glyph-name="f_f_k.alt" horiz-adv-x="2076" 
d="M451 -330q-59 0 -105 21l12 57h66q125 0 151 127l236 1116h-401l-238 -1130q-43 -201 -242 -201q-59 0 -104 21l12 57h66q125 0 151 127l236 1126h-154l19 78h151l21 90q59 270 305 271q92 0 153 -27l-16 -80h-61q-25 25 -89 25q-134 0 -176 -193l-18 -86h401l21 90
q63 285 379 285q80 0 157 -10h142q29 0 22 -37l-205 -893q229 111 399 264q169 154 236 301h117l-14 -63q-156 -223 -428 -412l176 -432q33 -88 104 -88h56l-15 -58q-37 -24 -98 -24t-94 31t-60 96l-161 411q-131 -80 -242 -129l-92 -401h-76q-43 0 -31 59l279 1201
q12 58 -20 80t-150 22q-219 0 -264 -207l-19 -86h234l-19 -78h-231l-238 -1120q-43 -201 -241 -201z" />
    <glyph glyph-name="f_f_t.alt" horiz-adv-x="1673" 
d="M451 -330q-59 0 -105 21l12 57h66q125 0 151 127l236 1116h-401l-238 -1130q-43 -201 -242 -201q-59 0 -104 21l12 57h66q125 0 151 127l236 1126h-154l19 78h151l21 90q59 270 305 271q92 0 153 -27l-16 -80h-61q-25 25 -89 25q-134 0 -176 -193l-18 -86h401l25 109
q59 266 309 266q98 0 160 -27l-16 -80h-62q-25 25 -93 25t-112 -42q-45 -42 -69 -146l-23 -105h402l69 295h117l-68 -295h260l-18 -78h-260l-166 -723q-45 -197 98 -196q68 0 103 20h59l-16 -74q-76 -29 -156 -28q-131 0 -183 74t-24 204l168 723h-401l-238 -1120
q-43 -201 -241 -201z" />
    <glyph glyph-name="f_igrave.alt" horiz-adv-x="1013" 
d="M899 1174l-123 215l12 53h99l84 -268h-72zM-70 -340q-59 0 -104 21l12 57h66q125 0 151 127l236 1126h-154l19 78h151l31 137q53 238 260 238q80 0 129 -25l-16 -80h-60q-18 23 -66 23t-79 -36t-49 -124l-31 -133h420q48 0 70 -32t10 -83l-181 -788q-8 -37 14 -65t56 -27
h64l-15 -62q-40 -20 -114 -20t-109 48t-14 132l188 819h-405l-238 -1130q-43 -201 -242 -201z" />
    <glyph glyph-name="f_iacute.alt" horiz-adv-x="1013" 
d="M848 1174l174 260h127l-12 -52l-209 -208h-80zM-70 -340q-59 0 -104 21l12 57h66q125 0 151 127l236 1126h-154l19 78h151l25 109q59 266 309 266q98 0 160 -27l-17 -80h-61q-25 25 -93 25t-112 -42q-45 -42 -69 -146l-23 -105h420q48 0 70 -32t10 -83l-181 -788
q-8 -37 14 -65t56 -27h64l-15 -62q-40 -20 -114 -20t-109 48t-14 132l188 819h-405l-238 -1130q-43 -201 -242 -201z" />
    <glyph glyph-name="f_icircumflex.alt" horiz-adv-x="1013" 
d="M-70 -340q-59 0 -104 21l12 57h66q125 0 151 127l236 1126h-154l19 78h151l31 137q53 238 276 238q84 0 138 -27l-17 -80h-61q-20 25 -72 25q-107 0 -145 -160l-31 -133h420q48 0 70 -32t10 -83l-181 -788q-8 -37 14 -65t56 -27h64l-15 -62q-40 -20 -114 -20t-109 48
t-14 132l188 819h-405l-238 -1130q-43 -201 -242 -201zM696 1174l11 40l184 220h108l103 -220l-10 -40h-52l-104 180l-178 -180h-62z" />
    <glyph glyph-name="f_idieresis.alt" horiz-adv-x="1013" 
d="M1061 1223q-33 0 -53 20t-21 53q0 33 25 58q26 24 56 24t52 -22t21 -52q1 -32 -23 -56t-57 -25zM829 1223q-33 0 -53 20t-20 54t23 58q24 23 56 23q31 0 53 -22t22 -52q0 -32 -24 -57q-24 -24 -57 -24zM-70 -340q-59 0 -104 21l12 57h66q125 0 151 127l236 1126h-154
l19 78h151l31 137q53 238 260 238q80 0 129 -25l-16 -80h-60q-18 23 -66 23t-79 -36t-49 -124l-31 -133h420q48 0 70 -32t10 -83l-181 -788q-8 -37 14 -65t56 -27h64l-15 -62q-40 -20 -114 -20t-109 48t-14 132l188 819h-405l-238 -1130q-43 -201 -242 -201z" />
    <glyph glyph-name="f_iogonek.alt" horiz-adv-x="1013" 
d="M-70 -340q-59 0 -104 21l12 57h66q125 0 151 127l236 1126h-154l19 78h151l25 109q59 266 309 266q98 0 160 -27l-17 -80h-61q-25 25 -93 25t-112 -42q-45 -42 -69 -146l-23 -105h420q48 0 70 -32t10 -83l-183 -788q-8 -37 14 -65t58 -27h64l-15 -62q-86 -33 -145 -90
t-60 -123q0 -63 70 -63q29 0 51 14h47l-14 -67q-47 -19 -111 -19t-106 34q-41 34 -41 93q0 113 162 205q-57 10 -82 57t-8 119l188 819h-405l-238 -1130q-43 -201 -242 -201zM1022 1302q0 -32 -24 -56t-57 -25q-35 1 -57 23t-22 54t25 58q25 24 59 24t54 -22q22 -24 22 -56z
" />
    <glyph glyph-name="f_imacron.alt" horiz-adv-x="1013" 
d="M766 1247l20 82h324l-20 -82h-324zM-70 -340q-59 0 -104 21l12 57h66q125 0 151 127l236 1126h-154l19 78h151l31 137q53 238 276 238q84 0 138 -27l-17 -80h-61q-20 25 -72 25q-107 0 -145 -160l-31 -133h420q48 0 70 -32t10 -83l-181 -788q-8 -37 14 -65t56 -27h64
l-15 -62q-40 -20 -114 -20t-109 48t-14 132l188 819h-405l-238 -1130q-43 -201 -242 -201z" />
    <glyph glyph-name="f_f_igrave.alt" horiz-adv-x="1533" 
d="M1419 1174l-123 215l13 53h98l84 -268h-72zM451 -330q-59 0 -105 21l12 57h66q125 0 151 127l236 1116h-401l-238 -1130q-43 -201 -242 -201q-59 0 -104 21l12 57h66q125 0 151 127l236 1126h-154l19 78h151l21 90q59 270 305 271q92 0 153 -27l-16 -80h-61
q-25 25 -89 25q-134 0 -176 -193l-18 -86h401l31 137q53 238 260 238q80 0 129 -25l-16 -80h-60q-18 23 -66 23t-79 -36t-49 -124l-31 -133h420q47 0 70 -32t10 -83l-180 -788q-8 -37 14 -65t55 -27h64l-15 -62q-40 -20 -114 -20t-109 48t-14 132l188 819h-405l-238 -1120
q-43 -201 -241 -201z" />
    <glyph glyph-name="f_f_iacute.alt" horiz-adv-x="1533" 
d="M1368 1174l174 260h127l-12 -52l-209 -208h-80zM451 -330q-59 0 -105 21l12 57h66q125 0 151 127l236 1116h-401l-238 -1130q-43 -201 -242 -201q-59 0 -104 21l12 57h66q125 0 151 127l236 1126h-154l19 78h151l21 90q59 270 305 271q92 0 153 -27l-16 -80h-61
q-25 25 -89 25q-134 0 -176 -193l-18 -86h401l25 109q59 266 309 266q98 0 160 -27l-16 -80h-62q-25 25 -93 25t-112 -42q-45 -42 -69 -146l-23 -105h420q47 0 70 -32t10 -83l-180 -788q-8 -37 14 -65t55 -27h64l-15 -62q-40 -20 -114 -20t-109 48t-14 132l188 819h-405
l-238 -1120q-43 -201 -241 -201z" />
    <glyph glyph-name="f_f_icircumflex.alt" horiz-adv-x="1533" 
d="M1217 1174l10 40l184 220h109l102 -220l-10 -40h-51l-105 180l-178 -180h-61zM451 -330q-59 0 -105 21l12 57h66q125 0 151 127l236 1116h-401l-238 -1130q-43 -201 -242 -201q-59 0 -104 21l12 57h66q125 0 151 127l236 1126h-154l19 78h151l21 90q59 270 305 271
q92 0 153 -27l-16 -80h-61q-25 25 -89 25q-134 0 -176 -193l-18 -86h401l31 137q53 238 277 238q84 0 137 -27l-17 -80h-61q-20 25 -72 25q-107 0 -145 -160l-31 -133h420q47 0 70 -32t10 -83l-180 -788q-8 -37 14 -65t55 -27h64l-15 -62q-40 -20 -114 -20t-109 48t-14 132
l188 819h-405l-238 -1120q-43 -201 -241 -201z" />
    <glyph glyph-name="f_f_idieresis.alt" horiz-adv-x="1533" 
d="M620 1348q-134 0 -176 -193l-18 -86h401l31 137q53 238 260 238q80 0 129 -25l-16 -80h-60q-18 23 -66 23t-79 -36t-49 -124l-31 -133h420q47 0 70 -32t10 -83l-180 -788q-8 -37 14 -65t55 -27h64l-15 -62q-40 -20 -114 -20t-109 48t-14 132l188 819h-405l-238 -1120
q-43 -201 -241 -201q-59 0 -105 21l12 57h66q125 0 151 127l236 1116h-401l-238 -1130q-43 -201 -242 -201q-59 0 -104 21l12 57h66q125 0 151 127l236 1126h-154l19 78h151l21 90q59 270 305 271q92 0 153 -27l-16 -80h-61q-25 25 -89 25zM1581 1223q-33 0 -53 20t-21 53
q0 33 25 58q26 24 56 24t52 -22t21 -52q1 -32 -23 -56t-57 -25zM1350 1223q-33 0 -54 20q-20 20 -20 54t23 58q24 23 56 23q31 0 53 -22t22 -52q0 -32 -24 -56t-56 -25z" />
    <glyph glyph-name="f_f_iogonek.alt" horiz-adv-x="1533" 
d="M1461 1221q-35 1 -57 23t-22 54t25 58q25 24 59 24t55 -22t21 -56q0 -32 -23 -57q-24 -24 -58 -24zM451 -330q-59 0 -105 21l12 57h66q125 0 151 127l236 1116h-401l-238 -1130q-43 -201 -242 -201q-59 0 -104 21l12 57h66q125 0 151 127l236 1126h-154l19 78h151l21 90
q59 270 305 271q92 0 153 -27l-16 -80h-61q-25 25 -89 25q-134 0 -176 -193l-18 -86h401l25 109q59 266 309 266q98 0 160 -27l-16 -80h-62q-25 25 -93 25t-112 -42q-45 -42 -69 -146l-23 -105h420q47 0 70 -32t10 -83l-182 -788q-8 -37 14 -65t57 -27h64l-15 -62
q-86 -33 -145 -90q-59 -58 -59 -122t69 -64q29 0 51 14h48l-15 -67q-47 -19 -111 -19t-106 34q-41 34 -41 93q0 113 162 205q-57 10 -82 57t-8 119l188 819h-405l-238 -1120q-43 -201 -241 -201z" />
    <glyph glyph-name="f_f_imacron.alt" horiz-adv-x="1533" 
d="M1286 1247l21 82h323l-20 -82h-324zM451 -330q-59 0 -105 21l12 57h66q125 0 151 127l236 1116h-401l-238 -1130q-43 -201 -242 -201q-59 0 -104 21l12 57h66q125 0 151 127l236 1126h-154l19 78h151l21 90q59 270 305 271q92 0 153 -27l-16 -80h-61q-25 25 -89 25
q-134 0 -176 -193l-18 -86h401l31 137q53 238 277 238q84 0 137 -27l-17 -80h-61q-20 25 -72 25q-107 0 -145 -160l-31 -133h420q47 0 70 -32t10 -83l-180 -788q-8 -37 14 -65t55 -27h64l-15 -62q-40 -20 -114 -20t-109 48t-14 132l188 819h-405l-238 -1120
q-43 -201 -241 -201z" />
    <glyph glyph-name="zero.num" horiz-adv-x="770" 
d="M446 733q133 0 206 122t73 310q0 93 -42 149t-120 56q-117 0 -199 -132t-83 -302q1 -94 43 -148t122 -55zM444 664q-128 0 -200 78t-72 210q0 203 117 345t278 143q127 0 197 -80t70 -211q0 -207 -111 -346t-279 -139z" />
    <glyph glyph-name="one.num" horiz-adv-x="487" 
d="M201 733q14 0 29 12t20 27l133 569l-147 -65h-37l14 67l221 91h74l-152 -662q-8 -39 27 -39h113l-15 -63h-409l14 63h115z" />
    <glyph glyph-name="two.num" horiz-adv-x="608" 
d="M596 1257q0 51 -33 82t-101 31t-107 -24q-38 -24 -62 -99h-62l35 152q104 41 212 41t167 -45t60 -129q0 -119 -108 -194q-89 -63 -169 -99q-207 -111 -238 -225h320l37 114h67l-45 -192h-491l12 53q39 168 266 297q16 10 100 57t112 88t28 92z" />
    <glyph glyph-name="three.num" horiz-adv-x="606" 
d="M323 664q-141 0 -231 47l31 131h61q-4 -70 19 -86q29 -25 121 -25t144 48q52 49 52 117t-40 101t-105 33h-60l15 66h61q86 0 135 41t49 114q0 121 -131 121q-68 0 -100 -18t-53 -88h-64l33 137q90 37 196 37t164 -46q60 -46 60 -126t-49 -133t-135 -70v-4q59 -14 95 -56
t36 -104q0 -102 -81 -170q-82 -67 -223 -67z" />
    <glyph glyph-name="four.num" horiz-adv-x="667" 
d="M209 938h297l90 381h-4l-383 -377v-4zM420 733q14 0 29 12q14 12 18 27l22 100h-376l18 78l494 484h98l-113 -496h115l-16 -66h-115l-23 -100q-4 -14 3 -26t20 -13h80l-15 -63h-323l16 63h68z" />
    <glyph glyph-name="five.num" horiz-adv-x="608" 
d="M639 956q0 -128 -92 -210q-91 -82 -229 -82t-232 45l31 133h63q-6 -66 25 -88t96 -23q106 0 169 57q62 57 62 160q0 133 -129 133q-109 0 -167 -71h-64l100 424h443l-39 -166h-66l4 88h-286l-64 -266h2q68 57 166 57t152 -48t55 -143z" />
    <glyph glyph-name="six.num" horiz-adv-x="679" 
d="M274 924q0 -195 160 -195q80 0 131 56t51 159q0 127 -137 127q-117 0 -203 -86q-2 -25 -2 -61zM510 1141q211 0 211 -207q0 -110 -84 -190t-206 -80q-123 0 -191 74t-68 200q0 213 126 357t325 145q104 0 170 -33l-19 -78h-51q-27 41 -113 41q-123 0 -210 -86t-113 -229
q92 86 223 86z" />
    <glyph glyph-name="seven.num" horiz-adv-x="593" 
d="M666 1354h-361l-45 -133h-67l49 213h520l-21 -88l-450 -676h-103l13 51l465 629v4z" />
    <glyph glyph-name="eight.num" horiz-adv-x="686" 
d="M242 874q0 -140 170 -141q84 0 136 49q52 48 52 118t-41 108t-121 36q-80 0 -138 -51t-58 -119zM360 1226q0 -116 134 -116q66 0 112 38q45 38 45 97t-36 92q-37 33 -103 33t-109 -43t-43 -101zM408 664q-128 0 -198 53t-69 139q-1 86 59 146t158 79v4q-96 37 -96 135
t76 158q76 62 183 62t167 -50t62 -124q0 -74 -46 -124t-126 -69v-4q122 -37 122 -153t-82 -184t-210 -68z" />
    <glyph glyph-name="nine.num" horiz-adv-x="679" 
d="M647 1180q0 194 -159 194q-80 0 -132 -58t-51 -157q0 -127 137 -127q117 0 203 86q2 25 2 62zM428 963q-228 1 -227 207q0 104 84 187t206 83q123 0 191 -75t68 -200q0 -221 -120 -361t-331 -140q-106 0 -172 32l18 78h52q27 -41 114 -41q131 0 216 80t108 236
q-93 -86 -207 -86z" />
    <glyph glyph-name="zero.den" horiz-adv-x="770" 
d="M293 63q133 0 206 122t72 311q0 94 -42 149t-119 55q-117 0 -195 -122q-88 -141 -88 -312q0 -94 43 -148t123 -55zM291 -6q-127 0 -200 79t-73 210q0 203 117 345t279 142q126 0 196 -80t70 -211q0 -209 -110 -347t-279 -138z" />
    <glyph glyph-name="one.den" horiz-adv-x="487" 
d="M47 63q13 1 29 13t20 26l133 570l-147 -66h-37l14 68l222 90h73l-151 -662q-8 -39 26 -39h113l-14 -63h-410l14 63h115z" />
    <glyph glyph-name="two.den" horiz-adv-x="608" 
d="M442 598q0 41 -32 72q-33 30 -101 30q-69 0 -107 -24t-63 -98h-61l35 151q104 41 212 41t167 -45t59 -126t-48 -143q-42 -59 -216 -146q-6 -3 -13 -7q-207 -111 -237 -225h319l37 115h68l-45 -193h-492l13 53q39 168 266 297q16 10 60 35t85 49q94 56 94 164z" />
    <glyph glyph-name="three.den" horiz-adv-x="606" 
d="M473 231q0 -101 -81 -169t-222 -68t-231 47l30 131h62q-5 -70 21 -90t118 -21q92 1 144 49t52 116t-39 102q-40 33 -106 32h-59l14 66h62q86 0 135 41t49 115q0 121 -131 120q-67 0 -99 -19t-55 -87h-63l32 137q90 37 196 37t164 -46q60 -46 60 -126t-49 -133t-135 -70
v-4q59 -14 95 -56t36 -104z" />
    <glyph glyph-name="four.den" horiz-adv-x="667" 
d="M55 268h297l90 381h-4l-383 -377v-4zM266 63q14 1 28 13t19 26l23 101h-377l18 78l494 483h98l-112 -496h114l-16 -65h-115l-22 -101q-4 -14 3 -26t19 -13h80l-14 -63h-324l17 63h67z" />
    <glyph glyph-name="five.den" horiz-adv-x="608" 
d="M164 -6q-138 0 -232 45l31 133h64q-5 -66 25 -88t95 -23q107 -1 169 57t63 161q0 133 -129 133q-109 0 -168 -72h-64l101 424h442l-39 -166h-65l4 88h-287l-63 -266h2q68 57 166 57t152 -48t54 -142q0 -129 -92 -211q-91 -82 -229 -82z" />
    <glyph glyph-name="six.den" horiz-adv-x="679" 
d="M121 254q0 -195 159 -195q80 1 132 57t51 158q0 127 -137 127q-117 0 -203 -86q-2 -25 -2 -61zM277 -6q-123 0 -191 75t-68 199q0 214 126 358t325 144q104 0 170 -33l-18 -78h-52q-27 41 -112 41q-123 0 -210 -86t-114 -229q93 86 207 86q228 0 227 -190
q0 -125 -84 -206t-206 -81z" />
    <glyph glyph-name="seven.den" horiz-adv-x="593" 
d="M512 684h-360l-46 -133h-67l49 213h520l-20 -88l-451 -676h-102l12 51l465 629v4z" />
    <glyph glyph-name="eight.den" horiz-adv-x="686" 
d="M88 204q0 -142 170 -141q84 -1 136 49t52 120q0 144 -161 143q-81 0 -139 -51q-58 -52 -58 -120zM207 556q1 -116 135 -116q66 0 111 38t45 98t-36 92t-102 32t-110 -43q-43 -43 -43 -101zM547 246q0 -116 -82 -184t-210 -68t-198 53q-69 53 -69 139t59 146t158 80v4
q-96 37 -96 134t75 159q76 61 184 61t168 -50t60 -124t-46 -124t-126 -69v-4q123 -37 123 -153z" />
    <glyph glyph-name="nine.den" horiz-adv-x="679" 
d="M494 510q0 195 -160 195q-80 -1 -131 -59t-51 -157q0 -127 137 -127q117 0 203 87q2 25 2 61zM274 293q-228 1 -227 207q0 104 84 187t206 83q123 0 191 -75t68 -199q0 -222 -120 -362t-331 -140q-106 0 -172 33l19 77h51q27 -41 115 -41q131 0 216 80t107 236
q-93 -86 -207 -86z" />
    <glyph glyph-name="dollar.tab" horiz-adv-x="1228" 
d="M422 1080q0 -106 45 -156q45 -51 158 -107l123 539q-162 -8 -244 -89t-82 -187zM913 414q0 88 -53 140t-182 114l-135 -592q184 10 277 97t93 241zM309 1070q0 148 120 256q120 110 339 116l29 123h88l-29 -125q154 -8 318 -72l-56 -240h-80q10 88 6 122t-28 55
q-63 47 -180 51l-131 -576q185 -88 255 -156t70 -204q0 -196 -132 -310t-376 -120l-45 -199h-88l45 201q-193 8 -360 90l57 248h84q-10 -100 -4 -135t29 -58q66 -57 215 -61l143 629q-154 73 -222 145t-67 220z" />
    <glyph glyph-name="Euro.tab" horiz-adv-x="1228" 
d="M348 475q0 -187 85 -293t267 -106t316 153h76l-21 -98q-190 -141 -401 -141t-331 134t-118 368q0 35 2 71h-149l22 82h133q10 78 27 148h-127l23 81h129q51 156 146 287t230 207t311 76t324 -72l-57 -248h-82q10 88 5 126t-30 59q-59 49 -184 49q-260 0 -420 -242
q-66 -96 -112 -242h497l-37 -81h-485q-18 -80 -27 -148h453l-35 -82h-428q-2 -39 -2 -88z" />
    <glyph glyph-name="sterling.tab" horiz-adv-x="1228" 
d="M881 0q-373 0 -592 102q-84 -66 -178 -102h-76l16 72q139 44 214 152t75 329q0 57 -2 111h-152l19 81h131q-6 125 -6 193q0 248 135 377t353 129t388 -88l-57 -248h-82q23 145 -18 186q-61 59 -222 60q-360 0 -370 -410q-2 -63 -2 -199h403l-18 -81h-385q-2 -116 -6 -176
t-28 -155t-69 -159q195 -76 516 -76l72 240h88l-76 -338h-71z" />
    <glyph glyph-name="yen.tab" horiz-adv-x="1228" 
d="M381 74q27 0 53 22t33 45l63 283h-378l20 82h379l33 145h-379l18 82h342l-182 545q-25 80 -94 80h-31l18 76h418l-18 -76h-189l195 -600h4l358 479q41 57 29 89t-63 32h-78l18 76h420l-18 -76h-41q-57 0 -119 -76l-426 -549h342l-18 -82h-379l-35 -145h381l-19 -82h-381
l-63 -283q-6 -27 6 -47t37 -20h117l-17 -74h-481l16 74h109z" />
    <glyph glyph-name="zero.tab" horiz-adv-x="1228" 
d="M227 465q0 -168 74 -280t240 -111q339 0 488 553q50 184 50 334q0 397 -303 397q-217 0 -360 -223q-84 -133 -136 -317t-53 -353zM532 -10q-208 0 -318 137t-110 360q0 389 220 697q188 260 467 260q207 0 311 -135t104 -357q0 -377 -211 -692q-180 -270 -463 -270z" />
    <glyph glyph-name="one.tab" horiz-adv-x="1228" 
d="M385 74q27 0 53 22t31 45l270 1178l-323 -152h-43l16 78l414 189h88l-297 -1293q-4 -27 8 -47t37 -20h248l-17 -74h-759l16 74h258z" />
    <glyph glyph-name="two.tab" horiz-adv-x="1228" 
d="M1040 1116q0 112 -72 178t-210 66q-224 0 -284 -111q-22 -39 -52 -129h-86l59 246q162 78 363 78t306 -87t105 -230t-64 -230q-26 -35 -45 -59t-93 -77q-74 -54 -147 -93q-72 -39 -191 -101q-410 -215 -475 -469h680l73 236h90l-75 -334h-897l16 76q43 178 173 306
t349 255q173 94 254 142q81 49 112 83q84 92 98 147q13 54 13 107z" />
    <glyph glyph-name="three.tab" horiz-adv-x="1228" 
d="M473 -10q-217 0 -401 88l51 219h80q-12 -129 28 -164q65 -59 259 -59t300 105q105 105 105 270q0 117 -79 185t-212 66h-112l18 84h113q174 0 276 88t102 246q0 242 -274 242q-135 0 -211 -45q-47 -29 -94 -160h-84l49 217q178 72 356 72q177 0 279 -83t102 -233
t-92 -256t-250 -135v-4q111 -20 174 -99t64 -190q0 -202 -142 -328t-405 -126z" />
    <glyph glyph-name="four.tab" horiz-adv-x="1228" 
d="M213 463h582l184 805h-4l-762 -801v-4zM637 74q27 0 53 22t31 45l53 236h-682l23 102l915 955h111l-223 -971h167l-18 -86h-170l-53 -236q-6 -25 7 -47t38 -20h106l-16 -74h-475l16 74h117z" />
    <glyph glyph-name="five.tab" horiz-adv-x="1228" 
d="M436 -10q-217 0 -379 88l49 215h84q-16 -125 25 -158q78 -59 225 -59q215 0 348 119t134 329q0 137 -71 209t-206 72q-207 0 -336 -146h-84l181 775h792l-59 -258h-86l16 159h-594l-127 -557h4q126 113 310 113t285 -91t102 -263q0 -246 -171 -397q-172 -150 -442 -150z
" />
    <glyph glyph-name="six.tab" horiz-adv-x="1228" 
d="M582 76q176 0 284 126t107 318q0 127 -74 196t-207 68q-233 0 -422 -202q-6 -53 -6 -117q1 -389 318 -389zM591 -10q-216 0 -333 127t-117 363t87 438t235 333q211 190 491 191q166 0 289 -56l-22 -94h-74q-61 66 -203 66q-229 0 -403 -170q-219 -213 -260 -510
q197 193 442 192q178 0 278 -86t101 -254q0 -232 -148 -386t-363 -154z" />
    <glyph glyph-name="seven.tab" horiz-adv-x="1228" 
d="M1180 1335h-756l-76 -241h-88l78 340h962l-26 -111l-899 -1323h-119l12 59l912 1272v4z" />
    <glyph glyph-name="eight.tab" horiz-adv-x="1228" 
d="M451 1032q0 -100 62 -162t199 -61q137 0 230 85q92 85 92 228q0 106 -64 171q-65 65 -202 65t-227 -89t-90 -237zM225 352q0 -124 81 -200t250 -76t278 102t108 268q0 127 -79 202t-245 75q-166 1 -279 -105q-114 -106 -114 -266zM1067 442q-1 -200 -149 -326t-368 -126
t-336 99t-116 261t112 279t294 147v4q-176 70 -176 252t131 297t316 115t283 -89t99 -229q0 -140 -86 -236q-86 -97 -237 -128v-4q233 -76 233 -316z" />
    <glyph glyph-name="nine.tab" horiz-adv-x="1228" 
d="M705 1358q-176 0 -284 -125t-108 -311q0 -139 66 -206t205 -67q244 0 432 203q6 53 6 117q0 389 -317 389zM697 1444q215 0 331 -127t117 -369q0 -242 -75 -446q-131 -356 -448 -465q-136 -47 -299 -47t-278 59l23 98h73q59 -72 211 -71q262 0 424 160q182 178 230 518
q-195 -190 -443 -191q-176 0 -277 92t-102 260q0 223 149 376t364 153z" />
    <glyph glyph-name="plus.tab" horiz-adv-x="1228" 
d="M510 274l88 390h-367l21 88h369l88 389h94l-88 -389h366l-20 -88h-369l-88 -390h-94z" />
    <glyph glyph-name="minus.tab" horiz-adv-x="1228" 
d="M231 664l21 88h829l-20 -88h-830z" />
    <glyph glyph-name="multiply.tab" horiz-adv-x="1228" 
d="M260 311l-53 66l383 317l-242 318l74 61l240 -315l380 315l54 -65l-383 -318l241 -317l-73 -62l-242 318z" />
    <glyph glyph-name="divide.tab" horiz-adv-x="1228" 
d="M231 664l21 88h829l-20 -88h-830zM711 932q-35 0 -56 22q-20 23 -17 57q3 33 30 57q28 24 62 24t54 -23t18 -57t-30 -56q-26 -24 -61 -24zM583 324q-34 0 -55 22q-20 22 -18 56t29 58t61 24t55 -24q19 -22 17 -56t-28 -56q-26 -24 -61 -24z" />
    <glyph glyph-name="less.tab" horiz-adv-x="1228" 
d="M899 229l-659 426l20 84l842 381h43l-21 -90l-753 -338v-2l585 -381l-18 -80h-39z" />
    <glyph glyph-name="equal.tab" horiz-adv-x="1228" 
d="M242 770l20 90h858l-20 -90h-858zM162 428l22 90h858l-22 -90h-858z" />
    <glyph glyph-name="greater.tab" horiz-adv-x="1228" 
d="M150 229l20 90l754 336v4l-586 379l18 82h39l660 -426l-21 -84l-841 -381h-43z" />
    <glyph glyph-name="comma.tab" horiz-adv-x="614" 
d="M168 -23q0 17 -27 37t-27 58t26 62q24 24 60 24t60 -25t25 -67q-1 -112 -71 -178t-179 -78l14 63q49 10 84 38t35 66z" />
    <glyph glyph-name="period.tab" horiz-adv-x="614" 
d="M207 158q35 0 57 -24t23 -58q-1 -34 -27 -58q-26 -26 -61 -26t-58 22t-22 58q1 34 27 60t61 26z" />
    <glyph glyph-name="colon.tab" horiz-adv-x="614" 
d="M205 158q35 0 57 -24t23 -58q-1 -34 -27 -58q-26 -26 -61 -26t-58 22t-22 58q1 34 27 60t61 26zM344 623q-36 1 -58 23t-22 56t27 61q27 25 61 25t58 -24q22 -24 22 -56q0 -34 -26 -60q-27 -25 -62 -25z" />
    <glyph glyph-name="semicolon.tab" horiz-adv-x="614" 
d="M344 623q-36 1 -58 23t-22 56t27 61q27 25 61 25t58 -24q22 -24 22 -56q0 -34 -26 -60q-27 -25 -62 -25zM166 -23q0 17 -27 37t-27 58t26 62q24 24 60 24t60 -25t25 -67q-1 -112 -71 -178t-179 -78l14 63q49 10 84 38t35 66z" />
    <glyph glyph-name="percent.tab" horiz-adv-x="1638" 
d="M1118 63q111 0 187 108t75 261q0 197 -159 197q-111 0 -187 -109t-76 -262q0 -195 160 -195zM1110 -10q-116 0 -188 74t-72 198q0 184 114 313t263 130q117 0 191 -75t73 -200q1 -184 -113 -312t-268 -128zM162 -70l1294 1563h105l-1295 -1563h-104zM502 803
q110 -1 186 107t76 261q0 197 -160 197q-110 0 -186 -108t-76 -263q0 -194 160 -194zM494 729q-117 0 -189 74t-72 198q0 183 114 313t263 130q117 0 191 -75t73 -200q0 -184 -113 -312t-267 -128z" />
    <glyph glyph-name="perthousand.tab" horiz-adv-x="2457" 
d="M1939 63q111 0 187 108t76 261q0 197 -160 197q-111 0 -187 -109t-75 -262q-1 -195 159 -195zM1931 -10q-117 0 -189 74t-71 198q0 184 114 313t263 130q116 0 190 -75t74 -200q0 -184 -114 -312t-267 -128zM1190 63q110 0 186 108t76 261q0 197 -160 197
q-110 0 -186 -109t-76 -262q0 -195 160 -195zM1182 -10q-117 0 -189 74t-71 198q0 184 113 313q114 129 263 130q117 0 191 -75t74 -200q1 -184 -113 -312t-268 -128zM217 -70l1294 1563h105l-1294 -1563h-105zM541 803q111 -1 187 107t75 261q0 197 -160 197
q-111 0 -187 -108t-75 -263q0 -194 160 -194zM532 729q-116 0 -188 74t-72 198q0 183 114 313t263 130q117 0 191 -75t73 -200q1 -184 -113 -312t-268 -128z" />
    <glyph glyph-name="cent.tab" horiz-adv-x="1228" 
d="M295 393q0 -287 223 -319l213 919q-199 -31 -317 -203t-119 -397zM174 393q0 270 161 464t415 218l28 123h88l-28 -119q168 -4 284 -65l-45 -193h-76q4 72 -6 106t-49 51t-127 21l-213 -929q174 8 289 129h70l-23 -90q-152 -113 -354 -117l-45 -201h-88l47 207
q-158 20 -243 126t-85 269z" />
    <glyph glyph-name="florin.tab" horiz-adv-x="1228" 
d="M965 1444q104 0 172 -29l-19 -86h-55q-29 29 -107 29t-130 -48q-50 -48 -78 -169l-64 -269h277l-19 -77h-274l-160 -695q-47 -213 -240 -282h-61l14 73q129 51 166 215l158 689h-164l16 77h164l64 281q63 291 340 291z" />
    <glyph glyph-name="space.tab" horiz-adv-x="614" 
 />
    <glyph glyph-name="idotaccent" horiz-adv-x="493" 
d="M414 1221q-33 1 -55 23q-21 22 -21 54t24 58q25 24 59 24q33 0 55 -22t22 -56q0 -32 -26 -56t-58 -25zM229 -8q-75 0 -109 48t-14 132l168 727q10 39 -9 66t-56 26h-82l16 64q78 23 127 22q164 0 123 -178l-168 -733q-8 -37 14 -65t56 -27h63l-14 -62q-41 -20 -115 -20z
" />
    <glyph glyph-name="Racute.alt" horiz-adv-x="1312" 
d="M633 741q211 1 323 97t113 274q0 244 -311 244h-232l-141 -615h248zM1056 -8q-138 0 -149 184l-14 211q-10 158 -76 216t-209 59h-241l-136 -588h189l-17 -74h-479l17 74h94q27 0 55 22t33 45l262 1147q6 26 -7 48t-38 22h-102l18 76h514q196 0 312 -79t116 -235
q0 -190 -116 -294t-289 -130v-4q98 -22 151 -88t70 -217l26 -225q4 -39 31 -64t62 -24h45l-15 -62q-41 -20 -107 -20zM725 1518l174 260h127l-12 -52l-209 -208h-80z" />
    <glyph glyph-name="Rcommaaccent.alt" horiz-adv-x="1312" 
d="M633 741q211 1 323 97t113 274q0 244 -311 244h-232l-141 -615h248zM1056 -8q-138 0 -149 184l-14 211q-10 158 -76 216t-209 59h-241l-136 -588h189l-17 -74h-479l17 74h94q27 0 55 22t33 45l262 1147q6 26 -7 48t-38 22h-102l18 76h514q196 0 312 -79t116 -235
q0 -190 -116 -294t-289 -130v-4q98 -22 151 -88t70 -217l26 -225q4 -39 31 -64t62 -24h45l-15 -62q-41 -20 -107 -20zM526 -164q0 32 24 54t56 22t56 -24q23 -24 22 -70q0 -94 -64 -151q-65 -56 -167 -68l14 59q45 6 77 31q62 48 9 94q-27 20 -27 53z" />
    <glyph glyph-name="Rcaron.alt" horiz-adv-x="1312" 
d="M633 741q211 1 323 97t113 274q0 244 -311 244h-232l-141 -615h248zM1056 -8q-138 0 -149 184l-14 211q-10 158 -76 216t-209 59h-241l-136 -588h189l-17 -74h-479l17 74h94q27 0 55 22t33 45l262 1147q6 26 -7 48t-38 22h-102l18 76h514q196 0 312 -79t116 -235
q0 -190 -116 -294t-289 -130v-4q98 -22 151 -88t70 -217l26 -225q4 -39 31 -64t62 -24h45l-15 -62q-41 -20 -107 -20zM1044 1778l-10 -41l-207 -219h-116l-133 219l10 41h51l137 -181l207 181h61z" />
    <glyph glyph-name="aacute.alt" horiz-adv-x="1157" 
d="M176 328q0 -128 60 -192t148 -64q89 0 172 42t131 86t122 124l135 591q-104 78 -229 78q-195 0 -340 -149q-199 -207 -199 -516zM371 -8q-145 0 -231 86q-85 86 -85 249t66 313q125 283 355 388q112 51 224 51q166 0 275 -104q47 94 90 94h33l-207 -903q-8 -37 12 -65
t55 -27h64l-14 -62q-47 -20 -112 -20q-66 0 -104 49t-16 141l8 35q-182 -225 -413 -225zM659 1174l175 260h127l-13 -52l-209 -208h-80z" />
    <glyph glyph-name="agrave.alt" horiz-adv-x="1157" 
d="M692 1174l-172 208l12 52h107l127 -260h-74zM176 328q0 -128 60 -192t148 -64q89 0 172 42t131 86t122 124l135 591q-104 78 -229 78q-195 0 -340 -149q-199 -207 -199 -516zM371 -8q-145 0 -231 86q-85 86 -85 249t66 313q125 283 355 388q112 51 224 51q166 0 275 -104
q47 94 90 94h33l-207 -903q-8 -37 12 -65t55 -27h64l-14 -62q-47 -20 -112 -20q-66 0 -104 49t-16 141l8 35q-182 -225 -413 -225z" />
    <glyph glyph-name="acircumflex.alt" horiz-adv-x="1157" 
d="M176 328q0 -128 60 -192t148 -64q89 0 172 42t131 86t122 124l135 591q-104 78 -229 78q-195 0 -340 -149q-199 -207 -199 -516zM371 -8q-145 0 -231 86q-85 86 -85 249t66 313q125 283 355 388q112 51 224 51q166 0 275 -104q47 94 90 94h33l-207 -903q-8 -37 12 -65
t55 -27h64l-14 -62q-47 -20 -112 -20q-66 0 -104 49t-16 141l8 35q-182 -225 -413 -225zM485 1174l11 40l206 220h117l133 -220l-10 -40h-51l-137 180l-207 -180h-62z" />
    <glyph glyph-name="adieresis.alt" horiz-adv-x="1157" 
d="M176 328q0 -128 60 -192t148 -64q89 0 172 42t131 86t122 124l135 591q-104 78 -229 78q-195 0 -340 -149q-199 -207 -199 -516zM371 -8q-145 0 -231 86q-85 86 -85 249t66 313q125 283 355 388q112 51 224 51q166 0 275 -104q47 94 90 94h33l-207 -903q-8 -37 12 -65
t55 -27h64l-14 -62q-47 -20 -112 -20q-66 0 -104 49t-16 141l8 35q-182 -225 -413 -225zM883 1223q-33 0 -54 20q-20 20 -20 53t25 58q26 24 56 24t52 -22t21 -52q1 -32 -23 -56t-57 -25zM584 1223q-33 0 -54 20q-20 20 -20 54t24 58q24 23 56 23t52 -22q22 -22 22 -52
q0 -32 -24 -56t-56 -25z" />
    <glyph glyph-name="atilde.alt" horiz-adv-x="1157" 
d="M874 1298q72 0 99 86h74l-15 -59q-61 -117 -164 -117q-49 0 -137 40t-121 40q-72 0 -96 -88h-76l15 60q59 119 161 118q50 0 138 -40t122 -40zM176 328q0 -128 60 -192t148 -64q89 0 172 42t131 86t122 124l135 591q-104 78 -229 78q-195 0 -340 -149
q-199 -207 -199 -516zM371 -8q-145 0 -231 86q-85 86 -85 249t66 313q125 283 355 388q112 51 224 51q166 0 275 -104q47 94 90 94h33l-207 -903q-8 -37 12 -65t55 -27h64l-14 -62q-47 -20 -112 -20q-66 0 -104 49t-16 141l8 35q-182 -225 -413 -225z" />
    <glyph glyph-name="aring.alt" horiz-adv-x="1157" 
d="M176 328q0 -128 60 -192t148 -64q89 0 172 42t131 86t122 124l135 591q-104 78 -229 78q-195 0 -340 -149q-199 -207 -199 -516zM371 -8q-145 0 -231 86q-85 86 -85 249t66 313q125 283 355 388q112 51 224 51q166 0 275 -104q47 94 90 94h33l-207 -903q-8 -37 12 -65
t55 -27h64l-14 -62q-47 -20 -112 -20q-66 0 -104 49t-16 141l8 35q-182 -225 -413 -225zM726 1239q50 0 85 35t35 88t-32 85t-82 32t-85 -36t-35 -90t32 -84t82 -30zM725 1176q-78 0 -131 47t-53 129t59 136t136 54t129 -48q53 -48 53 -130t-58 -135t-135 -53z" />
    <glyph glyph-name="aogonek.alt" horiz-adv-x="1157" 
d="M176 328q0 -128 60 -192t148 -64q89 0 172 42t131 86t122 124l135 591q-104 78 -229 78q-195 0 -340 -149q-199 -207 -199 -516zM371 -8q-145 0 -231 86q-85 86 -85 249t66 313q125 283 355 388q112 51 224 51q166 0 275 -104q47 94 90 94h33l-207 -903q-8 -37 12 -65
t55 -27h64l-14 -62q-94 -35 -150 -90t-55 -123q0 -63 69 -63q29 0 52 14h47l-15 -67q-48 -19 -112 -19t-105 34t-41 93q0 113 160 209q-119 33 -82 182l8 35q-182 -225 -413 -225z" />
    <glyph glyph-name="amacron.alt" horiz-adv-x="1157" 
d="M506 1247l20 82h480l-21 -82h-479zM176 328q0 -128 60 -192t148 -64q89 0 172 42t131 86t122 124l135 591q-104 78 -229 78q-195 0 -340 -149q-199 -207 -199 -516zM371 -8q-145 0 -231 86q-85 86 -85 249t66 313q125 283 355 388q112 51 224 51q166 0 275 -104
q47 94 90 94h33l-207 -903q-8 -37 12 -65t55 -27h64l-14 -62q-47 -20 -112 -20q-66 0 -104 49t-16 141l8 35q-182 -225 -413 -225z" />
    <glyph glyph-name="abreve.alt" horiz-adv-x="1157" 
d="M704 1178q-97 0 -156 51q-58 51 -71 133l10 45h78q5 -143 145 -143t175 143h86l-13 -51q-27 -80 -92 -129t-162 -49zM176 328q0 -128 60 -192t148 -64q89 0 172 42t131 86t122 124l135 591q-104 78 -229 78q-195 0 -340 -149q-199 -207 -199 -516zM371 -8q-145 0 -231 86
q-85 86 -85 249t66 313q125 283 355 388q112 51 224 51q166 0 275 -104q47 94 90 94h33l-207 -903q-8 -37 12 -65t55 -27h64l-14 -62q-47 -20 -112 -20q-66 0 -104 49t-16 141l8 35q-182 -225 -413 -225z" />
    <glyph glyph-name="gcircumflex.alt" horiz-adv-x="1155" 
d="M393 119q86 0 172 43q85 43 141 91t130 128l120 524q-115 90 -274 90q-193 0 -330 -141q-78 -80 -123 -208t-45 -265q0 -262 209 -262zM359 -346q-214 0 -357 67l23 95h71q66 -84 247 -84t278 68q96 69 131 216l61 267q-201 -244 -438 -244q-147 0 -231 84
q-83 84 -83 247t57 303q107 269 331 361q109 45 215 45q197 0 317 -112q53 102 94 102h37l-242 -1053q-43 -190 -170 -276t-341 -86zM498 1174l10 40l207 220h116l134 -220l-11 -40h-51l-137 180l-207 -180h-61z" />
    <glyph glyph-name="gbreve.alt" horiz-adv-x="1155" 
d="M720 1178q-97 0 -156 51q-58 51 -70 133l10 45h78q4 -143 144 -143t175 143h86l-12 -51q-27 -80 -93 -129t-162 -49zM393 119q86 0 172 43q85 43 141 91t130 128l120 524q-115 90 -274 90q-193 0 -330 -141q-78 -80 -123 -208t-45 -265q0 -262 209 -262zM359 -346
q-214 0 -357 67l23 95h71q66 -84 247 -84t278 68q96 69 131 216l61 267q-201 -244 -438 -244q-147 0 -231 84q-83 84 -83 247t57 303q107 269 331 361q109 45 215 45q197 0 317 -112q53 102 94 102h37l-242 -1053q-43 -190 -170 -276t-341 -86z" />
    <glyph glyph-name="gdotaccent.alt" horiz-adv-x="1155" 
d="M807 1302q1 -32 -23 -56t-58 -25q-34 1 -56 23t-23 54q0 32 25 58q24 24 58 24t56 -22q22 -24 21 -56zM393 119q86 0 172 43q85 43 141 91t130 128l120 524q-115 90 -274 90q-193 0 -330 -141q-78 -80 -123 -208t-45 -265q0 -262 209 -262zM359 -346q-214 0 -357 67
l23 95h71q66 -84 247 -84t278 68q96 69 131 216l61 267q-201 -244 -438 -244q-147 0 -231 84q-83 84 -83 247t57 303q107 269 331 361q109 45 215 45q197 0 317 -112q53 102 94 102h37l-242 -1053q-43 -190 -170 -276t-341 -86z" />
    <glyph glyph-name="gcommaaccent.alt" horiz-adv-x="1155" 
d="M393 119q86 0 172 43q85 43 141 91t130 128l120 524q-115 90 -274 90q-193 0 -330 -141q-78 -80 -123 -208t-45 -265q0 -262 209 -262zM359 -346q-214 0 -357 67l23 95h71q66 -84 247 -84t278 68q96 69 131 216l61 267q-201 -244 -438 -244q-147 0 -231 84
q-83 84 -83 247t57 303q107 269 331 361q109 45 215 45q197 0 317 -112q53 102 94 102h37l-242 -1053q-43 -190 -170 -276t-341 -86zM727 1384q0 -26 25 -46q24 -20 24 -52t-24 -54t-56 -22q-34 0 -56 24t-22 71q0 95 65 151t167 68l-14 -60q-45 -6 -77 -30t-32 -50z" />
    <glyph glyph-name="yacute.alt" horiz-adv-x="1081" 
d="M174 991h-59l14 64q59 23 121 23t87 -35q26 -34 36 -105l110 -793q195 261 315 477t181 447h113l-19 -76q-84 -227 -207 -440q-122 -213 -338 -489t-491 -396h-109l19 78q233 49 446 287l-135 874q-14 84 -84 84zM618 1174l175 260h127l-13 -52l-209 -208h-80z" />
    <glyph glyph-name="ydieresis.alt" horiz-adv-x="1081" 
d="M174 991h-59l14 64q59 23 121 23t87 -35q26 -34 36 -105l110 -793q195 261 315 477t181 447h113l-19 -76q-84 -227 -207 -440q-122 -213 -338 -489t-491 -396h-109l19 78q233 49 446 287l-135 874q-14 84 -84 84zM842 1223q-33 0 -54 20q-20 20 -20 53t25 58q25 24 55 24
t52 -22t22 -52q0 -32 -24 -56t-56 -25zM543 1223q-33 0 -54 20q-20 20 -20 54t24 58q23 23 55 23t54 -22t21 -52q1 -32 -23 -56t-57 -25z" />
    <glyph glyph-name="zcaron.alt" horiz-adv-x="950" 
d="M618 -8q-80 0 -238 34t-245 34q-88 0 -135 -60h-76l15 70l882 856v4q-100 2 -244 24t-206 21q-63 0 -85 -22t-38 -81h-78l43 191q47 16 129 16q82 -1 236 -33t236 -32t130 55h76l-14 -72l-877 -852v-4q102 1 260 -23t210 -24t77 25t43 88h78l-45 -195q-54 -20 -134 -20z
M901 1434l-10 -41l-207 -219h-117l-133 219l10 41h52l137 -181l207 181h61z" />
    <glyph glyph-name="zacute.alt" horiz-adv-x="950" 
d="M618 -8q-80 0 -238 34t-245 34q-88 0 -135 -60h-76l15 70l882 856v4q-100 2 -244 24t-206 21q-63 0 -85 -22t-38 -81h-78l43 191q47 16 129 16q82 -1 236 -33t236 -32t130 55h76l-14 -72l-877 -852v-4q102 1 260 -23t210 -24t77 25t43 88h78l-45 -195q-54 -20 -134 -20z
M575 1174l175 260h127l-13 -52l-209 -208h-80z" />
    <glyph glyph-name="zdotaccent.alt" horiz-adv-x="950" 
d="M707 1302q1 -32 -23 -56t-58 -25q-34 1 -57 23t-23 54t25 58q25 24 59 24t56 -22q22 -24 21 -56zM618 -8q-80 0 -238 34t-245 34q-88 0 -135 -60h-76l15 70l882 856v4q-100 2 -244 24t-206 21q-63 0 -85 -22t-38 -81h-78l43 191q47 16 129 16q82 -1 236 -33t236 -32
t130 55h76l-14 -72l-877 -852v-4q102 1 260 -23t210 -24t77 25t43 88h78l-45 -195q-54 -20 -134 -20z" />
    <glyph glyph-name="Scaron.titling" horiz-adv-x="1056" 
d="M958 422q0 -200 -143 -316t-365 -116t-362 78q-27 0 -41 -68h-86l92 401h90l-32 -217q127 -108 318 -108t303 86t112 250q0 90 -57 142q-23 22 -35 33q-15 14 -104 59t-120 56q-145 68 -221 144t-76 230t121 260q121 108 340 108q164 0 295 -66q23 0 43 56h84l-84 -361
h-88l25 184q-103 101 -277 101t-261 -78t-87 -200t76 -181q41 -33 77 -52t167 -81t190 -109q106 -88 106 -235zM977 1735l-10 -41l-207 -219h-117l-133 219l10 41h51l138 -181l206 181h62z" />
    <glyph glyph-name="Yacute.titling" horiz-adv-x="1304" 
d="M819 1473l174 260h127l-12 -52l-209 -208h-80zM420 74q26 0 54 22t32 45l106 475l-247 662q-29 80 -95 80h-37l19 76h428l-18 -76h-197l244 -660h2l432 537q49 59 39 91t-68 32h-90l16 76h428l-18 -76h-39q-59 0 -121 -76l-555 -684l-104 -457q-6 -27 6 -47t37 -20h119
l-17 -74h-481l16 74h109z" />
    <glyph glyph-name="Zcaron.titling" horiz-adv-x="1114" 
d="M84 80h747l82 272h91l-80 -352h-1000l21 88l1155 1262v4h-715l-78 -260h-88l78 340h967l-23 -91l-1157 -1259v-4zM1044 1733l-10 -41l-207 -219h-116l-133 219l10 41h51l137 -181l207 181h61z" />
    <glyph glyph-name="Adieresis.titling" horiz-adv-x="1427" 
d="M1032 1522q-33 0 -53 20t-21 53q0 33 25 58t55 25t53 -22q21 -22 21 -54t-23 -56q-24 -24 -57 -24zM733 1522q-33 0 -53 20t-20 54t23 58t55 24t54 -22t22 -54t-24 -56t-57 -24zM895 1337l-449 -786h545l-84 786h-12zM276 74h123l-16 -74h-465l16 74h54q78 0 123 76
l647 1134q43 74 -25 74h-123l19 76h387l141 -1278q3 -35 23 -59t51 -23h65l-16 -74h-471l16 74h217l-43 395h-600l-149 -262q-49 -88 -26 -117q13 -16 52 -16z" />
    <glyph glyph-name="Aring.titling" horiz-adv-x="1427" 
d="M886 1538q50 0 85 35t35 88t-32 85t-82 32t-85 -36t-35 -90t32 -84t82 -30zM885 1475q-78 0 -131 47q-54 47 -54 129t60 136t136 54q77 0 129 -48t52 -130t-57 -135t-135 -53zM895 1337l-449 -786h545l-84 786h-12zM276 74h123l-16 -74h-465l16 74h54q78 0 123 76
l647 1134q43 74 -25 74h-123l19 76h387l141 -1278q3 -35 23 -59t51 -23h65l-16 -74h-471l16 74h217l-43 395h-600l-149 -262q-49 -88 -26 -117q13 -16 52 -16z" />
    <glyph glyph-name="Eacute.titling" horiz-adv-x="1191" 
d="M35 74q27 0 55 22t33 45l262 1147q6 26 -6 48t-37 22h-104l18 76h1020l-80 -344h-86l41 264h-625l-133 -574h379l62 183h81l-102 -447h-84l29 184h-383l-144 -620h682l86 289h91l-84 -369h-1082l17 74h94zM754 1473l174 260h127l-13 -52l-208 -208h-80z" />
    <glyph glyph-name="Ntilde.titling" 
d="M1065 1597q72 0 98 86h74l-14 -59q-61 -117 -164 -117q-49 0 -137 40t-121 40q-72 0 -96 -88h-76l14 60q59 119 162 118q49 0 137 -40t123 -40zM35 74q27 0 55 22t33 47l262 1145q6 26 -6 48t-37 22h-104l18 76h311l502 -1244h2l268 1168h-206l18 76h471l-18 -76h-95
q-25 0 -53 -22t-31 -44l-297 -1292h-108l-522 1292h-11l-280 -1218h211l-17 -74h-477l17 74h94z" />
    <glyph glyph-name="Odieresis.titling" horiz-adv-x="1445" 
d="M664 76q258 0 443 231t185 584q0 223 -111 345q-112 122 -317 122q-260 0 -443 -232t-183 -585q0 -225 110 -345t316 -120zM657 -10q-256 0 -402 146t-146 411q0 383 227 640t534 257q254 0 402 -148t149 -407q-1 -260 -109 -468q-108 -207 -282 -319t-373 -112z
M1053 1524q-33 0 -54 20q-20 20 -20 53t25 58q26 25 56 25t52 -22t21 -54q1 -32 -23 -56t-57 -24zM754 1524q-33 0 -54 20q-20 20 -20 54t23 58q24 24 56 24q31 0 53 -22t22 -54t-24 -56t-56 -24z" />
    <glyph glyph-name="Udieresis.titling" 
d="M651 -10q-247 0 -382 128q-134 128 -74 382l180 786q6 28 -5 50t-36 22h-96l18 76h485l-18 -76h-205l-201 -871q-92 -408 349 -407q190 0 304 84t163 295l206 899h-202l18 76h459l-19 -76h-88q-27 0 -53 -24t-31 -48l-192 -835q-57 -249 -195 -355t-385 -106zM1112 1522
q-33 0 -53 20t-21 53q0 33 25 58t55 25t52 -22t22 -54t-24 -56t-56 -24zM813 1522q-33 0 -53 20t-20 54t23 58t55 24t54 -22t21 -54q1 -32 -23 -56t-57 -24z" />
    <glyph glyph-name="Agrave.titling" horiz-adv-x="1427" 
d="M881 1473l-172 208l12 52h106l127 -260h-73zM895 1337l-449 -786h545l-84 786h-12zM276 74h123l-16 -74h-465l16 74h54q78 0 123 76l647 1134q43 74 -25 74h-123l19 76h387l141 -1278q3 -35 23 -59t51 -23h65l-16 -74h-471l16 74h217l-43 395h-600l-149 -262
q-49 -88 -26 -117q13 -16 52 -16z" />
    <glyph glyph-name="Atilde.titling" horiz-adv-x="1427" 
d="M1024 1597q72 0 98 86h74l-14 -59q-61 -117 -164 -117q-49 0 -137 40t-121 40q-72 0 -96 -88h-76l14 60q59 119 162 118q49 0 137 -40t123 -40zM895 1337l-449 -786h545l-84 786h-12zM276 74h123l-16 -74h-465l16 74h54q78 0 123 76l647 1134q43 74 -25 74h-123l19 76
h387l141 -1278q3 -35 23 -59t51 -23h65l-16 -74h-471l16 74h217l-43 395h-600l-149 -262q-49 -88 -26 -117q13 -16 52 -16z" />
    <glyph glyph-name="Otilde.titling" horiz-adv-x="1445" 
d="M1042 1599q72 0 99 87h73l-14 -60q-61 -117 -164 -117q-49 0 -137 40t-121 40q-72 0 -96 -88h-76l15 60q59 119 161 118q50 0 138 -40t122 -40zM664 76q258 0 443 231t185 584q0 223 -111 345q-112 122 -317 122q-260 0 -443 -232t-183 -585q0 -225 110 -345t316 -120z
M657 -10q-256 0 -402 146t-146 411q0 383 227 640t534 257q254 0 402 -148t149 -407q-1 -260 -109 -468q-108 -207 -282 -319t-373 -112z" />
    <glyph glyph-name="Acircumflex.titling" horiz-adv-x="1427" 
d="M637 1473l10 40l207 220h117l133 -220l-10 -40h-52l-137 180l-207 -180h-61zM895 1337l-449 -786h545l-84 786h-12zM276 74h123l-16 -74h-465l16 74h54q78 0 123 76l647 1134q43 74 -25 74h-123l19 76h387l141 -1278q3 -35 23 -59t51 -23h65l-16 -74h-471l16 74h217
l-43 395h-600l-149 -262q-49 -88 -26 -117q13 -16 52 -16z" />
    <glyph glyph-name="Ecircumflex.titling" horiz-adv-x="1191" 
d="M35 74q27 0 55 22t33 45l262 1147q6 26 -6 48t-37 22h-104l18 76h1020l-80 -344h-86l41 264h-625l-133 -574h379l62 183h81l-102 -447h-84l29 184h-383l-144 -620h682l86 289h91l-84 -369h-1082l17 74h94zM588 1473l10 40l207 220h117l133 -220l-11 -40h-51l-137 180
l-207 -180h-61z" />
    <glyph glyph-name="Aacute.titling" horiz-adv-x="1427" 
d="M815 1473l174 260h127l-12 -52l-209 -208h-80zM895 1337l-449 -786h545l-84 786h-12zM276 74h123l-16 -74h-465l16 74h54q78 0 123 76l647 1134q43 74 -25 74h-123l19 76h387l141 -1278q3 -35 23 -59t51 -23h65l-16 -74h-471l16 74h217l-43 395h-600l-149 -262
q-49 -88 -26 -117q13 -16 52 -16z" />
    <glyph glyph-name="Edieresis.titling" horiz-adv-x="1191" 
d="M35 74q27 0 55 22t33 45l262 1147q6 26 -6 48t-37 22h-104l18 76h1020l-80 -344h-86l41 264h-625l-133 -574h379l62 183h81l-102 -447h-84l29 184h-383l-144 -620h682l86 289h91l-84 -369h-1082l17 74h94zM983 1522q-33 0 -53 20t-21 53q0 33 25 58q26 25 56 25t52 -22
t21 -54q1 -32 -23 -56t-57 -24zM684 1522q-33 0 -53 20q-21 20 -21 54t24 58t56 24t52 -22q22 -22 22 -54t-24 -56t-56 -24z" />
    <glyph glyph-name="Egrave.titling" horiz-adv-x="1191" 
d="M793 1473l-172 208l12 52h106l127 -260h-73zM35 74q27 0 55 22t33 45l262 1147q6 26 -6 48t-37 22h-104l18 76h1020l-80 -344h-86l41 264h-625l-133 -574h379l62 183h81l-102 -447h-84l29 184h-383l-144 -620h682l86 289h91l-84 -369h-1082l17 74h94z" />
    <glyph glyph-name="Iacute.titling" horiz-adv-x="585" 
d="M444 1473l174 260h127l-12 -52l-209 -208h-80zM55 74q27 0 54 22t32 45l265 1147q4 26 -8 48t-36 22h-124l18 76h492l-19 -76h-113q-28 0 -54 -23t-32 -47l-262 -1147q-6 -27 5 -47t36 -20h125l-16 -74h-494l17 74h114z" />
    <glyph glyph-name="Icircumflex.titling" horiz-adv-x="585" 
d="M279 1473l10 40l207 220h116l133 -220l-10 -40h-51l-137 180l-207 -180h-61zM55 74q27 0 54 22t32 45l265 1147q4 26 -8 48t-36 22h-124l18 76h492l-19 -76h-113q-28 0 -54 -23t-32 -47l-262 -1147q-6 -27 5 -47t36 -20h125l-16 -74h-494l17 74h114z" />
    <glyph glyph-name="Idieresis.titling" horiz-adv-x="585" 
d="M670 1522q-33 0 -54 20q-20 20 -20 53t25 58t55 25t52 -22t22 -54t-24 -56t-56 -24zM371 1522q-33 0 -54 20q-20 20 -20 54t24 58q23 24 55 24t54 -22t21 -54q1 -32 -23 -56t-57 -24zM55 74q27 0 54 22t32 45l265 1147q4 26 -8 48t-36 22h-124l18 76h492l-19 -76h-113
q-28 0 -54 -23t-32 -47l-262 -1147q-6 -27 5 -47t36 -20h125l-16 -74h-494l17 74h114z" />
    <glyph glyph-name="Igrave.titling" horiz-adv-x="585" 
d="M481 1473l-172 208l13 52h106l127 -260h-74zM55 74q27 0 54 22t32 45l265 1147q4 26 -8 48t-36 22h-124l18 76h492l-19 -76h-113q-28 0 -54 -23t-32 -47l-262 -1147q-6 -27 5 -47t36 -20h125l-16 -74h-494l17 74h114z" />
    <glyph glyph-name="Oacute.titling" horiz-adv-x="1445" 
d="M664 76q258 0 443 231t185 584q0 223 -111 345q-112 122 -317 122q-260 0 -443 -232t-183 -585q0 -225 110 -345t316 -120zM657 -10q-256 0 -402 146t-146 411q0 383 227 640t534 257q254 0 402 -148t149 -407q-1 -260 -109 -468q-108 -207 -282 -319t-373 -112z
M827 1475l174 260h127l-12 -52l-209 -208h-80z" />
    <glyph glyph-name="Ocircumflex.titling" horiz-adv-x="1445" 
d="M664 76q258 0 443 231t185 584q0 223 -111 345q-112 122 -317 122q-260 0 -443 -232t-183 -585q0 -225 110 -345t316 -120zM657 -10q-256 0 -402 146t-146 411q0 383 227 640t534 257q254 0 402 -148t149 -407q-1 -260 -109 -468q-108 -207 -282 -319t-373 -112z
M653 1475l11 41l206 219h117l133 -219l-10 -41h-51l-137 180l-207 -180h-62z" />
    <glyph glyph-name="Ograve.titling" horiz-adv-x="1445" 
d="M862 1475l-172 208l12 52h107l127 -260h-74zM664 76q258 0 443 231t185 584q0 223 -111 345q-112 122 -317 122q-260 0 -443 -232t-183 -585q0 -225 110 -345t316 -120zM657 -10q-256 0 -402 146t-146 411q0 383 227 640t534 257q254 0 402 -148t149 -407
q-1 -260 -109 -468q-108 -207 -282 -319t-373 -112z" />
    <glyph glyph-name="Uacute.titling" 
d="M651 -10q-247 0 -382 128q-134 128 -74 382l180 786q6 28 -5 50t-36 22h-96l18 76h485l-18 -76h-205l-201 -871q-92 -408 349 -407q190 0 304 84t163 295l206 899h-202l18 76h459l-19 -76h-88q-27 0 -53 -24t-31 -48l-192 -835q-57 -249 -195 -355t-385 -106zM891 1473
l174 260h127l-12 -52l-209 -208h-80z" />
    <glyph glyph-name="Ucircumflex.titling" 
d="M651 -10q-247 0 -382 128q-134 128 -74 382l180 786q6 28 -5 50t-36 22h-96l18 76h485l-18 -76h-205l-201 -871q-92 -408 349 -407q190 0 304 84t163 295l206 899h-202l18 76h459l-19 -76h-88q-27 0 -53 -24t-31 -48l-192 -835q-57 -249 -195 -355t-385 -106zM723 1473
l10 40l207 220h117l133 -220l-10 -40h-52l-137 180l-207 -180h-61z" />
    <glyph glyph-name="Ugrave.titling" 
d="M928 1473l-172 208l12 52h106l127 -260h-73zM651 -10q-247 0 -382 128q-134 128 -74 382l180 786q6 28 -5 50t-36 22h-96l18 76h485l-18 -76h-205l-201 -871q-92 -408 349 -407q190 0 304 84t163 295l206 899h-202l18 76h459l-19 -76h-88q-27 0 -53 -24t-31 -48
l-192 -835q-57 -249 -195 -355t-385 -106z" />
    <glyph glyph-name="Ydieresis.titling" horiz-adv-x="1304" 
d="M1044 1522q-33 0 -53 20t-20 53t24 58q25 25 56 25t53 -22t20 -54q0 -32 -23 -56q-24 -24 -57 -24zM745 1522q-33 0 -53 20t-20 54t23 58q24 24 56 24q31 0 53 -22t22 -54t-24 -56t-57 -24zM420 74q26 0 54 22t32 45l106 475l-247 662q-29 80 -95 80h-37l19 76h428
l-18 -76h-197l244 -660h2l432 537q49 59 39 91t-68 32h-90l16 76h428l-18 -76h-39q-59 0 -121 -76l-555 -684l-104 -457q-6 -27 6 -47t37 -20h119l-17 -74h-481l16 74h109z" />
    <glyph glyph-name="Amacron.titling" horiz-adv-x="1427" 
d="M639 1524l20 82h480l-21 -82h-479zM895 1337l-449 -786h545l-84 786h-12zM276 74h123l-16 -74h-465l16 74h54q78 0 123 76l647 1134q43 74 -25 74h-123l19 76h387l141 -1278q3 -35 23 -59t51 -23h65l-16 -74h-471l16 74h217l-43 395h-600l-149 -262q-49 -88 -26 -117
q13 -16 52 -16z" />
    <glyph glyph-name="Abreve.titling" horiz-adv-x="1427" 
d="M871 1477q-97 0 -155 51t-71 133l10 45h78q5 -143 145 -143t175 143h86l-13 -51q-26 -80 -92 -129t-163 -49zM895 1337l-449 -786h545l-84 786h-12zM276 74h123l-16 -74h-465l16 74h54q78 0 123 76l647 1134q43 74 -25 74h-123l19 76h387l141 -1278q3 -35 23 -59t51 -23
h65l-16 -74h-471l16 74h217l-43 395h-600l-149 -262q-49 -88 -26 -117q13 -16 52 -16z" />
    <glyph glyph-name="Cacute.titling" horiz-adv-x="1269" 
d="M618 -10q-242 0 -376 142t-136 393q0 251 103 460q101 209 291 334t428 125q180 0 311 -66q29 0 41 56h84l-94 -404h-92l28 234q-86 94 -278 94q-305 0 -500 -234t-195 -598q-1 -214 103 -332t276 -118t272 48q99 48 185 136h70l-23 -98q-201 -172 -498 -172zM850 1475
l174 260h127l-12 -52l-209 -208h-80z" />
    <glyph glyph-name="Ccircumflex.titling" horiz-adv-x="1269" 
d="M618 -10q-242 0 -376 142t-136 393q0 251 103 460q101 209 291 334t428 125q180 0 311 -66q29 0 41 56h84l-94 -404h-92l28 234q-86 94 -278 94q-305 0 -500 -234t-195 -598q-1 -214 103 -332t276 -118t272 48q99 48 185 136h70l-23 -98q-201 -172 -498 -172zM696 1475
l11 41l206 219h117l133 -219l-10 -41h-51l-137 180l-207 -180h-62z" />
    <glyph glyph-name="Cdotaccent.titling" horiz-adv-x="1269" 
d="M908 1501q-34 0 -56 23q-22 24 -23 56q0 32 25 56q24 24 58 25q34 0 56 -23q22 -24 22 -56t-24 -56t-58 -25zM618 -10q-242 0 -376 142t-136 393q0 251 103 460q101 209 291 334t428 125q180 0 311 -66q29 0 41 56h84l-94 -404h-92l28 234q-86 94 -278 94
q-305 0 -500 -234t-195 -598q-1 -214 103 -332t276 -118t272 48q99 48 185 136h70l-23 -98q-201 -172 -498 -172z" />
    <glyph glyph-name="Ccaron.titling" horiz-adv-x="1269" 
d="M618 -10q-242 0 -376 142t-136 393q0 251 103 460q101 209 291 334t428 125q180 0 311 -66q29 0 41 56h84l-94 -404h-92l28 234q-86 94 -278 94q-305 0 -500 -234t-195 -598q-1 -214 103 -332t276 -118t272 48q99 48 185 136h70l-23 -98q-201 -172 -498 -172zM1188 1735
l-10 -41l-207 -219h-117l-133 219l10 41h51l138 -181l206 181h62z" />
    <glyph glyph-name="Dcaron.titling" horiz-adv-x="1388" 
d="M516 80q362 0 545 222q182 222 182 601q0 451 -493 451h-224l-293 -1274h283zM35 74q27 0 55 22t33 45l262 1147q6 26 -6 48t-37 22h-104l18 76h508q296 0 452 -138t156 -401q0 -403 -220 -649t-642 -246h-586l17 74h94zM1081 1733l-10 -41l-207 -219h-116l-134 219
l11 41h51l137 -181l207 181h61z" />
    <glyph glyph-name="Emacron.titling" horiz-adv-x="1191" 
d="M584 1524l20 82h479l-20 -82h-479zM35 74q27 0 55 22t33 45l262 1147q6 26 -6 48t-37 22h-104l18 76h1020l-80 -344h-86l41 264h-625l-133 -574h379l62 183h81l-102 -447h-84l29 184h-383l-144 -620h682l86 289h91l-84 -369h-1082l17 74h94z" />
    <glyph glyph-name="Edotaccent.titling" horiz-adv-x="1191" 
d="M806 1497q-34 0 -56 23q-22 24 -23 56q0 32 25 56q24 24 58 25q34 0 56 -23q22 -24 21 -56q1 -32 -23 -56t-58 -25zM35 74q27 0 55 22t33 45l262 1147q6 26 -6 48t-37 22h-104l18 76h1020l-80 -344h-86l41 264h-625l-133 -574h379l62 183h81l-102 -447h-84l29 184h-383
l-144 -620h682l86 289h91l-84 -369h-1082l17 74h94z" />
    <glyph glyph-name="Ecaron.titling" horiz-adv-x="1191" 
d="M35 74q27 0 55 22t33 45l262 1147q6 26 -6 48t-37 22h-104l18 76h1020l-80 -344h-86l41 264h-625l-133 -574h379l62 183h81l-102 -447h-84l29 184h-383l-144 -620h682l86 289h91l-84 -369h-1082l17 74h94zM1077 1733l-10 -41l-207 -219h-117l-133 219l11 41h51l137 -181
l207 181h61z" />
    <glyph glyph-name="Ebreve.titling" horiz-adv-x="1191" 
d="M820 1479q-97 0 -155 51t-71 133l10 45h78q4 -143 144 -143t175 143h86l-12 -51q-27 -80 -93 -129t-162 -49zM35 74q27 0 55 22t33 45l262 1147q6 26 -6 48t-37 22h-104l18 76h1020l-80 -344h-86l41 264h-625l-133 -574h379l62 183h81l-102 -447h-84l29 184h-383
l-144 -620h682l86 289h91l-84 -369h-1082l17 74h94z" />
    <glyph glyph-name="Gcircumflex.titling" horiz-adv-x="1374" 
d="M618 -10q-246 0 -378 136t-134 388q0 252 104 463t294 339t402 128t339 -64q29 0 45 54h82l-92 -392h-90l29 220q-106 96 -289 96q-301 0 -497 -240t-195 -594q0 -449 397 -448q79 0 147 18t101 36t96 56l88 383h-207l17 76h477l-17 -76h-75q-25 1 -52 -23t-32 -48
l-115 -498h-78q8 74 -27 74q-143 -84 -340 -84zM702 1475l11 41l207 219h116l133 -219l-10 -41h-51l-137 180l-207 -180h-62z" />
    <glyph glyph-name="Gbreve.titling" horiz-adv-x="1374" 
d="M931 1479q-97 0 -156 51q-58 51 -70 133l10 45h78q4 -143 144 -143t175 143h86l-12 -51q-26 -80 -92 -129t-163 -49zM618 -10q-246 0 -378 136t-134 388q0 252 104 463t294 339t402 128t339 -64q29 0 45 54h82l-92 -392h-90l29 220q-106 96 -289 96q-301 0 -497 -240
t-195 -594q0 -449 397 -448q79 0 147 18t101 36t96 56l88 383h-207l17 76h477l-17 -76h-75q-25 1 -52 -23t-32 -48l-115 -498h-78q8 74 -27 74q-143 -84 -340 -84z" />
    <glyph glyph-name="Gdotaccent.titling" horiz-adv-x="1374" 
d="M925 1661q33 0 55 -23q22 -24 22 -56t-24 -56q-23 -24 -57 -25q-34 0 -57 23q-22 24 -22 56t24 56t59 25zM618 -10q-246 0 -378 136t-134 388q0 252 104 463t294 339t402 128t339 -64q29 0 45 54h82l-92 -392h-90l29 220q-106 96 -289 96q-301 0 -497 -240t-195 -594
q0 -449 397 -448q79 0 147 18t101 36t96 56l88 383h-207l17 76h477l-17 -76h-75q-25 1 -52 -23t-32 -48l-115 -498h-78q8 74 -27 74q-143 -84 -340 -84z" />
    <glyph glyph-name="Hcircumflex.titling" horiz-adv-x="1468" 
d="M35 74q27 0 55 22t33 47l262 1143q6 28 -6 50t-37 22h-104l18 76h500l-19 -76h-209l-133 -576h793l133 576h-211l18 76h502l-18 -76h-96q-27 0 -54 -24t-30 -48l-265 -1143q-6 -27 5 -49t36 -20h107l-17 -74h-501l16 74h211l145 626h-792l-146 -626h211l-16 -74h-502
l17 74h94zM719 1473l10 40l207 220h117l133 -220l-10 -40h-52l-137 180l-207 -180h-61z" />
    <glyph glyph-name="Imacron.titling" horiz-adv-x="585" 
d="M281 1524l20 82h479l-20 -82h-479zM55 74q27 0 54 22t32 45l265 1147q4 26 -8 48t-36 22h-124l18 76h492l-19 -76h-113q-28 0 -54 -23t-32 -47l-262 -1147q-6 -27 5 -47t36 -20h125l-16 -74h-494l17 74h114z" />
    <glyph glyph-name="Idotaccent.titling" horiz-adv-x="585" 
d="M515 1497q-35 0 -57 23q-22 24 -22 56t25 56t59 25q34 0 54 -23q22 -24 22 -56t-24 -56t-57 -25zM55 74q27 0 54 22t32 45l265 1147q4 26 -8 48t-36 22h-124l18 76h492l-19 -76h-113q-28 0 -54 -23t-32 -47l-262 -1147q-6 -27 5 -47t36 -20h125l-16 -74h-494l17 74h114z
" />
    <glyph glyph-name="Jcircumflex.titling" horiz-adv-x="917" 
d="M236 -10q-177 0 -310 80l23 96h78q49 -90 193 -90t214 60q68 60 98 190l224 962q4 26 -7 48t-36 22h-113l16 76h463l-18 -76h-94q-27 0 -54 -23t-32 -47l-226 -973q-39 -165 -141 -245t-278 -80zM629 1473l10 40l207 220h117l133 -220l-11 -40h-51l-137 180l-207 -180
h-61z" />
    <glyph glyph-name="Lacute.titling" horiz-adv-x="1148" 
d="M35 74q27 0 55 22t33 45l262 1147q6 26 -6 48t-37 22h-104l18 76h516l-18 -76h-226l-295 -1278h644l96 317h90l-90 -397h-1049l17 74h94zM465 1473l174 260h127l-12 -52l-209 -208h-80z" />
    <glyph glyph-name="Nacute.titling" 
d="M35 74q27 0 55 22t33 47l262 1145q6 26 -6 48t-37 22h-104l18 76h311l502 -1244h2l268 1168h-206l18 76h471l-18 -76h-95q-25 0 -53 -22t-31 -44l-297 -1292h-108l-522 1292h-11l-280 -1218h211l-17 -74h-477l17 74h94zM864 1473l174 260h127l-12 -52l-209 -208h-80z" />
    <glyph glyph-name="Ncaron.titling" 
d="M35 74q27 0 55 22t33 47l262 1145q6 26 -6 48t-37 22h-104l18 76h311l502 -1244h2l268 1168h-206l18 76h471l-18 -76h-95q-25 0 -53 -22t-31 -44l-297 -1292h-108l-522 1292h-11l-280 -1218h211l-17 -74h-477l17 74h94zM1200 1733l-10 -41l-207 -219h-117l-133 219l10 41
h52l137 -181l207 181h61z" />
    <glyph glyph-name="Omacron.titling" horiz-adv-x="1445" 
d="M664 76q258 0 443 231t185 584q0 223 -111 345q-112 122 -317 122q-260 0 -443 -232t-183 -585q0 -225 110 -345t316 -120zM657 -10q-256 0 -402 146t-146 411q0 383 227 640t534 257q254 0 402 -148t149 -407q-1 -260 -109 -468q-108 -207 -282 -319t-373 -112z
M662 1528l20 82h479l-20 -82h-479z" />
    <glyph glyph-name="Ohungarumlaut.titling" horiz-adv-x="1445" 
d="M664 76q258 0 443 231t185 584q0 223 -111 345q-112 122 -317 122q-260 0 -443 -232t-183 -585q0 -225 110 -345t316 -120zM657 -10q-256 0 -402 146t-146 411q0 383 227 640t534 257q254 0 402 -148t149 -407q-1 -260 -109 -468q-108 -207 -282 -319t-373 -112z
M956 1475l136 260h106l-12 -52l-154 -208h-76zM709 1475l135 260h106l-12 -52l-154 -208h-75z" />
    <glyph glyph-name="Racute.titling" horiz-adv-x="1312" 
d="M635 741q209 1 321 97t113 274q0 244 -311 244h-232l-141 -615h250zM35 74q27 0 55 22t33 45l262 1147q6 26 -6 48t-37 22h-104l18 76h514q196 0 312 -79t116 -235q0 -188 -115 -292t-282 -132v-4q100 -31 147 -92t68 -213l33 -254q6 -59 47 -59h73l-16 -74h-223l-37 385
q-13 162 -73 219t-208 58h-245l-136 -588h189l-17 -74h-479l17 74h94zM694 1473l174 260h127l-12 -52l-209 -208h-80z" />
    <glyph glyph-name="Rcaron.titling" horiz-adv-x="1312" 
d="M635 741q209 1 321 97t113 274q0 244 -311 244h-232l-141 -615h250zM35 74q27 0 55 22t33 45l262 1147q6 26 -6 48t-37 22h-104l18 76h514q196 0 312 -79t116 -235q0 -188 -115 -292t-282 -132v-4q100 -31 147 -92t68 -213l33 -254q6 -59 47 -59h73l-16 -74h-223l-37 385
q-13 162 -73 219t-208 58h-245l-136 -588h189l-17 -74h-479l17 74h94zM1018 1733l-10 -41l-207 -219h-117l-133 219l10 41h51l138 -181l206 181h62z" />
    <glyph glyph-name="Sacute.titling" horiz-adv-x="1056" 
d="M958 422q0 -200 -143 -316t-365 -116t-362 78q-27 0 -41 -68h-86l92 401h90l-32 -217q127 -108 318 -108t303 86t112 250q0 90 -57 142q-23 22 -35 33q-15 14 -104 59t-120 56q-145 68 -221 144t-76 230t121 260q121 108 340 108q164 0 295 -66q23 0 43 56h84l-84 -361
h-88l25 184q-103 101 -277 101t-261 -78t-87 -200t76 -181q41 -33 77 -52t167 -81t190 -109q106 -88 106 -235zM659 1475l175 260h127l-13 -52l-209 -208h-80z" />
    <glyph glyph-name="Scircumflex.titling" horiz-adv-x="1056" 
d="M958 422q0 -200 -143 -316t-365 -116t-362 78q-27 0 -41 -68h-86l92 401h90l-32 -217q127 -108 318 -108t303 86t112 250q0 90 -57 142q-23 22 -35 33q-15 14 -104 59t-120 56q-145 68 -221 144t-76 230t121 260q121 108 340 108q164 0 295 -66q23 0 43 56h84l-84 -361
h-88l25 184q-103 101 -277 101t-261 -78t-87 -200t76 -181q41 -33 77 -52t167 -81t190 -109q106 -88 106 -235zM487 1475l11 41l207 219h116l133 -219l-10 -41h-51l-137 180l-207 -180h-62z" />
    <glyph glyph-name="Tcaron.titling" horiz-adv-x="1280" 
d="M406 74q26 0 52 22t31 45l279 1213h-403l-91 -312h-90l90 392h1149l-92 -392h-88l53 312h-403l-279 -1213q-6 -27 6 -47t39 -20h115l-16 -74h-479l16 74h111zM1122 1733l-10 -41l-207 -219h-117l-133 219l11 41h51l137 -181l207 181h61z" />
    <glyph glyph-name="Umacron.titling" 
d="M723 1524l20 82h480l-21 -82h-479zM651 -10q-247 0 -382 128q-134 128 -74 382l180 786q6 28 -5 50t-36 22h-96l18 76h485l-18 -76h-205l-201 -871q-92 -408 349 -407q190 0 304 84t163 295l206 899h-202l18 76h459l-19 -76h-88q-27 0 -53 -24t-31 -48l-192 -835
q-57 -249 -195 -355t-385 -106z" />
    <glyph glyph-name="Ubreve.titling" 
d="M949 1477q-97 0 -155 51t-71 133l10 45h78q4 -143 144 -143t175 143h87l-13 -51q-26 -80 -92 -129t-163 -49zM651 -10q-247 0 -382 128q-134 128 -74 382l180 786q6 28 -5 50t-36 22h-96l18 76h485l-18 -76h-205l-201 -871q-92 -408 349 -407q190 0 304 84t163 295
l206 899h-202l18 76h459l-19 -76h-88q-27 0 -53 -24t-31 -48l-192 -835q-57 -249 -195 -355t-385 -106z" />
    <glyph glyph-name="Uring.titling" 
d="M651 -10q-247 0 -382 128q-134 128 -74 382l180 786q6 28 -5 50t-36 22h-96l18 76h485l-18 -76h-205l-201 -871q-92 -408 349 -407q190 0 304 84t163 295l206 899h-202l18 76h459l-19 -76h-88q-27 0 -53 -24t-31 -48l-192 -835q-57 -249 -195 -355t-385 -106zM842 1584
q0 -54 32 -84t81 -30q50 0 85 35t35 88t-32 85q-31 32 -81 32t-85 -36t-35 -90zM1147 1595q1 -82 -57 -135t-136 -53t-131 47t-53 129t59 136q59 55 137 55t129 -48q52 -48 52 -131z" />
    <glyph glyph-name="Uhungarumlaut.titling" 
d="M1024 1473l135 260h107l-13 -52l-153 -208h-76zM776 1473l135 260h107l-12 -52l-154 -208h-76zM651 -10q-247 0 -382 128q-134 128 -74 382l180 786q6 28 -5 50t-36 22h-96l18 76h485l-18 -76h-205l-201 -871q-92 -408 349 -407q190 0 304 84t163 295l206 899h-202l18 76
h459l-19 -76h-88q-27 0 -53 -24t-31 -48l-192 -835q-57 -249 -195 -355t-385 -106z" />
    <glyph glyph-name="Zacute.titling" horiz-adv-x="1114" 
d="M84 80h747l82 272h91l-80 -352h-1000l21 88l1155 1262v4h-715l-78 -260h-88l78 340h967l-23 -91l-1157 -1259v-4zM719 1473l174 260h127l-12 -52l-209 -208h-80z" />
    </font>
</defs>
</svg>
