<svg xmlns="http://www.w3.org/2000/svg" xmlns:xlink="http://www.w3.org/1999/xlink" width="83px" height="40px"
  viewBox="0 0 83 40" class="attachment-full size-full replaced-svg">
  <title>LOGO</title>
  <g id="Symbols" stroke="none" stroke-width="1" fill="none" fill-rule="evenodd">
    <g id="Menu/white/home" transform="translate(-33.000000, -43.000000)">
      <g id="LOGO" transform="translate(33.000000, 43.000000)">
        <path class="cc"
          d="M41.2415193,40 C36.9345483,40 34.4715182,36.3853659 31.957604,36.3853659 C30.0094719,36.3853659 28.6780061,38.1426829 28.6780061,40 L28.0613399,40 L28.0613399,0.620731707 L23.8815789,0.620731707 L23.8815789,0 L34.367327,0 L34.367327,18.4268293 C34.8810136,17.6536585 36.8872988,13.3682927 41.7552059,13.3682927 C48.4173813,13.3682927 53.1907895,20.0256098 53.1907895,26.3768293 C53.1907895,33.0841463 48.2659407,40 41.2415193,40 M34.0062926,27.25 C34.0062926,29.5768293 34.2122518,32.6719512 34.9852047,34.8402439 C35.706062,36.952439 37.3464668,39.1195122 39.8034393,39.1195122 C41.9114926,39.1195122 43.6488193,37.1097561 44.4714447,35.304878 C45.4976063,32.9280488 45.9591973,28.8536585 45.9591973,26.2219512 C45.9591973,22.4536585 45.2904356,14.55 40.1632622,14.55 C36.1010191,14.55 34.0062926,20.1121951 34.0062926,27.25"
          id="Fill-1" fill="#FFFFFF"></path>
        <path class="cc"
          d="M23.0053704,30.7079204 C22.6933128,32.1446666 22.1683219,33.4350004 21.07918,34.7872321 C19.685323,36.5489424 17.3038958,37.9059355 14.9689712,37.9059355 C8.90648894,37.9059355 7.30581739,31.2126266 7.30581739,26.4762446 C7.30581739,22.3897908 7.61175614,15.9988295 12.2767102,14.1859343 C13.0537947,13.8812061 13.8284316,13.7276516 14.6593612,13.7276516 C16.1621324,13.7276516 17.8203204,14.2323578 18.9584126,15.2370088 C19.2166249,15.4417481 19.4772847,15.7405247 19.4772847,16.0952474 C19.4772847,16.953486 17.7640277,17.0546653 16.9869432,17.5069964 C15.9014726,18.1128819 15.2810288,19.3210819 15.2810288,20.5269012 C15.2810288,22.7457039 17.3038958,24.6609687 19.5764088,24.6609687 C21.9602836,24.6609687 23.8815789,22.5945301 23.8815789,20.3304943 C23.8815789,15.3917536 17.7150775,12.972973 13.4686476,12.972973 C6.32191836,12.972973 0,18.813995 0,25.8215549 C0,33.0731355 6.12978883,38.9189189 13.5335066,38.9189189 C16.4900987,38.9189189 19.3867268,37.7583327 21.3067984,35.5419107 C22.6357964,33.9908914 23.2807152,32.5470031 23.6356042,30.7079204 L23.0053704,30.7079204 Z"
          id="Fill-4" fill="#FFFFFF"></path>
        <path class="cc"
          d="M82.497187,31.9602818 L82.497187,30.698433 L81.8874852,30.698433 C81.8874852,32.3606417 82.1405235,36.5965929 79.5426637,36.5965929 C77.9099642,36.5965929 77.6002935,34.8342942 77.6002935,33.573637 L77.6002935,21.1648618 C77.6002935,18.7912992 76.9905917,16.4368014 75.0024337,14.9199615 C73.4323913,13.7593943 71.2140889,13.1803022 69.1319452,12.972973 L69.1319452,13.6199832 C71.0152731,14.0882614 71.1755307,15.4859466 71.1755307,19.2476619 C71.1755307,22.9295436 68.8295042,23.9387842 65.6653205,24.6441803 C62.5553594,25.3519595 55.3618421,26.1336147 55.3618421,32.0579886 C55.3618421,36.3451764 59.9056869,38.9177274 63.8301904,38.9177274 C66.8401412,38.9177274 69.5187323,37.778608 71.1755307,35.2906569 C71.4309788,35.8435349 72.2672102,38.9189189 76.529098,38.9189189 C77.7027138,38.9189189 78.8257218,38.6603531 79.794497,38.0574301 C81.9874956,36.7514941 82.5453848,34.3302696 82.497187,31.9602818 L82.497187,31.9602818 Z M71.1743257,31.5551556 C71.1743257,33.573637 70.8176622,35.5885438 68.9283096,36.699066 C68.3186078,37.0505725 67.6040759,37.2507525 66.9425615,37.2507525 C63.8783882,37.2507525 62.5553594,33.973997 62.5553594,31.4038291 C62.5553594,27.7743755 64.250716,26.2420455 67.4522529,24.9492165 C70.5079915,23.7135818 71.1743257,22.3861979 71.1743257,22.3861979 L71.1743257,31.5551556 Z"
          id="Fill-6" fill="#FFFFFF"></path>
        <path
          d="M64.1708603,20.8423202 C64.1708603,17.3743399 61.1388779,16.9330316 61.1388779,15.9957396 C61.1388779,14.1849436 63.9032315,13.6850545 65.1315789,13.6811491 L65.1315789,12.972973 C62.3260517,13.2177103 59.4690574,14.2357135 57.7191769,16.822379 C56.9849134,17.8677199 56.4473684,19.1903431 56.4473684,20.5676415 C56.4473684,23.0488617 58.1595063,24.8648649 60.3073988,24.8648649 C62.3123271,24.8648649 64.1708603,23.211586 64.1708603,20.8423202 Z"
          id="Fill-8" fill="#FFFFFF"></path>
      </g>
    </g>
  </g>
</svg>