<svg class="" xmlns="http://www.w3.org/2000/svg" fill="#ffffff" viewBox="0 0 144.014 32.053">
          <defs></defs>
          <g transform="translate(-22 -19.183)">
             <g transform="translate(22.075 19.183)">
                <path class="a" d="M-77.865-21.5a9.5,9.5,0,0,0-7.081,4.249L-94.935-4.43A9.145,9.145,0,0,0-96.5.042h9.989l8.647-11.181c.075-.075.075-10.361,0-10.361" transform="translate(96.5 21.5)"></path>
             </g>
             <g transform="translate(22 41.694)">
                <path class="a" d="M-96.3,11.011A8.2,8.2,0,0,1-96.6,8.7h17.07v2.311Z" transform="translate(96.6 -8.7)"></path>
                <path class="a" d="M-95.8,12.975a8.7,8.7,0,0,0,1.267,2.311h15.206V12.9H-95.8Z" transform="translate(96.396 -9.769)"></path>
                <path class="a" d="M-78.614,17.4H-93a9.274,9.274,0,0,0,6.783,2.833h7.678V17.4Z" transform="translate(95.683 -10.915)"></path>
             </g>
             <g transform="translate(42.424 19.183)">
                <path class="b" d="M-69.2-21.5v10.361L-60.479.042h9.989A10.3,10.3,0,0,0-52.055-4.43l-9.989-12.9A9.787,9.787,0,0,0-69.2-21.5" transform="translate(69.2 21.5)"></path>
             </g>
             <g transform="translate(44.064 41.694)">
                <path class="b" d="M-50.128,11.011a8.2,8.2,0,0,0,.3-2.311H-66.9v2.311Z" transform="translate(66.975 -8.7)"></path>
                <path class="b" d="M-50.426,12.975a8.7,8.7,0,0,1-1.267,2.311H-66.9V12.9h16.474Z" transform="translate(66.975 -9.769)"></path>
                <path class="b" d="M-66.925,17.4h14.386a9.274,9.274,0,0,1-6.783,2.833H-67V17.4Z" transform="translate(67 -10.915)"></path>
             </g>
             <path class="c" d="M-37.6,18.018V8.7H-30v2.162h-4.547V12.2h3.8v2.162h-3.8v1.491h4.7v2.162Z" transform="translate(103.579 32.994)"></path>
             <path class="c" d="M-19.013,13.769l-.149-2.087V8.7h2.907v9.318h-2.833l-3.354-5.069.149,2.087v2.982H-25.2V8.7h2.833Z" transform="translate(100.423 32.994)"></path>
             <path class="c" d="M-1.908,17.941H-3.846l-.149-.895a3.479,3.479,0,0,1-2.833,1.118c-2.385,0-4.472-1.565-4.472-4.771A4.618,4.618,0,0,1-6.455,8.4a4.108,4.108,0,0,1,4.4,3.429H-4.964a1.532,1.532,0,0,0-1.565-1.193c-1.193,0-1.789,1.118-1.789,2.758,0,1.342.447,2.534,1.938,2.534a1.724,1.724,0,0,0,1.565-1.044H-6.157V12.872h4.174v5.069Z" transform="translate(96.884 33.071)"></path>
             <path class="c" d="M3.8,18.018V8.7H6.856v9.318Z" transform="translate(93.04 32.994)"></path>
             <path class="c" d="M16.587,13.769l-.149-2.087V8.7h2.907v9.318H16.512l-3.354-5.069.149,2.087v2.982H10.4V8.7h2.833Z" transform="translate(91.359 32.994)"></path>
             <path class="c" d="M25,18.018V8.7h7.6v2.162H28.056V12.2h3.8v2.162h-3.8v1.491h4.7v2.162Z" transform="translate(87.642 32.994)"></path>
             <path class="c" d="M37.5,18.018V8.7h7.6v2.162H40.556V12.2h3.8v2.162h-3.8v1.491h4.7v2.162Z" transform="translate(84.46 32.994)"></path>
             <path class="c" d="M52.756,14.712v3.205H49.7V8.6h4.4c3.131,0,4.1.82,4.1,2.683a2.1,2.1,0,0,1-1.565,2.236c.969.373,1.565.6,1.565,2.46,0,1.193-.075,1.64.3,1.64v.3H55.44a6.573,6.573,0,0,1-.149-1.64c0-1.193-.224-1.64-1.64-1.64h-.895Zm0-2.013h1.193c.969,0,1.416-.224,1.416-.894s-.522-.969-1.193-.969H52.756Z" transform="translate(81.354 33.02)"></path>
             <path class="c" d="M63.5,18.018V8.7h3.056v9.318Z" transform="translate(77.841 32.994)"></path>
             <path class="c" d="M76.287,13.769l-.149-2.087V8.7h2.907v9.318H76.212l-3.354-5.069.149,2.087v2.982H70.1V8.7h2.833Z" transform="translate(76.161 32.994)"></path>
             <path class="c" d="M93.392,17.941H91.454l-.149-.895a3.479,3.479,0,0,1-2.833,1.118C86.087,18.165,84,16.6,84,13.394A4.618,4.618,0,0,1,88.845,8.4a4.108,4.108,0,0,1,4.4,3.429H90.336a1.532,1.532,0,0,0-1.565-1.193c-1.193,0-1.789,1.118-1.789,2.758,0,1.342.447,2.534,1.938,2.534a1.724,1.724,0,0,0,1.565-1.044H89.218V12.872h4.174Z" transform="translate(72.622 33.071)"></path>
          </g>
       </svg>