<svg version="1.1" id="hibo-logo" xmlns="http://www.w3.org/2000/svg" xmlns:xlink="http://www.w3.org/1999/xlink" x="0px" y="0px" fill="#ffffff" viewBox="0 0 334.5 121.9" style="enable-background:new 0 0 334.5 121.9;" xml:space="preserve">
			<g>
				<g>
					<path d="M287.3,17.2h-5.1c-2.9,0-5.3,2.3-5.3,5.2v17.5c0,2.9,2.4,5.2,5.3,5.2h5.1c2.9,0,5.3-2.3,5.3-5.2V22.4
						C292.6,19.5,290.2,17.2,287.3,17.2z" class="st0"></path>
					<path d="M108.6,17h-5.1c-2.9,0-5.3,2.3-5.3,5.2v17.5c0,2.9,2.4,5.2,5.3,5.2h5.1c2.9,0,5.3-2.3,5.3-5.2V22.2
						C113.9,19.4,111.5,17,108.6,17z" class="st0"></path>
				</g>
				<g>
					<path d="M334,69.3c0-0.3-0.1-0.5-0.1-0.7c-0.1-1-0.2-1.9-0.3-2.9c-0.1-0.4-0.2-0.8-0.2-1.3c-0.1-0.8-0.3-1.5-0.4-2.3
						c-0.1-0.5-0.3-1-0.4-1.6c-0.2-0.6-0.3-1.3-0.5-1.9c-0.2-0.6-0.4-1.2-0.6-1.7c-0.2-0.5-0.4-1.1-0.6-1.6c-0.2-0.6-0.5-1.2-0.8-1.9
						c-0.2-0.5-0.4-0.9-0.6-1.4c-0.3-0.7-0.7-1.3-1-1.9c-0.2-0.4-0.4-0.8-0.6-1.2c-0.4-0.7-0.8-1.3-1.2-1.9c-0.2-0.3-0.4-0.7-0.6-1
						c-0.4-0.7-0.9-1.3-1.4-1.9c-0.2-0.3-0.4-0.6-0.7-0.9c-0.5-0.7-1.1-1.3-1.6-1.9c-0.2-0.2-0.4-0.5-0.6-0.8c-0.6-0.6-1.2-1.2-1.8-1.8
						c-0.2-0.2-0.4-0.5-0.7-0.7c-0.6-0.6-1.3-1.2-1.9-1.7c-0.2-0.2-0.4-0.4-0.7-0.6c-0.7-0.6-1.4-1.1-2.1-1.6c-0.2-0.2-0.5-0.4-0.7-0.5
						c-0.7-0.5-1.4-1-2.2-1.5c-0.3-0.2-0.5-0.3-0.7-0.5c-0.7-0.4-1.5-0.9-2.3-1.3c-0.3-0.2-0.5-0.3-0.8-0.5c-0.8-0.4-1.5-0.7-2.3-1.1
						c-0.3-0.1-0.5-0.2-0.7-0.4c-0.1,0-0.1-0.1-0.2-0.1c-0.1,0-0.2-0.1-0.3-0.2c-0.5-0.2-1-0.4-1.6-0.4c0,0-0.1,0-0.2,0
						c-0.1,0-0.2,0-0.3,0c-0.1,0-0.2,0-0.3,0c0,0,0,0,0,0c-0.4,0.1-0.9,0.3-1.3,0.6c-0.8,0.6-1,1.6-1.1,2.4c0,1.4,0,8.6,0,8.8
						c0,3.3,2.8,4.7,2.8,4.7v0c0.4,0.2,0.8,0.5,1.2,0.8c0.1,0.1,0.3,0.2,0.4,0.3c0.5,0.3,0.9,0.6,1.4,1c0.1,0.1,0.2,0.2,0.4,0.3
						c0.5,0.3,0.9,0.7,1.3,1.1c0.1,0.1,0.2,0.2,0.3,0.3c0.4,0.4,0.9,0.8,1.3,1.2c0.1,0.1,0.2,0.2,0.3,0.3c0.4,0.4,0.8,0.8,1.2,1.3
						c0.1,0.1,0.2,0.2,0.3,0.3c0.4,0.4,0.8,0.9,1.1,1.3c0.1,0.1,0.2,0.2,0.3,0.3c0.4,0.5,0.7,0.9,1,1.4c0.1,0.1,0.2,0.2,0.2,0.3
						c0.3,0.5,0.6,1,0.9,1.5c0.1,0.1,0.1,0.2,0.2,0.3c0.3,0.5,0.6,1,0.8,1.5c0.1,0.1,0.1,0.2,0.2,0.4c0.3,0.5,0.5,1,0.7,1.6
						c0.1,0.1,0.1,0.3,0.2,0.4c0.2,0.5,0.4,1.1,0.6,1.6c0.1,0.1,0.1,0.3,0.2,0.4c0.2,0.5,0.4,1.1,0.5,1.6c0,0.1,0.1,0.3,0.1,0.4
						c0.2,0.6,0.3,1.1,0.4,1.7c0,0.1,0.1,0.3,0.1,0.4c0.1,0.6,0.2,1.3,0.3,1.9c0,0.1,0,0.2,0,0.3c0.2,1.5,0.3,3,0.3,4.5
						c0,18.4-15.1,33.3-33.8,33.3h0c-18.7,0-33.8-14.9-33.8-33.3c0-1.5,0.1-3,0.3-4.5c0-0.1,0-0.2,0-0.3c0.1-0.6,0.2-1.3,0.3-1.9
						c0-0.1,0.1-0.3,0.1-0.4c0.1-0.6,0.3-1.1,0.4-1.7c0-0.1,0.1-0.3,0.1-0.4c0.2-0.6,0.3-1.1,0.5-1.7c0-0.1,0.1-0.3,0.2-0.4
						c0.2-0.5,0.4-1.1,0.6-1.6c0.1-0.1,0.1-0.3,0.2-0.4c0.2-0.5,0.5-1.1,0.7-1.6c0.1-0.1,0.1-0.3,0.2-0.4c0.3-0.5,0.5-1,0.8-1.5
						c0.1-0.1,0.2-0.2,0.2-0.3c0.3-0.5,0.6-1,0.9-1.5c0.1-0.1,0.2-0.2,0.2-0.3c0.3-0.5,0.7-0.9,1-1.4c0.1-0.1,0.2-0.2,0.2-0.3
						c0.4-0.5,0.7-0.9,1.1-1.3c0.1-0.1,0.2-0.2,0.3-0.3c0.4-0.4,0.8-0.9,1.2-1.3c0.1-0.1,0.2-0.2,0.3-0.3c0.4-0.4,0.8-0.8,1.3-1.2
						c0.1-0.1,0.2-0.2,0.3-0.3c0.4-0.4,0.9-0.7,1.3-1.1c0.1-0.1,0.3-0.2,0.4-0.3c0.5-0.3,0.9-0.7,1.4-1c0.1-0.1,0.3-0.2,0.4-0.3
						c0.5-0.3,1-0.6,1.5-0.9c0.6-0.4,2.6-1.8,2.6-4.6v-8.5c0-0.1,0-0.2,0-0.3c-0.1-0.8-0.3-1.8-1.1-2.4c-0.5-0.4-0.9-0.5-1.3-0.6
						c0,0,0,0,0,0c-0.1,0-0.2,0-0.3,0c-0.1,0-0.2,0-0.3,0c0,0-0.1,0-0.2,0c-0.5,0-1,0.2-1.6,0.4c-0.1,0.1-0.2,0.1-0.3,0.2
						c-0.1,0-0.1,0-0.2,0.1c-0.2,0.1-0.5,0.2-0.7,0.4c-0.8,0.4-1.6,0.7-2.3,1.1c-0.3,0.1-0.5,0.3-0.8,0.5c-0.8,0.4-1.5,0.8-2.3,1.3
						c-0.3,0.2-0.5,0.3-0.7,0.5c-0.7,0.5-1.5,0.9-2.2,1.5c-0.2,0.2-0.5,0.4-0.7,0.5c-0.7,0.5-1.4,1-2.1,1.6c-0.2,0.2-0.5,0.4-0.7,0.6
						c-0.7,0.6-1.3,1.1-1.9,1.7c-0.2,0.2-0.4,0.4-0.7,0.7c-0.6,0.6-1.2,1.2-1.8,1.8c-0.2,0.2-0.4,0.5-0.7,0.8c-0.5,0.6-1.1,1.2-1.6,1.9
						c-0.2,0.3-0.4,0.6-0.7,0.9c-0.5,0.6-1,1.3-1.4,1.9c-0.2,0.3-0.4,0.7-0.6,1c-0.4,0.6-0.8,1.3-1.2,1.9c-0.2,0.4-0.4,0.8-0.6,1.2
						c-0.3,0.6-0.7,1.3-1,1.9c-0.2,0.4-0.4,0.9-0.6,1.4c-0.3,0.6-0.6,1.2-0.8,1.9c-0.2,0.5-0.4,1.1-0.6,1.6c-0.2,0.6-0.4,1.2-0.6,1.7
						c-0.2,0.6-0.3,1.3-0.5,1.9c-0.1,0.5-0.3,1-0.4,1.6c-0.2,0.7-0.3,1.5-0.4,2.3c-0.1,0.4-0.2,0.8-0.2,1.3c-0.1,1-0.2,1.9-0.3,2.9
						c0,0.2-0.1,0.5-0.1,0.7c-0.1,1.2-0.1,2.5-0.1,3.7c0,26.9,22.1,48.6,49.3,48.6c27.2,0,49.3-21.8,49.3-48.6
						C334.1,71.8,334.1,70.5,334,69.3z" class="st1"></path>
					<path d="M108.6,60.6h-5.1c-2.9,0-5.3,2.3-5.3,5.2v48.6c0,2.9,2.4,5.2,5.3,5.2h5.1c2.9,0,5.3-2.3,5.3-5.2V65.8
						C113.9,63,111.5,60.6,108.6,60.6z" class="st1"></path>
					<path d="M197.2,27.9c-5.7-2.2-11.8-3.5-18.3-3.5c-6.5,0-12.7,1.2-18.4,3.5c-4.7,1.9-9,4.4-12.8,7.5
						c0,0-0.1,0.1-0.2,0.1c0,0,0,0-0.1,0c-2.1,1.6-2.2-0.5-2.2-0.5V5.4c0-2.9-2.4-5.2-5.3-5.2H135c-2.9,0-5.3,2.3-5.3,5.2v67.5
						c0,0,0,0.1,0,0.1c0,0.1,0,0.1,0,0.2c0.1,14.9,6.9,28.2,17.6,37.1c0.1,0,0.1,0.1,0.2,0.1c0,0,0,0,0.1,0c8.5,7,19.5,11.1,31.4,11.1
						c27.2,0,49.3-21.7,49.3-48.6C228.2,52.6,215.4,35.1,197.2,27.9z M179,106.3C179,106.3,179,106.3,179,106.3
						c-17.6,0-32-13.1-33.7-30c-0.1-1.1-0.2-2.2-0.2-3.3c0-1.1,0.1-2.2,0.2-3.3c1.1-11,7.6-20.3,16.8-25.6c5-2.8,10.7-4.4,16.8-4.4
						c18.7,0,33.8,14.9,33.8,33.3C212.7,91.4,197.6,106.3,179,106.3z" class="st1"></path>
					<path d="M81.7,62.9C81.7,62.9,81.7,62.9,81.7,62.9c0-22.5-18.2-40.7-40.6-40.7c-9.4,0-18.1,3.2-25,8.6V5.4
						c0-2.9-2.4-5.2-5.3-5.2H5.7c-2.9,0-5.3,2.3-5.3,5.2v56.7c0,0.3,0,0.5,0,0.8c0,0,0,0,0,0h0v51.5c0,2.9,2.4,5.2,5.3,5.2h5.1
						c2.9,0,5.3-2.3,5.3-5.2V61.5c0.7-13.2,11.6-23.7,25-23.7c13.8,0,25.1,11.2,25.1,25.1c0,0,0,0,0,0h0c0,0.1,0,0.2,0,0.4v51.1
						c0,2.9,2.4,5.2,5.3,5.2h5.1c2.9,0,5.3-2.3,5.3-5.2V63.2C81.7,63.1,81.6,63,81.7,62.9L81.7,62.9z" class="st1"></path>
				</g>
			</g>
		</svg>