<?xml version="1.0" encoding="utf-8"?>
<svg version="1.1" id="Layer_1" xmlns="http://www.w3.org/2000/svg" xmlns:xlink="http://www.w3.org/1999/xlink" x="0px" y="0px"
	 viewBox="0 0 535.8 152.9" style="enable-background:new 0 0 535.8 152.9;" xml:space="preserve">
<style type="text/css">
	.st0{fill:#ffffff;}
</style>
<g id="XMLID_26_">
	<path id="XMLID_54_" class="st0" d="M52.6,118.8c0-5.6,0.5-11.3-0.1-16.8c-0.6-5.5-0.7-11-0.7-16.5c0-2.4,0.2-4.9-0.3-7.3
		c-0.4-1.7-1.3-2.3-3-2.1c-0.5,0.1-1,0.2-1.5,0.4c-3.7,2.2-8.1,2.3-12,4.1c-2.1,1-4.6,0.9-6.6,2.3c-0.4,0.3-0.7,0.6-1.1,0.8
		c-0.8,0.5-1.1,2-2.3,1.7c-1.4-0.4-3-1.1-3.8-2.4c-1.3-2-2.5-4.1-1.1-6.7c0.7-1.3,1.5-2.2,2.8-2.7c1.3-0.5,2.8-0.9,4.1-1.5
		c1.1-0.5,2.2-0.9,3.5-0.4c0.7,0.3,1.5-0.1,2.2-0.6c1.7-1,3.5-1.8,5.6-1.3c1.1,0.3,1.9-0.3,2.6-0.9c0.9-0.8,2-1.1,3.1-0.9
		c2.1,0.3,3.6-0.9,5.2-2c1-0.7,1-2.4,0.7-3.2c-0.8-2-0.7-4-0.8-5.9c0-3.5-0.7-6.9-0.9-10.4c-0.3-4.5-0.9-9-0.8-13.6
		c0-1.1,0-2.2,0.5-3.3c0.9-2.1,0.2-4.3,0.4-6.4c0.2-1.5,0.8-2.4,2.2-2.7c0.8-0.2,1.6-0.5,2.4-0.7c0.6-0.2,1.2-0.4,1.8,0.1
		c1.3,1,2.5,2,3.8,3c0.3,0.2,0.5,0.7,0.3,1.1c-0.7,1.4-0.4,3.1-1.1,4.5c-1.3,2.6-0.6,5.4-0.2,8.1c0.1,0.8-0.1,1.6,0,2.3
		c0.5,3.7-1,7.3-0.8,10.9c0.1,4.2-0.1,8.4,0.7,12.6c0.4,2.4,1.8,3.4,3.9,2.2c1.7-1,3.4-0.5,5.1-0.7c3.9-0.6,7.9-0.6,11.6-2
		c0.7-0.3,1.3-0.1,1.9,0c1.9,0.5,3.6,0,5.2-1.1c0.8-0.5,1-1.3,0.7-2.3c-0.7-2.9-0.6-5.9-0.3-8.8c0.1-0.7-0.1-1.5-0.1-2.2
		c0-0.4-0.3-0.8-0.2-1.1c0.5-3.5-0.4-7-0.4-10.5c0-2.8,0.4-5.7-0.3-8.5c-0.1-0.4,0.1-0.8-0.1-1.2c-1.3-2.6-0.2-5,0.7-7.4
		c1-2.9,5.7-2.9,6.9-0.9c1.8,3.1,3,6.3,1.7,10c-0.3,0.8-0.6,1.6-0.4,2.5c0.6,2.7-0.1,5.5,0.5,8.3c0.2,1-0.8,2.1-0.5,3.2
		c0.4,1.8,0.2,3.5,0.1,5.3c-0.2,2.9-0.4,5.8-0.7,8.7c-0.3,3.2,2,5,5.6,4.4c3.6-0.7,7.3-0.5,10.9-0.5c2.2,0,4.5,0,6.3-2.2
		c1.5-1.8,3.8-3.2,6.5-3.3c0.5,0,1-0.1,1.5-0.3c3.4-1.8,7.2-2.3,10.9-3.1c1-0.2,1.8-0.9,2.8-1c3.6-0.4,6.8-2.1,10.3-2.8
		c1.8-0.3,3.3-1.5,5-2.4c0.6-0.3,0.9-1,1.1-1.6c0.5-1.2,1.4-1.4,2.5-1.2c3.7,0.9,6.4,2.7,7.3,6.7c0.3,1.4,0.1,2.7-0.7,3.6
		c-2.2,2.7-1.9,6.1-2.8,9.2c-0.5,1.8-0.9,3.6-1,5.4c-0.1,2.7-1.1,5.2-1,7.9c0,1.4,0.8,2.4,2.1,2.8c1.3,0.4,1.7-0.7,2.4-1.5
		c1.3-1.6,3-3.1,3.3-5.3c0-0.2,0.2-0.4,0.3-0.6c3.4-2.5,4-6.4,4.9-10.1c0.5-2,0-3.9-0.2-5.8c-0.1-1.4,0.4-2.3,1.8-2.6
		c1.1-0.2,1.9-1.3,3.1-0.8c1.3,0.5,2.8,0.4,3.7,2c1.4,2.4,2.3,4.9,1.6,7.7c-0.1,0.2-0.2,0.4-0.2,0.7c0.3,3.7-1.1,7.2-1.3,10.9
		c-0.1,1.9-0.2,3.9-0.7,5.8c-0.4,1.7-0.1,3.4,0.4,5c0.2,0.8,0.9,1.1,1.7,1c3.4-0.7,5.8-2.8,7.6-5.7c0.5-0.8,1.1-1.5,2-2
		c0.4-0.2,1-0.5,1.2-0.9c0.8-1.9,2.6-2.5,3.8-3.7c1.9-1.8,4.1-3.4,5.1-6.1c0.7-2,1.7-4,2.1-6c0.3-1.7,0.4-3.7,0.5-5.5
		c0-2,0.6-3.8,0.9-5.7c0.6-3.2,2.6-5.8,3.1-8.9c0.1-0.6,0.7-1,1-1.5c1.4-2,2.9-4,4.1-6.1c1.7-3.1,8.4-4.8,11.1-0.8
		c0,0,0.1,0.1,0.1,0.1c0.8,1.7,1.4,3.4,2.3,5.1c0.4,0.7,0.1,1.6-0.5,2.2c-1.2,1.2-1.3,2.7-1.3,4.2c0,0.6,0,1.3-0.4,1.8
		c-2.6,3.2-3.8,7.2-5.5,10.9c-0.5,1.2-1.1,2.4-2.1,3.2c-3.3,2.6-4.2,8.4-2,12.4c1,1.9,1.9,3.9,2.9,5.9c1.3,2.7,3.4,3,6.4,0.8
		c2.4-1.7,5-3.1,7.4-4.8c2.3-1.6,4.9-2.8,6.7-5.1c1.4-1.7,3.9-2,5.5-3.5c1.6-1.6,3.8-2.6,4.4-5.1c0.1-0.5,0.7-0.9,1.1-1.3
		c0.9-0.8,1.4-1.7,1.7-2.8c1.2-5,3.8-3.8,6.5-1.7c1.5,1.1,2.6,2.8,3.7,4.3c1.3,1.9,3,3.4,5,4.4c1.5,0.8,2,2,2.4,3.7
		c0.7,3.4,0.6,6.9,1.4,10.2c0.5,2.1,2,3.5,3.6,4.7c1,0.8,1.9,0.2,2.6-0.7c2.3-3.1,4.8-6.2,7-9.4c1.3-2,2.7-4,4.4-5.7
		c1.6-1.6,3.1-3.3,4.5-5.2c2-2.7,4.1-5.4,5.5-8.5c0.4-1,1-1.9,1.5-2.8c1.4-2.7,1.5-5.7,2.1-8.6c0.3-1.5-0.7-2.8-2.2-2.8
		c-3.3-0.1-6.6,0-9.9,0c-2.7,0-5.3,1.2-8.1,0.3c-2.2-0.7-4.4,0.1-6.5,1.1c-0.7,0.3-1.3,0.6-2.2,0.2c-1.5-0.5-3,0-4.4,0.7
		c-1.7,0.8-3.3,1.4-5.3,1.3c-1.7-0.1-2.9-0.7-3.6-2.2c-0.4-0.7-0.9-1.3-1.2-2c-1.3-2.7-0.8-4.4,2-5.3c2.6-0.8,5-2.4,7.8-2.6
		c0.6,0,1.2-0.1,1.8-0.1c1.9,0.1,3.8,0.1,5.7-0.4c1.1-0.3,2.2-0.5,3.4,0.1c0.7,0.3,1.6,0.4,2.3,0.1c3-1.1,6,0.2,9,0.1
		c1.5-0.1,2.9-0.1,4.3-0.4c1.8-0.3,3.5,0.6,5.3,0.2c1.5-0.4,2.9-1.1,2.4-2.7c-0.9-3.2-0.4-6.6-2.3-9.7c-1.8-2.8,1-7.8,4.3-8.2
		c3.2-0.4,3.6-0.2,5.1,2.9c1.5,3,1.8,6.1,1.5,9.4c-0.1,1.6-0.1,3.2-0.2,4.8c-0.1,1.4,0.8,2.4,2.2,2.5c3,0.1,6.1,0.5,9-0.9
		c1.5-0.7,3.2-0.3,4.8-0.5c2.7-0.4,5.3-0.5,8-0.1c1,0.1,2.1-0.6,3.1-1.2c1.6-1.2,3.3-1.2,5,0c1.2,0.9,2.4,1.3,4,1.1
		c2-0.2,3.9,0.3,5.1,2.4c1,1.7,2.2,3.1,1.8,5.4c-0.5,3.4-2.2,4.7-6.1,4.9c-3.4,0.2-6.9,0-9.8-2.3c-1.6-1.2-3.3-0.5-5-0.3
		c-1.6,0.2-3.1,0.2-4.6-0.2c-1-0.3-2-0.4-3-0.2c-2.9,0.5-5.8-0.1-8.7-0.1c-1.3,0-2.5,0.2-3.8,0.5c-1.6,0.4-2.4,1.4-2.3,3.2
		c0.2,3,0.4,6.1,0.5,9.2c0.1,1.7,0.3,3.4,0,5.2c-0.3,1.8,0.7,3.5,0.6,5.3c-0.2,3.2,0.6,6.5,0.4,9.7c-0.2,2.9,0.2,5.7,0,8.5
		c-0.1,1.2,0,2.8,0.5,4c0.8,2,0.1,3.9,0.3,5.9c0.3,3.4,0,7,1.4,10.2c1.3,3,1.9,6.2,3.1,9.2c0.5,1.3-0.3,2.7-1.4,3.6
		c-1,0.9-2.2,1.7-3.8,1.1c-2.7-0.9-5-2.5-7.4-4c-1.3-0.8-1-2.2-0.7-3.3c0.3-1.1,0.4-2.1,0.1-3.2c-0.7-2.5-0.1-4.9,0.1-7.4
		c0.2-2.6,0.8-5.2,0.5-7.8c-0.4-4.5,0.2-9.1,0-13.6c-0.2-3-0.4-6-0.1-9c0-0.5-0.2-1-0.4-1.4c-0.3-0.7-0.6-1.5-1.4-1.6
		c-0.7-0.1-1.2,0.6-1.6,1.2c-1.4,2.3-3.5,4.1-5.2,6.2c-2.7,3.2-4.8,6.8-7.3,10.2c-1.1,1.4-2.5,2.6-3.4,4.1c-2,3.1-2,6.4-1.4,9.9
		c0.4,2-0.1,3.7-1.7,5.5c-3.1,3.4-6.4,2-9.7,1c-1.7-0.5-2-2.2-2.6-3.7c-1.5-3.5-2.4-7.2-5.1-10.1c-1.7-1.9-3.2-1.5-3.7,1
		c-0.5,2.3-2,3.9-3.3,5.5c-2.9,3.5-5.4,7.3-9.3,9.8c-0.8,0.5-1.5,1-2.5,0.6c-3.7-1.5-6.6-6.6-6.2-10.5c0.2-1.5-0.1-3.1-0.1-4.7
		c0-1-0.1-2,0.1-3c0.2-1,0.2-2.2-1-2.8c-1-0.5-2.3-0.8-3.1,0.2c-2.3,2.7-6,3.3-8.3,6.1c-1.2,1.5-1.2,2.3-0.1,3.9
		c1.8,2.8,2.9,5.9,3.8,9c0.5,1.7,0.5,3.4,0.6,5.2c0.1,0.8-0.2,1.1-0.9,1.6c-2.6,2-5.6,3.2-8.7,4.1c-1.7,0.5-3.6,0.3-5.2-0.6
		c-0.4-0.2-0.8-0.6-1.2-0.6c-3,0.6-4.7-1.7-6.8-3c-2.2-1.4-3.4-3.6-3.4-6.3c0-0.8,0.1-1.4,0.6-2c0.3-0.4,0.6-0.8,0.7-1.3
		c1.1-3.8,3.7-6.6,6.3-9.4c0.9-0.9,1-1.8,0.6-3.1c-1-3.3-2.9-6.2-4.6-9.1c-0.8-1.4-2-1.3-3.1,0c-1.4,1.6-2.9,3.1-4,5.1
		c-0.8,1.4-2.8,1.8-3.7,3.5c-1.9,3.3-4.8,5.7-7.2,8.6c-1,1.2-2.5,1.9-3.7,2.8c-1.3,1-2.2,2.1-2.9,3.6c-1.3,2.7-2.4,3.2-5.2,2.4
		c-1.6-0.4-3.1-1.2-4.8-1.3c-1,0-1.4-0.9-1.3-1.8c0.2-2.5-0.8-5-0.2-7.5c0.2-0.9,0-1.9-0.5-2.8c-0.3-0.4-0.4-0.8-0.2-1.3
		c0.4-0.8,0.2-1.5-0.5-1.9c-0.7-0.4-1.3,0-1.8,0.5c-1.8,1.7-3.4,3.5-4.4,5.7c-0.7,1.4-1.2,2.9-2.7,3.7c-0.6,0.3-0.9,1.2-1.2,1.9
		c-1.3,2.4-2.8,3.7-4.6,3.4c-2.3-0.3-5.5-2.4-6-4.3c-1-3.6-0.7-7.1-0.1-10.7c0.5-2.8,0.9-5.7,1.3-8.6c0.7-4,0.2-8,1.5-11.9
		c0.6-1.6,0.1-3.6,0-5.4c-0.1-1.1-1.2-1.5-2.8-1.1c-2.4,0.8-4.8,1.8-7.4,2c-1.6,0.1-3.1,0.6-4.4,1.4c-1.7,1-3.6,0.2-5.4,0.7
		c-2.3,0.6-2.6,1.2-1.5,3.2c1.1,2,2.8,3.5,4.3,5.1c0.7,0.7,1.2,1.5,1.2,2.4c-0.1,3,1.2,5.9,0.3,8.9c-0.1,0.4-0.1,0.9,0,1.3
		c0.3,2.8-0.1,5.4-1.9,7.8c-0.7,0.9-1.2,1.9-1.3,3.1c0,0.6-0.6,1-1,1.3c-1.3,0.8-2.3,1.8-3.1,2.9c-1.7,2.4-4.7,3-6.7,5
		c-0.2,0.2-0.7,0.3-1.1,0.4c-6.2,1.4-9.7-1.9-12-7.2c-1.7-3.9-1.5-7.9-0.9-11.9c0.5-3.2,0.6-6.4,2.1-9.4c0.6-1.1,0.9-2.4,1.3-3.6
		c0.9-2.6-1.4-3.7-3.3-3.3c-2.1,0.4-4.2,0.9-6.4,0.3c-2-0.5-4.1,0.1-6.1,0.5c-1.5,0.3-2.2,1.6-2.1,3.1c0.2,4.9,0.2,9.8,1.1,14.7
		c0.5,2.5,0.6,5.1-0.2,7.7c-0.5,1.5-0.3,3.3,0,4.9c0.5,2.6,0.3,5.2,0.7,7.8c0.4,2.6-0.1,5.3,0.3,7.8c0.5,3.5,0.6,7.1,0.6,10.6
		c0,3.5,1,6.8,1.1,10.3c0,1.6,1.1,3,1.2,4.7c0.1,1.5,0.4,3,0.7,4.5c0.3,1.6-0.8,2.6-2,2.9c-2.4,0.5-4.9,0.6-7.1-0.7
		c-1.7-0.9-1.5-3-1.7-4.7c-0.6-4.4-0.4-8.9-1.9-13.2c-0.1-0.4-0.1-0.9,0-1.3c0.9-2.1,0.6-4.4,0.8-6.6c0.2-2.7-0.4-5.5,0.5-8.2
		c0.3-0.9,0.2-2-0.2-3c-0.2-0.5-0.2-1.1-0.2-1.7c0.7-4,0.4-8,0.4-12c0-1.6-0.3-3.2-0.4-4.8c-0.1-2.1,0.2-4.3,0.1-6.4
		c-0.3-4-0.3-8-0.4-12c0-1.6-1.3-2.4-2.9-2.1c-2,0.4-3.7,1.3-5.9,1.2c-3.4-0.1-6.8,0.9-10.1,1.4c-1.4,0.2-2.8,0.1-4.2-0.2
		c-2.3-0.5-5.6,1.6-5.3,3.5c0.2,1.3,0.1,2.6,0.3,3.8c0.7,4,0.7,8,0.8,12.1c0,2.3,1.1,4.4,1.2,6.8c0.1,4.1,1.4,8,1.8,12.1
		c0.3,3,1.3,5.8,2.5,8.6c0.3,0.6,0.4,1.1,0,1.6c-1.1,1.4-1.5,3-1.7,4.7c-0.3,1.6-1.3,2.4-2.9,2c-1.7-0.3-3.5-0.8-5.2-1.3
		c-1.7-0.5-2.3-1.6-2.3-3.3c0-1.1,0-2.3,0-3.4C52.8,118.8,52.7,118.8,52.6,118.8 M129.1,75.6c-0.2-2-1.6-3.9-2.9-5.9
		c-0.3-0.5-1-0.9-1.8-0.5c-3,1.2-5.2,3.3-6.1,6.3c-1.1,3.6-2.1,7.2-2.6,11c-0.1,1.2-0.2,2.5,1.2,3.2c1.9,1,3.6,1.2,4.6-0.1
		c1.1-1.4,2.4-2.4,3.8-3.4c0.3-0.2,0.7-0.7,0.8-1.1c0.4-2.1,1.7-3.8,2.3-5.9C128.7,78.2,129.1,77.2,129.1,75.6 M257.6,68.9
		c0-1.4,0-2.4-1.1-2.8c-1-0.4-1.7,0.2-2.3,0.9c-3.4,4.2-6.6,8.6-7.5,14.1c-0.2,1.2,0.4,2.2,1.5,2.5c1,0.4,1.8-0.2,2.2-1.2
		c0.3-0.7,0.5-1.3,1.2-1.8C255.7,77.6,256.5,73,257.6,68.9 M215.6,98.2c2.7,0.1,4.1-0.6,4.1-1.9c0-1.5-1.4-3.3-2.6-3.3
		c-1.3,0-2.8,1.7-2.8,3.3C214.3,97.2,214.7,98.1,215.6,98.2"/>
	<path id="XMLID_51_" class="st0" d="M405,56.6c0.9,2.2-0.5,4-1.3,5.9c-1.2,3-1.3,6.2-1.6,9.3c-0.2,1.7-0.2,3.3-0.3,5
		c-0.1,1.5,0.3,3.1,0.7,4.6c0.2,0.7,0.8,1.3,1.7,0.7c1.9-1.2,3.6-2.6,5.2-4.1c0.6-0.5,1.2-1.1,1.8-1.7c2.5-2.4,4.6-5.2,7.4-7.2
		c1-0.7,1.4-2.3,1.6-3.6c0.1-1.2,0.5-2.3,1.1-3.3c2-3.7,4.7-3.3,7.8-1.1c1.6,1.2,2.4,3.1,3.7,4.5c0.3,0.3,0.5,0.7,0.3,1.1
		c-1.3,3.1-1.1,6.4-0.6,9.6c0.3,2.3,0.4,4.6,1.1,6.8c0.3,0.9,0.7,1.8,1.6,2c1.1,0.3,1.8-0.4,2.4-1.2c1.5-2,2.9-4.1,4.5-6.1
		c3-3.9,6.4-7.5,10.2-10.7c2.8-2.4,5.8-4.4,9-6.2c2.2-1.3,4.4-2.4,6.9-3.1c0.4-0.1,0.8-0.2,1-0.5c1.8-2.3,4.9-2.2,6.9-4.1
		c0.4-0.3,0.9-0.2,1.3-0.1c1.1,0.1,2-0.1,3-0.7c1.3-0.8,2.6-0.2,3.5,0.7c2.2,2.2,3.9,4.8,5,7.6c0.9,2.1-0.8,3.5-2,4.7
		c-0.9,0.9-2.1,1.4-3.3,1.9c-3.9,1.6-7.9,3.1-11,6.2c-0.8,0.7-1.4,1.6-1.5,2.6c-0.3,1.6-0.8,3.1-1.6,4.5c-0.8,1.6,1.3,4.2,3.4,4.5
		c0.2,0,0.5,0.1,0.7,0c2.9-1.4,6,0.1,9-0.6c4.1-1,8.2-1.9,12.1-3.7c3.2-1.5,6.4-2.9,9.5-4.6c1.2-0.6,2.3-1.6,3.7-1.7
		c0.7-0.1,1.3-0.7,1.8-1.2c0.8-1,1.7-0.8,2.4,0.1c0.6,0.9,1.4,1.6,2.3,2.2c1.1,0.7,1.7,1.7,1.7,3.1c0,2.1,0.1,4.3-0.9,6.2
		c-0.6,1.2-1.5,2.1-3,1.8c-0.8-0.2-1.5,0.1-2.2,0.5c-0.7,0.4-1.6,0.6-2.4,0.7c-1.7,0.1-3.2,0.7-4.6,1.6c-2.1,1.3-4.6,1.4-6.9,2.4
		c-4.4,1.9-9.2,2.3-13.7,4.2c-3.8,1.6-8.2,1.6-12.4-0.2c-3.9-1.7-6.8-4.4-9.4-7.6c-1.3-1.6-1.3-3.4-1.2-5.1c0.1-1.6-0.3-3.1-0.8-4.5
		c-0.5-1.6-1.3-1.8-2.6-0.7c-0.3,0.3-0.5,0.6-0.9,0.8c-2.4,0.8-3.8,2.5-5,4.6c-1.3,2.2-2.9,4.3-4.6,6c-3.1,3.2-4.4,7-5.7,10.9
		c-0.7,2.2-2.4,3.6-4.2,4.9c-1.1,0.8-2.5,0.6-3.5-0.5c-1.6-1.5-2.7-3.5-4.5-4.9c-1.1-0.9-1.4-2.5-1.1-4.2c0.3-1.6,0.2-3.5-0.3-5
		c-0.8-2.5-0.7-5.2-1.5-7.7c-0.4-1.2-0.7-2.5-2.1-2.8c-1.2-0.3-1.9,0.7-2.7,1.4c-1.5,1.2-2.8,2.6-4.2,3.9c-1.6,1.6-3,3.4-4.4,5.2
		c-1.4,1.8-2.9,3.7-4.8,5.1c-1.2,0.8-2.1,1.9-3.1,2.9c-0.9,0.9-1.8,0.8-2.9,0.5c-2.2-0.6-3.5-2.4-5.3-3.5c-1.4-0.9-2-2-1.9-3.6
		c0.2-2.4-0.5-4.7,0.2-7.1c0.3-1-0.3-2-0.5-3c-0.3-1.7,0.5-3.3,0.4-5c-0.1-1.1-0.3-2.2-0.7-3.3c-0.2-0.6-0.5-1.4-1.5-1.4
		c-0.9-0.1-1.4,0.4-1.8,1c-1.3,1.6-2.4,3.2-3.2,5c-1.1,2.5-2.8,4.7-4.4,6.9c-1.3,1.9-1.2,4.2-2.6,6c-1.2,1.5-2.4,2.9-3.9,3.9
		c-3.5,2.4-7.8,0.2-8.6-4.2c-0.4-2-0.9-3.9-1.3-5.9c-0.3-1.6,0.2-3.2,0.4-4.8c0.3-2.4-0.4-4.8,0.2-7.2c0.5-1.8,0.3-3.8,0-5.6
		c-0.2-1,0.5-1.8,0.7-2.7c0.5-2.1-0.4-3.4-2.6-3.5c-1.6-0.1-3.1,0.2-4.6,0.7c-2,0.5-4.2,0.7-6.3,0.9c-1.8,0.1-3.3,1-4.9,1.6
		c-0.9,0.3-1.3,1.3-1.2,2.3c0.3,2.6,0.2,5.3,0.6,7.9c0.1,0.7,0,1.5-0.3,2.1c-0.7,1.5-0.8,3.3-1.1,4.9c-0.3,1.5-1,2.6-1.9,3.8
		c-1.6,2.3-3.4,4.4-5.9,5.8c-1.6,0.9-3,2.1-4.4,3.2c-1.9,1.4-4.2,1.7-6.5,1.1c-1.8-0.5-3.7-0.4-5.6-1.1c-2.1-0.8-3.7-2.3-5.4-3.6
		c-0.4-0.3-0.8-0.9-0.7-1.5c0.6-1.7-0.3-3.1-0.5-4.7c-0.3-1.8-0.4-3.6,0.2-5.3c0.1-0.3,0.2-0.7,0.2-1c-0.4-1.6,0.2-3,1-4.4
		c2.4-4.7,5.3-9.1,8.8-13.1c1-1.1,1.3-2.4,1.4-3.6c0.2-2.4,1.8-3.8,3.7-4.7c1-0.5,2,0,2.7,0.8c1.4,1.5,3,1.5,4.9,1.2
		c2.3-0.3,4.6-1.3,7-0.5c1.3,0.4,2.9-0.2,4.2-0.8c1.1-0.5,2.3-0.8,3.6-0.6c1.3,0.3,2.4-0.3,3.6-0.6c3.3-0.7,6.7-1.1,9.9-2.1
		c0.3-0.1,0.6-0.2,0.7-0.4c1.8-2.5,4.3-1.1,6.5-1.3c0.5,0,0.8,0.4,1.1,0.7c1.2,1.3,2.4,2.5,3.5,3.8c1.9,2.3,1.6,7.2-0.6,9.3
		c-1.1,1.1-1.8,2.4-1.3,3.9c0.8,2.3,0.3,4.1-1.3,5.8c-0.5,0.5-0.7,1.3-0.2,2c0.5,0.7,1.1,0.9,1.9,0.7c0.6-0.1,1-0.6,1.3-1.1
		c0.9-1.5,2.1-2.7,3.4-3.8c2.1-1.8,3-4.4,4.6-6.6c1.8-2.5,3.5-5,5-7.7c1-1.8,1.8-3.7,2.7-5.6c1.3-2.9,3.1-3.6,5.8-2.1
		C403.7,49.6,405.4,52.5,405,56.6 M327.1,84.9c1.9-0.3,3.9-1.3,5.9-2.2c1-0.5,1.8-1.1,2.2-2.2c0.5-1.3,1.2-2.5,2.5-3.2
		c0.7-0.4,1-1.2,1.2-2.1c0.2-0.9-0.2-2,0.6-2.7c1.9-1.7,1.2-3.1-0.5-5.4c-1.2-1.6-3.5-1.9-5.1-0.8c-2,1.4-3.7,3.2-5.1,5.3
		c-1,1.5-0.8,3.5-2.5,4.6c-1.7,1.2-2.3,3.2-2.6,5.1C323.3,82.9,324.9,84.8,327.1,84.9"/>
	<path id="XMLID_18_" class="st0" d="M438.9,37.4c0.1,3-2.6,6.9-5.1,7.6c-1.2,0.3-2.4,0.6-3.5,1c-1.6,0.6-2.4-0.4-2.8-1.6
		c-1-3-2.3-5.8-4-8.4c-0.7-1.1-0.8-2.3-0.1-3.5c0.5-0.8,1.1-1.7,1.6-2.5c0.5-0.9,1.3-1.3,2.1-0.9c1.2,0.5,2.2,0.1,3.2-0.5
		c1.2-0.7,2-0.2,2.8,0.7c0.7,0.9,1.4,1.9,2,2.9c0.3,0.4,0.5,0.9,1,1.1C438.5,33.8,439.1,35.6,438.9,37.4"/>
	<g id="XMLID_27_">
		<path id="XMLID_17_" class="st0" d="M182.9,125.7c0.3,0,0.7,0.1,1,0.1c0.7,0.1,1.5,0.2,2.1,0c0,0,0.1,0,0.1,0.1l0.1,0
			c0.2,0,0.3,0.1,0.6,0.1c0.6,0,1.3-0.1,1.9-0.1c0.2,0,0.3-0.1,0.4-0.2c0.7-0.5,1-1.1,1-1.8c0-0.9-0.5-1.5-1.4-1.6
			c-0.1,0-0.3,0-0.4,0c-0.2,0-0.4,0-0.6-0.1c-0.7-0.2-1.4-0.3-2.1-0.3l-0.9,0c-0.1,0-0.3,0-0.4,0l-0.2,0c-0.4,0-0.8,0-1.2,0
			c-0.8,0-1.9,0-3,0.4c-1.4,0.5-2.1,1.3-2.1,2.4c0,0.6,0,1.3,0,1.9l0,0.2c0,0.7,0,1.3,0,2c0,1.1,0,2.3,0,3.4c0,2.4,0,4.9-0.1,8
			c0,0.6,0,1.3-0.2,1.8c-0.2,0.6-0.1,1.1,0.3,1.6c0.4,0.5,0.9,0.8,1.5,0.9c0.8,0.2,1.6,0.2,2.6,0.2c0.5,0,1,0,1.5,0l0.1,0
			c0.6,0,1.2,0,1.8,0c0.8,0,1.5,0,2.3-0.1c0.4,0,0.9-0.1,1.4-0.2c0.5-0.2,0.9-0.6,1-1.2c0.1-0.4,0-0.8-0.2-1.1
			c-0.6-0.6-1.2-0.9-1.9-1c-0.6-0.1-1.3-0.1-2.2-0.1c-0.5,0-0.9,0-1.4,0c-0.5,0-0.9,0-1.4,0l-1.3,0c-0.1-0.3-0.1-0.5,0-0.8
			c0-0.2,0-0.3,0.1-0.4c0-0.8,0.1-1.6,0.1-2.5c0-0.9,0.1-1.7,0.1-2.6c0-0.2,0-0.2,0.2-0.2l0.3,0c0.5,0,1,0,1.5,0.1
			c0.3,0,0.7,0.1,1,0.1c0.5,0.1,1,0.2,1.5,0.2c1.4,0.1,1.7-0.2,2.1-1.3l0-0.1l-0.8-1.7l-1-0.1c-0.6,0-1.3-0.1-2-0.1
			c-0.3,0-0.6,0-0.8,0l-1,0c-0.3,0-0.5,0-0.8,0c-0.3,0-0.3,0-0.3-0.4c0-0.7,0-1.4,0-2.1l0-0.4c0-0.8-0.1-1.5-0.1-2.3l0-0.6l0.9,0
			L182.9,125.7z"/>
		<path id="XMLID_46_" class="st0" d="M168.1,122.1l-0.2,0l-0.3,0.2c-0.1,0.1-0.3,0.2-0.4,0.3c-0.5,0.4-0.8,1-1,1.7
			c-0.2,0.8-0.5,1.6-0.8,2.4c-0.2,0.6-0.4,1.2-0.6,1.8c-0.2,0.5-0.3,1.1-0.4,1.6c-0.2,0.7-0.4,1.5-0.6,2.2c-0.5,1.4-1,2.7-1.5,4.1
			l-0.3,0.9c-0.1-0.3-0.2-0.6-0.2-0.9c-0.1-0.5-0.3-1.1-0.4-1.6c-0.2-0.8-0.4-1.6-0.6-2.4c-0.4-1.5-0.8-3-1.2-4.5
			c-0.3-0.9-0.5-1.8-0.9-2.6c-0.2-0.6-0.6-1.1-1.1-1.8c-0.6-0.8-1.8-0.8-2.4,0c-0.6,0.7-0.8,1.5-1,2.3c-0.1,0.3-0.2,0.5-0.2,0.8
			c-0.3,1-0.6,2-0.9,3c-0.2,0.7-0.4,1.5-0.6,2.2c-0.2,0.5-0.4,1-0.6,1.5c-0.2,0.5-0.4,1-0.5,1.4c-0.2,0.7-0.4,1.4-0.6,2.2
			c0,0.1,0,0.2-0.1,0.3c0-0.1,0-0.2-0.1-0.2c-0.2-0.6-0.4-1.2-0.6-1.9c-0.2-0.7-0.4-1.4-0.5-2.1c-0.2-0.8-0.4-1.7-0.6-2.5
			c-0.2-0.9-0.5-1.7-0.8-2.6l-0.3-1c-0.3-1.1-0.7-2.1-1-3.2c-0.2-0.7-0.6-1.1-1.2-1.2c-0.6-0.1-1.1-0.1-1.7-0.1
			c-0.5,0.1-0.8,0.4-0.9,1c-0.1,0.6,0,1.1,0.1,1.5c0.1,0.3,0.2,0.6,0.1,0.9l0,0.1l0.1,0.1c0.4,0.6,0.6,1.3,0.8,2l1.9,6.6
			c0.2,0.8,0.5,1.6,0.7,2.4l0.2,0.6c0.3,0.9,0.5,1.8,0.8,2.7c0.2,0.6,0.4,1.2,0.6,1.8c0.2,0.6,0.4,1.2,0.6,1.9
			c0.2,0.5,0.5,0.8,1,0.8h0.1c0.5,0,1,0,1.3-0.1c0.3-0.1,0.7-0.4,0.8-0.7c0.1-0.4,0.3-0.8,0.6-1.2c0.2-0.5,0.5-0.9,0.7-1.5
			c0.2-0.7,0.5-1.4,0.8-2.1c0.2-0.4,0.4-0.9,0.5-1.4c0.1-0.3,0.2-0.7,0.3-1c0.1-0.3,0.1-0.6,0.2-0.8c0.4-1.3,0.9-2.6,1.3-3.9
			c0-0.1,0-0.1,0.1-0.2l0.5,1.9c0.3,1,0.5,2,0.8,2.9c0.2,0.8,0.4,1.6,0.7,2.4c0.2,0.5,0.3,1,0.5,1.5c0.3,0.9,0.6,1.9,0.8,2.9
			c0.2,0.6,0.6,1,1.2,1.2c0.2,0,0.4,0.1,0.6,0.1c1.1,0,2.5-0.6,2.8-1.7c0.2-0.5,0.4-0.9,0.6-1.4l0.1-0.2c0.3-0.6,0.5-1.2,0.6-1.9
			c0.1-0.4,0.2-0.7,0.3-1.1c0.1-0.2,0.2-0.5,0.3-0.7c0.2-0.3,0.3-0.7,0.4-1.1c0.2-0.6,0.4-1.2,0.6-1.8c0.3-1,0.7-2,0.8-3
			c0,0,0-0.1,0.1-0.2c0-0.1,0.1-0.1,0.1-0.2l0.2-0.6c0.2-0.5,0.3-1,0.5-1.5c0.2-0.5,0.3-1.1,0.4-1.6c0.1-0.5,0.3-1.1,0.4-1.6
			c0.3-1.1,0.2-2.2-0.2-2.9C169.4,122.7,168.8,122.2,168.1,122.1z M150,144.3L150,144.3L150,144.3L150,144.3z"/>
		<path id="XMLID_14_" class="st0" d="M291.3,141.8c-0.1-0.1-0.2-0.2-0.3-0.3c-0.9-0.8-1.5-1.8-2.1-2.8l-0.1-0.2
			c-0.7-1.2-1.5-2.4-2.2-3.7l-0.9-1.5c0.3-0.7,0.7-1.3,1.2-1.9l0.2-0.3c0.5-0.7,1.1-1.4,1.5-2.2c0.4-0.7,0.8-1.5,1.2-2.2
			c0.3-0.6,0.6-1.1,0.9-1.6c0.3-0.5,0.3-1,0.3-1.5c-0.1-0.8-0.8-1.5-1.6-1.7c-0.8-0.1-1.5,0.2-1.9,0.9c-0.2,0.3-0.4,0.6-0.6,0.9
			c-0.5,0.9-1.1,1.8-1.7,2.6c-1.3,1.8-2.7,3.6-4,5.3l-1.4,1.8c0,0-0.1,0.1-0.1,0.1c0,0,0-0.1,0-0.1c0-0.9-0.1-1.8-0.1-2.7
			c0-1-0.1-1.9-0.1-2.9c0-0.2,0-0.4-0.1-0.6c0-0.2,0-0.3-0.1-0.5c0-0.3,0-0.5,0-0.8c0-0.5,0-0.9-0.1-1.4c-0.1-0.6-0.3-1.5-1.1-2.1
			c-0.6-0.4-1.4-0.6-1.8-0.2c-0.6,0.5-1.1,1.2-1.2,2.1c-0.1,1.2,0,2.5,0,3.9c0,0.8,0,1.5,0.1,2.3c0,0.9,0.1,1.7,0.1,2.6
			c0,1.4,0,2.8,0,4.2c0,1.7,0,3.4,0.1,5.1c0,0.6,0.1,1.3,0.5,1.7c0.8,0.7,1.7,0.9,2.6,0.8c0.3,0,0.6-0.3,0.7-0.5
			c0.1-0.4,0.3-0.9,0.3-1.4c0.1-1,0.1-2.1,0.1-3.1c0-1,0.3-1.5,1.3-1.8c0.3-0.1,0.6-0.3,0.8-0.5l0.1-0.1c0.2-0.2,0.5-0.4,0.7-0.6
			l0.1-0.1c0.1,0.2,0.3,0.5,0.4,0.7c0.4,0.7,0.8,1.3,1.2,2c0.8,1.5,1.8,3.1,3.2,4.4c0.7,0.6,1.4,1.3,2.5,1.3c0.2,0,0.4,0,0.6-0.1
			l0.1,0c0.7-0.1,1.2-0.2,1.3-1.1c0-0.3,0.1-1.3-0.6-1.9C291.5,142.1,291.4,141.9,291.3,141.8z"/>
		<path id="XMLID_42_" class="st0" d="M305.9,125.9c0.1,0,0.2,0,0.2,0c0.4,0,0.7-0.1,1-0.1c0.9,0,1.8,0.1,2.7,0.2
			c0.6,0,1.1,0.1,1.8,0.1c0.3,0,0.6,0,0.8-0.1c0.8-0.4,1.2-1.4,0.8-2.2c-0.2-0.4-0.4-0.7-0.7-1c-0.1-0.1-0.2-0.2-0.2-0.3
			c-0.2-0.2-0.4-0.3-0.7-0.3c-0.1,0-0.3,0-0.5,0.1c-0.1,0-0.2,0-0.3,0c-0.1,0-0.2,0-0.2,0l-1.4,0c-1.3,0-2.5-0.1-3.8-0.1
			c-0.2,0-0.4,0-0.7-0.1c-0.2,0-0.3,0-0.5-0.1c-0.9-0.1-1.6,0.1-2.2,0.7c-0.6,0.6-0.5,1.3-0.5,1.8c0,0.5,0.1,1,0.1,1.5
			c0,0.7,0.1,1.5,0.1,2.2c0,0.3,0,0.6,0,0.9c0,0.2,0,0.5,0,0.7c0,1.7,0,3.4,0,5l0,2.1c0,1.7,0,3.4,0.1,5c0,0.4,0.2,0.9,0.4,1.1
			c0.2,0.3,0.5,0.5,0.8,0.8c0.1,0.1,0.3,0.2,0.4,0.3c0.4,0.4,0.9,0.5,1.4,0.5l0.3,0c0.7,0,1.5,0.1,2.2,0.1c0.5,0,0.9,0,1.4,0
			c0.2,0,0.3,0,0.5,0c0.9,0,1.8-0.1,2.6-0.6l0.2,0c0.5,0,0.9-0.3,1.1-0.9c0.2-0.6,0.1-1.1-0.1-1.6l-0.1-0.2l-0.3-0.1
			c-0.1,0-0.3-0.1-0.4-0.1l-2.3-0.1c-1.2-0.1-2.4-0.1-3.6-0.2c-0.6,0-0.6,0-0.5-0.6c0-0.1,0-0.3,0-0.4c0-0.3,0.1-0.6,0-0.9
			c-0.1-0.6-0.1-1.2-0.1-1.9c0-0.2,0-0.5,0-0.7c0-0.3,0-0.5,0.1-0.8c0,0,0-0.1,0-0.1l0,0c0.2,0,0.3-0.1,0.5-0.1
			c0.4,0,0.8-0.1,1.3-0.1c0.8-0.1,1.7-0.1,2.5-0.3c1.2-0.2,2.4-0.6,2.2-2.4l0-0.3l-0.1-0.1c-0.7-0.6-0.9-0.6-1.9-0.6
			c-1,0-2.2,0-3.6,0l-0.7,0c-0.2,0-0.3,0-0.3,0c0,0,0-0.1,0-0.3c0-1.4,0-2.8,0-4.2L305.9,125.9z M312.2,143.7L312.2,143.7
			L312.2,143.7L312.2,143.7z"/>
		<path id="XMLID_11_" class="st0" d="M341.2,123.7c-0.1-1.2-1-2.1-2-2.1l-0.1,0c-0.8,0-1.5,0.9-1.7,2c-0.1,0.9-0.2,1.8-0.2,2.7
			c0,1.5,0,2.9,0,4.4l0,2.6c0,0.7,0,1.3,0,2c0,1.6-0.1,3.2-0.2,4.7l-0.1,1.7c0,0.1,0,0.3,0,0.4c0,0.3,0,0.6,0.2,0.8
			c0.4,0.7,0.9,1.5,2,1.6l0.1,0c0.4,0,0.8-0.2,1.1-0.5c0.4-0.4,0.6-0.9,0.6-1.5l0-0.8c0-0.7,0-1.4,0-2.1c0-0.7,0.1-1.5,0.1-2.2
			c0.1-1,0.1-2,0.1-3c0-2.4,0-4.8,0-7.1l0-1.6C341.3,124.9,341.3,124.3,341.2,123.7z"/>
		<path id="XMLID_10_" class="st0" d="M363.8,123C363.8,123,363.7,122.9,363.8,123c-0.1-0.2-0.1-0.3-0.1-0.3
			c-0.3-0.5-0.9-0.9-1.4-0.8c-0.8,0.1-1.5,0.1-2.4,0c-0.4-0.1-0.7-0.1-1-0.1l-0.2,0c-0.3,0-0.5,0-0.8,0c-0.3,0-0.5,0-0.8,0l-0.2,0
			c-1.4,0-2.7,0-4.1-0.1c-0.5,0-1,0-1.5-0.1l-0.9,0c-0.5,0-1.2,0.5-1.4,1c-0.2,0.5-0.1,1,0.4,1.4c0.1,0.1,0.2,0.2,0.3,0.3
			c0.1,0.1,0.2,0.2,0.3,0.3c0.5,0.5,1.1,0.8,1.8,0.8c0.6,0,1.2,0.1,1.9,0.2l0.1,0c0.4,0.1,0.4,0.1,0.4,0.5l0,1.2
			c-0.1,1.3-0.1,2.6-0.1,3.9c-0.1,2-0.1,3.9-0.2,5.9c0,0.8,0,1.6,0,2.4c0,1.2,0,2.1,0.1,3c0,0.3,0.1,0.6,0.4,0.9
			c0.3,0.3,0.7,0.6,1.2,0.9c0.3,0.2,0.6,0.3,1,0.3c0.9,0,1.6-0.6,1.7-1.4c0.1-0.6,0.1-1.1,0.1-1.7l0-0.2c0-0.2,0-0.4,0-0.6
			c0-0.2,0-0.3,0-0.5c0-0.5,0.1-1,0.1-1.5c0.1-0.9,0.1-1.9,0.1-2.9c-0.1-1,0-1.9,0-2.9c0.1-1.2,0.1-2.4,0-3.6c-0.1-0.4,0-0.9,0-1.3
			c0-0.5,0-1,0-1.5c0-0.2,0-0.5,0.1-0.7c0.1-0.1,0.4-0.2,0.8-0.1c0.4,0,0.8,0.1,1.2,0.1l0.8,0.1l0.5-0.1c0.5-0.1,1-0.1,1.5-0.2
			c0.8-0.1,1.1-0.7,1.2-1.1C364.4,123.8,364.3,123.3,363.8,123z"/>
		<path id="XMLID_9_" class="st0" d="M386.9,126.2C386.9,126.2,386.9,126.2,386.9,126.2c1.3,0,2.5,0.1,3.8,0.1c0.2,0,0.3,0,0.5,0.1
			c0.3,0.1,0.7,0.1,1,0.1c0.8-0.2,1.7-0.2,2.5-0.1c0.6,0.1,1.1-0.1,1.4-0.6c0.4-0.6,0.4-1.5,0-2.2c-0.4-0.7-1-1.2-1.7-1.3
			c-0.7-0.1-1.2-0.1-1.8-0.1c-0.2,0-0.4,0-0.5,0c-0.4,0-0.7,0-1.1,0c-0.5,0-1-0.1-1.3-0.2c-0.1,0-0.1,0-0.2,0l-0.1,0
			c-1.6-0.1-3.2,0-4.9,0.3c-0.2,0-0.4,0.1-0.5,0.2c-0.8,0.6-1.2,1.5-1.3,2.7c-0.1,0.7,0,1.5,0,2.2l0,0.6c0,1.5,0,3,0.1,4.5l0,3.2
			c0,0.3,0,0.7,0,1c-0.1,0.8-0.1,1.8,0.2,2.8c0.1,0.2,0.1,0.4,0,0.5c-0.1,0.6-0.1,1.2,0.1,1.9c0.1,0.2,0.1,0.4,0.2,0.6
			c0.3,1.2,0.5,1.9,2.1,2c0.3,0,0.9,0,1.2,0l0.2,0c0.6,0,1.2,0,1.8,0c0.9,0,1.8-0.1,2.7-0.1c1,0,1.8,0,2.5,0.1c0.3,0,0.5,0,0.7,0
			c0.7,0,1.2-0.2,1.6-0.7c0.3-0.7,0.2-2.1-0.5-2.5c-0.6-0.3-0.8-0.5-1.5-0.5c-0.3,0-1,0-1.3,0c-0.7,0-1.3,0-1.8,0
			c-0.6,0-1.1,0-1.8,0c-0.3,0-0.6,0-0.9,0c-0.4,0-0.8,0-1.1,0l-0.1-5.5c0.1,0,0.1,0,0.2,0c0.7,0,1.4,0,2.1,0.1l1.7,0.1
			c0.1,0,0.3,0,0.4,0c0.7,0,1.3,0,1.8-0.2c0.4-0.1,0.8-0.3,0.9-0.9c0.1-0.8-0.1-1.6-0.5-2.1c-0.4-0.5-1-0.8-1.7-0.8
			c-0.6,0-1.2,0-1.8-0.1c-0.4,0-0.7,0-1.1-0.1c-0.3,0-0.5,0-0.8,0c-0.3,0-0.6,0-0.9,0c-0.5,0-0.5-0.1-0.5-0.5c0-1.2,0.1-2.4,0.1-3.6
			L386.9,126.2z"/>
		<path id="XMLID_36_" class="st0" d="M419.9,142.7c-0.1-0.2-0.1-0.3-0.1-0.4c0.1-0.5,0-1-0.1-1.4c-0.1-0.2-0.1-0.4-0.1-0.5
			c-0.1-0.5-0.2-1-0.3-1.5l0-0.2c0-0.2-0.1-0.3-0.1-0.4l-0.5-1.4c-0.3-0.9-0.7-1.8-1-2.7c-0.3-0.7-0.5-1.5-0.7-2.2
			c-0.3-0.9-0.6-1.8-0.9-2.6c-0.2-0.6-0.5-1.3-0.7-1.9c-0.3-0.8-0.6-1.6-0.9-2.4c-0.5-1.4-1.2-2.4-2.4-2.9c-0.2-0.1-0.5-0.2-0.8-0.2
			c-0.6,0-1,0.5-1.2,0.9c-1,1.8-1.9,3.9-2.6,6.3c-0.1,0.3-0.2,0.6-0.3,1l-0.5,1.5c-0.3,0.9-0.5,1.8-0.8,2.7l-0.2,0.6
			c-0.3,0.9-0.6,1.9-1,2.8c-0.7,1.7-1.2,3.3-1.4,5c-0.2,1.1,0.3,1.9,1.3,2.3l0.2,0.1l0.1-0.1c0.9-0.5,1.3-1.4,1.8-2.2
			c0.4-0.8,0.8-1.7,1.1-2.6l0.3-0.7c0.2-0.5,0.3-0.5,0.5-0.5c0.1,0,0.2,0,0.3,0c0.4,0.1,0.7,0.1,1,0.1c0.6-0.1,1.3-0.1,1.9-0.2
			c0.8-0.1,1.5-0.2,2.3-0.3c0.4,0,0.7,0,1.1,0c0.1,0,0.2,0,0.4,0c0,0.1,0.1,0.2,0.1,0.4l0.4,1.6c0.3,1,0.5,2,0.8,3.1
			c0.3,0.9,0.8,1.4,1.7,1.4c0.6,0,1-0.1,1.2-0.4c0.3-0.3,0.3-0.8,0.2-1.4C420,143,420,142.8,419.9,142.7z M414.4,135
			c-0.1,0-0.2,0.1-0.2,0.1l-0.6,0c-0.7,0-1.4,0.1-2.1,0c-0.3,0-0.6,0-0.8,0c-0.4,0-0.7,0.1-1,0c0.2-1.1,1.6-5.3,2.3-7
			c0.8,1.9,1.4,3.9,2,5.8L414.4,135z"/>
		<path id="XMLID_6_" class="st0" d="M440.5,136.4c-0.4-1.4-1.1-2.4-2-3.2c-1.6-1.3-3.5-1.9-5.3-2.5l-0.1,0
			c-0.2-0.1-0.4-0.1-0.6-0.2c-0.7-0.2-1.4-0.4-2-0.8c-0.2-0.1-0.3-0.2-0.3-0.2c0-0.2,0-0.3,0-0.5c0-0.5,0-0.9,0.2-1.2
			c0.6-0.8,1.2-1.3,2-1.7c1-0.4,2-0.5,3.1-0.5l0.6,0c0.6,0,1.2,0.2,1.8,0.4c0.6,0.2,1.4,0,1.7-0.4c0.4-0.6,0.3-1.7-0.3-2.1
			c-0.5-0.4-1-0.8-1.5-1.2c-0.2-0.1-0.4-0.3-0.7-0.3c-0.3,0-0.6-0.1-0.8-0.1c-1-0.1-2.1-0.3-3.1-0.1c-0.1,0-0.3,0.1-0.4,0.1
			c-0.3,0.1-0.6,0.1-0.8,0.1c0,0,0,0,0,0l-0.1,0c-1.4,0-2.4,0.7-3.3,1.6c-0.1,0.1-0.2,0.2-0.3,0.3c-0.2,0.1-0.3,0.3-0.5,0.4
			c-0.5,0.6-1.1,1.2-1.2,2l-0.1,0.4c-0.1,0.8-0.3,1.7-0.2,2.6l0,0.3c0,0.5,0.1,1.1,0.2,1.6c0.5,1.6,1.5,2.5,3.1,2.9
			c0.4,0.1,0.9,0.3,1.3,0.5c0.2,0.1,0.4,0.2,0.7,0.3l0.3,0.1c0.3,0.1,0.6,0.2,0.9,0.3c1.1,0.3,2.2,0.8,3.2,1.4l0.3,0.1
			c0.3,0.1,0.5,0.5,0.6,0.9c0.1,0.3,0.1,0.7,0,0.9c-0.2,0.4-0.7,0.9-1.3,1.1c-0.3,0.1-0.6,0.1-0.8,0.2c-0.3,0.1-0.6,0.1-0.9,0.2
			c-1.1,0.3-1.9,0.3-2.7,0c-0.1-0.1-0.3-0.1-0.4-0.2c-0.3-0.1-0.5-0.2-0.8-0.3l-0.2-0.1c-0.4-0.1-0.9-0.3-1.3-0.3
			c-0.6,0-1.1,0.2-1.5,0.6c-0.4,0.4-0.5,1-0.4,1.6c0.2,1.3,1.2,1.8,2,2.2l0.4,0.2c0.4,0.2,0.8,0.3,1.2,0.5c1,0.5,1.8,0.7,2.6,0.7
			c0.2,0,0.5,0,0.7-0.1c1-0.2,2-0.4,2.8-0.6l0.2,0c0.5-0.1,1-0.2,1.5-0.5c0.7-0.3,1.2-0.9,1.7-1.3l0.2-0.2c0.6-0.6,1.4-1.5,1.4-2.8
			c0-0.3-0.1-0.6-0.1-0.9C440.7,137.8,440.7,137.1,440.5,136.4z"/>
		<path id="XMLID_32_" class="st0" d="M461.7,123.1c-0.3-1.2-0.9-1.6-1.4-1.6c-0.9-0.1-1.4,0.7-1.5,1c-0.7,1.2-1.4,2.5-2,3.8
			l-0.3,0.6c-0.2,0.5-0.5,0.9-0.7,1.4c-0.3,0.7-0.7,1.3-1,2c-0.1,0.3-0.3,0.5-0.5,0.8l-0.2-0.5c-0.1-0.3-0.2-0.5-0.3-0.8
			c-0.4-0.8-0.9-1.7-1.3-2.5l-0.9-1.7c-0.4-0.7-0.8-1.5-1.2-2.2c-0.1-0.3-0.4-0.4-0.6-0.6l-0.1-0.1c-0.2-0.2-0.4-0.3-0.7-0.5
			l-0.4-0.3l-0.2,0c-0.1,0-0.2,0-0.3,0c-0.8,0-1.2,0.5-1.2,1.3c0,0.3,0.1,0.6,0.1,0.9l0,0.1c0.2,0.6,0.4,1.2,0.7,1.8
			c0.6,1.4,1.3,2.8,2,4.4c0.1,0.2,0.3,0.5,0.4,0.7c0.2,0.3,0.3,0.6,0.5,0.9c0.3,0.6,0.5,1.3,0.7,1.9c0.1,0.3,0.2,0.6,0.3,0.9
			l0.2,0.5c0.1,0.3,0.2,0.6,0.3,1c0.1,0.3,0.2,0.7,0.2,1c0.1,1.8,0.1,3.6,0.1,5.4c0,0.8,0.4,1.4,0.8,1.9c0.2,0.2,0.5,0.3,0.7,0.3
			l0.1,0c0.9-0.1,1.4-0.7,1.6-1.6c0.2-1.2,0.3-2.5,0.4-3.6c0.1-0.8,0.1-1.5,0.1-2.2c0-0.3,0-0.7,0-1v-0.1c0-0.1,0-0.2,0-0.2
			c0.5-1,1-2,1.6-3c0.1-0.2,0.3-0.5,0.5-0.7c0.2-0.3,0.4-0.6,0.6-0.9c0.6-1.1,1.1-2.2,1.7-3.6c0.4-0.9,0.9-1.9,1.2-3
			C461.8,124.5,461.8,123.8,461.7,123.1z M453.8,144.7L453.8,144.7L453.8,144.7L453.8,144.7z"/>
		<path id="XMLID_29_" class="st0" d="M264.6,141.4l-0.4-1.4c-0.2-0.6-0.3-1.2-0.5-1.7c-0.2-0.6-0.4-1.1-0.6-1.7
			c-0.4-1.1-0.8-2.2-1-3.4c-0.3-1.4-0.9-2.8-1.4-4.1c-0.2-0.5-0.4-1.1-0.6-1.6c-0.1-0.3-0.2-0.5-0.4-0.8c-0.2-0.3-0.3-0.7-0.4-1
			c-0.2-0.7-0.5-1.4-0.9-2.1c-0.7-1-1.4-1.2-1.9-1.2c-0.5,0-1.1,0.2-1.5,0.6c-0.5,0.4-0.9,1.1-1.1,1.6c-0.2,0.5-0.4,1.1-0.5,1.6
			c-0.1,0.3-0.2,0.6-0.2,0.9c-0.2,0.7-0.4,1.4-0.6,2c-0.5,1.8-1.1,3.7-1.7,5.5c-0.3,1-0.6,2-0.9,3c-0.5,1.5-0.9,3.1-1.5,4.7
			c0,0.1-0.1,0.2-0.1,0.3c-0.1,0.6,0,1.2,0.3,1.6c0.4,0.5,1,0.7,1.7,0.6c0.1,0,0.3,0,0.4,0l0.5,0l0.1-0.2c0.1-0.2,0.2-0.4,0.3-0.6
			c0.2-0.4,0.5-0.9,0.7-1.3c0.4-1,0.7-2,1-3.1c0.2-0.6,0.3-0.7,0.7-0.7c0,0,0,0,0,0l0.2,0c0.1,0,0.2,0,0.4,0c0.2,0,0.3,0.1,0.5,0.1
			c0.3,0.1,0.6,0.1,0.9,0.1h0.1c0.9,0,1.7,0,2.6,0l1.1,0c0.4,0,0.5,0.2,0.6,0.3c0.1,0.3,0.3,0.7,0.4,1.2c0.1,0.4,0.2,0.7,0.3,1.1
			c0.1,0.7,0.3,1.4,0.5,2l0.1,0.2c0.2,0.7,0.4,1.2,1.3,1.2c0.2,0,0.3,0,0.6-0.1c0.1,0,0.1,0,0.2,0c0.1,0,0.2,0,0.3,0
			c0.4-0.1,0.7-0.3,0.9-0.7c0.3-0.4,0.3-0.9,0.2-1.4C264.9,142.3,264.8,141.8,264.6,141.4z M258.4,135.5l-0.4,0
			c-0.9,0-1.7-0.1-2.7-0.1c-0.2,0-0.5,0-0.7-0.1l0.2-0.5c0.2-0.6,0.3-1.2,0.5-1.7c0.3-0.9,0.5-1.8,0.8-2.8c0.2-0.6,0.3-1.3,0.5-1.9
			c0.7,1.5,2.1,5.3,2.5,7C258.9,135.4,258.7,135.5,258.4,135.5z"/>
		<path id="XMLID_1_" class="st0" d="M237.5,130.1c-0.1-0.7-0.1-1.4-0.1-2.1c0-0.4,0-0.9,0-1.3c-0.1-1.1-0.2-2.4-1-3.6
			c-0.4-0.6-1-0.9-1.8-0.7c-0.1,0-0.2,0-0.3,0.1c-0.1,0-0.3,0.1-0.5,0.1c-0.2,0-0.4,0.1-0.6,0.3L233,123c-0.4,0.5-0.7,1-1,1.6
			c-0.2,0.3-0.3,0.7-0.4,1c0,0.2-0.1,0.4-0.2,0.5c-0.2,0.6-0.4,1.2-0.6,1.8c-0.3,0.9-0.6,1.8-0.9,2.7c-0.4,1.2-0.8,2.5-1.2,3.7
			c-0.3,1.1-0.7,2.1-1,3.2c-0.1,0.4-0.3,0.7-0.4,1.1c0,0,0,0.1,0,0.1c0,0,0-0.1-0.1-0.1c-0.3-0.8-0.6-1.7-0.9-2.5
			c-0.5-1.2-0.9-2.4-1.4-3.7c-0.1-0.3-0.2-0.5-0.4-0.8c-0.1-0.2-0.2-0.4-0.3-0.6c-0.2-0.4-0.4-0.8-0.5-1.3c-0.2-0.4-0.4-0.9-0.6-1.3
			c-0.1-0.2-0.2-0.4-0.3-0.7c-0.2-0.3-0.4-0.7-0.5-1c-0.3-1.3-1.2-2.2-2-3.1c-0.1-0.1-0.3-0.3-0.4-0.5c-0.2-0.3-0.5-0.4-0.8-0.5
			c-0.7-0.3-1.5-0.1-1.9,0.5c-0.2,0.4-0.5,0.9-0.5,1.4c0,0.7,0,1.3,0,2c0,0.3,0,0.6,0,0.9l0,9c0,0.3,0,0.6,0,0.9c0,0.6,0,1.2,0,1.9
			c0,1.1,0.1,2.4,0.2,3.7l0,0.1c0.1,0.7,0.1,1.5,1,1.9c0.3,0.2,0.7,0.4,1,0.6l0.9,0.5l0.1-0.4c0.1-0.2,0.2-0.4,0.2-0.6
			c0.2-0.4,0.4-0.8,0.4-1.3c0.1-0.7,0.1-1.4,0.1-2.1l0-0.2c0-0.6,0-1.1-0.1-1.7c0-0.4,0-0.7,0-1.1l0-0.4c0-0.5,0-1.1,0-1.6
			c0-0.4,0.1-0.8,0.1-1.1c0-0.4,0.1-0.9,0.1-1.3c0-0.6,0-1.2,0-1.8c0-0.4,0-0.9,0-1.3c0,0,0,0,0-0.1c0.3,0.6,0.6,1.4,0.9,2.1
			c0.4,1,0.7,2.1,1.1,3.1c0.6,1.8,1.2,3.6,1.9,5.3c0.2,0.7,0.7,1.3,1.1,1.8c0.2,0.2,0.5,0.4,0.7,0.5c0.1,0,0.2,0.1,0.3,0.2
			c0.8,0.5,1.1,0.2,1.5-0.2l0.1-0.1c0.2-0.2,0.4-0.4,0.6-0.6c0.3-0.3,0.6-0.6,0.8-1.1c0-0.2,0.1-0.5,0.2-0.7c0-0.1,0.1-0.2,0.1-0.3
			c0.1-0.4,0.2-0.7,0.4-1.1c0.3-0.8,0.5-1.6,0.8-2.4l0.3-0.7c0.6-1.4,1.2-2.8,1.7-4.2c0.1,1.5,0.1,3,0,4.5c0,0.2,0,0.5,0,0.7
			c0.1,1.3,0.1,2.7-0.1,3.9c-0.1,0.3,0,0.7,0.1,0.9c0.2,0.5,0.6,0.9,0.9,1.2c0.2,0.2,0.4,0.3,0.6,0.5c0.2,0.3,0.6,0.3,0.8,0.2
			c0.1-0.1,0.2-0.1,0.3-0.2c0.4-0.2,0.7-0.5,0.9-0.8c0.2-0.4,0.2-0.8,0.2-1.2c0-0.1,0-0.2,0-0.3c0-0.2,0-0.4,0-0.6
			c0-0.3,0-0.5,0-0.7c0.2-0.8,0.2-1.5,0.1-2.1c0-0.2,0-0.3,0-0.5C237.7,135.3,237.7,132.7,237.5,130.1z"/>
	</g>
</g>
</svg>
