<svg class="logo-animato" version="1.1" xmlns="http://www.w3.org/2000/svg" xmlns:xlink="http://www.w3.org/1999/xlink" x="0px" y="0px" viewBox="0 0 286.3 236.7" style="enable-background:new 0 0 286.3 236.7;" xml:space="preserve">
<g id="_x31_-ldb">
	<path class="" fill="#FFFFFF" d="M100.1,70.1h25.7c1.6,0,1,1.5,0.5,2.8c-0.5,1.3-37.8,85.9-38.6,88.2c-0.9,2.3-1.4,7.3,1.5,7.3s4.5-2.6,5.6-3.6
		c1.1-1,3.7-4.3,3.7-4.3s-1.1-10.4,5.5-24.5c4.8-10.4,13.1-22.8,21.3-30.1c8.1-7.3,16.7-13.3,21.4-13.3c3.7,0,5.9,3.1,5.9,3.1
		s13.2-26.9,14.5-29.8c1.3-2.9-1.1-5.5-2.7-5.5h-4.4c0,0-0.2-1.2,0.6-1.2h23c1.8,0,0.8,1.4,0.4,2.2c-0.4,0.8-3.9,8.1-3.9,8.1h26.1
		c1.6,0,0.4,1.9,0.2,2.4c-0.2,0.5-10.6,23.8-10.7,24.1c-0.1,0.3,0.5,0.8,2-0.1c0.9-0.5,6.6-2.6,9.9,0.3c3.3,2.9,5.8,12.8,1.8,30.6
		c-4,17.7-13.2,32.4-25.4,40.7c-7.6,5.1-10.9,6-15.1,6c-3.1,0-5.4-2.6-6-4.1c-0.1-0.2-0.2-0.1-0.2-0.1l-1.7,3.6h-14.3
		c-0.8,0-0.1-1.6,0.3-2.3c0.4-0.8,40.6-89.8,41.6-92.2c1-2.4,0.4-6.3-3.2-7c-3.6-0.6-5.8-0.6-5.8-0.6S138,156.9,135,163.2
		c-3,6.4-3.8,16,3.1,16c4.3,0,11.7-5.9,11.7-5.9s2.3,0.1,0.9,1.1c-2.8,2.2-11.5,8.2-19.1,8.2c-8.3,0-10.5-6.5-10.5-10.2
		c0-3.8,1.4-10.2,1.4-10.2l-1.5,1.6c0,0-8.9,9.1-13.7,9.1c-4.8,0-6.7-2.9-7.6-4.9c-0.9-2.1-1.3-4.3-1.3-4.3s-7.7,8.8-13.5,8.8
		c-5.8,0-10.6-4.1-10.6-10c0-4,7-18.2,7.7-20c0.8-1.8,25.6-60.4,27.2-64c1.5-3.6-0.6-7-3.9-7h-5.6C99.7,71.6,99.4,70.1,100.1,70.1
		 M111.3,168.9c2.2,0,8.1-4.7,11.6-10.2c2.2-3.4,7.4-14.4,11.5-23.2s14.2-30.4,14.9-32c0.8-1.6,0.8-6.1-1.4-6.8
		c-2.9-1-5.3-0.1-8.7,4.6c-3.4,4.8-10.5,15.2-16.9,28.7c-6.5,13.5-12.8,32.9-12.8,35.4C109.5,168.1,109.8,168.9,111.3,168.9
		 M167,158.7c-1.3,2.8-4,11.2,0.8,11.2c6.7,0,19.9-25.9,25.5-37.7c5.6-11.8,9.3-25.5,9.5-28.1c0.2-2.6-0.8-5.8-2.8-6.1
		c-2.6-0.3-5.5,0.9-6.9,3.7C191.8,104.4,168.9,154.5,167,158.7"></path>
</g>
</svg>