<svg role="img" xmlns="http://www.w3.org/2000/svg" viewBox="0 0 458 102" >
  <title>Modo | we code design</title>
  <path fill="#F9F9F9" d="M0 0v102h102.7z"></path>
  <path fill="#fff"
    d="M222.7 51c0 28.2-23 51-51.4 51s-51.4-22.8-51.4-51 23-51 51.4-51 51.4 22.8 51.4 51M458 51c0 28.2-23 51-51.4 51s-51.4-22.8-51.4-51 23-51 51.4-51S458 22.8 458 51">
  </path>
  <path fill="#F0F1F1" d="M0 102h102.7L46.3 46 0 91.9z"></path>
  <path fill="#fff" d="M102.7 0v102H0z"></path>
  <path fill="#F9F9F9"
    d="M340.9 45.9c0-.2-.1-.4-.1-.6-2.5-22.8-20.2-41-42.8-44.6-2.7-.4-5.4-.7-8.2-.7-28.4 0-51.4 22.8-51.4 51s23 51 51.4 51c2.8 0 5.5-.3 8.2-.7 22.6-3.6 40.3-21.8 42.8-44.6 0-.2.1-.4.1-.6.2-1.7.3-3.4.3-5.1 0-1.7-.1-3.4-.3-5.1">
  </path>
  <path fill="#F0F1F1"
    d="M289.8 0c-28.4 0-51.4 22.8-51.4 51s23 51 51.4 51c2.8 0 5.5-.3 8.2-.7V.7c-2.7-.4-5.4-.7-8.2-.7"></path>
  <path fill="#fff" d="M238.5 0h51.4v102h-51.4z"></path>
</svg>